<?xml version="1.0" encoding="UTF-8" standalone="no"?>
<!DOCTYPE svg PUBLIC "-//W3C//DTD SVG 1.1//EN"
 "http://www.w3.org/Graphics/SVG/1.1/DTD/svg11.dtd">
<!-- Generated by graphviz version 2.43.0 (0)
 -->
<!-- Title: foo Pages: 1 -->
<svg width="427pt" height="372pt"
 viewBox="0.00 0.00 427.25 371.64" xmlns="http://www.w3.org/2000/svg" xmlns:xlink="http://www.w3.org/1999/xlink">
<g id="graph0" class="graph" transform="scale(1 1) rotate(0) translate(4 367.64)">
<title>foo</title>
<polygon fill="white" stroke="transparent" points="-4,4 -4,-367.64 423.25,-367.64 423.25,4 -4,4"/>
<!-- Supervisory -->
<g id="node1" class="node">
<title>Supervisory</title>
<path fill="none" stroke="black" d="M192.22,-338.76C192.22,-338.76 146.05,-348.44 146.05,-348.44 142.77,-349.13 136.2,-349.13 132.92,-348.44 132.92,-348.44 86.76,-338.76 86.76,-338.76 83.47,-338.07 80.2,-334.03 80.21,-330.67 80.21,-330.67 80.23,-323.97 80.23,-323.97 80.24,-320.61 83.6,-317.26 86.95,-317.26 86.95,-317.26 192.02,-317.26 192.02,-317.26 195.37,-317.26 198.74,-320.61 198.75,-323.97 198.75,-323.97 198.76,-330.67 198.76,-330.67 198.77,-334.03 195.5,-338.07 192.22,-338.76"/>
<text text-anchor="middle" x="139.49" y="-328.12" font-family="Times,serif" font-size="14.00">Supervisory</text>
</g>
<!-- Workstation -->
<g id="node2" class="node">
<title>Workstation</title>
<ellipse fill="none" stroke="red" stroke-dasharray="1,5" cx="353.49" cy="-331.82" rx="65.52" ry="31.64"/>
<text text-anchor="middle" x="353.49" y="-343.12" font-family="Times,serif" font-size="14.00" fill="red">Engineering/</text>
<text text-anchor="middle" x="353.49" y="-328.12" font-family="Times,serif" font-size="14.00" fill="red">Technician</text>
<text text-anchor="middle" x="353.49" y="-313.12" font-family="Times,serif" font-size="14.00" fill="red">Workstation</text>
</g>
<!-- Supervisory&#45;&gt;Workstation -->
<g id="edge8" class="edge">
<title>Supervisory&#45;&gt;Workstation</title>
<path fill="none" stroke="red" stroke-dasharray="1,5" d="M208.9,-331.82C235.15,-331.82 261.39,-331.82 287.64,-331.82"/>
<polygon fill="red" stroke="red" points="208.84,-328.32 198.84,-331.82 208.84,-335.32 208.84,-328.32"/>
</g>
<!-- Controller -->
<g id="node3" class="node">
<title>Controller</title>
<path fill="yellow" stroke="black" d="M129.59,-257.22C129.59,-257.22 96.83,-234.78 96.83,-234.78 91.88,-231.39 91.88,-224.61 96.83,-221.22 96.83,-221.22 129.59,-198.78 129.59,-198.78 134.54,-195.39 144.44,-195.39 149.39,-198.78 149.39,-198.78 182.14,-221.22 182.14,-221.22 187.09,-224.61 187.09,-231.39 182.14,-234.78 182.14,-234.78 149.39,-257.22 149.39,-257.22 144.44,-260.61 134.54,-260.61 129.59,-257.22"/>
<text text-anchor="middle" x="139.49" y="-224.3" font-family="Times,serif" font-size="14.00">Controller</text>
</g>
<!-- Supervisory&#45;&gt;Controller -->
<g id="edge1" class="edge">
<title>Supervisory:s&#45;&gt;Controller:n</title>
<path fill="none" stroke="black" d="M139.49,-305.73C139.49,-293.42 139.49,-286.37 139.49,-274.05"/>
<polygon fill="black" stroke="black" points="135.99,-305.82 139.49,-315.82 142.99,-305.82 135.99,-305.82"/>
<polygon fill="black" stroke="black" points="142.99,-274 139.49,-264 135.99,-274 142.99,-274"/>
</g>
<!-- Controller&#45;&gt;Workstation -->
<g id="edge9" class="edge">
<title>Controller&#45;&gt;Workstation</title>
<path fill="none" stroke="red" stroke-dasharray="1,5" d="M179.14,-247.87C215.5,-265.17 269.36,-290.79 307.58,-308.98"/>
<polygon fill="red" stroke="red" points="180.36,-244.57 169.83,-243.44 177.36,-250.89 180.36,-244.57"/>
</g>
<!-- Actuators -->
<g id="node4" class="node">
<title>Actuators</title>
<path fill="none" stroke="black" d="M73.49,-154C73.49,-154 25.49,-154 25.49,-154 19.49,-154 13.49,-148 13.49,-142 13.49,-142 13.49,-130 13.49,-130 13.49,-124 19.49,-118 25.49,-118 25.49,-118 73.49,-118 73.49,-118 79.49,-118 85.49,-124 85.49,-130 85.49,-130 85.49,-142 85.49,-142 85.49,-148 79.49,-154 73.49,-154"/>
<text text-anchor="middle" x="49.49" y="-132.3" font-family="Times,serif" font-size="14.00">Actuators</text>
</g>
<!-- Controller&#45;&gt;Actuators -->
<g id="edge4" class="edge">
<title>Controller&#45;&gt;Actuators:n</title>
<path fill="none" stroke="black" d="M105.2,-215.29C82.75,-205.48 56.52,-189.16 50.68,-165.03"/>
<polygon fill="black" stroke="black" points="54.14,-164.52 49.49,-155 47.19,-165.34 54.14,-164.52"/>
<text text-anchor="middle" x="75.2" y="-211.75" font-family="Times,serif" font-size="14.00">output</text>
</g>
<!-- cl -->
<g id="node5" class="node">
<title>cl</title>
<text text-anchor="middle" x="139.49" y="-141.6" font-family="Times,serif" font-size="18.00" fill="forestgreen">Control</text>
<text text-anchor="middle" x="139.49" y="-121.6" font-family="Times,serif" font-size="18.00" fill="forestgreen">Loop</text>
</g>
<!-- Controller&#45;&gt;cl -->
<!-- Actuators&#45;&gt;Workstation -->
<g id="edge10" class="edge">
<title>Actuators:nw&#45;&gt;Workstation</title>
<path fill="none" stroke="red" stroke-dasharray="1,5" d="M6.84,-162.86C-18.51,-199.47 35.38,-232.73 77.49,-264 86.28,-270.53 215.92,-300.21 294.36,-317.74"/>
<polygon fill="red" stroke="red" points="9.7,-164.9 13.49,-155 4.36,-160.38 9.7,-164.9"/>
</g>
<!-- Process -->
<g id="node7" class="node">
<title>Process</title>
<ellipse fill="none" stroke="black" cx="139.49" cy="-40" rx="36" ry="36"/>
<ellipse fill="none" stroke="black" cx="139.49" cy="-40" rx="40" ry="40"/>
<text text-anchor="middle" x="139.49" y="-36.3" font-family="Times,serif" font-size="14.00">Process</text>
</g>
<!-- Actuators&#45;&gt;Process -->
<g id="edge5" class="edge">
<title>Actuators:s&#45;&gt;Process</title>
<path fill="none" stroke="black" d="M49.49,-117C49.49,-91.3 71.18,-72.51 93.27,-60.05"/>
<polygon fill="black" stroke="black" points="95.15,-63.02 102.36,-55.26 91.88,-56.82 95.15,-63.02"/>
<text text-anchor="middle" x="72.6" y="-47.79" font-family="Times,serif" font-size="14.00">changes</text>
</g>
<!-- cl&#45;&gt;Workstation -->
<!-- cl&#45;&gt;Process -->
<!-- Sensors -->
<g id="node6" class="node">
<title>Sensors</title>
<path fill="none" stroke="black" d="M253.49,-154C253.49,-154 205.49,-154 205.49,-154 199.49,-154 193.49,-148 193.49,-142 193.49,-142 193.49,-130 193.49,-130 193.49,-124 199.49,-118 205.49,-118 205.49,-118 253.49,-118 253.49,-118 259.49,-118 265.49,-124 265.49,-130 265.49,-130 265.49,-142 265.49,-142 265.49,-148 259.49,-154 253.49,-154"/>
<text text-anchor="middle" x="229.49" y="-132.3" font-family="Times,serif" font-size="14.00">Sensors</text>
</g>
<!-- Sensors&#45;&gt;Workstation -->
<g id="edge12" class="edge">
<title>Sensors:ne&#45;&gt;Workstation</title>
<path fill="none" stroke="red" stroke-dasharray="1,5" d="M272.41,-162.29C309.97,-203.95 333.29,-264.15 344.8,-300.2"/>
<polygon fill="red" stroke="red" points="274.91,-159.85 265.49,-155 269.83,-164.66 274.91,-159.85"/>
</g>
<!-- Sensors&#45;&gt;Controller -->
<g id="edge7" class="edge">
<title>Sensors:n&#45;&gt;Controller</title>
<path fill="none" stroke="black" d="M229.49,-155C229.49,-181.23 205.88,-199.48 182.85,-211.04"/>
<polygon fill="black" stroke="black" points="181.34,-207.88 173.77,-215.29 184.31,-214.22 181.34,-207.88"/>
<text text-anchor="middle" x="203.77" y="-211.55" font-family="Times,serif" font-size="14.00">input</text>
</g>
<!-- Process&#45;&gt;Sensors -->
<g id="edge6" class="edge">
<title>Process&#45;&gt;Sensors:s</title>
<path fill="none" stroke="black" d="M176.61,-55.26C198.4,-65.99 222.73,-82.96 228.31,-106.77"/>
<polygon fill="black" stroke="black" points="224.86,-107.47 229.49,-117 231.82,-106.66 224.86,-107.47"/>
<text text-anchor="middle" x="208.33" y="-47.29" font-family="Times,serif" font-size="14.00">measures</text>
</g>
</g>
</svg>
