<?xml version="1.0" encoding="UTF-8" standalone="no"?>
<!DOCTYPE svg PUBLIC "-//W3C//DTD SVG 1.1//EN"
 "http://www.w3.org/Graphics/SVG/1.1/DTD/svg11.dtd">
<!-- Generated by graphviz version 2.43.0 (0)
 -->
<!-- Title: G Pages: 1 -->
<svg width="948pt" height="420pt"
 viewBox="0.00 0.00 948.00 420.00" xmlns="http://www.w3.org/2000/svg" xmlns:xlink="http://www.w3.org/1999/xlink">
<g id="graph0" class="graph" transform="scale(1 1) rotate(0) translate(4 416)">
<title>G</title>
<polygon fill="white" stroke="transparent" points="-4,4 -4,-416 944,-416 944,4 -4,4"/>
<g id="clust1" class="cluster">
<title>cluster0</title>
<path fill="LightGreen" stroke="LightGreen" d="M329,-265C329,-265 607,-265 607,-265 613,-265 619,-271 619,-277 619,-277 619,-392 619,-392 619,-398 613,-404 607,-404 607,-404 329,-404 329,-404 323,-404 317,-398 317,-392 317,-392 317,-277 317,-277 317,-271 323,-265 329,-265"/>
<text text-anchor="middle" x="468" y="-384" font-family="Times,serif" font-size="20.00">Production Assessments</text>
</g>
<g id="clust2" class="cluster">
<title>cluster1</title>
<path fill="Yellow" stroke="Yellow" d="M358.5,-8C358.5,-8 920,-8 920,-8 926,-8 932,-14 932,-20 932,-20 932,-245 932,-245 932,-251 926,-257 920,-257 920,-257 358.5,-257 358.5,-257 352.5,-257 346.5,-251 346.5,-245 346.5,-245 346.5,-20 346.5,-20 346.5,-14 352.5,-8 358.5,-8"/>
<text text-anchor="middle" x="639.25" y="-237" font-family="Times,serif" font-size="20.00">Lab Assessments (not safe for production systems)</text>
</g>
<!-- 1 -->
<g id="node1" class="node">
<title>1</title>
<path fill="lightgrey" stroke="black" d="M12,-154C12,-154 277,-154 277,-154 283,-154 289,-160 289,-166 289,-166 289,-178 289,-178 289,-184 283,-190 277,-190 277,-190 12,-190 12,-190 6,-190 0,-184 0,-178 0,-178 0,-166 0,-166 0,-160 6,-154 12,-154"/>
<text text-anchor="middle" x="144.5" y="-168.3" font-family="Times,serif" font-size="14.00">1 &#45; A&amp;E Control System Architectures</text>
</g>
<!-- 2 -->
<g id="node2" class="node">
<title>2</title>
<path fill="lightgrey" stroke="black" d="M347,-329C347,-329 589,-329 589,-329 595,-329 601,-335 601,-341 601,-341 601,-353 601,-353 601,-359 595,-365 589,-365 589,-365 347,-365 347,-365 341,-365 335,-359 335,-353 335,-353 335,-341 335,-341 335,-335 341,-329 347,-329"/>
<text text-anchor="middle" x="468" y="-343.3" font-family="Times,serif" font-size="14.00">2 &#45; A&amp;E Control Network Captures</text>
</g>
<!-- 1&#45;&gt;2 -->
<g id="edge1" class="edge">
<title>1&#45;&gt;2</title>
<path fill="none" stroke="black" d="M160.37,-190.02C187.75,-221.89 249.55,-287.83 317,-320 321.07,-321.94 325.27,-323.75 329.55,-325.42"/>
<polygon fill="black" stroke="black" points="328.47,-328.75 339.06,-328.88 330.86,-322.17 328.47,-328.75"/>
</g>
<!-- 3 -->
<g id="node3" class="node">
<title>3</title>
<path fill="lightgrey" stroke="black" d="M337,-274C337,-274 599,-274 599,-274 605,-274 611,-280 611,-286 611,-286 611,-298 611,-298 611,-304 605,-310 599,-310 599,-310 337,-310 337,-310 331,-310 325,-304 325,-298 325,-298 325,-286 325,-286 325,-280 331,-274 337,-274"/>
<text text-anchor="middle" x="468" y="-288.3" font-family="Times,serif" font-size="14.00">3 &#45; A&amp;E Production Control Networks</text>
</g>
<!-- 1&#45;&gt;3 -->
<g id="edge2" class="edge">
<title>1&#45;&gt;3</title>
<path fill="none" stroke="black" d="M174.43,-190.17C207.65,-210.28 264.37,-242.31 317,-261 327.96,-264.89 339.56,-268.36 351.25,-271.44"/>
<polygon fill="black" stroke="black" points="350.53,-274.86 361.09,-273.93 352.25,-268.08 350.53,-274.86"/>
</g>
<!-- 4 -->
<g id="node4" class="node">
<title>4</title>
<path fill="lightgrey" stroke="black" d="M384,-182C384,-182 552,-182 552,-182 558,-182 564,-188 564,-194 564,-194 564,-206 564,-206 564,-212 558,-218 552,-218 552,-218 384,-218 384,-218 378,-218 372,-212 372,-206 372,-206 372,-194 372,-194 372,-188 378,-182 384,-182"/>
<text text-anchor="middle" x="468" y="-196.3" font-family="Times,serif" font-size="14.00">4 &#45; A&amp;E Controller Logic</text>
</g>
<!-- 1&#45;&gt;4 -->
<g id="edge3" class="edge">
<title>1&#45;&gt;4</title>
<path fill="none" stroke="black" d="M289.32,-184.53C313.65,-186.64 338.49,-188.81 361.6,-190.82"/>
<polygon fill="black" stroke="black" points="361.47,-194.32 371.73,-191.7 362.07,-187.35 361.47,-194.32"/>
</g>
<!-- 5 -->
<g id="node5" class="node">
<title>5</title>
<path fill="lightgrey" stroke="black" d="M379.5,-127C379.5,-127 556.5,-127 556.5,-127 562.5,-127 568.5,-133 568.5,-139 568.5,-139 568.5,-151 568.5,-151 568.5,-157 562.5,-163 556.5,-163 556.5,-163 379.5,-163 379.5,-163 373.5,-163 367.5,-157 367.5,-151 367.5,-151 367.5,-139 367.5,-139 367.5,-133 373.5,-127 379.5,-127"/>
<text text-anchor="middle" x="468" y="-141.3" font-family="Times,serif" font-size="14.00">5 &#45; A&amp;E Control Protocols</text>
</g>
<!-- 1&#45;&gt;5 -->
<g id="edge4" class="edge">
<title>1&#45;&gt;5</title>
<path fill="none" stroke="black" d="M289.32,-159.92C311.98,-158.02 335.1,-156.08 356.84,-154.25"/>
<polygon fill="black" stroke="black" points="357.38,-157.72 367.05,-153.39 356.8,-150.74 357.38,-157.72"/>
</g>
<!-- 8 -->
<g id="node6" class="node">
<title>8</title>
<path fill="lightgrey" stroke="black" d="M371.5,-72C371.5,-72 564.5,-72 564.5,-72 570.5,-72 576.5,-78 576.5,-84 576.5,-84 576.5,-96 576.5,-96 576.5,-102 570.5,-108 564.5,-108 564.5,-108 371.5,-108 371.5,-108 365.5,-108 359.5,-102 359.5,-96 359.5,-96 359.5,-84 359.5,-84 359.5,-78 365.5,-72 371.5,-72"/>
<text text-anchor="middle" x="468" y="-86.3" font-family="Times,serif" font-size="14.00">8 &#45; A&amp;E Embedded Memory</text>
</g>
<!-- 1&#45;&gt;8 -->
<g id="edge5" class="edge">
<title>1&#45;&gt;8</title>
<path fill="none" stroke="black" d="M197.2,-153.93C231,-142.56 276.27,-128.18 317,-118 328.14,-115.22 339.82,-112.57 351.52,-110.1"/>
<polygon fill="black" stroke="black" points="352.26,-113.52 361.34,-108.07 350.84,-106.67 352.26,-113.52"/>
</g>
<!-- 9 -->
<g id="node7" class="node">
<title>9</title>
<path fill="lightgrey" stroke="black" d="M366.5,-17C366.5,-17 569.5,-17 569.5,-17 575.5,-17 581.5,-23 581.5,-29 581.5,-29 581.5,-41 581.5,-41 581.5,-47 575.5,-53 569.5,-53 569.5,-53 366.5,-53 366.5,-53 360.5,-53 354.5,-47 354.5,-41 354.5,-41 354.5,-29 354.5,-29 354.5,-23 360.5,-17 366.5,-17"/>
<text text-anchor="middle" x="468" y="-31.3" font-family="Times,serif" font-size="14.00">9 &#45; A&amp;E Embedded Firmware</text>
</g>
<!-- 1&#45;&gt;9 -->
<g id="edge6" class="edge">
<title>1&#45;&gt;9</title>
<path fill="none" stroke="black" d="M167.82,-153.81C199.16,-129.24 258.9,-85.89 317,-63 325.78,-59.54 335.02,-56.5 344.43,-53.83"/>
<polygon fill="black" stroke="black" points="345.53,-57.16 354.27,-51.18 343.71,-50.4 345.53,-57.16"/>
</g>
<!-- 6 -->
<g id="node8" class="node">
<title>6</title>
<path fill="lightgrey" stroke="black" d="M659,-99C659,-99 912,-99 912,-99 918,-99 924,-105 924,-111 924,-111 924,-123 924,-123 924,-129 918,-135 912,-135 912,-135 659,-135 659,-135 653,-135 647,-129 647,-123 647,-123 647,-111 647,-111 647,-105 653,-99 659,-99"/>
<text text-anchor="middle" x="785.5" y="-113.3" font-family="Times,serif" font-size="14.00">6 &#45; A&amp;E Proprietary Serial Protocols</text>
</g>
<!-- 5&#45;&gt;6 -->
<g id="edge7" class="edge">
<title>5&#45;&gt;6</title>
<path fill="none" stroke="black" d="M568.83,-136.14C590.45,-134.22 613.76,-132.15 636.78,-130.11"/>
<polygon fill="black" stroke="black" points="637.33,-133.58 646.98,-129.2 636.71,-126.6 637.33,-133.58"/>
</g>
<!-- 7 -->
<g id="node9" class="node">
<title>7</title>
<path fill="lightgrey" stroke="black" d="M670,-154C670,-154 901,-154 901,-154 907,-154 913,-160 913,-166 913,-166 913,-178 913,-178 913,-184 907,-190 901,-190 901,-190 670,-190 670,-190 664,-190 658,-184 658,-178 658,-178 658,-166 658,-166 658,-160 664,-154 670,-154"/>
<text text-anchor="middle" x="785.5" y="-168.3" font-family="Times,serif" font-size="14.00">7 &#45; A&amp;E Proprietary RF Protocols</text>
</g>
<!-- 5&#45;&gt;7 -->
<g id="edge8" class="edge">
<title>5&#45;&gt;7</title>
<path fill="none" stroke="black" d="M568.83,-153.54C593.88,-155.69 621.19,-158.02 647.71,-160.29"/>
<polygon fill="black" stroke="black" points="647.56,-163.79 657.82,-161.16 648.16,-156.82 647.56,-163.79"/>
</g>
</g>
</svg>
