<?xml version="1.0" encoding="UTF-8" standalone="no"?>
<!DOCTYPE svg PUBLIC "-//W3C//DTD SVG 1.1//EN"
 "http://www.w3.org/Graphics/SVG/1.1/DTD/svg11.dtd">
<!-- Generated by graphviz version 2.43.0 (0)
 -->
<!-- Title: G Pages: 1 -->
<svg width="456pt" height="428pt"
 viewBox="0.00 0.00 456.00 428.00" xmlns="http://www.w3.org/2000/svg" xmlns:xlink="http://www.w3.org/1999/xlink">
<g id="graph0" class="graph" transform="scale(1 1) rotate(0) translate(4 424)">
<title>G</title>
<polygon fill="white" stroke="transparent" points="-4,4 -4,-424 452,-424 452,4 -4,4"/>
<g id="clust1" class="cluster">
<title>cluster0</title>
<path fill="deepskyblue" stroke="deepskyblue" d="M20,-211C20,-211 428,-211 428,-211 434,-211 440,-217 440,-223 440,-223 440,-363 440,-363 440,-369 434,-375 428,-375 428,-375 20,-375 20,-375 14,-375 8,-369 8,-363 8,-363 8,-223 8,-223 8,-217 14,-211 20,-211"/>
<text text-anchor="middle" x="111" y="-359.8" font-family="Times,serif" font-size="14.00">Same as A&amp;E</text>
<text text-anchor="middle" x="111" y="-344.8" font-family="Times,serif" font-size="14.00">Control Network Captures</text>
</g>
<!-- capture -->
<g id="node1" class="node">
<title>capture</title>
<path fill="lightgrey" stroke="black" d="M173.5,-383.5C173.5,-383.5 274.5,-383.5 274.5,-383.5 280.5,-383.5 286.5,-389.5 286.5,-395.5 286.5,-395.5 286.5,-407.5 286.5,-407.5 286.5,-413.5 280.5,-419.5 274.5,-419.5 274.5,-419.5 173.5,-419.5 173.5,-419.5 167.5,-419.5 161.5,-413.5 161.5,-407.5 161.5,-407.5 161.5,-395.5 161.5,-395.5 161.5,-389.5 167.5,-383.5 173.5,-383.5"/>
<text text-anchor="middle" x="224" y="-397.8" font-family="Times,serif" font-size="14.00">Traffic Capture</text>
</g>
<!-- analyze -->
<g id="node2" class="node">
<title>analyze</title>
<path fill="lightgrey" stroke="black" d="M128.5,-292.5C128.5,-292.5 319.5,-292.5 319.5,-292.5 325.5,-292.5 331.5,-298.5 331.5,-304.5 331.5,-304.5 331.5,-316.5 331.5,-316.5 331.5,-322.5 325.5,-328.5 319.5,-328.5 319.5,-328.5 128.5,-328.5 128.5,-328.5 122.5,-328.5 116.5,-322.5 116.5,-316.5 116.5,-316.5 116.5,-304.5 116.5,-304.5 116.5,-298.5 122.5,-292.5 128.5,-292.5"/>
<text text-anchor="middle" x="224" y="-306.8" font-family="Times,serif" font-size="14.00">Endpoint and Flow Analysis</text>
</g>
<!-- capture&#45;&gt;analyze -->
<g id="edge1" class="edge">
<title>capture&#45;&gt;analyze</title>
<path fill="none" stroke="black" d="M224,-383.34C224,-370.78 224,-353.48 224,-339"/>
<polygon fill="black" stroke="black" points="227.5,-338.61 224,-328.61 220.5,-338.61 227.5,-338.61"/>
</g>
<!-- known -->
<g id="node3" class="node">
<title>known</title>
<path fill="lightgrey" stroke="black" d="M28.5,-219.5C28.5,-219.5 197.5,-219.5 197.5,-219.5 203.5,-219.5 209.5,-225.5 209.5,-231.5 209.5,-231.5 209.5,-243.5 209.5,-243.5 209.5,-249.5 203.5,-255.5 197.5,-255.5 197.5,-255.5 28.5,-255.5 28.5,-255.5 22.5,-255.5 16.5,-249.5 16.5,-243.5 16.5,-243.5 16.5,-231.5 16.5,-231.5 16.5,-225.5 22.5,-219.5 28.5,-219.5"/>
<text text-anchor="middle" x="113" y="-233.8" font-family="Times,serif" font-size="14.00">Known Protocol Analysis</text>
</g>
<!-- analyze&#45;&gt;known -->
<g id="edge2" class="edge">
<title>analyze:0&#45;&gt;known:n</title>
<path fill="none" stroke="black" d="M137.63,-292.38C126.33,-286.04 117.53,-277.48 114.32,-265.92"/>
<polygon fill="black" stroke="black" points="117.78,-265.45 113,-256 110.85,-266.37 117.78,-265.45"/>
</g>
<!-- unknown -->
<g id="node4" class="node">
<title>unknown</title>
<path fill="lightgrey" stroke="black" d="M239.5,-219.5C239.5,-219.5 420.5,-219.5 420.5,-219.5 426.5,-219.5 432.5,-225.5 432.5,-231.5 432.5,-231.5 432.5,-243.5 432.5,-243.5 432.5,-249.5 426.5,-255.5 420.5,-255.5 420.5,-255.5 239.5,-255.5 239.5,-255.5 233.5,-255.5 227.5,-249.5 227.5,-243.5 227.5,-243.5 227.5,-231.5 227.5,-231.5 227.5,-225.5 233.5,-219.5 239.5,-219.5"/>
<text text-anchor="middle" x="330" y="-233.8" font-family="Times,serif" font-size="14.00">Unknown Protocol Decode</text>
</g>
<!-- analyze&#45;&gt;unknown -->
<g id="edge3" class="edge">
<title>analyze:1&#45;&gt;unknown:n</title>
<path fill="none" stroke="black" d="M304.88,-292.41C316.33,-286.07 325.35,-277.5 328.65,-265.93"/>
<polygon fill="black" stroke="black" points="332.12,-266.38 330,-256 325.18,-265.44 332.12,-266.38"/>
</g>
<!-- enum -->
<g id="node5" class="node">
<title>enum</title>
<path fill="lightgrey" stroke="black" d="M146.5,-146.5C146.5,-146.5 295.5,-146.5 295.5,-146.5 301.5,-146.5 307.5,-152.5 307.5,-158.5 307.5,-158.5 307.5,-170.5 307.5,-170.5 307.5,-176.5 301.5,-182.5 295.5,-182.5 295.5,-182.5 146.5,-182.5 146.5,-182.5 140.5,-182.5 134.5,-176.5 134.5,-170.5 134.5,-170.5 134.5,-158.5 134.5,-158.5 134.5,-152.5 140.5,-146.5 146.5,-146.5"/>
<text text-anchor="middle" x="221" y="-160.8" font-family="Times,serif" font-size="14.00">Protocol Enumeration</text>
</g>
<!-- known&#45;&gt;enum -->
<g id="edge4" class="edge">
<title>known:s&#45;&gt;enum:0</title>
<path fill="none" stroke="black" d="M113,-218.5C113,-205.64 119.2,-195.85 128.62,-188.38"/>
<polygon fill="black" stroke="black" points="130.85,-191.1 137.24,-182.65 126.97,-185.28 130.85,-191.1"/>
</g>
<!-- unknown&#45;&gt;enum -->
<g id="edge5" class="edge">
<title>unknown:s&#45;&gt;enum:1</title>
<path fill="none" stroke="black" d="M330,-218.5C330,-205.63 323.82,-195.83 314.41,-188.36"/>
<polygon fill="black" stroke="black" points="316.07,-185.26 305.81,-182.62 312.19,-191.09 316.07,-185.26"/>
</g>
<!-- fuzz -->
<g id="node6" class="node">
<title>fuzz</title>
<path fill="lightgrey" stroke="black" d="M164.5,-73.5C164.5,-73.5 277.5,-73.5 277.5,-73.5 283.5,-73.5 289.5,-79.5 289.5,-85.5 289.5,-85.5 289.5,-97.5 289.5,-97.5 289.5,-103.5 283.5,-109.5 277.5,-109.5 277.5,-109.5 164.5,-109.5 164.5,-109.5 158.5,-109.5 152.5,-103.5 152.5,-97.5 152.5,-97.5 152.5,-85.5 152.5,-85.5 152.5,-79.5 158.5,-73.5 164.5,-73.5"/>
<text text-anchor="middle" x="221" y="-87.8" font-family="Times,serif" font-size="14.00">Protocol Fuzzing</text>
</g>
<!-- enum&#45;&gt;fuzz -->
<g id="edge6" class="edge">
<title>enum&#45;&gt;fuzz</title>
<path fill="none" stroke="black" d="M221,-146.31C221,-138.29 221,-128.55 221,-119.57"/>
<polygon fill="black" stroke="black" points="224.5,-119.53 221,-109.53 217.5,-119.53 224.5,-119.53"/>
</g>
<!-- exploit -->
<g id="node7" class="node">
<title>exploit</title>
<path fill="lightgrey" stroke="black" d="M149.5,-0.5C149.5,-0.5 292.5,-0.5 292.5,-0.5 298.5,-0.5 304.5,-6.5 304.5,-12.5 304.5,-12.5 304.5,-24.5 304.5,-24.5 304.5,-30.5 298.5,-36.5 292.5,-36.5 292.5,-36.5 149.5,-36.5 149.5,-36.5 143.5,-36.5 137.5,-30.5 137.5,-24.5 137.5,-24.5 137.5,-12.5 137.5,-12.5 137.5,-6.5 143.5,-0.5 149.5,-0.5"/>
<text text-anchor="middle" x="221" y="-14.8" font-family="Times,serif" font-size="14.00">Protocol Exploitation</text>
</g>
<!-- fuzz&#45;&gt;exploit -->
<g id="edge7" class="edge">
<title>fuzz&#45;&gt;exploit</title>
<path fill="none" stroke="black" d="M221,-73.31C221,-65.29 221,-55.55 221,-46.57"/>
<polygon fill="black" stroke="black" points="224.5,-46.53 221,-36.53 217.5,-46.53 224.5,-46.53"/>
</g>
</g>
</svg>
