<?xml version="1.0" encoding="UTF-8" standalone="no"?>
<!DOCTYPE svg PUBLIC "-//W3C//DTD SVG 1.1//EN"
 "http://www.w3.org/Graphics/SVG/1.1/DTD/svg11.dtd">
<!-- Generated by graphviz version 2.43.0 (0)
 -->
<!-- Title: G Pages: 1 -->
<svg width="952pt" height="406pt"
 viewBox="0.00 0.00 952.00 406.00" xmlns="http://www.w3.org/2000/svg" xmlns:xlink="http://www.w3.org/1999/xlink">
<g id="graph0" class="graph" transform="scale(1 1) rotate(0) translate(4 402)">
<title>G</title>
<polygon fill="white" stroke="transparent" points="-4,4 -4,-402 948,-402 948,4 -4,4"/>
<g id="clust1" class="cluster">
<title>cluster0</title>
<path fill="LightGreen" stroke="LightGreen" d="M329,-258C329,-258 611,-258 611,-258 617,-258 623,-264 623,-270 623,-270 623,-378 623,-378 623,-384 617,-390 611,-390 611,-390 329,-390 329,-390 323,-390 317,-384 317,-378 317,-378 317,-270 317,-270 317,-264 323,-258 329,-258"/>
<text text-anchor="middle" x="412.5" y="-374.8" font-family="Times,serif" font-size="14.00">Production Assessments</text>
</g>
<g id="clust2" class="cluster">
<title>cluster1</title>
<path fill="Yellow" stroke="Yellow" d="M360.5,-8C360.5,-8 924,-8 924,-8 930,-8 936,-14 936,-20 936,-20 936,-238 936,-238 936,-244 930,-250 924,-250 924,-250 360.5,-250 360.5,-250 354.5,-250 348.5,-244 348.5,-238 348.5,-238 348.5,-20 348.5,-20 348.5,-14 354.5,-8 360.5,-8"/>
<text text-anchor="middle" x="418.5" y="-234.8" font-family="Times,serif" font-size="14.00">Lab Assessments</text>
</g>
<!-- 1 -->
<g id="node1" class="node">
<title>1</title>
<path fill="lightgrey" stroke="black" d="M12,-154C12,-154 277,-154 277,-154 283,-154 289,-160 289,-166 289,-166 289,-178 289,-178 289,-184 283,-190 277,-190 277,-190 12,-190 12,-190 6,-190 0,-184 0,-178 0,-178 0,-166 0,-166 0,-160 6,-154 12,-154"/>
<text text-anchor="middle" x="144.5" y="-168.3" font-family="Times,serif" font-size="14.00">1 &#45; A&amp;E Control System Architectures</text>
</g>
<!-- 2 -->
<g id="node2" class="node">
<title>2</title>
<path fill="lightgrey" stroke="black" d="M337,-322C337,-322 603,-322 603,-322 609,-322 615,-328 615,-334 615,-334 615,-346 615,-346 615,-352 609,-358 603,-358 603,-358 337,-358 337,-358 331,-358 325,-352 325,-346 325,-346 325,-334 325,-334 325,-328 331,-322 337,-322"/>
<text text-anchor="middle" x="470" y="-336.3" font-family="Times,serif" font-size="14.00">2 &#45; A&amp;E Production Network Captures</text>
</g>
<!-- 1&#45;&gt;2 -->
<g id="edge1" class="edge">
<title>1&#45;&gt;2</title>
<path fill="none" stroke="black" d="M161.44,-190.14C189.55,-220.84 251.19,-282.66 317,-313 321.34,-315 325.8,-316.85 330.37,-318.56"/>
<polygon fill="black" stroke="black" points="329.25,-321.88 339.85,-321.9 331.57,-315.28 329.25,-321.88"/>
</g>
<!-- 3 -->
<g id="node3" class="node">
<title>3</title>
<path fill="lightgrey" stroke="black" d="M339,-267C339,-267 601,-267 601,-267 607,-267 613,-273 613,-279 613,-279 613,-291 613,-291 613,-297 607,-303 601,-303 601,-303 339,-303 339,-303 333,-303 327,-297 327,-291 327,-291 327,-279 327,-279 327,-273 333,-267 339,-267"/>
<text text-anchor="middle" x="470" y="-281.3" font-family="Times,serif" font-size="14.00">3 &#45; A&amp;E Production Control Networks</text>
</g>
<!-- 1&#45;&gt;3 -->
<g id="edge2" class="edge">
<title>1&#45;&gt;3</title>
<path fill="none" stroke="black" d="M177.07,-190C210.76,-208.5 266.15,-236.95 317,-254 328.69,-257.92 341.05,-261.43 353.48,-264.55"/>
<polygon fill="black" stroke="black" points="352.91,-268.01 363.45,-266.97 354.56,-261.21 352.91,-268.01"/>
</g>
<!-- 4 -->
<g id="node4" class="node">
<title>4</title>
<path fill="lightgrey" stroke="black" d="M386,-182C386,-182 554,-182 554,-182 560,-182 566,-188 566,-194 566,-194 566,-206 566,-206 566,-212 560,-218 554,-218 554,-218 386,-218 386,-218 380,-218 374,-212 374,-206 374,-206 374,-194 374,-194 374,-188 380,-182 386,-182"/>
<text text-anchor="middle" x="470" y="-196.3" font-family="Times,serif" font-size="14.00">4 &#45; A&amp;E Controller Logic</text>
</g>
<!-- 1&#45;&gt;4 -->
<g id="edge3" class="edge">
<title>1&#45;&gt;4</title>
<path fill="none" stroke="black" d="M289.28,-184.44C314.38,-186.62 340.06,-188.84 363.87,-190.9"/>
<polygon fill="black" stroke="black" points="363.69,-194.4 373.96,-191.77 364.3,-187.42 363.69,-194.4"/>
</g>
<!-- 5 -->
<g id="node5" class="node">
<title>5</title>
<path fill="lightgrey" stroke="black" d="M381.5,-127C381.5,-127 558.5,-127 558.5,-127 564.5,-127 570.5,-133 570.5,-139 570.5,-139 570.5,-151 570.5,-151 570.5,-157 564.5,-163 558.5,-163 558.5,-163 381.5,-163 381.5,-163 375.5,-163 369.5,-157 369.5,-151 369.5,-151 369.5,-139 369.5,-139 369.5,-133 375.5,-127 381.5,-127"/>
<text text-anchor="middle" x="470" y="-141.3" font-family="Times,serif" font-size="14.00">5 &#45; A&amp;E Control Protocols</text>
</g>
<!-- 1&#45;&gt;5 -->
<g id="edge4" class="edge">
<title>1&#45;&gt;5</title>
<path fill="none" stroke="black" d="M289.28,-160C312.69,-158.05 336.61,-156.05 359.05,-154.18"/>
<polygon fill="black" stroke="black" points="359.57,-157.65 369.24,-153.33 358.99,-150.67 359.57,-157.65"/>
</g>
<!-- 8 -->
<g id="node6" class="node">
<title>8</title>
<path fill="lightgrey" stroke="black" d="M373.5,-72C373.5,-72 566.5,-72 566.5,-72 572.5,-72 578.5,-78 578.5,-84 578.5,-84 578.5,-96 578.5,-96 578.5,-102 572.5,-108 566.5,-108 566.5,-108 373.5,-108 373.5,-108 367.5,-108 361.5,-102 361.5,-96 361.5,-96 361.5,-84 361.5,-84 361.5,-78 367.5,-72 373.5,-72"/>
<text text-anchor="middle" x="470" y="-86.3" font-family="Times,serif" font-size="14.00">8 &#45; A&amp;E Embedded Memory</text>
</g>
<!-- 1&#45;&gt;8 -->
<g id="edge5" class="edge">
<title>1&#45;&gt;8</title>
<path fill="none" stroke="black" d="M197.19,-153.9C230.98,-142.52 276.25,-128.13 317,-118 328.29,-115.19 340.12,-112.53 351.97,-110.05"/>
<polygon fill="black" stroke="black" points="352.84,-113.45 361.93,-108.01 351.43,-106.59 352.84,-113.45"/>
</g>
<!-- 9 -->
<g id="node7" class="node">
<title>9</title>
<path fill="lightgrey" stroke="black" d="M368.5,-17C368.5,-17 571.5,-17 571.5,-17 577.5,-17 583.5,-23 583.5,-29 583.5,-29 583.5,-41 583.5,-41 583.5,-47 577.5,-53 571.5,-53 571.5,-53 368.5,-53 368.5,-53 362.5,-53 356.5,-47 356.5,-41 356.5,-41 356.5,-29 356.5,-29 356.5,-23 362.5,-17 368.5,-17"/>
<text text-anchor="middle" x="470" y="-31.3" font-family="Times,serif" font-size="14.00">9 &#45; A&amp;E Embedded Firmware</text>
</g>
<!-- 1&#45;&gt;9 -->
<g id="edge6" class="edge">
<title>1&#45;&gt;9</title>
<path fill="none" stroke="black" d="M167.55,-153.99C198.81,-129.44 258.71,-85.89 317,-63 326.46,-59.28 336.46,-56.05 346.61,-53.25"/>
<polygon fill="black" stroke="black" points="347.6,-56.61 356.39,-50.69 345.83,-49.84 347.6,-56.61"/>
</g>
<!-- 6 -->
<g id="node8" class="node">
<title>6</title>
<path fill="lightgrey" stroke="black" d="M663,-99C663,-99 916,-99 916,-99 922,-99 928,-105 928,-111 928,-111 928,-123 928,-123 928,-129 922,-135 916,-135 916,-135 663,-135 663,-135 657,-135 651,-129 651,-123 651,-123 651,-111 651,-111 651,-105 657,-99 663,-99"/>
<text text-anchor="middle" x="789.5" y="-113.3" font-family="Times,serif" font-size="14.00">6 &#45; A&amp;E Proprietary Serial Protocols</text>
</g>
<!-- 5&#45;&gt;6 -->
<g id="edge7" class="edge">
<title>5&#45;&gt;6</title>
<path fill="none" stroke="black" d="M570.59,-136.22C592.87,-134.25 616.96,-132.13 640.72,-130.03"/>
<polygon fill="black" stroke="black" points="641.22,-133.5 650.88,-129.14 640.61,-126.53 641.22,-133.5"/>
</g>
<!-- 7 -->
<g id="node9" class="node">
<title>7</title>
<path fill="lightgrey" stroke="black" d="M674,-154C674,-154 905,-154 905,-154 911,-154 917,-160 917,-166 917,-166 917,-178 917,-178 917,-184 911,-190 905,-190 905,-190 674,-190 674,-190 668,-190 662,-184 662,-178 662,-178 662,-166 662,-166 662,-160 668,-154 674,-154"/>
<text text-anchor="middle" x="789.5" y="-168.3" font-family="Times,serif" font-size="14.00">7 &#45; A&amp;E Proprietary RF Protocols</text>
</g>
<!-- 5&#45;&gt;7 -->
<g id="edge8" class="edge">
<title>5&#45;&gt;7</title>
<path fill="none" stroke="black" d="M570.59,-153.47C596.34,-155.66 624.52,-158.06 651.81,-160.38"/>
<polygon fill="black" stroke="black" points="651.56,-163.87 661.82,-161.23 652.15,-156.89 651.56,-163.87"/>
</g>
</g>
</svg>
