<?xml version="1.0" encoding="UTF-8" standalone="no"?>
<!DOCTYPE svg PUBLIC "-//W3C//DTD SVG 1.1//EN"
 "http://www.w3.org/Graphics/SVG/1.1/DTD/svg11.dtd">
<!-- Generated by graphviz version 2.43.0 (0)
 -->
<!-- Title: structs Pages: 1 -->
<svg width="338pt" height="195pt"
 viewBox="0.00 0.00 338.00 195.00" xmlns="http://www.w3.org/2000/svg" xmlns:xlink="http://www.w3.org/1999/xlink">
<g id="graph0" class="graph" transform="scale(1 1) rotate(0) translate(4 191)">
<title>structs</title>
<polygon fill="white" stroke="transparent" points="-4,4 -4,-191 334,-191 334,4 -4,4"/>
<!-- write -->
<g id="node1" class="node">
<title>write</title>
<polygon fill="lightgrey" stroke="black" points="102,-150.5 102,-186.5 221,-186.5 221,-150.5 102,-150.5"/>
<text text-anchor="middle" x="116.5" y="-164.8" font-family="Times,serif" font-size="14.00">&gt;</text>
<polyline fill="none" stroke="black" points="131,-150.5 131,-186.5 "/>
<text text-anchor="middle" x="157.5" y="-164.8" font-family="Times,serif" font-size="14.00">0xA1</text>
<polyline fill="none" stroke="black" points="184,-150.5 184,-186.5 "/>
<text text-anchor="middle" x="202.5" y="-164.8" font-family="Times,serif" font-size="14.00">r:8</text>
</g>
<!-- command -->
<g id="node2" class="node">
<title>command</title>
<polygon fill="whitesmoke" stroke="black" points="0,-76.5 0,-112.5 193,-112.5 193,-76.5 0,-76.5"/>
<text text-anchor="middle" x="13" y="-90.8" font-family="Times,serif" font-size="14.00">1</text>
<polyline fill="none" stroke="black" points="26,-76.5 26,-112.5 "/>
<text text-anchor="middle" x="39" y="-90.8" font-family="Times,serif" font-size="14.00">0</text>
<polyline fill="none" stroke="black" points="52,-76.5 52,-112.5 "/>
<text text-anchor="middle" x="65" y="-90.8" font-family="Times,serif" font-size="14.00">1</text>
<polyline fill="none" stroke="black" points="78,-76.5 78,-112.5 "/>
<text text-anchor="middle" x="91" y="-90.8" font-family="Times,serif" font-size="14.00">0</text>
<polyline fill="none" stroke="black" points="104,-76.5 104,-112.5 "/>
<text text-anchor="middle" x="114.5" y="-90.8" font-family="Times,serif" font-size="14.00">&#45;</text>
<polyline fill="none" stroke="black" points="125,-76.5 125,-112.5 "/>
<text text-anchor="middle" x="135.5" y="-90.8" font-family="Times,serif" font-size="14.00">&#45;</text>
<polyline fill="none" stroke="black" points="146,-76.5 146,-112.5 "/>
<text text-anchor="middle" x="156.5" y="-90.8" font-family="Times,serif" font-size="14.00">&#45;</text>
<polyline fill="none" stroke="black" points="167,-76.5 167,-112.5 "/>
<text text-anchor="middle" x="180" y="-90.8" font-family="Times,serif" font-size="14.00">1</text>
</g>
<!-- write&#45;&gt;command -->
<g id="edge1" class="edge">
<title>write:0&#45;&gt;command:3</title>
<path fill="none" stroke="black" d="M157.5,-150C157.5,-120.33 106.2,-140.6 93.38,-123.41"/>
<polygon fill="black" stroke="black" points="96.65,-122.13 90.5,-113.5 89.93,-124.08 96.65,-122.13"/>
</g>
<!-- address -->
<g id="node5" class="node">
<title>address</title>
<polygon fill="none" stroke="black" points="211,-75.5 211,-113.5 330,-113.5 330,-75.5 211,-75.5"/>
<text text-anchor="middle" x="270.5" y="-98.3" font-family="Times,serif" font-size="14.00">Bytes to Read</text>
<text text-anchor="middle" x="270.5" y="-83.3" font-family="Times,serif" font-size="14.00">(1 byte per &#39;r&#39;)</text>
</g>
<!-- write&#45;&gt;address -->
<g id="edge7" class="edge">
<title>write:1&#45;&gt;address</title>
<path fill="none" stroke="black" d="M202.5,-150C202.5,-137.58 209.49,-127.53 218.98,-119.6"/>
<polygon fill="black" stroke="black" points="221.05,-122.42 227.05,-113.68 216.91,-116.77 221.05,-122.42"/>
</g>
<!-- chip -->
<g id="node3" class="node">
<title>chip</title>
<polygon fill="none" stroke="black" points="14.5,-0.5 14.5,-38.5 88.5,-38.5 88.5,-0.5 14.5,-0.5"/>
<text text-anchor="middle" x="51.5" y="-23.3" font-family="Times,serif" font-size="14.00">Chip</text>
<text text-anchor="middle" x="51.5" y="-8.3" font-family="Times,serif" font-size="14.00">Address</text>
</g>
<!-- command&#45;&gt;chip -->
<g id="edge2" class="edge">
<title>command:0&#45;&gt;chip:0</title>
<path fill="none" stroke="black" d="M12.5,-75.5C12.5,-65.01 17.16,-55.09 23.26,-46.58"/>
<polygon fill="black" stroke="black" points="26.16,-48.57 29.72,-38.59 20.71,-44.17 26.16,-48.57"/>
</g>
<!-- command&#45;&gt;chip -->
<g id="edge3" class="edge">
<title>command:1&#45;&gt;chip:1</title>
<path fill="none" stroke="black" d="M38.5,-75.5C38.5,-66.63 40.07,-57.17 42.11,-48.6"/>
<polygon fill="black" stroke="black" points="45.56,-49.25 44.77,-38.68 38.8,-47.44 45.56,-49.25"/>
</g>
<!-- command&#45;&gt;chip -->
<g id="edge4" class="edge">
<title>command:2&#45;&gt;chip:2</title>
<path fill="none" stroke="black" d="M64.5,-75.5C64.5,-66.63 62.93,-57.17 60.89,-48.6"/>
<polygon fill="black" stroke="black" points="64.2,-47.44 58.23,-38.68 57.44,-49.25 64.2,-47.44"/>
</g>
<!-- command&#45;&gt;chip -->
<g id="edge5" class="edge">
<title>command:3&#45;&gt;chip:3</title>
<path fill="none" stroke="black" d="M90.5,-75.5C90.5,-65.01 85.84,-55.09 79.74,-46.58"/>
<polygon fill="black" stroke="black" points="82.29,-44.17 73.28,-38.59 76.84,-48.57 82.29,-44.17"/>
</g>
<!-- rw -->
<g id="node4" class="node">
<title>rw</title>
<polygon fill="none" stroke="black" points="137.5,-0.5 137.5,-38.5 223.5,-38.5 223.5,-0.5 137.5,-0.5"/>
<text text-anchor="middle" x="180.5" y="-23.3" font-family="Times,serif" font-size="14.00">Write = 0</text>
<text text-anchor="middle" x="180.5" y="-8.3" font-family="Times,serif" font-size="14.00">Read = 1</text>
</g>
<!-- command&#45;&gt;rw -->
<g id="edge6" class="edge">
<title>command:7&#45;&gt;rw</title>
<path fill="none" stroke="black" d="M180.5,-75.5C180.5,-66.91 180.5,-57.56 180.5,-49.05"/>
<polygon fill="black" stroke="black" points="184,-48.83 180.5,-38.83 177,-48.83 184,-48.83"/>
</g>
</g>
</svg>
