<?xml version="1.0" encoding="UTF-8" standalone="no"?>
<!DOCTYPE svg PUBLIC "-//W3C//DTD SVG 1.1//EN"
 "http://www.w3.org/Graphics/SVG/1.1/DTD/svg11.dtd">
<!-- Generated by graphviz version 2.43.0 (0)
 -->
<!-- Title: structs Pages: 1 -->
<svg width="515pt" height="323pt"
 viewBox="0.00 0.00 514.50 323.00" xmlns="http://www.w3.org/2000/svg" xmlns:xlink="http://www.w3.org/1999/xlink">
<g id="graph0" class="graph" transform="scale(1 1) rotate(0) translate(4 319)">
<title>structs</title>
<polygon fill="white" stroke="transparent" points="-4,4 -4,-319 510.5,-319 510.5,4 -4,4"/>
<!-- write -->
<g id="node1" class="node">
<title>write</title>
<polygon fill="lightgrey" stroke="black" points="163.5,-278.5 163.5,-314.5 436.5,-314.5 436.5,-278.5 163.5,-278.5"/>
<text text-anchor="middle" x="178" y="-292.8" font-family="Times,serif" font-size="14.00">&gt;</text>
<polyline fill="none" stroke="black" points="192.5,-278.5 192.5,-314.5 "/>
<text text-anchor="middle" x="219" y="-292.8" font-family="Times,serif" font-size="14.00">0xA0</text>
<polyline fill="none" stroke="black" points="245.5,-278.5 245.5,-314.5 "/>
<text text-anchor="middle" x="271.5" y="-292.8" font-family="Times,serif" font-size="14.00">0x00</text>
<polyline fill="none" stroke="black" points="297.5,-278.5 297.5,-314.5 "/>
<text text-anchor="middle" x="325" y="-292.8" font-family="Times,serif" font-size="14.00">0xBE</text>
<polyline fill="none" stroke="black" points="352.5,-278.5 352.5,-314.5 "/>
<text text-anchor="middle" x="379.5" y="-292.8" font-family="Times,serif" font-size="14.00">0xEF</text>
<polyline fill="none" stroke="black" points="406.5,-278.5 406.5,-314.5 "/>
<text text-anchor="middle" x="421.5" y="-292.8" font-family="Times,serif" font-size="14.00">...</text>
</g>
<!-- command -->
<g id="node2" class="node">
<title>command</title>
<polygon fill="whitesmoke" stroke="black" points="6,-197 6,-233 214,-233 214,-197 6,-197"/>
<text text-anchor="middle" x="19" y="-211.3" font-family="Times,serif" font-size="14.00">1</text>
<polyline fill="none" stroke="black" points="32,-197 32,-233 "/>
<text text-anchor="middle" x="45" y="-211.3" font-family="Times,serif" font-size="14.00">0</text>
<polyline fill="none" stroke="black" points="58,-197 58,-233 "/>
<text text-anchor="middle" x="71" y="-211.3" font-family="Times,serif" font-size="14.00">1</text>
<polyline fill="none" stroke="black" points="84,-197 84,-233 "/>
<text text-anchor="middle" x="97" y="-211.3" font-family="Times,serif" font-size="14.00">0</text>
<polyline fill="none" stroke="black" points="110,-197 110,-233 "/>
<text text-anchor="middle" x="123" y="-211.3" font-family="Times,serif" font-size="14.00">0</text>
<polyline fill="none" stroke="black" points="136,-197 136,-233 "/>
<text text-anchor="middle" x="149" y="-211.3" font-family="Times,serif" font-size="14.00">0</text>
<polyline fill="none" stroke="black" points="162,-197 162,-233 "/>
<text text-anchor="middle" x="175" y="-211.3" font-family="Times,serif" font-size="14.00">0</text>
<polyline fill="none" stroke="black" points="188,-197 188,-233 "/>
<text text-anchor="middle" x="201" y="-211.3" font-family="Times,serif" font-size="14.00">0</text>
</g>
<!-- write&#45;&gt;command -->
<g id="edge1" class="edge">
<title>write:0&#45;&gt;command:4</title>
<path fill="none" stroke="black" d="M219,-278C219,-235.1 138.79,-273.08 125.01,-244.08"/>
<polygon fill="black" stroke="black" points="128.38,-243.12 123,-234 121.52,-244.49 128.38,-243.12"/>
</g>
<!-- address -->
<g id="node6" class="node">
<title>address</title>
<polygon fill="none" stroke="black" points="232.5,-196 232.5,-234 309.5,-234 309.5,-196 232.5,-196"/>
<text text-anchor="middle" x="271" y="-218.8" font-family="Times,serif" font-size="14.00">Memory</text>
<text text-anchor="middle" x="271" y="-203.8" font-family="Times,serif" font-size="14.00">Location</text>
</g>
<!-- write&#45;&gt;address -->
<g id="edge10" class="edge">
<title>write:1&#45;&gt;address</title>
<path fill="none" stroke="black" d="M271,-278C271,-267.06 271,-255.02 271,-244.5"/>
<polygon fill="black" stroke="black" points="274.5,-244.18 271,-234.18 267.5,-244.18 274.5,-244.18"/>
</g>
<!-- data -->
<g id="node7" class="node">
<title>data</title>
<polygon fill="none" stroke="black" points="327.5,-188.5 327.5,-241.5 506.5,-241.5 506.5,-188.5 327.5,-188.5"/>
<text text-anchor="middle" x="417" y="-226.3" font-family="Times,serif" font-size="14.00">Bytes to Write</text>
<text text-anchor="middle" x="417" y="-211.3" font-family="Times,serif" font-size="14.00">(max of write buffer)</text>
<text text-anchor="middle" x="417" y="-196.3" font-family="Times,serif" font-size="14.00">(none to move pointer)</text>
</g>
<!-- write&#45;&gt;data -->
<g id="edge11" class="edge">
<title>write:2&#45;&gt;data:0</title>
<path fill="none" stroke="black" d="M325,-278C325,-266.29 330.14,-256.6 337.98,-248.62"/>
<polygon fill="black" stroke="black" points="340.62,-250.97 345.88,-241.77 336.03,-245.68 340.62,-250.97"/>
</g>
<!-- write&#45;&gt;data -->
<g id="edge12" class="edge">
<title>write:3&#45;&gt;data:1</title>
<path fill="none" stroke="black" d="M380,-278C380,-268.3 383.3,-258.78 387.93,-250.19"/>
<polygon fill="black" stroke="black" points="390.94,-251.97 393.15,-241.61 384.96,-248.33 390.94,-251.97"/>
</g>
<!-- write&#45;&gt;data -->
<g id="edge13" class="edge">
<title>write:4&#45;&gt;data:2</title>
<path fill="none" stroke="black" d="M422,-278C422,-269.5 421.54,-260.37 420.9,-251.77"/>
<polygon fill="black" stroke="black" points="424.38,-251.3 420.05,-241.63 417.4,-251.89 424.38,-251.3"/>
</g>
<!-- chip -->
<g id="node3" class="node">
<title>chip</title>
<polygon fill="none" stroke="black" points="0,-57 0,-95 74,-95 74,-57 0,-57"/>
<text text-anchor="middle" x="37" y="-79.8" font-family="Times,serif" font-size="14.00">Chip</text>
<text text-anchor="middle" x="37" y="-64.8" font-family="Times,serif" font-size="14.00">Address</text>
</g>
<!-- command&#45;&gt;chip -->
<g id="edge2" class="edge">
<title>command:0&#45;&gt;chip:0</title>
<path fill="none" stroke="black" d="M19,-196C19,-164.8 25.02,-129.54 30.1,-105.36"/>
<polygon fill="black" stroke="black" points="33.56,-105.92 32.27,-95.4 26.72,-104.43 33.56,-105.92"/>
</g>
<!-- command&#45;&gt;chip -->
<g id="edge3" class="edge">
<title>command:1&#45;&gt;chip:1</title>
<path fill="none" stroke="black" d="M45,-196C45,-164.9 42.29,-129.36 40.03,-105.08"/>
<polygon fill="black" stroke="black" points="43.51,-104.71 39.06,-95.09 36.54,-105.38 43.51,-104.71"/>
</g>
<!-- command&#45;&gt;chip -->
<g id="edge4" class="edge">
<title>command:2&#45;&gt;chip:2</title>
<path fill="none" stroke="black" d="M71,-196C71,-163.79 59.52,-128.5 49.9,-104.58"/>
<polygon fill="black" stroke="black" points="53.01,-102.95 45.93,-95.07 46.55,-105.64 53.01,-102.95"/>
</g>
<!-- command&#45;&gt;chip -->
<g id="edge5" class="edge">
<title>command:3&#45;&gt;chip:3</title>
<path fill="none" stroke="black" d="M97,-196C97,-176.98 72.58,-133.39 54.9,-104.31"/>
<polygon fill="black" stroke="black" points="57.65,-102.12 49.43,-95.44 51.69,-105.79 57.65,-102.12"/>
</g>
<!-- memblock -->
<g id="node4" class="node">
<title>memblock</title>
<polygon fill="none" stroke="black" points="92.5,-0.5 92.5,-151.5 219.5,-151.5 219.5,-0.5 92.5,-0.5"/>
<text text-anchor="middle" x="156" y="-136.3" font-family="Times,serif" font-size="14.00">Memory Blocks</text>
<polyline fill="none" stroke="black" points="92.5,-128.5 219.5,-128.5 "/>
<text text-anchor="middle" x="156" y="-113.3" font-family="Times,serif" font-size="14.00">000 = Block 0</text>
<text text-anchor="middle" x="156" y="-98.3" font-family="Times,serif" font-size="14.00">001 = Block 1</text>
<text text-anchor="middle" x="156" y="-83.3" font-family="Times,serif" font-size="14.00">010 = Block 2</text>
<text text-anchor="middle" x="156" y="-68.3" font-family="Times,serif" font-size="14.00">011 = Block 3</text>
<text text-anchor="middle" x="156" y="-53.3" font-family="Times,serif" font-size="14.00">100 = Block 4</text>
<text text-anchor="middle" x="156" y="-38.3" font-family="Times,serif" font-size="14.00">101 = Block 5</text>
<text text-anchor="middle" x="156" y="-23.3" font-family="Times,serif" font-size="14.00">110 = Block 6</text>
<text text-anchor="middle" x="156" y="-8.3" font-family="Times,serif" font-size="14.00">111 = Block 7</text>
</g>
<!-- command&#45;&gt;memblock -->
<g id="edge6" class="edge">
<title>command:4&#45;&gt;memblock:0</title>
<path fill="none" stroke="black" d="M123,-196C123,-184.72 124.37,-173.05 126.56,-161.62"/>
<polygon fill="black" stroke="black" points="130.02,-162.16 128.67,-151.65 123.17,-160.7 130.02,-162.16"/>
</g>
<!-- command&#45;&gt;memblock -->
<g id="edge7" class="edge">
<title>command:5&#45;&gt;memblock:1</title>
<path fill="none" stroke="black" d="M149,-196C149,-184.94 149.3,-173.32 149.78,-161.85"/>
<polygon fill="black" stroke="black" points="153.27,-161.97 150.24,-151.82 146.28,-161.65 153.27,-161.97"/>
</g>
<!-- command&#45;&gt;memblock -->
<g id="edge8" class="edge">
<title>command:6&#45;&gt;memblock:2</title>
<path fill="none" stroke="black" d="M175,-196C175,-184.82 174.19,-173.14 172.9,-161.62"/>
<polygon fill="black" stroke="black" points="176.35,-161.06 171.65,-151.57 169.41,-161.93 176.35,-161.06"/>
</g>
<!-- rw -->
<g id="node5" class="node">
<title>rw</title>
<polygon fill="none" stroke="black" points="238,-57 238,-95 324,-95 324,-57 238,-57"/>
<text text-anchor="middle" x="281" y="-79.8" font-family="Times,serif" font-size="14.00">Write = 0</text>
<text text-anchor="middle" x="281" y="-64.8" font-family="Times,serif" font-size="14.00">Read = 1</text>
</g>
<!-- command&#45;&gt;rw -->
<g id="edge9" class="edge">
<title>command:7&#45;&gt;rw</title>
<path fill="none" stroke="black" d="M201,-196C201,-193.26 238.92,-137.89 262.55,-103.65"/>
<polygon fill="black" stroke="black" points="265.7,-105.25 268.5,-95.03 259.94,-101.27 265.7,-105.25"/>
</g>
</g>
</svg>
