<?xml version="1.0" encoding="UTF-8" standalone="no"?><svg xmlns="http://www.w3.org/2000/svg" xmlns:xlink="http://www.w3.org/1999/xlink" contentScriptType="application/ecmascript" contentStyleType="text/css" height="775px" preserveAspectRatio="none" style="width:937px;height:775px;" version="1.1" viewBox="0 0 937 775" width="937px" zoomAndPan="magnify"><defs><filter height="300%" id="f70i0jm48zjz6" width="300%" x="-1" y="-1"><feGaussianBlur result="blurOut" stdDeviation="2.0"/><feColorMatrix in="blurOut" result="blurOut2" type="matrix" values="0 0 0 0 0 0 0 0 0 0 0 0 0 0 0 0 0 0 .4 0"/><feOffset dx="4.0" dy="4.0" in="blurOut2" result="blurOut3"/><feBlend in="SourceGraphic" in2="blurOut3" mode="normal"/></filter></defs><g><rect fill="#D3D3D3" filter="url(#f70i0jm48zjz6)" height="756.8906" rx="12.5" ry="12.5" style="stroke:#000000;stroke-width:1.5;" width="918" x="7" y="7"/><rect fill="#FFFFFF" height="724.5938" rx="12.5" ry="12.5" style="stroke:#FFFFFF;stroke-width:1.0;" width="912" x="10" y="36.2969"/><line style="stroke:#000000;stroke-width:1.5;" x1="7" x2="925" y1="33.2969" y2="33.2969"/><text fill="#000000" font-family="sans-serif" font-size="14" lengthAdjust="spacing" textLength="164" x="384" y="24.9951">Physical Plant Perimeter</text><ellipse cx="460" cy="70.2969" fill="#000000" filter="url(#f70i0jm48zjz6)" rx="10" ry="10" style="stroke:none;stroke-width:1.0;"/><g id="Plant.iDMZ_Cloud"><rect fill="#D3D3D3" filter="url(#f70i0jm48zjz6)" height="50" rx="12.5" ry="12.5" style="stroke:#000000;stroke-width:1.5;" width="103" x="284.5" y="131.2969"/><line style="stroke:#000000;stroke-width:1.5;" x1="284.5" x2="387.5" y1="157.5938" y2="157.5938"/><text fill="#000000" font-family="sans-serif" font-size="14" lengthAdjust="spacing" textLength="83" x="294.5" y="149.292">iDMZ_Cloud</text></g><g id="Plant.iDMZ_Remote"><rect fill="#D3D3D3" filter="url(#f70i0jm48zjz6)" height="50" rx="12.5" ry="12.5" style="stroke:#000000;stroke-width:1.5;" width="118" x="406" y="131.2969"/><line style="stroke:#000000;stroke-width:1.5;" x1="406" x2="524" y1="157.5938" y2="157.5938"/><text fill="#000000" font-family="sans-serif" font-size="14" lengthAdjust="spacing" textLength="98" x="416" y="149.292">iDMZ_Remote</text></g><g id="Plant.iDMZ_4_to_3"><rect fill="#D3D3D3" filter="url(#f70i0jm48zjz6)" height="50" rx="12.5" ry="12.5" style="stroke:#000000;stroke-width:1.5;" width="109" x="669.5" y="131.2969"/><line style="stroke:#000000;stroke-width:1.5;" x1="669.5" x2="778.5" y1="157.5938" y2="157.5938"/><text fill="#000000" font-family="sans-serif" font-size="14" lengthAdjust="spacing" textLength="89" x="679.5" y="149.292">iDMZ_4_to_3</text></g><g id="Plant.iDMZ_3_to_4"><rect fill="#D3D3D3" filter="url(#f70i0jm48zjz6)" height="50" rx="12.5" ry="12.5" style="stroke:#000000;stroke-width:1.5;" width="109" x="542.5" y="131.2969"/><line style="stroke:#000000;stroke-width:1.5;" x1="542.5" x2="651.5" y1="157.5938" y2="157.5938"/><text fill="#000000" font-family="sans-serif" font-size="14" lengthAdjust="spacing" textLength="89" x="552.5" y="149.292">iDMZ_3_to_4</text></g><g id="Plant.L4"><rect fill="#D3D3D3" filter="url(#f70i0jm48zjz6)" height="50" rx="12.5" ry="12.5" style="stroke:#000000;stroke-width:1.5;" width="226" x="488" y="45.2969"/><line style="stroke:#000000;stroke-width:1.5;" x1="488" x2="714" y1="71.5938" y2="71.5938"/><text fill="#000000" font-family="sans-serif" font-size="14" lengthAdjust="spacing" textLength="206" x="498" y="63.292">L4: Plant Business Network(s)</text></g><rect fill="#FFFF00" filter="url(#f70i0jm48zjz6)" height="530.5938" rx="12.5" ry="12.5" style="stroke:#000000;stroke-width:1.5;" width="892" x="19" y="217.2969"/><rect fill="#FFFFFF" height="498.2969" rx="12.5" ry="12.5" style="stroke:#FFFFFF;stroke-width:1.0;" width="886" x="22" y="246.5938"/><line style="stroke:#000000;stroke-width:1.5;" x1="19" x2="911" y1="243.5938" y2="243.5938"/><text fill="#000000" font-family="sans-serif" font-size="14" lengthAdjust="spacing" textLength="157" x="386.5" y="235.292">Plant Control Networks</text><rect fill="#000000" filter="url(#f70i0jm48zjz6)" height="8" style="stroke:none;stroke-width:1.0;" width="80" x="423.5" y="441.5938"/><rect fill="#D3D3D3" filter="url(#f70i0jm48zjz6)" height="150.2969" rx="12.5" ry="12.5" style="stroke:#000000;stroke-width:1.5;" width="587.5" x="170" y="255.5938"/><rect fill="#FFFFFF" height="118" rx="12.5" ry="12.5" style="stroke:#FFFFFF;stroke-width:1.0;" width="581.5" x="173" y="284.8906"/><line style="stroke:#000000;stroke-width:1.5;" x1="170" x2="757.5" y1="281.8906" y2="281.8906"/><text fill="#000000" font-family="sans-serif" font-size="14" lengthAdjust="spacing" textLength="254" x="336.75" y="273.5889">L3: Plantwide Supervisory Network(s)</text><rect fill="#000000" filter="url(#f70i0jm48zjz6)" height="8" style="stroke:none;stroke-width:1.0;" width="80" x="400.5" y="293.8906"/><g id="Plant.Control.L3.Production"><rect fill="#D3D3D3" filter="url(#f70i0jm48zjz6)" height="50" rx="12.5" ry="12.5" style="stroke:#000000;stroke-width:1.5;" width="95" x="182" y="337.8906"/><line style="stroke:#000000;stroke-width:1.5;" x1="182" x2="277" y1="364.1875" y2="364.1875"/><text fill="#000000" font-family="sans-serif" font-size="14" lengthAdjust="spacing" textLength="75" x="192" y="355.8857">Production</text></g><g id="Plant.Control.L3.Testing"><rect fill="#D3D3D3" filter="url(#f70i0jm48zjz6)" height="50" rx="12.5" ry="12.5" style="stroke:#000000;stroke-width:1.5;" width="72" x="295.5" y="337.8906"/><line style="stroke:#000000;stroke-width:1.5;" x1="295.5" x2="367.5" y1="364.1875" y2="364.1875"/><text fill="#000000" font-family="sans-serif" font-size="14" lengthAdjust="spacing" textLength="52" x="305.5" y="355.8857">Testing</text></g><g id="Plant.Control.L3.Workstations"><rect fill="#D3D3D3" filter="url(#f70i0jm48zjz6)" height="50" rx="12.5" ry="12.5" style="stroke:#000000;stroke-width:1.5;" width="110" x="385.5" y="337.8906"/><line style="stroke:#000000;stroke-width:1.5;" x1="385.5" x2="495.5" y1="364.1875" y2="364.1875"/><text fill="#000000" font-family="sans-serif" font-size="14" lengthAdjust="spacing" textLength="90" x="395.5" y="355.8857">Workstations</text></g><g id="Plant.Control.L3.CyberSecurity"><rect fill="#D3D3D3" filter="url(#f70i0jm48zjz6)" height="50" rx="12.5" ry="12.5" style="stroke:#000000;stroke-width:1.5;" width="115" x="514" y="337.8906"/><line style="stroke:#000000;stroke-width:1.5;" x1="514" x2="629" y1="364.1875" y2="364.1875"/><text fill="#000000" font-family="sans-serif" font-size="14" lengthAdjust="spacing" textLength="95" x="524" y="355.8857">CyberSecurity</text></g><g id="Plant.Control.L3.JumpHosts"><rect fill="#D3D3D3" filter="url(#f70i0jm48zjz6)" height="50" rx="12.5" ry="12.5" style="stroke:#000000;stroke-width:1.5;" width="94" x="647.5" y="337.8906"/><line style="stroke:#000000;stroke-width:1.5;" x1="647.5" x2="741.5" y1="364.1875" y2="364.1875"/><text fill="#000000" font-family="sans-serif" font-size="14" lengthAdjust="spacing" textLength="74" x="657.5" y="355.8857">JumpHosts</text></g><!--MD5=[9b287f964328e9c3a6875e2496ba9f7f]
link switchL3 to Production--><path d="M425.42,301.9206 C397.59,307.6806 336.45,321.1606 286.5,337.8906 C285.07,338.3706 283.62,338.8706 282.17,339.3806 " fill="none" id="switchL3-to-Production" style="stroke:#A80036;stroke-width:1.0;"/><polygon fill="#A80036" points="277.19,341.1906,287.0158,341.8645,281.8873,339.4773,284.2745,334.3488,277.19,341.1906" style="stroke:#A80036;stroke-width:1.0;"/><!--MD5=[83f90925fa4ff50882f01ba05b71804a]
link switchL3 to Testing--><path d="M435.24,301.9306 C423.87,308.5006 396.09,324.5606 372.13,338.4006 " fill="none" id="switchL3-to-Testing" style="stroke:#A80036;stroke-width:1.0;"/><polygon fill="#A80036" points="367.71,340.9606,377.5041,339.9232,372.0397,338.46,373.503,332.9956,367.71,340.9606" style="stroke:#A80036;stroke-width:1.0;"/><!--MD5=[87b4544c41d13abc537b173c37b2ea5f]
link switchL3 to Workstations--><path d="M440.5,301.9306 C440.5,307.6106 440.5,320.3706 440.5,332.6606 " fill="none" id="switchL3-to-Workstations" style="stroke:#A80036;stroke-width:1.0;"/><polygon fill="#A80036" points="440.5,337.8806,444.5,328.8806,440.5,332.8806,436.5,328.8806,440.5,337.8806" style="stroke:#A80036;stroke-width:1.0;"/><!--MD5=[00c12ff8f96b55b3cfcc4023a891857f]
link switchL3 to CyberSecurity--><path d="M446.82,301.9306 C459.57,308.0606 489.52,322.4606 516.86,335.6106 " fill="none" id="switchL3-to-CyberSecurity" style="stroke:#A80036;stroke-width:1.0;"/><polygon fill="#A80036" points="521.58,337.8806,515.2127,330.3668,517.0769,335.7077,511.736,337.5718,521.58,337.8806" style="stroke:#A80036;stroke-width:1.0;"/><!--MD5=[c6b2e06242b27dcb918d8a7dce7fd108]
link switchL3 to JumpHosts--><path d="M464.06,301.8906 C501.57,307.0406 576.91,318.8606 638.5,337.8906 C639.87,338.3106 641.26,338.7606 642.65,339.2306 " fill="none" id="switchL3-to-JumpHosts" style="stroke:#A80036;stroke-width:1.0;"/><polygon fill="#A80036" points="647.41,340.8806,640.2276,334.1417,642.6885,339.2352,637.595,341.6962,647.41,340.8806" style="stroke:#A80036;stroke-width:1.0;"/><rect fill="#D3D3D3" filter="url(#f70i0jm48zjz6)" height="246.2969" rx="12.5" ry="12.5" style="stroke:#000000;stroke-width:1.5;" width="203" x="31" y="485.5938"/><rect fill="#FFFFFF" height="214" rx="12.5" ry="12.5" style="stroke:#FFFFFF;stroke-width:1.0;" width="197" x="34" y="514.8906"/><line style="stroke:#000000;stroke-width:1.5;" x1="31" x2="234" y1="511.8906" y2="511.8906"/><text fill="#000000" font-family="sans-serif" font-size="14" lengthAdjust="spacing" textLength="69" x="98" y="503.5889">Process 1</text><g id="Plant.Control.P1.P1L2"><rect fill="#D3D3D3" filter="url(#f70i0jm48zjz6)" height="50" rx="12.5" ry="12.5" style="stroke:#000000;stroke-width:1.5;" width="164" x="43" y="523.8906"/><line style="stroke:#000000;stroke-width:1.5;" x1="43" x2="207" y1="550.1875" y2="550.1875"/><text fill="#000000" font-family="sans-serif" font-size="14" lengthAdjust="spacing" textLength="144" x="53" y="541.8857">L2: Local Supervisory</text></g><line style="stroke:#000000;stroke-width:1.5;stroke-dasharray:8.0,10.0;" x1="36" x2="227" y1="586.8906" y2="586.8906"/><g id="Plant.Control.P1.CONC48.P1L1"><rect fill="#D3D3D3" filter="url(#f70i0jm48zjz6)" height="50" rx="12.5" ry="12.5" style="stroke:#000000;stroke-width:1.5;" width="159" x="43" y="593.8906"/><line style="stroke:#000000;stroke-width:1.5;" x1="43" x2="202" y1="620.1875" y2="620.1875"/><text fill="#000000" font-family="sans-serif" font-size="14" lengthAdjust="spacing" textLength="139" x="53" y="611.8857">L1: Local Controllers</text></g><line style="stroke:#000000;stroke-width:1.5;stroke-dasharray:8.0,10.0;" x1="36" x2="227" y1="656.8906" y2="656.8906"/><g id="Plant.Control.P1.CONC51.P1L0"><rect fill="#D3D3D3" filter="url(#f70i0jm48zjz6)" height="50" rx="12.5" ry="12.5" style="stroke:#000000;stroke-width:1.5;" width="175" x="43" y="663.8906"/><line style="stroke:#000000;stroke-width:1.5;" x1="43" x2="218" y1="690.1875" y2="690.1875"/><text fill="#000000" font-family="sans-serif" font-size="14" lengthAdjust="spacing" textLength="155" x="53" y="681.8857">L0: Local Field Devices</text></g><rect fill="#D3D3D3" filter="url(#f70i0jm48zjz6)" height="246.2969" rx="12.5" ry="12.5" style="stroke:#000000;stroke-width:1.5;" width="203" x="252" y="485.5938"/><rect fill="#FFFFFF" height="214" rx="12.5" ry="12.5" style="stroke:#FFFFFF;stroke-width:1.0;" width="197" x="255" y="514.8906"/><line style="stroke:#000000;stroke-width:1.5;" x1="252" x2="455" y1="511.8906" y2="511.8906"/><text fill="#000000" font-family="sans-serif" font-size="14" lengthAdjust="spacing" textLength="69" x="319" y="503.5889">Process 2</text><g id="Plant.Control.P2.P2L2"><rect fill="#D3D3D3" filter="url(#f70i0jm48zjz6)" height="50" rx="12.5" ry="12.5" style="stroke:#000000;stroke-width:1.5;" width="164" x="264" y="523.8906"/><line style="stroke:#000000;stroke-width:1.5;" x1="264" x2="428" y1="550.1875" y2="550.1875"/><text fill="#000000" font-family="sans-serif" font-size="14" lengthAdjust="spacing" textLength="144" x="274" y="541.8857">L2: Local Supervisory</text></g><line style="stroke:#000000;stroke-width:1.5;stroke-dasharray:8.0,10.0;" x1="257" x2="448" y1="586.8906" y2="586.8906"/><g id="Plant.Control.P2.CONC57.P2L1"><rect fill="#D3D3D3" filter="url(#f70i0jm48zjz6)" height="50" rx="12.5" ry="12.5" style="stroke:#000000;stroke-width:1.5;" width="159" x="264" y="593.8906"/><line style="stroke:#000000;stroke-width:1.5;" x1="264" x2="423" y1="620.1875" y2="620.1875"/><text fill="#000000" font-family="sans-serif" font-size="14" lengthAdjust="spacing" textLength="139" x="274" y="611.8857">L1: Local Controllers</text></g><line style="stroke:#000000;stroke-width:1.5;stroke-dasharray:8.0,10.0;" x1="257" x2="448" y1="656.8906" y2="656.8906"/><g id="Plant.Control.P2.CONC60.P2L0"><rect fill="#D3D3D3" filter="url(#f70i0jm48zjz6)" height="50" rx="12.5" ry="12.5" style="stroke:#000000;stroke-width:1.5;" width="175" x="264" y="663.8906"/><line style="stroke:#000000;stroke-width:1.5;" x1="264" x2="439" y1="690.1875" y2="690.1875"/><text fill="#000000" font-family="sans-serif" font-size="14" lengthAdjust="spacing" textLength="155" x="274" y="681.8857">L0: Local Field Devices</text></g><rect fill="#D3D3D3" filter="url(#f70i0jm48zjz6)" height="246.2969" rx="12.5" ry="12.5" style="stroke:#000000;stroke-width:1.5;" width="203" x="473" y="485.5938"/><rect fill="#FFFFFF" height="214" rx="12.5" ry="12.5" style="stroke:#FFFFFF;stroke-width:1.0;" width="197" x="476" y="514.8906"/><line style="stroke:#000000;stroke-width:1.5;" x1="473" x2="676" y1="511.8906" y2="511.8906"/><text fill="#000000" font-family="sans-serif" font-size="14" lengthAdjust="spacing" textLength="69" x="540" y="503.5889">Process 3</text><g id="Plant.Control.P3.P3L2"><rect fill="#D3D3D3" filter="url(#f70i0jm48zjz6)" height="50" rx="12.5" ry="12.5" style="stroke:#000000;stroke-width:1.5;" width="164" x="485" y="523.8906"/><line style="stroke:#000000;stroke-width:1.5;" x1="485" x2="649" y1="550.1875" y2="550.1875"/><text fill="#000000" font-family="sans-serif" font-size="14" lengthAdjust="spacing" textLength="144" x="495" y="541.8857">L2: Local Supervisory</text></g><line style="stroke:#000000;stroke-width:1.5;stroke-dasharray:8.0,10.0;" x1="478" x2="669" y1="586.8906" y2="586.8906"/><g id="Plant.Control.P3.CONC66.P3L1"><rect fill="#D3D3D3" filter="url(#f70i0jm48zjz6)" height="50" rx="12.5" ry="12.5" style="stroke:#000000;stroke-width:1.5;" width="159" x="485" y="593.8906"/><line style="stroke:#000000;stroke-width:1.5;" x1="485" x2="644" y1="620.1875" y2="620.1875"/><text fill="#000000" font-family="sans-serif" font-size="14" lengthAdjust="spacing" textLength="139" x="495" y="611.8857">L1: Local Controllers</text></g><line style="stroke:#000000;stroke-width:1.5;stroke-dasharray:8.0,10.0;" x1="478" x2="669" y1="656.8906" y2="656.8906"/><g id="Plant.Control.P3.CONC69.P3L0"><rect fill="#D3D3D3" filter="url(#f70i0jm48zjz6)" height="50" rx="12.5" ry="12.5" style="stroke:#000000;stroke-width:1.5;" width="175" x="485" y="663.8906"/><line style="stroke:#000000;stroke-width:1.5;" x1="485" x2="660" y1="690.1875" y2="690.1875"/><text fill="#000000" font-family="sans-serif" font-size="14" lengthAdjust="spacing" textLength="155" x="495" y="681.8857">L0: Local Field Devices</text></g><rect fill="#D3D3D3" filter="url(#f70i0jm48zjz6)" height="246.2969" rx="12.5" ry="12.5" style="stroke:#000000;stroke-width:1.5;" width="203" x="694" y="485.5938"/><rect fill="#FFFFFF" height="214" rx="12.5" ry="12.5" style="stroke:#FFFFFF;stroke-width:1.0;" width="197" x="697" y="514.8906"/><line style="stroke:#000000;stroke-width:1.5;" x1="694" x2="897" y1="511.8906" y2="511.8906"/><text fill="#000000" font-family="sans-serif" font-size="14" lengthAdjust="spacing" textLength="69" x="761" y="503.5889">Process 4</text><g id="Plant.Control.P4.P4L2"><rect fill="#D3D3D3" filter="url(#f70i0jm48zjz6)" height="50" rx="12.5" ry="12.5" style="stroke:#000000;stroke-width:1.5;" width="164" x="706" y="523.8906"/><line style="stroke:#000000;stroke-width:1.5;" x1="706" x2="870" y1="550.1875" y2="550.1875"/><text fill="#000000" font-family="sans-serif" font-size="14" lengthAdjust="spacing" textLength="144" x="716" y="541.8857">L2: Local Supervisory</text></g><line style="stroke:#000000;stroke-width:1.5;stroke-dasharray:8.0,10.0;" x1="699" x2="890" y1="586.8906" y2="586.8906"/><g id="Plant.Control.P4.CONC75.P4L1"><rect fill="#D3D3D3" filter="url(#f70i0jm48zjz6)" height="50" rx="12.5" ry="12.5" style="stroke:#000000;stroke-width:1.5;" width="159" x="706" y="593.8906"/><line style="stroke:#000000;stroke-width:1.5;" x1="706" x2="865" y1="620.1875" y2="620.1875"/><text fill="#000000" font-family="sans-serif" font-size="14" lengthAdjust="spacing" textLength="139" x="716" y="611.8857">L1: Local Controllers</text></g><line style="stroke:#000000;stroke-width:1.5;stroke-dasharray:8.0,10.0;" x1="699" x2="890" y1="656.8906" y2="656.8906"/><g id="Plant.Control.P4.CONC78.P4L0"><rect fill="#D3D3D3" filter="url(#f70i0jm48zjz6)" height="50" rx="12.5" ry="12.5" style="stroke:#000000;stroke-width:1.5;" width="175" x="706" y="663.8906"/><line style="stroke:#000000;stroke-width:1.5;" x1="706" x2="881" y1="690.1875" y2="690.1875"/><text fill="#000000" font-family="sans-serif" font-size="14" lengthAdjust="spacing" textLength="155" x="716" y="681.8857">L0: Local Field Devices</text></g><!--MD5=[d833917827be79acb3f7ca0660acf8c3]
link L3 to minor_enforcement--><path d="M463.5,405.7038 C463.5,417.9338 463.5,428.9438 463.5,436.1038 " fill="none" id="L3-to-minor_enforcement" style="stroke:#A80036;stroke-width:1.0;"/><polygon fill="#A80036" points="463.5,441.5138,467.5,432.5138,463.5,436.5138,459.5,432.5138,463.5,441.5138" style="stroke:#A80036;stroke-width:1.0;"/><!--MD5=[091eeb670fe17b074b939bbcb1bf36af]
link minor_enforcement to P1--><path d="M423.41,446.0038 C377.04,446.9938 299.76,453.8738 242.5,485.5938 C241.16,486.3338 239.82,487.1038 238.49,487.8938 " fill="none" id="minor_enforcement-to-P1" style="stroke:#A80036;stroke-width:1.0;"/><polygon fill="#A80036" points="234,490.6638,243.7593,489.3389,238.2544,488.0369,239.5564,482.5319,234,490.6638" style="stroke:#A80036;stroke-width:1.0;"/><!--MD5=[cdcf216b37a601e701df6cc1b7cfc79f]
link minor_enforcement to P2--><path d="M461.4,449.6638 C457.82,454.9138 449.93,466.4538 439.97,481.0338 " fill="none" id="minor_enforcement-to-P2" style="stroke:#A80036;stroke-width:1.0;"/><polygon fill="#A80036" points="437.1,485.2238,445.4744,480.0402,439.9162,481.0923,438.8641,475.5342,437.1,485.2238" style="stroke:#A80036;stroke-width:1.0;"/><!--MD5=[951b938a67d53d50d8bab9debc19d6c5]
link minor_enforcement to P3--><path d="M465.62,449.6638 C469.23,454.9138 477.19,466.4538 487.25,481.0338 " fill="none" id="minor_enforcement-to-P3" style="stroke:#A80036;stroke-width:1.0;"/><polygon fill="#A80036" points="490.14,485.2238,488.3146,475.5455,487.2977,481.1102,481.733,480.0933,490.14,485.2238" style="stroke:#A80036;stroke-width:1.0;"/><!--MD5=[e2ce359dfac9d85d565828e248582d08]
link minor_enforcement to P4--><path d="M503.77,445.9638 C550.35,446.9138 627.98,453.7638 685.5,485.5938 C686.85,486.3338 688.18,487.1038 689.51,487.8938 " fill="none" id="minor_enforcement-to-P4" style="stroke:#A80036;stroke-width:1.0;"/><polygon fill="#A80036" points="694,490.6538,688.4436,482.5219,689.7456,488.0269,684.2407,489.3289,694,490.6538" style="stroke:#A80036;stroke-width:1.0;"/><!--MD5=[665fe05c404dbbfa63805966b0cadfec]
link *start*Plant to L4--><path d="M470.19,70.2969 C474.32,70.2969 478.45,70.2969 482.58,70.2969 " fill="none" id="*start*Plant-to-L4" style="stroke:#A80036;stroke-width:1.0;"/><polygon fill="#A80036" points="487.82,70.2969,478.82,66.2969,482.82,70.2969,478.82,74.2969,487.82,70.2969" style="stroke:#A80036;stroke-width:1.0;"/><!--MD5=[3a984c8d471d53c0b263c8b4b9c8257b]
link *start*Plant to iDMZ_Cloud--><path d="M451.86,76.8069 C436.67,87.0969 403.08,109.8569 375.96,128.2269 " fill="none" id="*start*Plant-to-iDMZ_Cloud" style="stroke:#A80036;stroke-width:1.0;"/><polygon fill="#A80036" points="371.67,131.1369,381.3665,129.4113,375.8126,128.3371,376.8868,122.7831,371.67,131.1369" style="stroke:#A80036;stroke-width:1.0;"/><!--MD5=[3bdd79544a924deda6949af23ebc586b]
link *start*Plant to iDMZ_Remote--><path d="M460.54,80.2869 C461.18,91.0869 462.29,109.7469 463.24,125.7569 " fill="none" id="*start*Plant-to-iDMZ_Remote" style="stroke:#A80036;stroke-width:1.0;"/><polygon fill="#A80036" points="463.56,131.0669,467.0138,121.8435,463.2605,126.0759,459.0282,122.3226,463.56,131.0669" style="stroke:#A80036;stroke-width:1.0;"/><!--MD5=[f905ef1deff6d1584c8659fa8bd696ba]
link iDMZ_Cloud to Control--><path d="M341.83,181.4269 C344.67,189.9769 348.36,200.4769 352.68,212.3669 " fill="none" id="iDMZ_Cloud-to-Control" style="stroke:#A80036;stroke-width:1.0;"/><polygon fill="#A80036" points="354.43,217.1769,355.1039,207.3511,352.7167,212.4796,347.5882,210.0924,354.43,217.1769" style="stroke:#A80036;stroke-width:1.0;"/><!--MD5=[fc7a1b49f91dea58a2873835c5d1cc44]
reverse link iDMZ_Cloud to Control--><path d="M351.52,186.1469 C355.54,194.9669 360.16,205.4669 365.18,217.1769 " fill="none" id="iDMZ_Cloud-backto-Control" style="stroke:#A80036;stroke-width:1.0;"/><polygon fill="#A80036" points="349.35,181.4269,349.47,191.275,351.4362,185.9708,356.7404,187.937,349.35,181.4269" style="stroke:#A80036;stroke-width:1.0;"/><!--MD5=[b9b617419490cdbe55403f17f2e02ce2]
link iDMZ_Remote to Control--><path d="M465,181.4269 C465,189.9069 465,200.2969 465,212.0569 " fill="none" id="iDMZ_Remote-to-Control" style="stroke:#A80036;stroke-width:1.0;"/><polygon fill="#A80036" points="465,217.1769,469,208.1769,465,212.1769,461,208.1769,465,217.1769" style="stroke:#A80036;stroke-width:1.0;"/><!--MD5=[59846b4451361829c3123fe1984d30cc]
link L4 to iDMZ_4_to_3--><path d="M636.25,95.3669 C651.3,105.6469 668.94,117.6969 684.44,128.2769 " fill="none" id="L4-to-iDMZ_4_to_3" style="stroke:#A80036;stroke-width:1.0;"/><polygon fill="#A80036" points="688.75,131.2269,683.5862,122.8403,684.6252,128.4009,679.0646,129.4399,688.75,131.2269" style="stroke:#A80036;stroke-width:1.0;"/><!--MD5=[8090cd0bb757be7f5642589a597959ef]
link iDMZ_4_to_3 to Control--><path d="M704.74,181.4269 C697.79,190.1269 689.24,200.8569 679.54,213.0069 " fill="none" id="iDMZ_4_to_3-to-Control" style="stroke:#A80036;stroke-width:1.0;"/><polygon fill="#A80036" points="676.21,217.1769,684.9517,212.64,679.33,213.2697,678.7003,207.648,676.21,217.1769" style="stroke:#A80036;stroke-width:1.0;"/><!--MD5=[cd3f394cf6f3ce2cd6ad80c238a4012d]
reverse link iDMZ_3_to_4 to Control--><path d="M585.26,186.1469 C581.68,194.9669 577.4,205.4669 572.64,217.1769 " fill="none" id="iDMZ_3_to_4-backto-Control" style="stroke:#A80036;stroke-width:1.0;"/><polygon fill="#A80036" points="587.19,181.4269,580.09,188.2525,585.3035,186.0573,587.4987,191.2709,587.19,181.4269" style="stroke:#A80036;stroke-width:1.0;"/><!--MD5=[e5bc00e7e60bcb8beecfdab4b76272a6]
reverse link L4 to iDMZ_3_to_4--><path d="M599.6,100.6769 C599.13,110.6069 598.61,121.5669 598.15,131.0569 " fill="none" id="L4-backto-iDMZ_3_to_4" style="stroke:#A80036;stroke-width:1.0;"/><polygon fill="#A80036" points="599.84,95.5969,595.432,104.4042,599.611,100.5916,603.4236,104.7706,599.84,95.5969" style="stroke:#A80036;stroke-width:1.0;"/><!--MD5=[c07ba3dbdd53d9940cace23c9cb2f32a]
@startuml
skinparam state {
    BackgroundColor Lightgrey
    BackgroundColor<<Warning>> Yellow
    BorderColor Black
}

state "Physical Plant Perimeter" as Plant {
    state "L4: Plant Business Network(s)" as L4 {
    }

    [*] - -r- -> L4
    [*] -d-> iDMZ_Cloud
    [*] -d-> iDMZ_Remote

    iDMZ_Cloud -d-> Control
    Control -u-> iDMZ_Cloud
    iDMZ_Remote -d-> Control

    L4 -d-> iDMZ_4_to_3
    iDMZ_4_to_3 -d-> Control

    Control -u-> iDMZ_3_to_4
    iDMZ_3_to_4 -u-> L4

    state "Plant Control Networks" as Control <<Warning>> {

        state "L3: Plantwide Supervisory Network(s)" as L3 {
        state switchL3 <<fork>>
        switchL3 - -> Production
        switchL3 - -> Testing
        switchL3 - -> Workstations
        switchL3 - -> CyberSecurity
        switchL3 - -> JumpHosts
        }

        state minor_enforcement <<fork>>
        L3 - -> minor_enforcement
        minor_enforcement - -> P1
        minor_enforcement - -> P2
        minor_enforcement - -> P3
        minor_enforcement - -> P4

        state "Process 1" as P1 {
            state "L2: Local Supervisory" as P1L2
            - -
            state "L1: Local Controllers" as P1L1
            - -
            state "L0: Local Field Devices" as P1L0
        }
        state "Process 2" as P2 {
            state "L2: Local Supervisory" as P2L2
            - -
            state "L1: Local Controllers" as P2L1
            - -
            state "L0: Local Field Devices" as P2L0
        }
        state "Process 3" as P3 {
            state "L2: Local Supervisory" as P3L2
            - -
            state "L1: Local Controllers" as P3L1
            - -
            state "L0: Local Field Devices" as P3L0
        }
        state "Process 4" as P4 {
            state "L2: Local Supervisory" as P4L2
            - -
            state "L1: Local Controllers" as P4L1
            - -
            state "L0: Local Field Devices" as P4L0
        }
    }
}
@enduml

PlantUML version 1.2021.00(Sun Jan 10 03:25:05 MST 2021)
(GPL source distribution)
Java Runtime: OpenJDK Runtime Environment
JVM: OpenJDK 64-Bit Server VM
Default Encoding: UTF-8
Language: en
Country: US
--></g></svg>