<?xml version="1.0" encoding="UTF-8" standalone="no"?>
<!DOCTYPE svg PUBLIC "-//W3C//DTD SVG 1.1//EN"
 "http://www.w3.org/Graphics/SVG/1.1/DTD/svg11.dtd">
<!-- Generated by graphviz version 2.50.0 (0)
 -->
<!-- Title: foo Pages: 1 -->
<svg width="382pt" height="372pt"
 viewBox="0.00 0.00 382.38 371.64" xmlns="http://www.w3.org/2000/svg" xmlns:xlink="http://www.w3.org/1999/xlink">
<g id="graph0" class="graph" transform="scale(1 1) rotate(0) translate(4 367.64)">
<title>foo</title>
<polygon fill="white" stroke="transparent" points="-4,4 -4,-367.64 378.38,-367.64 378.38,4 -4,4"/>
<!-- Supervisory -->
<g id="node1" class="node">
<title>Supervisory</title>
<path fill="none" stroke="black" d="M178.31,-339.15C178.31,-339.15 145.65,-348.05 145.65,-348.05 142.42,-348.94 135.94,-348.94 132.71,-348.05 132.71,-348.05 100.05,-339.15 100.05,-339.15 96.81,-338.26 93.58,-334.03 93.59,-330.67 93.59,-330.67 93.61,-323.97 93.61,-323.97 93.61,-320.61 96.97,-317.26 100.33,-317.26 100.33,-317.26 178.03,-317.26 178.03,-317.26 181.38,-317.26 184.75,-320.61 184.75,-323.97 184.75,-323.97 184.77,-330.67 184.77,-330.67 184.77,-334.03 181.54,-338.26 178.31,-339.15"/>
<text text-anchor="middle" x="139.18" y="-328.12" font-family="Times,serif" font-size="14.00">Supervisory</text>
</g>
<!-- Workstation -->
<g id="node2" class="node">
<title>Workstation</title>
<ellipse fill="none" stroke="red" stroke-dasharray="1,5" cx="324.18" cy="-331.82" rx="50.41" ry="31.64"/>
<text text-anchor="middle" x="324.18" y="-343.12" font-family="Times,serif" font-size="14.00" fill="red">Engineering/</text>
<text text-anchor="middle" x="324.18" y="-328.12" font-family="Times,serif" font-size="14.00" fill="red">Technician</text>
<text text-anchor="middle" x="324.18" y="-313.12" font-family="Times,serif" font-size="14.00" fill="red">Workstation</text>
</g>
<!-- Supervisory&#45;&gt;Workstation -->
<g id="edge8" class="edge">
<title>Supervisory&#45;&gt;Workstation</title>
<path fill="none" stroke="red" stroke-dasharray="1,5" d="M195.13,-331.82C221.39,-331.82 247.65,-331.82 273.91,-331.82"/>
<polygon fill="red" stroke="red" points="195.07,-328.32 185.07,-331.82 195.07,-335.32 195.07,-328.32"/>
</g>
<!-- Controller -->
<g id="node3" class="node">
<title>Controller</title>
<path fill="yellow" stroke="black" d="M130.21,-256.02C130.21,-256.02 107.67,-235.98 107.67,-235.98 103.19,-231.99 103.19,-224.01 107.67,-220.02 107.67,-220.02 130.21,-199.98 130.21,-199.98 134.7,-195.99 143.66,-195.99 148.15,-199.98 148.15,-199.98 170.69,-220.02 170.69,-220.02 175.17,-224.01 175.17,-231.99 170.69,-235.98 170.69,-235.98 148.15,-256.02 148.15,-256.02 143.66,-260.01 134.7,-260.01 130.21,-256.02"/>
<text text-anchor="middle" x="139.18" y="-224.3" font-family="Times,serif" font-size="14.00">Controller</text>
</g>
<!-- Supervisory&#45;&gt;Controller -->
<g id="edge1" class="edge">
<title>Supervisory:s&#45;&gt;Controller:n</title>
<path fill="none" stroke="black" d="M139.18,-305.73C139.18,-293.42 139.18,-286.37 139.18,-274.05"/>
<polygon fill="black" stroke="black" points="135.68,-305.82 139.18,-315.82 142.68,-305.82 135.68,-305.82"/>
<polygon fill="black" stroke="black" points="142.68,-274 139.18,-264 135.68,-274 142.68,-274"/>
</g>
<!-- Controller&#45;&gt;Workstation -->
<g id="edge9" class="edge">
<title>Controller&#45;&gt;Workstation</title>
<path fill="none" stroke="red" stroke-dasharray="1,5" d="M172.6,-247.4C204.76,-265.1 253.3,-291.81 286.74,-310.22"/>
<polygon fill="red" stroke="red" points="174.04,-244.19 163.59,-242.44 170.66,-250.32 174.04,-244.19"/>
</g>
<!-- Actuators -->
<g id="node4" class="node">
<title>Actuators</title>
<path fill="none" stroke="black" d="M73.18,-154C73.18,-154 25.18,-154 25.18,-154 19.18,-154 13.18,-148 13.18,-142 13.18,-142 13.18,-130 13.18,-130 13.18,-124 19.18,-118 25.18,-118 25.18,-118 73.18,-118 73.18,-118 79.18,-118 85.18,-124 85.18,-130 85.18,-130 85.18,-142 85.18,-142 85.18,-148 79.18,-154 73.18,-154"/>
<text text-anchor="middle" x="49.18" y="-132.3" font-family="Times,serif" font-size="14.00">Actuators</text>
</g>
<!-- Controller&#45;&gt;Actuators -->
<g id="edge4" class="edge">
<title>Controller&#45;&gt;Actuators:n</title>
<path fill="none" stroke="black" d="M110.21,-217.53C86.77,-208.05 56.67,-191.09 50.37,-165.02"/>
<polygon fill="black" stroke="black" points="53.83,-164.52 49.18,-155 46.88,-165.34 53.83,-164.52"/>
<text text-anchor="middle" x="80.22" y="-214.83" font-family="Times,serif" font-size="14.00">output</text>
</g>
<!-- cl -->
<g id="node5" class="node">
<title>cl</title>
<text text-anchor="middle" x="139.18" y="-141.6" font-family="Times,serif" font-size="18.00" fill="forestgreen">Control</text>
<text text-anchor="middle" x="139.18" y="-121.6" font-family="Times,serif" font-size="18.00" fill="forestgreen">Loop</text>
</g>
<!-- Controller&#45;&gt;cl -->
<!-- Actuators&#45;&gt;Workstation -->
<g id="edge10" class="edge">
<title>Actuators:nw&#45;&gt;Workstation</title>
<path fill="none" stroke="red" stroke-dasharray="1,5" d="M6.6,-162.76C-20.03,-201.04 44.82,-231.83 90.18,-264 105.62,-274.95 214.16,-303.33 277.86,-319.36"/>
<polygon fill="red" stroke="red" points="9.38,-164.89 13.18,-155 4.04,-160.36 9.38,-164.89"/>
</g>
<!-- Process -->
<g id="node7" class="node">
<title>Process</title>
<ellipse fill="none" stroke="black" cx="139.18" cy="-40" rx="36" ry="36"/>
<ellipse fill="none" stroke="black" cx="139.18" cy="-40" rx="40" ry="40"/>
<text text-anchor="middle" x="139.18" y="-36.3" font-family="Times,serif" font-size="14.00">Process</text>
</g>
<!-- Actuators&#45;&gt;Process -->
<g id="edge5" class="edge">
<title>Actuators:s&#45;&gt;Process</title>
<path fill="none" stroke="black" d="M49.18,-117C49.18,-91.3 70.87,-72.51 92.96,-60.05"/>
<polygon fill="black" stroke="black" points="94.84,-63.02 102.05,-55.26 91.57,-56.82 94.84,-63.02"/>
<text text-anchor="middle" x="72.29" y="-47.79" font-family="Times,serif" font-size="14.00">changes</text>
</g>
<!-- cl&#45;&gt;Workstation -->
<!-- cl&#45;&gt;Process -->
<!-- Sensors -->
<g id="node6" class="node">
<title>Sensors</title>
<path fill="none" stroke="black" d="M253.18,-154C253.18,-154 205.18,-154 205.18,-154 199.18,-154 193.18,-148 193.18,-142 193.18,-142 193.18,-130 193.18,-130 193.18,-124 199.18,-118 205.18,-118 205.18,-118 253.18,-118 253.18,-118 259.18,-118 265.18,-124 265.18,-130 265.18,-130 265.18,-142 265.18,-142 265.18,-148 259.18,-154 253.18,-154"/>
<text text-anchor="middle" x="229.18" y="-132.3" font-family="Times,serif" font-size="14.00">Sensors</text>
</g>
<!-- Sensors&#45;&gt;Workstation -->
<g id="edge12" class="edge">
<title>Sensors:ne&#45;&gt;Workstation</title>
<path fill="none" stroke="red" stroke-dasharray="1,5" d="M272.26,-162.69C306.17,-202.58 317.94,-263.27 322.02,-299.78"/>
<polygon fill="red" stroke="red" points="274.53,-159.98 265.18,-155 269.38,-164.73 274.53,-159.98"/>
</g>
<!-- Sensors&#45;&gt;Controller -->
<g id="edge7" class="edge">
<title>Sensors:n&#45;&gt;Controller</title>
<path fill="none" stroke="black" d="M229.18,-155C229.18,-183.21 201.88,-202.19 177.35,-213.54"/>
<polygon fill="black" stroke="black" points="175.94,-210.34 168.15,-217.53 178.72,-216.77 175.94,-210.34"/>
<text text-anchor="middle" x="198.14" y="-214.66" font-family="Times,serif" font-size="14.00">input</text>
</g>
<!-- Process&#45;&gt;Sensors -->
<g id="edge6" class="edge">
<title>Process&#45;&gt;Sensors:s</title>
<path fill="none" stroke="black" d="M176.31,-55.26C198.09,-65.99 222.43,-82.96 228,-106.77"/>
<polygon fill="black" stroke="black" points="224.56,-107.47 229.18,-117 231.51,-106.66 224.56,-107.47"/>
<text text-anchor="middle" x="208.02" y="-47.29" font-family="Times,serif" font-size="14.00">measures</text>
</g>
</g>
</svg>
