<?xml version="1.0" encoding="UTF-8" standalone="no"?>
<!DOCTYPE svg PUBLIC "-//W3C//DTD SVG 1.1//EN"
 "http://www.w3.org/Graphics/SVG/1.1/DTD/svg11.dtd">
<!-- Generated by graphviz version 2.50.0 (0)
 -->
<!-- Title: G Pages: 1 -->
<svg width="178pt" height="410pt"
 viewBox="0.00 0.00 177.83 410.00" xmlns="http://www.w3.org/2000/svg" xmlns:xlink="http://www.w3.org/1999/xlink">
<g id="graph0" class="graph" transform="scale(1 1) rotate(0) translate(4 406)">
<title>G</title>
<polygon fill="white" stroke="transparent" points="-4,4 -4,-406 173.83,-406 173.83,4 -4,4"/>
<!-- 1 -->
<g id="node1" class="node">
<title>1</title>
<path fill="Orange" stroke="black" d="M34.45,-365.5C34.45,-365.5 135.45,-365.5 135.45,-365.5 141.45,-365.5 147.45,-371.5 147.45,-377.5 147.45,-377.5 147.45,-389.5 147.45,-389.5 147.45,-395.5 141.45,-401.5 135.45,-401.5 135.45,-401.5 34.45,-401.5 34.45,-401.5 28.45,-401.5 22.45,-395.5 22.45,-389.5 22.45,-389.5 22.45,-377.5 22.45,-377.5 22.45,-371.5 28.45,-365.5 34.45,-365.5"/>
<text text-anchor="middle" x="84.95" y="-379.8" font-family="Times,serif" font-size="14.00">Functional Analysis</text>
</g>
<!-- 2 -->
<g id="node2" class="node">
<title>2</title>
<path fill="Orange" stroke="black" d="M20.95,-292.5C20.95,-292.5 148.95,-292.5 148.95,-292.5 154.95,-292.5 160.95,-298.5 160.95,-304.5 160.95,-304.5 160.95,-316.5 160.95,-316.5 160.95,-322.5 154.95,-328.5 148.95,-328.5 148.95,-328.5 20.95,-328.5 20.95,-328.5 14.95,-328.5 8.95,-322.5 8.95,-316.5 8.95,-316.5 8.95,-304.5 8.95,-304.5 8.95,-298.5 14.95,-292.5 20.95,-292.5"/>
<text text-anchor="middle" x="84.95" y="-306.8" font-family="Times,serif" font-size="14.00">Communication Capture</text>
</g>
<!-- 1&#45;&gt;2 -->
<g id="edge1" class="edge">
<title>1&#45;&gt;2</title>
<path fill="none" stroke="black" d="M84.95,-365.31C84.95,-357.29 84.95,-347.55 84.95,-338.57"/>
<polygon fill="black" stroke="black" points="88.45,-338.53 84.95,-328.53 81.45,-338.53 88.45,-338.53"/>
</g>
<!-- 3 -->
<g id="node3" class="node">
<title>3</title>
<path fill="Orange" stroke="black" d="M41.95,-219.5C41.95,-219.5 127.95,-219.5 127.95,-219.5 133.95,-219.5 139.95,-225.5 139.95,-231.5 139.95,-231.5 139.95,-243.5 139.95,-243.5 139.95,-249.5 133.95,-255.5 127.95,-255.5 127.95,-255.5 41.95,-255.5 41.95,-255.5 35.95,-255.5 29.95,-249.5 29.95,-243.5 29.95,-243.5 29.95,-231.5 29.95,-231.5 29.95,-225.5 35.95,-219.5 41.95,-219.5"/>
<text text-anchor="middle" x="84.95" y="-233.8" font-family="Times,serif" font-size="14.00">Capture Analysis</text>
</g>
<!-- 2&#45;&gt;3 -->
<g id="edge2" class="edge">
<title>2:sw&#45;&gt;3:w</title>
<path fill="none" stroke="black" d="M8.95,-292C-6.72,-276.32 0.26,-247.34 18.91,-239.5"/>
<polygon fill="black" stroke="black" points="19.83,-242.89 28.95,-237.5 18.46,-236.02 19.83,-242.89"/>
</g>
<!-- 3&#45;&gt;2 -->
<g id="edge3" class="edge">
<title>3:e&#45;&gt;2:se</title>
<path fill="none" stroke="black" d="M140.95,-237.5C163.23,-237.5 175.55,-264.52 166.76,-283.65"/>
<polygon fill="black" stroke="black" points="163.79,-281.79 160.95,-292 169.54,-285.79 163.79,-281.79"/>
</g>
<!-- 4 -->
<g id="node4" class="node">
<title>4</title>
<path fill="Orange" stroke="black" d="M19.45,-146.5C19.45,-146.5 150.45,-146.5 150.45,-146.5 156.45,-146.5 162.45,-152.5 162.45,-158.5 162.45,-158.5 162.45,-170.5 162.45,-170.5 162.45,-176.5 156.45,-182.5 150.45,-182.5 150.45,-182.5 19.45,-182.5 19.45,-182.5 13.45,-182.5 7.45,-176.5 7.45,-170.5 7.45,-170.5 7.45,-158.5 7.45,-158.5 7.45,-152.5 13.45,-146.5 19.45,-146.5"/>
<text text-anchor="middle" x="84.95" y="-160.8" font-family="Times,serif" font-size="14.00">Testing Harness Creation</text>
</g>
<!-- 3&#45;&gt;4 -->
<g id="edge4" class="edge">
<title>3&#45;&gt;4</title>
<path fill="none" stroke="black" d="M84.95,-219.31C84.95,-211.29 84.95,-201.55 84.95,-192.57"/>
<polygon fill="black" stroke="black" points="88.45,-192.53 84.95,-182.53 81.45,-192.53 88.45,-192.53"/>
</g>
<!-- 5 -->
<g id="node5" class="node">
<title>5</title>
<path fill="Orange" stroke="black" d="M40.45,-73.5C40.45,-73.5 129.45,-73.5 129.45,-73.5 135.45,-73.5 141.45,-79.5 141.45,-85.5 141.45,-85.5 141.45,-97.5 141.45,-97.5 141.45,-103.5 135.45,-109.5 129.45,-109.5 129.45,-109.5 40.45,-109.5 40.45,-109.5 34.45,-109.5 28.45,-103.5 28.45,-97.5 28.45,-97.5 28.45,-85.5 28.45,-85.5 28.45,-79.5 34.45,-73.5 40.45,-73.5"/>
<text text-anchor="middle" x="84.95" y="-87.8" font-family="Times,serif" font-size="14.00">Endpoint Fuzzing</text>
</g>
<!-- 4&#45;&gt;5 -->
<g id="edge5" class="edge">
<title>4&#45;&gt;5</title>
<path fill="none" stroke="black" d="M84.95,-146.31C84.95,-138.29 84.95,-128.55 84.95,-119.57"/>
<polygon fill="black" stroke="black" points="88.45,-119.53 84.95,-109.53 81.45,-119.53 88.45,-119.53"/>
</g>
<!-- 6 -->
<g id="node6" class="node">
<title>6</title>
<path fill="Orange" stroke="black" d="M55.45,-0.5C55.45,-0.5 114.45,-0.5 114.45,-0.5 120.45,-0.5 126.45,-6.5 126.45,-12.5 126.45,-12.5 126.45,-24.5 126.45,-24.5 126.45,-30.5 120.45,-36.5 114.45,-36.5 114.45,-36.5 55.45,-36.5 55.45,-36.5 49.45,-36.5 43.45,-30.5 43.45,-24.5 43.45,-24.5 43.45,-12.5 43.45,-12.5 43.45,-6.5 49.45,-0.5 55.45,-0.5"/>
<text text-anchor="middle" x="84.95" y="-14.8" font-family="Times,serif" font-size="14.00">Exploitation</text>
</g>
<!-- 5&#45;&gt;6 -->
<g id="edge6" class="edge">
<title>5&#45;&gt;6</title>
<path fill="none" stroke="black" d="M84.95,-73.31C84.95,-65.29 84.95,-55.55 84.95,-46.57"/>
<polygon fill="black" stroke="black" points="88.45,-46.53 84.95,-36.53 81.45,-46.53 88.45,-46.53"/>
</g>
</g>
</svg>
