<?xml version="1.0" encoding="UTF-8" standalone="no"?>
<!DOCTYPE svg PUBLIC "-//W3C//DTD SVG 1.1//EN"
 "http://www.w3.org/Graphics/SVG/1.1/DTD/svg11.dtd">
<!-- Generated by graphviz version 2.50.0 (0)
 -->
<!-- Title: G Pages: 1 -->
<svg width="275pt" height="489pt"
 viewBox="0.00 0.00 275.00 489.00" xmlns="http://www.w3.org/2000/svg" xmlns:xlink="http://www.w3.org/1999/xlink">
<g id="graph0" class="graph" transform="scale(1 1) rotate(0) translate(4 485)">
<title>G</title>
<polygon fill="white" stroke="transparent" points="-4,4 -4,-485 271,-485 271,4 -4,4"/>
<!-- 1 -->
<g id="node1" class="node">
<title>1</title>
<path fill="Orange" stroke="black" d="M87.5,-444.5C87.5,-444.5 182.5,-444.5 182.5,-444.5 188.5,-444.5 194.5,-450.5 194.5,-456.5 194.5,-456.5 194.5,-468.5 194.5,-468.5 194.5,-474.5 188.5,-480.5 182.5,-480.5 182.5,-480.5 87.5,-480.5 87.5,-480.5 81.5,-480.5 75.5,-474.5 75.5,-468.5 75.5,-468.5 75.5,-456.5 75.5,-456.5 75.5,-450.5 81.5,-444.5 87.5,-444.5"/>
<text text-anchor="middle" x="135" y="-458.8" font-family="Times,serif" font-size="14.00">RF Signal Capture</text>
</g>
<!-- 2 -->
<g id="node2" class="node">
<title>2</title>
<path fill="Orange" stroke="black" d="M12,-370.5C12,-370.5 150,-370.5 150,-370.5 156,-370.5 162,-376.5 162,-382.5 162,-382.5 162,-394.5 162,-394.5 162,-400.5 156,-406.5 150,-406.5 150,-406.5 12,-406.5 12,-406.5 6,-406.5 0,-400.5 0,-394.5 0,-394.5 0,-382.5 0,-382.5 0,-376.5 6,-370.5 12,-370.5"/>
<text text-anchor="middle" x="81" y="-384.8" font-family="Times,serif" font-size="14.00">Spread Spectrum Analysis</text>
</g>
<!-- 1&#45;&gt;2 -->
<g id="edge1" class="edge">
<title>1&#45;&gt;2:n</title>
<path fill="none" stroke="black" d="M104.21,-444.29C94.83,-437.17 86.08,-428 82.59,-417.06"/>
<polygon fill="black" stroke="black" points="86.02,-416.33 81,-407 79.1,-417.42 86.02,-416.33"/>
</g>
<!-- 7 -->
<g id="node7" class="node">
<title>7</title>
<path fill="Orange" stroke="black" d="M90.5,-0.5C90.5,-0.5 215.5,-0.5 215.5,-0.5 221.5,-0.5 227.5,-6.5 227.5,-12.5 227.5,-12.5 227.5,-24.5 227.5,-24.5 227.5,-30.5 221.5,-36.5 215.5,-36.5 215.5,-36.5 90.5,-36.5 90.5,-36.5 84.5,-36.5 78.5,-30.5 78.5,-24.5 78.5,-24.5 78.5,-12.5 78.5,-12.5 78.5,-6.5 84.5,-0.5 90.5,-0.5"/>
<text text-anchor="middle" x="153" y="-14.8" font-family="Times,serif" font-size="14.00">RF Signal Transmission</text>
</g>
<!-- 1&#45;&gt;7 -->
<g id="edge7" class="edge">
<title>1&#45;&gt;7</title>
<path fill="none" stroke="black" d="M158.32,-444.39C173.32,-431.27 190,-411.68 190,-389.5 190,-389.5 190,-389.5 190,-91.5 190,-74.83 182.06,-58.15 173.53,-45.05"/>
<polygon fill="black" stroke="black" points="176.22,-42.79 167.62,-36.59 170.48,-46.79 176.22,-42.79"/>
<text text-anchor="middle" x="228.5" y="-236.8" font-family="Times,serif" font-size="14.00">Signal Replay</text>
</g>
<!-- 3 -->
<g id="node3" class="node">
<title>3</title>
<path fill="Orange" stroke="black" d="M49.5,-296.5C49.5,-296.5 120.5,-296.5 120.5,-296.5 126.5,-296.5 132.5,-302.5 132.5,-308.5 132.5,-308.5 132.5,-320.5 132.5,-320.5 132.5,-326.5 126.5,-332.5 120.5,-332.5 120.5,-332.5 49.5,-332.5 49.5,-332.5 43.5,-332.5 37.5,-326.5 37.5,-320.5 37.5,-320.5 37.5,-308.5 37.5,-308.5 37.5,-302.5 43.5,-296.5 49.5,-296.5"/>
<text text-anchor="middle" x="85" y="-310.8" font-family="Times,serif" font-size="14.00">Demodulation</text>
</g>
<!-- 2&#45;&gt;3 -->
<g id="edge2" class="edge">
<title>2&#45;&gt;3</title>
<path fill="none" stroke="black" d="M81.95,-370.44C82.4,-362.31 82.95,-352.38 83.46,-343.2"/>
<polygon fill="black" stroke="black" points="86.97,-343.12 84.03,-332.94 79.98,-342.73 86.97,-343.12"/>
</g>
<!-- 4 -->
<g id="node4" class="node">
<title>4</title>
<path fill="Orange" stroke="black" d="M41,-222.5C41,-222.5 141,-222.5 141,-222.5 147,-222.5 153,-228.5 153,-234.5 153,-234.5 153,-246.5 153,-246.5 153,-252.5 147,-258.5 141,-258.5 141,-258.5 41,-258.5 41,-258.5 35,-258.5 29,-252.5 29,-246.5 29,-246.5 29,-234.5 29,-234.5 29,-228.5 35,-222.5 41,-222.5"/>
<text text-anchor="middle" x="91" y="-236.8" font-family="Times,serif" font-size="14.00">Bitstream to Packet</text>
</g>
<!-- 3&#45;&gt;4 -->
<g id="edge3" class="edge">
<title>3&#45;&gt;4</title>
<path fill="none" stroke="black" d="M86.42,-296.44C87.1,-288.31 87.93,-278.38 88.69,-269.2"/>
<polygon fill="black" stroke="black" points="92.2,-269.2 89.55,-258.94 85.23,-268.62 92.2,-269.2"/>
</g>
<!-- 5 -->
<g id="node5" class="node">
<title>5</title>
<path fill="Orange" stroke="black" d="M65.5,-148.5C65.5,-148.5 144.5,-148.5 144.5,-148.5 150.5,-148.5 156.5,-154.5 156.5,-160.5 156.5,-160.5 156.5,-172.5 156.5,-172.5 156.5,-178.5 150.5,-184.5 144.5,-184.5 144.5,-184.5 65.5,-184.5 65.5,-184.5 59.5,-184.5 53.5,-178.5 53.5,-172.5 53.5,-172.5 53.5,-160.5 53.5,-160.5 53.5,-154.5 59.5,-148.5 65.5,-148.5"/>
<text text-anchor="middle" x="105" y="-162.8" font-family="Times,serif" font-size="14.00">Packet Creation</text>
</g>
<!-- 4&#45;&gt;5 -->
<g id="edge4" class="edge">
<title>4&#45;&gt;5</title>
<path fill="none" stroke="black" d="M94.32,-222.44C95.92,-214.22 97.87,-204.16 99.67,-194.91"/>
<polygon fill="black" stroke="black" points="103.14,-195.42 101.61,-184.94 96.26,-194.09 103.14,-195.42"/>
</g>
<!-- 6 -->
<g id="node6" class="node">
<title>6</title>
<path fill="Orange" stroke="black" d="M89,-74.5C89,-74.5 145,-74.5 145,-74.5 151,-74.5 157,-80.5 157,-86.5 157,-86.5 157,-98.5 157,-98.5 157,-104.5 151,-110.5 145,-110.5 145,-110.5 89,-110.5 89,-110.5 83,-110.5 77,-104.5 77,-98.5 77,-98.5 77,-86.5 77,-86.5 77,-80.5 83,-74.5 89,-74.5"/>
<text text-anchor="middle" x="117" y="-88.8" font-family="Times,serif" font-size="14.00">Modulation</text>
</g>
<!-- 5&#45;&gt;6 -->
<g id="edge5" class="edge">
<title>5&#45;&gt;6</title>
<path fill="none" stroke="black" d="M107.84,-148.44C109.21,-140.22 110.89,-130.16 112.43,-120.91"/>
<polygon fill="black" stroke="black" points="115.9,-121.38 114.09,-110.94 109,-120.23 115.9,-121.38"/>
</g>
<!-- 6&#45;&gt;7 -->
<g id="edge6" class="edge">
<title>6&#45;&gt;7</title>
<path fill="none" stroke="black" d="M125.53,-74.44C129.77,-65.95 135,-55.51 139.74,-46.01"/>
<polygon fill="black" stroke="black" points="142.94,-47.45 144.28,-36.94 136.68,-44.32 142.94,-47.45"/>
</g>
</g>
</svg>
