<?xml version="1.0" encoding="UTF-8" standalone="no"?>
<!DOCTYPE svg PUBLIC "-//W3C//DTD SVG 1.1//EN"
 "http://www.w3.org/Graphics/SVG/1.1/DTD/svg11.dtd">
<!-- Generated by graphviz version 2.50.0 (0)
 -->
<!-- Title: G Pages: 1 -->
<svg width="166pt" height="337pt"
 viewBox="0.00 0.00 166.00 337.00" xmlns="http://www.w3.org/2000/svg" xmlns:xlink="http://www.w3.org/1999/xlink">
<g id="graph0" class="graph" transform="scale(1 1) rotate(0) translate(4 333)">
<title>G</title>
<polygon fill="white" stroke="transparent" points="-4,4 -4,-333 162,-333 162,4 -4,4"/>
<!-- 1 -->
<g id="node1" class="node">
<title>1</title>
<path fill="Orange" stroke="black" d="M36,-292.5C36,-292.5 122,-292.5 122,-292.5 128,-292.5 134,-298.5 134,-304.5 134,-304.5 134,-316.5 134,-316.5 134,-322.5 128,-328.5 122,-328.5 122,-328.5 36,-328.5 36,-328.5 30,-328.5 24,-322.5 24,-316.5 24,-316.5 24,-304.5 24,-304.5 24,-298.5 30,-292.5 36,-292.5"/>
<text text-anchor="middle" x="79" y="-306.8" font-family="Times,serif" font-size="14.00">Obtain Firmware</text>
</g>
<!-- 2 -->
<g id="node2" class="node">
<title>2</title>
<path fill="Orange" stroke="black" d="M19.5,-219.5C19.5,-219.5 138.5,-219.5 138.5,-219.5 144.5,-219.5 150.5,-225.5 150.5,-231.5 150.5,-231.5 150.5,-243.5 150.5,-243.5 150.5,-249.5 144.5,-255.5 138.5,-255.5 138.5,-255.5 19.5,-255.5 19.5,-255.5 13.5,-255.5 7.5,-249.5 7.5,-243.5 7.5,-243.5 7.5,-231.5 7.5,-231.5 7.5,-225.5 13.5,-219.5 19.5,-219.5"/>
<text text-anchor="middle" x="79" y="-233.8" font-family="Times,serif" font-size="14.00">Firmware Disassembly</text>
</g>
<!-- 1&#45;&gt;2 -->
<g id="edge1" class="edge">
<title>1&#45;&gt;2</title>
<path fill="none" stroke="black" d="M79,-292.31C79,-284.29 79,-274.55 79,-265.57"/>
<polygon fill="black" stroke="black" points="82.5,-265.53 79,-255.53 75.5,-265.53 82.5,-265.53"/>
</g>
<!-- 3 -->
<g id="node3" class="node">
<title>3</title>
<path fill="Orange" stroke="black" d="M23,-146.5C23,-146.5 135,-146.5 135,-146.5 141,-146.5 147,-152.5 147,-158.5 147,-158.5 147,-170.5 147,-170.5 147,-176.5 141,-182.5 135,-182.5 135,-182.5 23,-182.5 23,-182.5 17,-182.5 11,-176.5 11,-170.5 11,-170.5 11,-158.5 11,-158.5 11,-152.5 17,-146.5 23,-146.5"/>
<text text-anchor="middle" x="79" y="-160.8" font-family="Times,serif" font-size="14.00">Code Object Analysis</text>
</g>
<!-- 2&#45;&gt;3 -->
<g id="edge2" class="edge">
<title>2&#45;&gt;3</title>
<path fill="none" stroke="black" d="M79,-219.31C79,-211.29 79,-201.55 79,-192.57"/>
<polygon fill="black" stroke="black" points="82.5,-192.53 79,-182.53 75.5,-192.53 82.5,-192.53"/>
</g>
<!-- 4 -->
<g id="node4" class="node">
<title>4</title>
<path fill="Orange" stroke="black" d="M12,-73.5C12,-73.5 146,-73.5 146,-73.5 152,-73.5 158,-79.5 158,-85.5 158,-85.5 158,-97.5 158,-97.5 158,-103.5 152,-109.5 146,-109.5 146,-109.5 12,-109.5 12,-109.5 6,-109.5 0,-103.5 0,-97.5 0,-97.5 0,-85.5 0,-85.5 0,-79.5 6,-73.5 12,-73.5"/>
<text text-anchor="middle" x="79" y="-87.8" font-family="Times,serif" font-size="14.00">Code Functional Analysis</text>
</g>
<!-- 3&#45;&gt;4 -->
<g id="edge3" class="edge">
<title>3&#45;&gt;4</title>
<path fill="none" stroke="black" d="M73.12,-146.31C72.28,-138.29 72.05,-128.55 72.42,-119.57"/>
<polygon fill="black" stroke="black" points="75.92,-119.75 73.14,-109.53 68.94,-119.25 75.92,-119.75"/>
</g>
<!-- 4&#45;&gt;3 -->
<g id="edge5" class="edge">
<title>4&#45;&gt;3</title>
<path fill="none" stroke="black" d="M84.86,-109.53C85.71,-117.53 85.95,-127.27 85.59,-136.25"/>
<polygon fill="black" stroke="black" points="82.09,-136.09 84.88,-146.31 89.07,-136.58 82.09,-136.09"/>
</g>
<!-- 5 -->
<g id="node5" class="node">
<title>5</title>
<path fill="Orange" stroke="black" d="M21,-0.5C21,-0.5 137,-0.5 137,-0.5 143,-0.5 149,-6.5 149,-12.5 149,-12.5 149,-24.5 149,-24.5 149,-30.5 143,-36.5 137,-36.5 137,-36.5 21,-36.5 21,-36.5 15,-36.5 9,-30.5 9,-24.5 9,-24.5 9,-12.5 9,-12.5 9,-6.5 15,-0.5 21,-0.5"/>
<text text-anchor="middle" x="79" y="-14.8" font-family="Times,serif" font-size="14.00">Firmware Exploitation</text>
</g>
<!-- 4&#45;&gt;5 -->
<g id="edge4" class="edge">
<title>4&#45;&gt;5</title>
<path fill="none" stroke="black" d="M79,-73.31C79,-65.29 79,-55.55 79,-46.57"/>
<polygon fill="black" stroke="black" points="82.5,-46.53 79,-36.53 75.5,-46.53 82.5,-46.53"/>
</g>
</g>
</svg>
