<?xml version="1.0" encoding="UTF-8" standalone="no"?>
<!DOCTYPE svg PUBLIC "-//W3C//DTD SVG 1.1//EN"
 "http://www.w3.org/Graphics/SVG/1.1/DTD/svg11.dtd">
<!-- Generated by graphviz version 2.43.0 (0)
 -->
<!-- Title: G Pages: 1 -->
<svg width="406pt" height="483pt"
 viewBox="0.00 0.00 405.50 483.00" xmlns="http://www.w3.org/2000/svg" xmlns:xlink="http://www.w3.org/1999/xlink">
<g id="graph0" class="graph" transform="scale(1 1) rotate(0) translate(4 479)">
<title>G</title>
<polygon fill="white" stroke="transparent" points="-4,4 -4,-479 401.5,-479 401.5,4 -4,4"/>
<!-- 1 -->
<g id="node1" class="node">
<title>1</title>
<path fill="Orange" stroke="black" d="M137,-438.5C137,-438.5 272,-438.5 272,-438.5 278,-438.5 284,-444.5 284,-450.5 284,-450.5 284,-462.5 284,-462.5 284,-468.5 278,-474.5 272,-474.5 272,-474.5 137,-474.5 137,-474.5 131,-474.5 125,-468.5 125,-462.5 125,-462.5 125,-450.5 125,-450.5 125,-444.5 131,-438.5 137,-438.5"/>
<text text-anchor="middle" x="204.5" y="-452.8" font-family="Times,serif" font-size="14.00">Device Disassembly</text>
</g>
<!-- 2 -->
<g id="node2" class="node">
<title>2</title>
<path fill="Orange" stroke="black" d="M152,-365.5C152,-365.5 257,-365.5 257,-365.5 263,-365.5 269,-371.5 269,-377.5 269,-377.5 269,-389.5 269,-389.5 269,-395.5 263,-401.5 257,-401.5 257,-401.5 152,-401.5 152,-401.5 146,-401.5 140,-395.5 140,-389.5 140,-389.5 140,-377.5 140,-377.5 140,-371.5 146,-365.5 152,-365.5"/>
<text text-anchor="middle" x="204.5" y="-379.8" font-family="Times,serif" font-size="14.00">Circuit Analysis</text>
</g>
<!-- 1&#45;&gt;2 -->
<g id="edge1" class="edge">
<title>1&#45;&gt;2</title>
<path fill="none" stroke="black" d="M204.5,-438.31C204.5,-430.29 204.5,-420.55 204.5,-411.57"/>
<polygon fill="black" stroke="black" points="208,-411.53 204.5,-401.53 201,-411.53 208,-411.53"/>
</g>
<!-- 3 -->
<g id="node3" class="node">
<title>3</title>
<path fill="Orange" stroke="black" d="M140,-292.5C140,-292.5 269,-292.5 269,-292.5 275,-292.5 281,-298.5 281,-304.5 281,-304.5 281,-316.5 281,-316.5 281,-322.5 275,-328.5 269,-328.5 269,-328.5 140,-328.5 140,-328.5 134,-328.5 128,-322.5 128,-316.5 128,-316.5 128,-304.5 128,-304.5 128,-298.5 134,-292.5 140,-292.5"/>
<text text-anchor="middle" x="204.5" y="-306.8" font-family="Times,serif" font-size="14.00">Datasheet Analysis</text>
</g>
<!-- 2&#45;&gt;3 -->
<g id="edge2" class="edge">
<title>2&#45;&gt;3</title>
<path fill="none" stroke="black" d="M204.5,-365.31C204.5,-357.29 204.5,-347.55 204.5,-338.57"/>
<polygon fill="black" stroke="black" points="208,-338.53 204.5,-328.53 201,-338.53 208,-338.53"/>
</g>
<!-- 4 -->
<g id="node4" class="node">
<title>4</title>
<path fill="Orange" stroke="black" d="M234,-219.5C234,-219.5 363,-219.5 363,-219.5 369,-219.5 375,-225.5 375,-231.5 375,-231.5 375,-243.5 375,-243.5 375,-249.5 369,-255.5 363,-255.5 363,-255.5 234,-255.5 234,-255.5 228,-255.5 222,-249.5 222,-243.5 222,-243.5 222,-231.5 222,-231.5 222,-225.5 228,-219.5 234,-219.5"/>
<text text-anchor="middle" x="298.5" y="-233.8" font-family="Times,serif" font-size="14.00">Dump Data at Rest</text>
</g>
<!-- 3&#45;&gt;4 -->
<g id="edge3" class="edge">
<title>3&#45;&gt;4:n</title>
<path fill="none" stroke="black" d="M272.07,-292.37C283.86,-286.08 293.5,-277.54 297.04,-265.95"/>
<polygon fill="black" stroke="black" points="300.51,-266.4 298.5,-256 293.59,-265.39 300.51,-266.4"/>
</g>
<!-- 5 -->
<g id="node5" class="node">
<title>5</title>
<path fill="Orange" stroke="black" d="M31,-219.5C31,-219.5 192,-219.5 192,-219.5 198,-219.5 204,-225.5 204,-231.5 204,-231.5 204,-243.5 204,-243.5 204,-249.5 198,-255.5 192,-255.5 192,-255.5 31,-255.5 31,-255.5 25,-255.5 19,-249.5 19,-243.5 19,-243.5 19,-231.5 19,-231.5 19,-225.5 25,-219.5 31,-219.5"/>
<text text-anchor="middle" x="111.5" y="-233.8" font-family="Times,serif" font-size="14.00">Capture Data in Motion</text>
</g>
<!-- 3&#45;&gt;5 -->
<g id="edge4" class="edge">
<title>3&#45;&gt;5:n</title>
<path fill="none" stroke="black" d="M137.9,-292.33C126.14,-286.04 116.5,-277.49 112.96,-265.93"/>
<polygon fill="black" stroke="black" points="116.42,-265.39 111.5,-256 109.49,-266.4 116.42,-265.39"/>
</g>
<!-- 6 -->
<g id="node6" class="node">
<title>6</title>
<path fill="Orange" stroke="black" d="M12,-146.5C12,-146.5 113,-146.5 113,-146.5 119,-146.5 125,-152.5 125,-158.5 125,-158.5 125,-170.5 125,-170.5 125,-176.5 119,-182.5 113,-182.5 113,-182.5 12,-182.5 12,-182.5 6,-182.5 0,-176.5 0,-170.5 0,-170.5 0,-158.5 0,-158.5 0,-152.5 6,-146.5 12,-146.5"/>
<text text-anchor="middle" x="62.5" y="-160.8" font-family="Times,serif" font-size="14.00">String Analysis</text>
</g>
<!-- 4&#45;&gt;6 -->
<g id="edge5" class="edge">
<title>4&#45;&gt;6</title>
<path fill="none" stroke="black" d="M241.97,-219.49C208.07,-209.29 164.77,-196.27 129.2,-185.57"/>
<polygon fill="black" stroke="black" points="129.97,-182.14 119.38,-182.61 127.95,-188.85 129.97,-182.14"/>
</g>
<!-- 7 -->
<g id="node7" class="node">
<title>7</title>
<path fill="Orange" stroke="black" d="M155.5,-146.5C155.5,-146.5 269.5,-146.5 269.5,-146.5 275.5,-146.5 281.5,-152.5 281.5,-158.5 281.5,-158.5 281.5,-170.5 281.5,-170.5 281.5,-176.5 275.5,-182.5 269.5,-182.5 269.5,-182.5 155.5,-182.5 155.5,-182.5 149.5,-182.5 143.5,-176.5 143.5,-170.5 143.5,-170.5 143.5,-158.5 143.5,-158.5 143.5,-152.5 149.5,-146.5 155.5,-146.5"/>
<text text-anchor="middle" x="212.5" y="-160.8" font-family="Times,serif" font-size="14.00">Entropy Analysis</text>
</g>
<!-- 4&#45;&gt;7 -->
<g id="edge6" class="edge">
<title>4&#45;&gt;7</title>
<path fill="none" stroke="black" d="M277.68,-219.31C266.7,-210.24 253.05,-198.98 241.09,-189.1"/>
<polygon fill="black" stroke="black" points="243.07,-186.2 233.13,-182.53 238.61,-191.59 243.07,-186.2"/>
</g>
<!-- 8 -->
<g id="node8" class="node">
<title>8</title>
<path fill="Orange" stroke="black" d="M311.5,-146.5C311.5,-146.5 385.5,-146.5 385.5,-146.5 391.5,-146.5 397.5,-152.5 397.5,-158.5 397.5,-158.5 397.5,-170.5 397.5,-170.5 397.5,-176.5 391.5,-182.5 385.5,-182.5 385.5,-182.5 311.5,-182.5 311.5,-182.5 305.5,-182.5 299.5,-176.5 299.5,-170.5 299.5,-170.5 299.5,-158.5 299.5,-158.5 299.5,-152.5 305.5,-146.5 311.5,-146.5"/>
<text text-anchor="middle" x="348.5" y="-160.8" font-family="Times,serif" font-size="14.00">Key Search</text>
</g>
<!-- 4&#45;&gt;8 -->
<g id="edge7" class="edge">
<title>4&#45;&gt;8</title>
<path fill="none" stroke="black" d="M310.6,-219.31C316.62,-210.77 324.01,-200.27 330.67,-190.82"/>
<polygon fill="black" stroke="black" points="333.61,-192.72 336.51,-182.53 327.89,-188.69 333.61,-192.72"/>
</g>
<!-- 5&#45;&gt;6 -->
<g id="edge8" class="edge">
<title>5&#45;&gt;6</title>
<path fill="none" stroke="black" d="M99.64,-219.31C93.74,-210.77 86.5,-200.27 79.98,-190.82"/>
<polygon fill="black" stroke="black" points="82.81,-188.77 74.25,-182.53 77.05,-192.75 82.81,-188.77"/>
</g>
<!-- 5&#45;&gt;7 -->
<g id="edge9" class="edge">
<title>5&#45;&gt;7</title>
<path fill="none" stroke="black" d="M135.69,-219.49C148.84,-210.25 165.28,-198.69 179.58,-188.64"/>
<polygon fill="black" stroke="black" points="181.99,-191.23 188.16,-182.61 177.96,-185.5 181.99,-191.23"/>
</g>
<!-- 5&#45;&gt;8 -->
<g id="edge10" class="edge">
<title>5&#45;&gt;8</title>
<path fill="none" stroke="black" d="M168.75,-219.43C201.55,-209.64 243.75,-197.03 289.62,-183.26"/>
<polygon fill="black" stroke="black" points="290.88,-186.54 299.46,-180.31 288.87,-179.83 290.88,-186.54"/>
</g>
<!-- 9 -->
<g id="node9" class="node">
<title>9</title>
<path fill="Orange" stroke="black" d="M126.5,-73.5C126.5,-73.5 298.5,-73.5 298.5,-73.5 304.5,-73.5 310.5,-79.5 310.5,-85.5 310.5,-85.5 310.5,-97.5 310.5,-97.5 310.5,-103.5 304.5,-109.5 298.5,-109.5 298.5,-109.5 126.5,-109.5 126.5,-109.5 120.5,-109.5 114.5,-103.5 114.5,-97.5 114.5,-97.5 114.5,-85.5 114.5,-85.5 114.5,-79.5 120.5,-73.5 126.5,-73.5"/>
<text text-anchor="middle" x="212.5" y="-87.8" font-family="Times,serif" font-size="14.00">Decoding Retrieved Data</text>
</g>
<!-- 6&#45;&gt;9 -->
<g id="edge11" class="edge">
<title>6:s&#45;&gt;9:w</title>
<path fill="none" stroke="black" d="M62.5,-146C62.5,-116.33 76.76,-96.13 103.52,-92.2"/>
<polygon fill="black" stroke="black" points="103.77,-95.69 113.5,-91.5 103.28,-88.71 103.77,-95.69"/>
</g>
<!-- 7&#45;&gt;9 -->
<g id="edge12" class="edge">
<title>7:s&#45;&gt;9:n</title>
<path fill="none" stroke="black" d="M212.5,-146C212.5,-134 212.5,-128.75 212.5,-120.12"/>
<polygon fill="black" stroke="black" points="216,-120 212.5,-110 209,-120 216,-120"/>
</g>
<!-- 8&#45;&gt;9 -->
<g id="edge13" class="edge">
<title>8:s&#45;&gt;9:e</title>
<path fill="none" stroke="black" d="M348.5,-146C348.5,-120.38 342.59,-97.87 321.5,-92.64"/>
<polygon fill="black" stroke="black" points="321.83,-89.16 311.5,-91.5 321.04,-96.11 321.83,-89.16"/>
</g>
<!-- 10 -->
<g id="node10" class="node">
<title>10</title>
<path fill="Orange" stroke="black" d="M172.5,-0.5C172.5,-0.5 252.5,-0.5 252.5,-0.5 258.5,-0.5 264.5,-6.5 264.5,-12.5 264.5,-12.5 264.5,-24.5 264.5,-24.5 264.5,-30.5 258.5,-36.5 252.5,-36.5 252.5,-36.5 172.5,-36.5 172.5,-36.5 166.5,-36.5 160.5,-30.5 160.5,-24.5 160.5,-24.5 160.5,-12.5 160.5,-12.5 160.5,-6.5 166.5,-0.5 172.5,-0.5"/>
<text text-anchor="middle" x="212.5" y="-14.8" font-family="Times,serif" font-size="14.00">Exploitation</text>
</g>
<!-- 9&#45;&gt;10 -->
<g id="edge14" class="edge">
<title>9&#45;&gt;10</title>
<path fill="none" stroke="black" d="M212.5,-73.31C212.5,-65.29 212.5,-55.55 212.5,-46.57"/>
<polygon fill="black" stroke="black" points="216,-46.53 212.5,-36.53 209,-46.53 216,-46.53"/>
</g>
</g>
</svg>
