<?xml version="1.0" encoding="UTF-8" standalone="no"?>
<!DOCTYPE svg PUBLIC "-//W3C//DTD SVG 1.1//EN"
 "http://www.w3.org/Graphics/SVG/1.1/DTD/svg11.dtd">
<!-- Generated by graphviz version 2.50.0 (0)
 -->
<!-- Title: G Pages: 1 -->
<svg width="350pt" height="264pt"
 viewBox="0.00 0.00 349.50 264.00" xmlns="http://www.w3.org/2000/svg" xmlns:xlink="http://www.w3.org/1999/xlink">
<g id="graph0" class="graph" transform="scale(1 1) rotate(0) translate(4 260)">
<title>G</title>
<polygon fill="white" stroke="transparent" points="-4,4 -4,-260 345.5,-260 345.5,4 -4,4"/>
<!-- 1 -->
<g id="node1" class="node">
<title>1</title>
<path fill="Orange" stroke="black" d="M131,-219.5C131,-219.5 206,-219.5 206,-219.5 212,-219.5 218,-225.5 218,-231.5 218,-231.5 218,-243.5 218,-243.5 218,-249.5 212,-255.5 206,-255.5 206,-255.5 131,-255.5 131,-255.5 125,-255.5 119,-249.5 119,-243.5 119,-243.5 119,-231.5 119,-231.5 119,-225.5 125,-219.5 131,-219.5"/>
<text text-anchor="middle" x="168.5" y="-233.8" font-family="Times,serif" font-size="14.00">Traffic Capture</text>
</g>
<!-- 2 -->
<g id="node2" class="node">
<title>2</title>
<path fill="Orange" stroke="black" d="M94,-146.5C94,-146.5 243,-146.5 243,-146.5 249,-146.5 255,-152.5 255,-158.5 255,-158.5 255,-170.5 255,-170.5 255,-176.5 249,-182.5 243,-182.5 243,-182.5 94,-182.5 94,-182.5 88,-182.5 82,-176.5 82,-170.5 82,-170.5 82,-158.5 82,-158.5 82,-152.5 88,-146.5 94,-146.5"/>
<text text-anchor="middle" x="168.5" y="-160.8" font-family="Times,serif" font-size="14.00">Endpoint and Flow Analysis</text>
</g>
<!-- 1&#45;&gt;2 -->
<g id="edge1" class="edge">
<title>1&#45;&gt;2</title>
<path fill="none" stroke="black" d="M168.5,-219.31C168.5,-211.29 168.5,-201.55 168.5,-192.57"/>
<polygon fill="black" stroke="black" points="172,-192.53 168.5,-182.53 165,-192.53 172,-192.53"/>
</g>
<!-- 3 -->
<g id="node3" class="node">
<title>3</title>
<path fill="Orange" stroke="black" d="M12,-73.5C12,-73.5 145,-73.5 145,-73.5 151,-73.5 157,-79.5 157,-85.5 157,-85.5 157,-97.5 157,-97.5 157,-103.5 151,-109.5 145,-109.5 145,-109.5 12,-109.5 12,-109.5 6,-109.5 0,-103.5 0,-97.5 0,-97.5 0,-85.5 0,-85.5 0,-79.5 6,-73.5 12,-73.5"/>
<text text-anchor="middle" x="78.5" y="-87.8" font-family="Times,serif" font-size="14.00">Known Protocol Analysis</text>
</g>
<!-- 2&#45;&gt;3 -->
<g id="edge2" class="edge">
<title>2&#45;&gt;3:n</title>
<path fill="none" stroke="black" d="M105.02,-146.35C93.26,-140.03 83.55,-131.46 79.97,-119.91"/>
<polygon fill="black" stroke="black" points="83.43,-119.38 78.5,-110 76.51,-120.41 83.43,-119.38"/>
</g>
<!-- 4 -->
<g id="node4" class="node">
<title>4</title>
<path fill="Orange" stroke="black" d="M187.5,-73.5C187.5,-73.5 329.5,-73.5 329.5,-73.5 335.5,-73.5 341.5,-79.5 341.5,-85.5 341.5,-85.5 341.5,-97.5 341.5,-97.5 341.5,-103.5 335.5,-109.5 329.5,-109.5 329.5,-109.5 187.5,-109.5 187.5,-109.5 181.5,-109.5 175.5,-103.5 175.5,-97.5 175.5,-97.5 175.5,-85.5 175.5,-85.5 175.5,-79.5 181.5,-73.5 187.5,-73.5"/>
<text text-anchor="middle" x="258.5" y="-87.8" font-family="Times,serif" font-size="14.00">Unknown Protocol Decode</text>
</g>
<!-- 2&#45;&gt;4 -->
<g id="edge3" class="edge">
<title>2&#45;&gt;4:n</title>
<path fill="none" stroke="black" d="M231.98,-146.35C243.74,-140.03 253.45,-131.46 257.03,-119.91"/>
<polygon fill="black" stroke="black" points="260.49,-120.41 258.5,-110 253.57,-119.38 260.49,-120.41"/>
</g>
<!-- 5 -->
<g id="node5" class="node">
<title>5</title>
<path fill="Orange" stroke="black" d="M106.5,-0.5C106.5,-0.5 230.5,-0.5 230.5,-0.5 236.5,-0.5 242.5,-6.5 242.5,-12.5 242.5,-12.5 242.5,-24.5 242.5,-24.5 242.5,-30.5 236.5,-36.5 230.5,-36.5 230.5,-36.5 106.5,-36.5 106.5,-36.5 100.5,-36.5 94.5,-30.5 94.5,-24.5 94.5,-24.5 94.5,-12.5 94.5,-12.5 94.5,-6.5 100.5,-0.5 106.5,-0.5"/>
<text text-anchor="middle" x="168.5" y="-14.8" font-family="Times,serif" font-size="14.00">Gap Analysis with SAR</text>
</g>
<!-- 3&#45;&gt;5 -->
<g id="edge4" class="edge">
<title>3:s&#45;&gt;5</title>
<path fill="none" stroke="black" d="M78.5,-73C78.5,-59.67 85.88,-49.59 96.42,-41.99"/>
<polygon fill="black" stroke="black" points="98.37,-44.9 105.02,-36.65 94.67,-38.95 98.37,-44.9"/>
</g>
<!-- 4&#45;&gt;5 -->
<g id="edge5" class="edge">
<title>4:s&#45;&gt;5</title>
<path fill="none" stroke="black" d="M258.5,-73C258.5,-59.67 251.12,-49.59 240.58,-41.99"/>
<polygon fill="black" stroke="black" points="242.33,-38.95 231.98,-36.65 238.63,-44.9 242.33,-38.95"/>
</g>
</g>
</svg>
