<?xml version="1.0" encoding="UTF-8" standalone="no"?>
<!DOCTYPE svg PUBLIC "-//W3C//DTD SVG 1.1//EN"
 "http://www.w3.org/Graphics/SVG/1.1/DTD/svg11.dtd">
<!-- Generated by graphviz version 2.43.0 (0)
 -->
<!-- Title: G Pages: 1 -->
<svg width="424pt" height="264pt"
 viewBox="0.00 0.00 424.00 264.00" xmlns="http://www.w3.org/2000/svg" xmlns:xlink="http://www.w3.org/1999/xlink">
<g id="graph0" class="graph" transform="scale(1 1) rotate(0) translate(4 260)">
<title>G</title>
<polygon fill="white" stroke="transparent" points="-4,4 -4,-260 420,-260 420,4 -4,4"/>
<!-- 1 -->
<g id="node1" class="node">
<title>1</title>
<path fill="Orange" stroke="black" d="M154,-219.5C154,-219.5 255,-219.5 255,-219.5 261,-219.5 267,-225.5 267,-231.5 267,-231.5 267,-243.5 267,-243.5 267,-249.5 261,-255.5 255,-255.5 255,-255.5 154,-255.5 154,-255.5 148,-255.5 142,-249.5 142,-243.5 142,-243.5 142,-231.5 142,-231.5 142,-225.5 148,-219.5 154,-219.5"/>
<text text-anchor="middle" x="204.5" y="-233.8" font-family="Times,serif" font-size="14.00">Traffic Capture</text>
</g>
<!-- 2 -->
<g id="node2" class="node">
<title>2</title>
<path fill="Orange" stroke="black" d="M109,-146.5C109,-146.5 300,-146.5 300,-146.5 306,-146.5 312,-152.5 312,-158.5 312,-158.5 312,-170.5 312,-170.5 312,-176.5 306,-182.5 300,-182.5 300,-182.5 109,-182.5 109,-182.5 103,-182.5 97,-176.5 97,-170.5 97,-170.5 97,-158.5 97,-158.5 97,-152.5 103,-146.5 109,-146.5"/>
<text text-anchor="middle" x="204.5" y="-160.8" font-family="Times,serif" font-size="14.00">Endpoint and Flow Analysis</text>
</g>
<!-- 1&#45;&gt;2 -->
<g id="edge1" class="edge">
<title>1&#45;&gt;2</title>
<path fill="none" stroke="black" d="M204.5,-219.31C204.5,-211.29 204.5,-201.55 204.5,-192.57"/>
<polygon fill="black" stroke="black" points="208,-192.53 204.5,-182.53 201,-192.53 208,-192.53"/>
</g>
<!-- 3 -->
<g id="node3" class="node">
<title>3</title>
<path fill="Orange" stroke="black" d="M12,-73.5C12,-73.5 181,-73.5 181,-73.5 187,-73.5 193,-79.5 193,-85.5 193,-85.5 193,-97.5 193,-97.5 193,-103.5 187,-109.5 181,-109.5 181,-109.5 12,-109.5 12,-109.5 6,-109.5 0,-103.5 0,-97.5 0,-97.5 0,-85.5 0,-85.5 0,-79.5 6,-73.5 12,-73.5"/>
<text text-anchor="middle" x="96.5" y="-87.8" font-family="Times,serif" font-size="14.00">Known Protocol Analysis</text>
</g>
<!-- 2&#45;&gt;3 -->
<g id="edge2" class="edge">
<title>2&#45;&gt;3:n</title>
<path fill="none" stroke="black" d="M122.09,-146.44C110.43,-140.2 101.24,-131.67 97.88,-120.02"/>
<polygon fill="black" stroke="black" points="101.33,-119.43 96.5,-110 94.4,-120.38 101.33,-119.43"/>
</g>
<!-- 4 -->
<g id="node4" class="node">
<title>4</title>
<path fill="Orange" stroke="black" d="M223,-73.5C223,-73.5 404,-73.5 404,-73.5 410,-73.5 416,-79.5 416,-85.5 416,-85.5 416,-97.5 416,-97.5 416,-103.5 410,-109.5 404,-109.5 404,-109.5 223,-109.5 223,-109.5 217,-109.5 211,-103.5 211,-97.5 211,-97.5 211,-85.5 211,-85.5 211,-79.5 217,-73.5 223,-73.5"/>
<text text-anchor="middle" x="313.5" y="-87.8" font-family="Times,serif" font-size="14.00">Unknown Protocol Decode</text>
</g>
<!-- 2&#45;&gt;4 -->
<g id="edge3" class="edge">
<title>2&#45;&gt;4:n</title>
<path fill="none" stroke="black" d="M287.94,-146.47C299.6,-140.23 308.78,-131.69 312.12,-120.04"/>
<polygon fill="black" stroke="black" points="315.61,-120.38 313.5,-110 308.67,-119.43 315.61,-120.38"/>
</g>
<!-- 5 -->
<g id="node5" class="node">
<title>5</title>
<path fill="Orange" stroke="black" d="M127,-0.5C127,-0.5 282,-0.5 282,-0.5 288,-0.5 294,-6.5 294,-12.5 294,-12.5 294,-24.5 294,-24.5 294,-30.5 288,-36.5 282,-36.5 282,-36.5 127,-36.5 127,-36.5 121,-36.5 115,-30.5 115,-24.5 115,-24.5 115,-12.5 115,-12.5 115,-6.5 121,-0.5 127,-0.5"/>
<text text-anchor="middle" x="204.5" y="-14.8" font-family="Times,serif" font-size="14.00">Gap Analysis with SAR</text>
</g>
<!-- 3&#45;&gt;5 -->
<g id="edge4" class="edge">
<title>3:s&#45;&gt;5</title>
<path fill="none" stroke="black" d="M96.5,-73C96.5,-59.63 103.23,-49.6 113.33,-42.07"/>
<polygon fill="black" stroke="black" points="115.49,-44.85 122.09,-36.56 111.77,-38.92 115.49,-44.85"/>
</g>
<!-- 4&#45;&gt;5 -->
<g id="edge5" class="edge">
<title>4:s&#45;&gt;5</title>
<path fill="none" stroke="black" d="M313.5,-73C313.5,-59.61 306.79,-49.57 296.7,-42.04"/>
<polygon fill="black" stroke="black" points="298.27,-38.9 287.94,-36.53 294.54,-44.82 298.27,-38.9"/>
</g>
</g>
</svg>
