<?xml version="1.0" encoding="UTF-8" standalone="no"?>
<!DOCTYPE svg PUBLIC "-//W3C//DTD SVG 1.1//EN"
 "http://www.w3.org/Graphics/SVG/1.1/DTD/svg11.dtd">
<!-- Generated by graphviz version 2.50.0 (0)
 -->
<!-- Title: G Pages: 1 -->
<svg width="382pt" height="428pt"
 viewBox="0.00 0.00 382.00 428.00" xmlns="http://www.w3.org/2000/svg" xmlns:xlink="http://www.w3.org/1999/xlink">
<g id="graph0" class="graph" transform="scale(1 1) rotate(0) translate(4 424)">
<title>G</title>
<polygon fill="white" stroke="transparent" points="-4,4 -4,-424 378,-424 378,4 -4,4"/>
<g id="clust1" class="cluster">
<title>cluster0</title>
<path fill="deepskyblue" stroke="deepskyblue" d="M20,-211C20,-211 354,-211 354,-211 360,-211 366,-217 366,-223 366,-223 366,-363 366,-363 366,-369 360,-375 354,-375 354,-375 20,-375 20,-375 14,-375 8,-369 8,-363 8,-363 8,-223 8,-223 8,-217 14,-211 20,-211"/>
<text text-anchor="middle" x="88.5" y="-359.8" font-family="Times,serif" font-size="14.00">Same as A&amp;E</text>
<text text-anchor="middle" x="88.5" y="-344.8" font-family="Times,serif" font-size="14.00">Control Network Captures</text>
</g>
<!-- 1 -->
<g id="node1" class="node">
<title>1</title>
<path fill="Orange" stroke="black" d="M149.5,-383.5C149.5,-383.5 224.5,-383.5 224.5,-383.5 230.5,-383.5 236.5,-389.5 236.5,-395.5 236.5,-395.5 236.5,-407.5 236.5,-407.5 236.5,-413.5 230.5,-419.5 224.5,-419.5 224.5,-419.5 149.5,-419.5 149.5,-419.5 143.5,-419.5 137.5,-413.5 137.5,-407.5 137.5,-407.5 137.5,-395.5 137.5,-395.5 137.5,-389.5 143.5,-383.5 149.5,-383.5"/>
<text text-anchor="middle" x="187" y="-397.8" font-family="Times,serif" font-size="14.00">Traffic Capture</text>
</g>
<!-- 2 -->
<g id="node2" class="node">
<title>2</title>
<path fill="Orange" stroke="black" d="M112.5,-292.5C112.5,-292.5 261.5,-292.5 261.5,-292.5 267.5,-292.5 273.5,-298.5 273.5,-304.5 273.5,-304.5 273.5,-316.5 273.5,-316.5 273.5,-322.5 267.5,-328.5 261.5,-328.5 261.5,-328.5 112.5,-328.5 112.5,-328.5 106.5,-328.5 100.5,-322.5 100.5,-316.5 100.5,-316.5 100.5,-304.5 100.5,-304.5 100.5,-298.5 106.5,-292.5 112.5,-292.5"/>
<text text-anchor="middle" x="187" y="-306.8" font-family="Times,serif" font-size="14.00">Endpoint and Flow Analysis</text>
</g>
<!-- 1&#45;&gt;2 -->
<g id="edge1" class="edge">
<title>1&#45;&gt;2</title>
<path fill="none" stroke="black" d="M187,-383.34C187,-370.78 187,-353.48 187,-339"/>
<polygon fill="black" stroke="black" points="190.5,-338.61 187,-328.61 183.5,-338.61 190.5,-338.61"/>
</g>
<!-- 3 -->
<g id="node3" class="node">
<title>3</title>
<path fill="Orange" stroke="black" d="M28.5,-219.5C28.5,-219.5 161.5,-219.5 161.5,-219.5 167.5,-219.5 173.5,-225.5 173.5,-231.5 173.5,-231.5 173.5,-243.5 173.5,-243.5 173.5,-249.5 167.5,-255.5 161.5,-255.5 161.5,-255.5 28.5,-255.5 28.5,-255.5 22.5,-255.5 16.5,-249.5 16.5,-243.5 16.5,-243.5 16.5,-231.5 16.5,-231.5 16.5,-225.5 22.5,-219.5 28.5,-219.5"/>
<text text-anchor="middle" x="95" y="-233.8" font-family="Times,serif" font-size="14.00">Known Protocol Analysis</text>
</g>
<!-- 2&#45;&gt;3 -->
<g id="edge2" class="edge">
<title>2&#45;&gt;3:n</title>
<path fill="none" stroke="black" d="M121.61,-292.43C109.79,-286.12 100.05,-277.55 96.47,-265.96"/>
<polygon fill="black" stroke="black" points="99.93,-265.38 95,-256 93,-266.4 99.93,-265.38"/>
</g>
<!-- 4 -->
<g id="node4" class="node">
<title>4</title>
<path fill="Orange" stroke="black" d="M204,-219.5C204,-219.5 346,-219.5 346,-219.5 352,-219.5 358,-225.5 358,-231.5 358,-231.5 358,-243.5 358,-243.5 358,-249.5 352,-255.5 346,-255.5 346,-255.5 204,-255.5 204,-255.5 198,-255.5 192,-249.5 192,-243.5 192,-243.5 192,-231.5 192,-231.5 192,-225.5 198,-219.5 204,-219.5"/>
<text text-anchor="middle" x="275" y="-233.8" font-family="Times,serif" font-size="14.00">Unknown Protocol Decode</text>
</g>
<!-- 2&#45;&gt;4 -->
<g id="edge3" class="edge">
<title>2&#45;&gt;4:n</title>
<path fill="none" stroke="black" d="M248.6,-292.28C260.15,-285.99 269.77,-277.54 273.42,-266.21"/>
<polygon fill="black" stroke="black" points="276.93,-266.42 275,-256 270.01,-265.35 276.93,-266.42"/>
</g>
<!-- 5 -->
<g id="node5" class="node">
<title>5</title>
<path fill="Orange" stroke="black" d="M128.5,-146.5C128.5,-146.5 241.5,-146.5 241.5,-146.5 247.5,-146.5 253.5,-152.5 253.5,-158.5 253.5,-158.5 253.5,-170.5 253.5,-170.5 253.5,-176.5 247.5,-182.5 241.5,-182.5 241.5,-182.5 128.5,-182.5 128.5,-182.5 122.5,-182.5 116.5,-176.5 116.5,-170.5 116.5,-170.5 116.5,-158.5 116.5,-158.5 116.5,-152.5 122.5,-146.5 128.5,-146.5"/>
<text text-anchor="middle" x="185" y="-160.8" font-family="Times,serif" font-size="14.00">Protocol Enumeration</text>
</g>
<!-- 3&#45;&gt;5 -->
<g id="edge4" class="edge">
<title>3:s&#45;&gt;5</title>
<path fill="none" stroke="black" d="M95,-218.5C95,-205.48 102.08,-195.59 112.27,-188.11"/>
<polygon fill="black" stroke="black" points="114.42,-190.89 121.03,-182.61 110.7,-184.96 114.42,-190.89"/>
</g>
<!-- 4&#45;&gt;5 -->
<g id="edge5" class="edge">
<title>4:s&#45;&gt;5</title>
<path fill="none" stroke="black" d="M275,-218.5C275,-205.48 267.92,-195.59 257.73,-188.11"/>
<polygon fill="black" stroke="black" points="259.3,-184.96 248.97,-182.61 255.58,-190.89 259.3,-184.96"/>
</g>
<!-- 6 -->
<g id="node6" class="node">
<title>6</title>
<path fill="Orange" stroke="black" d="M142,-73.5C142,-73.5 228,-73.5 228,-73.5 234,-73.5 240,-79.5 240,-85.5 240,-85.5 240,-97.5 240,-97.5 240,-103.5 234,-109.5 228,-109.5 228,-109.5 142,-109.5 142,-109.5 136,-109.5 130,-103.5 130,-97.5 130,-97.5 130,-85.5 130,-85.5 130,-79.5 136,-73.5 142,-73.5"/>
<text text-anchor="middle" x="185" y="-87.8" font-family="Times,serif" font-size="14.00">Protocol Fuzzing</text>
</g>
<!-- 5&#45;&gt;6 -->
<g id="edge6" class="edge">
<title>5&#45;&gt;6</title>
<path fill="none" stroke="black" d="M185,-146.31C185,-138.29 185,-128.55 185,-119.57"/>
<polygon fill="black" stroke="black" points="188.5,-119.53 185,-109.53 181.5,-119.53 188.5,-119.53"/>
</g>
<!-- 7 -->
<g id="node7" class="node">
<title>7</title>
<path fill="Orange" stroke="black" d="M130.5,-0.5C130.5,-0.5 239.5,-0.5 239.5,-0.5 245.5,-0.5 251.5,-6.5 251.5,-12.5 251.5,-12.5 251.5,-24.5 251.5,-24.5 251.5,-30.5 245.5,-36.5 239.5,-36.5 239.5,-36.5 130.5,-36.5 130.5,-36.5 124.5,-36.5 118.5,-30.5 118.5,-24.5 118.5,-24.5 118.5,-12.5 118.5,-12.5 118.5,-6.5 124.5,-0.5 130.5,-0.5"/>
<text text-anchor="middle" x="185" y="-14.8" font-family="Times,serif" font-size="14.00">Protocol Exploitation</text>
</g>
<!-- 6&#45;&gt;7 -->
<g id="edge7" class="edge">
<title>6&#45;&gt;7</title>
<path fill="none" stroke="black" d="M185,-73.31C185,-65.29 185,-55.55 185,-46.57"/>
<polygon fill="black" stroke="black" points="188.5,-46.53 185,-36.53 181.5,-46.53 188.5,-46.53"/>
</g>
</g>
</svg>
