<?xml version="1.0" encoding="UTF-8" standalone="no"?>
<!DOCTYPE svg PUBLIC "-//W3C//DTD SVG 1.1//EN"
 "http://www.w3.org/Graphics/SVG/1.1/DTD/svg11.dtd">
<!-- Generated by graphviz version 2.43.0 (0)
 -->
<!-- Title: G Pages: 1 -->
<svg width="422pt" height="337pt"
 viewBox="0.00 0.00 422.00 337.00" xmlns="http://www.w3.org/2000/svg" xmlns:xlink="http://www.w3.org/1999/xlink">
<g id="graph0" class="graph" transform="scale(1 1) rotate(0) translate(4 333)">
<title>G</title>
<polygon fill="white" stroke="transparent" points="-4,4 -4,-333 418,-333 418,4 -4,4"/>
<!-- 1 -->
<g id="node1" class="node">
<title>1</title>
<path fill="Orange" stroke="black" d="M146.5,-292.5C146.5,-292.5 271.5,-292.5 271.5,-292.5 277.5,-292.5 283.5,-298.5 283.5,-304.5 283.5,-304.5 283.5,-316.5 283.5,-316.5 283.5,-322.5 277.5,-328.5 271.5,-328.5 271.5,-328.5 146.5,-328.5 146.5,-328.5 140.5,-328.5 134.5,-322.5 134.5,-316.5 134.5,-316.5 134.5,-304.5 134.5,-304.5 134.5,-298.5 140.5,-292.5 146.5,-292.5"/>
<text text-anchor="middle" x="209" y="-306.8" font-family="Times,serif" font-size="14.00">DNS Interrogation</text>
</g>
<!-- 2 -->
<g id="node2" class="node">
<title>2</title>
<path fill="Orange" stroke="black" d="M79.5,-219.5C79.5,-219.5 172.5,-219.5 172.5,-219.5 178.5,-219.5 184.5,-225.5 184.5,-231.5 184.5,-231.5 184.5,-243.5 184.5,-243.5 184.5,-249.5 178.5,-255.5 172.5,-255.5 172.5,-255.5 79.5,-255.5 79.5,-255.5 73.5,-255.5 67.5,-249.5 67.5,-243.5 67.5,-243.5 67.5,-231.5 67.5,-231.5 67.5,-225.5 73.5,-219.5 79.5,-219.5"/>
<text text-anchor="middle" x="126" y="-233.8" font-family="Times,serif" font-size="14.00">Port Scanning</text>
</g>
<!-- 1&#45;&gt;2 -->
<g id="edge1" class="edge">
<title>1&#45;&gt;2:n</title>
<path fill="none" stroke="black" d="M152.72,-292.47C141.15,-286.12 131.35,-277.58 127.62,-266.22"/>
<polygon fill="black" stroke="black" points="131.02,-265.33 126,-256 124.1,-266.42 131.02,-265.33"/>
</g>
<!-- 5 -->
<g id="node5" class="node">
<title>5</title>
<path fill="Orange" stroke="black" d="M226.5,-219.5C226.5,-219.5 381.5,-219.5 381.5,-219.5 387.5,-219.5 393.5,-225.5 393.5,-231.5 393.5,-231.5 393.5,-243.5 393.5,-243.5 393.5,-249.5 387.5,-255.5 381.5,-255.5 381.5,-255.5 226.5,-255.5 226.5,-255.5 220.5,-255.5 214.5,-249.5 214.5,-243.5 214.5,-243.5 214.5,-231.5 214.5,-231.5 214.5,-225.5 220.5,-219.5 226.5,-219.5"/>
<text text-anchor="middle" x="304" y="-233.8" font-family="Times,serif" font-size="14.00">Vulnerability Scanning</text>
</g>
<!-- 1&#45;&gt;5 -->
<g id="edge5" class="edge">
<title>1&#45;&gt;5:n</title>
<path fill="none" stroke="black" d="M277.54,-292.41C289.36,-286.13 299,-277.58 302.54,-265.98"/>
<polygon fill="black" stroke="black" points="306.02,-266.4 304,-256 299.09,-265.39 306.02,-266.4"/>
</g>
<!-- 3 -->
<g id="node3" class="node">
<title>3</title>
<path fill="Orange" stroke="black" d="M12,-146.5C12,-146.5 194,-146.5 194,-146.5 200,-146.5 206,-152.5 206,-158.5 206,-158.5 206,-170.5 206,-170.5 206,-176.5 200,-182.5 194,-182.5 194,-182.5 12,-182.5 12,-182.5 6,-182.5 0,-176.5 0,-170.5 0,-170.5 0,-158.5 0,-158.5 0,-152.5 6,-146.5 12,-146.5"/>
<text text-anchor="middle" x="103" y="-160.8" font-family="Times,serif" font-size="14.00">Technology Fingerprinting</text>
</g>
<!-- 2&#45;&gt;3 -->
<g id="edge2" class="edge">
<title>2&#45;&gt;3:n</title>
<path fill="none" stroke="black" d="M114.5,-219.46C110.23,-211.93 105.96,-202.62 104.05,-193.03"/>
<polygon fill="black" stroke="black" points="107.52,-192.58 103,-183 100.56,-193.31 107.52,-192.58"/>
</g>
<!-- 4 -->
<g id="node4" class="node">
<title>4</title>
<path fill="Orange" stroke="black" d="M32.5,-73.5C32.5,-73.5 181.5,-73.5 181.5,-73.5 187.5,-73.5 193.5,-79.5 193.5,-85.5 193.5,-85.5 193.5,-97.5 193.5,-97.5 193.5,-103.5 187.5,-109.5 181.5,-109.5 181.5,-109.5 32.5,-109.5 32.5,-109.5 26.5,-109.5 20.5,-103.5 20.5,-97.5 20.5,-97.5 20.5,-85.5 20.5,-85.5 20.5,-79.5 26.5,-73.5 32.5,-73.5"/>
<text text-anchor="middle" x="107" y="-87.8" font-family="Times,serif" font-size="14.00">Protocol Enumeration</text>
</g>
<!-- 3&#45;&gt;4 -->
<g id="edge3" class="edge">
<title>3&#45;&gt;4:n</title>
<path fill="none" stroke="black" d="M104.95,-146.18C105.69,-138.58 106.44,-129.31 106.79,-120.17"/>
<polygon fill="black" stroke="black" points="110.29,-120.07 107,-110 103.29,-119.93 110.29,-120.07"/>
</g>
<!-- 8 -->
<g id="node8" class="node">
<title>8</title>
<path fill="Orange" stroke="black" d="M115.5,-0.5C115.5,-0.5 302.5,-0.5 302.5,-0.5 308.5,-0.5 314.5,-6.5 314.5,-12.5 314.5,-12.5 314.5,-24.5 314.5,-24.5 314.5,-30.5 308.5,-36.5 302.5,-36.5 302.5,-36.5 115.5,-36.5 115.5,-36.5 109.5,-36.5 103.5,-30.5 103.5,-24.5 103.5,-24.5 103.5,-12.5 103.5,-12.5 103.5,-6.5 109.5,-0.5 115.5,-0.5"/>
<text text-anchor="middle" x="209" y="-14.8" font-family="Times,serif" font-size="14.00">Post Exploitation / Cleanup</text>
</g>
<!-- 4&#45;&gt;8 -->
<g id="edge4" class="edge">
<title>4:s&#45;&gt;8</title>
<path fill="none" stroke="black" d="M107,-73C107,-59.54 114.06,-49.45 124.46,-41.9"/>
<polygon fill="black" stroke="black" points="126.34,-44.85 133,-36.61 122.66,-38.9 126.34,-44.85"/>
</g>
<!-- 6 -->
<g id="node6" class="node">
<title>6</title>
<path fill="Orange" stroke="black" d="M236,-146.5C236,-146.5 396,-146.5 396,-146.5 402,-146.5 408,-152.5 408,-158.5 408,-158.5 408,-170.5 408,-170.5 408,-176.5 402,-182.5 396,-182.5 396,-182.5 236,-182.5 236,-182.5 230,-182.5 224,-176.5 224,-170.5 224,-170.5 224,-158.5 224,-158.5 224,-152.5 230,-146.5 236,-146.5"/>
<text text-anchor="middle" x="316" y="-160.8" font-family="Times,serif" font-size="14.00">Vulnerability Validation</text>
</g>
<!-- 5&#45;&gt;6 -->
<g id="edge6" class="edge">
<title>5&#45;&gt;6:n</title>
<path fill="none" stroke="black" d="M309.86,-219.37C312.1,-211.74 314.36,-202.37 315.4,-193.04"/>
<polygon fill="black" stroke="black" points="318.9,-193.19 316,-183 311.91,-192.77 318.9,-193.19"/>
</g>
<!-- 7 -->
<g id="node7" class="node">
<title>7</title>
<path fill="Orange" stroke="black" d="M226,-73.5C226,-73.5 402,-73.5 402,-73.5 408,-73.5 414,-79.5 414,-85.5 414,-85.5 414,-97.5 414,-97.5 414,-103.5 408,-109.5 402,-109.5 402,-109.5 226,-109.5 226,-109.5 220,-109.5 214,-103.5 214,-97.5 214,-97.5 214,-85.5 214,-85.5 214,-79.5 220,-73.5 226,-73.5"/>
<text text-anchor="middle" x="314" y="-87.8" font-family="Times,serif" font-size="14.00">Vulnerability Exploitation</text>
</g>
<!-- 6&#45;&gt;7 -->
<g id="edge7" class="edge">
<title>6&#45;&gt;7:n</title>
<path fill="none" stroke="black" d="M315.02,-146.16C314.65,-138.55 314.28,-129.29 314.1,-120.16"/>
<polygon fill="black" stroke="black" points="317.6,-119.96 314,-110 310.6,-120.04 317.6,-119.96"/>
</g>
<!-- 7&#45;&gt;8 -->
<g id="edge8" class="edge">
<title>7:s&#45;&gt;8</title>
<path fill="none" stroke="black" d="M314,-73C314,-59.47 306.99,-49.36 296.6,-41.8"/>
<polygon fill="black" stroke="black" points="298.39,-38.8 288.04,-36.51 294.71,-44.75 298.39,-38.8"/>
</g>
</g>
</svg>
