<?xml version="1.0" encoding="UTF-8" standalone="no"?>
<!DOCTYPE svg PUBLIC "-//W3C//DTD SVG 1.1//EN"
 "http://www.w3.org/Graphics/SVG/1.1/DTD/svg11.dtd">
<!-- Generated by graphviz version 2.43.0 (0)
 -->
<!-- Title: G Pages: 1 -->
<svg width="217pt" height="410pt"
 viewBox="0.00 0.00 216.58 410.00" xmlns="http://www.w3.org/2000/svg" xmlns:xlink="http://www.w3.org/1999/xlink">
<g id="graph0" class="graph" transform="scale(1 1) rotate(0) translate(4 406)">
<title>G</title>
<polygon fill="white" stroke="transparent" points="-4,4 -4,-406 212.58,-406 212.58,4 -4,4"/>
<!-- 1 -->
<g id="node1" class="node">
<title>1</title>
<path fill="Orange" stroke="black" d="M38.32,-365.5C38.32,-365.5 170.32,-365.5 170.32,-365.5 176.32,-365.5 182.32,-371.5 182.32,-377.5 182.32,-377.5 182.32,-389.5 182.32,-389.5 182.32,-395.5 176.32,-401.5 170.32,-401.5 170.32,-401.5 38.32,-401.5 38.32,-401.5 32.32,-401.5 26.32,-395.5 26.32,-389.5 26.32,-389.5 26.32,-377.5 26.32,-377.5 26.32,-371.5 32.32,-365.5 38.32,-365.5"/>
<text text-anchor="middle" x="104.32" y="-379.8" font-family="Times,serif" font-size="14.00">Functional Analysis</text>
</g>
<!-- 2 -->
<g id="node2" class="node">
<title>2</title>
<path fill="Orange" stroke="black" d="M20.82,-292.5C20.82,-292.5 187.82,-292.5 187.82,-292.5 193.82,-292.5 199.82,-298.5 199.82,-304.5 199.82,-304.5 199.82,-316.5 199.82,-316.5 199.82,-322.5 193.82,-328.5 187.82,-328.5 187.82,-328.5 20.82,-328.5 20.82,-328.5 14.82,-328.5 8.82,-322.5 8.82,-316.5 8.82,-316.5 8.82,-304.5 8.82,-304.5 8.82,-298.5 14.82,-292.5 20.82,-292.5"/>
<text text-anchor="middle" x="104.32" y="-306.8" font-family="Times,serif" font-size="14.00">Communication Capture</text>
</g>
<!-- 1&#45;&gt;2 -->
<g id="edge1" class="edge">
<title>1&#45;&gt;2</title>
<path fill="none" stroke="black" d="M104.32,-365.31C104.32,-357.29 104.32,-347.55 104.32,-338.57"/>
<polygon fill="black" stroke="black" points="107.82,-338.53 104.32,-328.53 100.82,-338.53 107.82,-338.53"/>
</g>
<!-- 3 -->
<g id="node3" class="node">
<title>3</title>
<path fill="Orange" stroke="black" d="M47.32,-219.5C47.32,-219.5 161.32,-219.5 161.32,-219.5 167.32,-219.5 173.32,-225.5 173.32,-231.5 173.32,-231.5 173.32,-243.5 173.32,-243.5 173.32,-249.5 167.32,-255.5 161.32,-255.5 161.32,-255.5 47.32,-255.5 47.32,-255.5 41.32,-255.5 35.32,-249.5 35.32,-243.5 35.32,-243.5 35.32,-231.5 35.32,-231.5 35.32,-225.5 41.32,-219.5 47.32,-219.5"/>
<text text-anchor="middle" x="104.32" y="-233.8" font-family="Times,serif" font-size="14.00">Capture Analysis</text>
</g>
<!-- 2&#45;&gt;3 -->
<g id="edge2" class="edge">
<title>2:sw&#45;&gt;3:w</title>
<path fill="none" stroke="black" d="M8.32,-292C-8.21,-275.47 3.42,-246.38 24.43,-239.16"/>
<polygon fill="black" stroke="black" points="25.03,-242.61 34.32,-237.5 23.87,-235.7 25.03,-242.61"/>
</g>
<!-- 3&#45;&gt;2 -->
<g id="edge3" class="edge">
<title>3:e&#45;&gt;2:se</title>
<path fill="none" stroke="black" d="M174.32,-237.5C197.59,-237.5 214.32,-264.21 205.98,-283.69"/>
<polygon fill="black" stroke="black" points="203.05,-281.76 200.32,-292 208.84,-285.71 203.05,-281.76"/>
</g>
<!-- 4 -->
<g id="node4" class="node">
<title>4</title>
<path fill="Orange" stroke="black" d="M16.82,-146.5C16.82,-146.5 191.82,-146.5 191.82,-146.5 197.82,-146.5 203.82,-152.5 203.82,-158.5 203.82,-158.5 203.82,-170.5 203.82,-170.5 203.82,-176.5 197.82,-182.5 191.82,-182.5 191.82,-182.5 16.82,-182.5 16.82,-182.5 10.82,-182.5 4.82,-176.5 4.82,-170.5 4.82,-170.5 4.82,-158.5 4.82,-158.5 4.82,-152.5 10.82,-146.5 16.82,-146.5"/>
<text text-anchor="middle" x="104.32" y="-160.8" font-family="Times,serif" font-size="14.00">Testing Harness Creation</text>
</g>
<!-- 3&#45;&gt;4 -->
<g id="edge4" class="edge">
<title>3&#45;&gt;4</title>
<path fill="none" stroke="black" d="M104.32,-219.31C104.32,-211.29 104.32,-201.55 104.32,-192.57"/>
<polygon fill="black" stroke="black" points="107.82,-192.53 104.32,-182.53 100.82,-192.53 107.82,-192.53"/>
</g>
<!-- 5 -->
<g id="node5" class="node">
<title>5</title>
<path fill="Orange" stroke="black" d="M44.82,-73.5C44.82,-73.5 163.82,-73.5 163.82,-73.5 169.82,-73.5 175.82,-79.5 175.82,-85.5 175.82,-85.5 175.82,-97.5 175.82,-97.5 175.82,-103.5 169.82,-109.5 163.82,-109.5 163.82,-109.5 44.82,-109.5 44.82,-109.5 38.82,-109.5 32.82,-103.5 32.82,-97.5 32.82,-97.5 32.82,-85.5 32.82,-85.5 32.82,-79.5 38.82,-73.5 44.82,-73.5"/>
<text text-anchor="middle" x="104.32" y="-87.8" font-family="Times,serif" font-size="14.00">Endpoint Fuzzing</text>
</g>
<!-- 4&#45;&gt;5 -->
<g id="edge5" class="edge">
<title>4&#45;&gt;5</title>
<path fill="none" stroke="black" d="M104.32,-146.31C104.32,-138.29 104.32,-128.55 104.32,-119.57"/>
<polygon fill="black" stroke="black" points="107.82,-119.53 104.32,-109.53 100.82,-119.53 107.82,-119.53"/>
</g>
<!-- 6 -->
<g id="node6" class="node">
<title>6</title>
<path fill="Orange" stroke="black" d="M64.32,-0.5C64.32,-0.5 144.32,-0.5 144.32,-0.5 150.32,-0.5 156.32,-6.5 156.32,-12.5 156.32,-12.5 156.32,-24.5 156.32,-24.5 156.32,-30.5 150.32,-36.5 144.32,-36.5 144.32,-36.5 64.32,-36.5 64.32,-36.5 58.32,-36.5 52.32,-30.5 52.32,-24.5 52.32,-24.5 52.32,-12.5 52.32,-12.5 52.32,-6.5 58.32,-0.5 64.32,-0.5"/>
<text text-anchor="middle" x="104.32" y="-14.8" font-family="Times,serif" font-size="14.00">Exploitation</text>
</g>
<!-- 5&#45;&gt;6 -->
<g id="edge6" class="edge">
<title>5&#45;&gt;6</title>
<path fill="none" stroke="black" d="M104.32,-73.31C104.32,-65.29 104.32,-55.55 104.32,-46.57"/>
<polygon fill="black" stroke="black" points="107.82,-46.53 104.32,-36.53 100.82,-46.53 107.82,-46.53"/>
</g>
</g>
</svg>
