<?xml version="1.0" encoding="UTF-8" standalone="no"?>
<!DOCTYPE svg PUBLIC "-//W3C//DTD SVG 1.1//EN"
 "http://www.w3.org/Graphics/SVG/1.1/DTD/svg11.dtd">
<!-- Generated by graphviz version 2.50.0 (0)
 -->
<!-- Title: G Pages: 1 -->
<svg width="342pt" height="337pt"
 viewBox="0.00 0.00 341.50 337.00" xmlns="http://www.w3.org/2000/svg" xmlns:xlink="http://www.w3.org/1999/xlink">
<g id="graph0" class="graph" transform="scale(1 1) rotate(0) translate(4 333)">
<title>G</title>
<polygon fill="white" stroke="transparent" points="-4,4 -4,-333 337.5,-333 337.5,4 -4,4"/>
<!-- 1 -->
<g id="node1" class="node">
<title>1</title>
<path fill="Orange" stroke="black" d="M121.5,-292.5C121.5,-292.5 216.5,-292.5 216.5,-292.5 222.5,-292.5 228.5,-298.5 228.5,-304.5 228.5,-304.5 228.5,-316.5 228.5,-316.5 228.5,-322.5 222.5,-328.5 216.5,-328.5 216.5,-328.5 121.5,-328.5 121.5,-328.5 115.5,-328.5 109.5,-322.5 109.5,-316.5 109.5,-316.5 109.5,-304.5 109.5,-304.5 109.5,-298.5 115.5,-292.5 121.5,-292.5"/>
<text text-anchor="middle" x="169" y="-306.8" font-family="Times,serif" font-size="14.00">DNS Interrogation</text>
</g>
<!-- 2 -->
<g id="node2" class="node">
<title>2</title>
<path fill="Orange" stroke="black" d="M66,-219.5C66,-219.5 136,-219.5 136,-219.5 142,-219.5 148,-225.5 148,-231.5 148,-231.5 148,-243.5 148,-243.5 148,-249.5 142,-255.5 136,-255.5 136,-255.5 66,-255.5 66,-255.5 60,-255.5 54,-249.5 54,-243.5 54,-243.5 54,-231.5 54,-231.5 54,-225.5 60,-219.5 66,-219.5"/>
<text text-anchor="middle" x="101" y="-233.8" font-family="Times,serif" font-size="14.00">Port Scanning</text>
</g>
<!-- 1&#45;&gt;2 -->
<g id="edge1" class="edge">
<title>1&#45;&gt;2:n</title>
<path fill="none" stroke="black" d="M126.32,-292.32C115.65,-285.69 106.2,-276.97 102.57,-265.88"/>
<polygon fill="black" stroke="black" points="106.03,-265.33 101,-256 99.12,-266.43 106.03,-265.33"/>
</g>
<!-- 5 -->
<g id="node5" class="node">
<title>5</title>
<path fill="Orange" stroke="black" d="M187.5,-219.5C187.5,-219.5 306.5,-219.5 306.5,-219.5 312.5,-219.5 318.5,-225.5 318.5,-231.5 318.5,-231.5 318.5,-243.5 318.5,-243.5 318.5,-249.5 312.5,-255.5 306.5,-255.5 306.5,-255.5 187.5,-255.5 187.5,-255.5 181.5,-255.5 175.5,-249.5 175.5,-243.5 175.5,-243.5 175.5,-231.5 175.5,-231.5 175.5,-225.5 181.5,-219.5 187.5,-219.5"/>
<text text-anchor="middle" x="247" y="-233.8" font-family="Times,serif" font-size="14.00">Vulnerability Scanning</text>
</g>
<!-- 1&#45;&gt;5 -->
<g id="edge5" class="edge">
<title>1&#45;&gt;5:n</title>
<path fill="none" stroke="black" d="M220.59,-292.41C231.93,-285.98 241.67,-277.4 245.39,-266.12"/>
<polygon fill="black" stroke="black" points="248.88,-266.43 247,-256 241.97,-265.33 248.88,-266.43"/>
</g>
<!-- 3 -->
<g id="node3" class="node">
<title>3</title>
<path fill="Orange" stroke="black" d="M12,-146.5C12,-146.5 152,-146.5 152,-146.5 158,-146.5 164,-152.5 164,-158.5 164,-158.5 164,-170.5 164,-170.5 164,-176.5 158,-182.5 152,-182.5 152,-182.5 12,-182.5 12,-182.5 6,-182.5 0,-176.5 0,-170.5 0,-170.5 0,-158.5 0,-158.5 0,-152.5 6,-146.5 12,-146.5"/>
<text text-anchor="middle" x="82" y="-160.8" font-family="Times,serif" font-size="14.00">Technology Fingerprinting</text>
</g>
<!-- 2&#45;&gt;3 -->
<g id="edge2" class="edge">
<title>2&#45;&gt;3:n</title>
<path fill="none" stroke="black" d="M91.5,-219.21C88.01,-211.71 84.52,-202.5 82.92,-193.14"/>
<polygon fill="black" stroke="black" points="86.39,-192.64 82,-183 79.41,-193.27 86.39,-192.64"/>
</g>
<!-- 4 -->
<g id="node4" class="node">
<title>4</title>
<path fill="Orange" stroke="black" d="M29.5,-73.5C29.5,-73.5 142.5,-73.5 142.5,-73.5 148.5,-73.5 154.5,-79.5 154.5,-85.5 154.5,-85.5 154.5,-97.5 154.5,-97.5 154.5,-103.5 148.5,-109.5 142.5,-109.5 142.5,-109.5 29.5,-109.5 29.5,-109.5 23.5,-109.5 17.5,-103.5 17.5,-97.5 17.5,-97.5 17.5,-85.5 17.5,-85.5 17.5,-79.5 23.5,-73.5 29.5,-73.5"/>
<text text-anchor="middle" x="86" y="-87.8" font-family="Times,serif" font-size="14.00">Protocol Enumeration</text>
</g>
<!-- 3&#45;&gt;4 -->
<g id="edge3" class="edge">
<title>3&#45;&gt;4:n</title>
<path fill="none" stroke="black" d="M83.95,-146.18C84.69,-138.58 85.44,-129.31 85.79,-120.17"/>
<polygon fill="black" stroke="black" points="89.29,-120.07 86,-110 82.29,-119.93 89.29,-120.07"/>
</g>
<!-- 8 -->
<g id="node8" class="node">
<title>8</title>
<path fill="Orange" stroke="black" d="M97.5,-0.5C97.5,-0.5 240.5,-0.5 240.5,-0.5 246.5,-0.5 252.5,-6.5 252.5,-12.5 252.5,-12.5 252.5,-24.5 252.5,-24.5 252.5,-30.5 246.5,-36.5 240.5,-36.5 240.5,-36.5 97.5,-36.5 97.5,-36.5 91.5,-36.5 85.5,-30.5 85.5,-24.5 85.5,-24.5 85.5,-12.5 85.5,-12.5 85.5,-6.5 91.5,-0.5 97.5,-0.5"/>
<text text-anchor="middle" x="169" y="-14.8" font-family="Times,serif" font-size="14.00">Post Exploitation / Cleanup</text>
</g>
<!-- 4&#45;&gt;8 -->
<g id="edge4" class="edge">
<title>4:s&#45;&gt;8</title>
<path fill="none" stroke="black" d="M86,-73C86,-59.75 93.57,-49.62 104.13,-41.94"/>
<polygon fill="black" stroke="black" points="106.12,-44.82 112.72,-36.53 102.39,-38.9 106.12,-44.82"/>
</g>
<!-- 6 -->
<g id="node6" class="node">
<title>6</title>
<path fill="Orange" stroke="black" d="M194.5,-146.5C194.5,-146.5 319.5,-146.5 319.5,-146.5 325.5,-146.5 331.5,-152.5 331.5,-158.5 331.5,-158.5 331.5,-170.5 331.5,-170.5 331.5,-176.5 325.5,-182.5 319.5,-182.5 319.5,-182.5 194.5,-182.5 194.5,-182.5 188.5,-182.5 182.5,-176.5 182.5,-170.5 182.5,-170.5 182.5,-158.5 182.5,-158.5 182.5,-152.5 188.5,-146.5 194.5,-146.5"/>
<text text-anchor="middle" x="257" y="-160.8" font-family="Times,serif" font-size="14.00">Vulnerability Validation</text>
</g>
<!-- 5&#45;&gt;6 -->
<g id="edge6" class="edge">
<title>5&#45;&gt;6:n</title>
<path fill="none" stroke="black" d="M251.88,-219.3C253.73,-211.74 255.59,-202.49 256.48,-193.28"/>
<polygon fill="black" stroke="black" points="259.99,-193.17 257,-183 252.99,-192.81 259.99,-193.17"/>
</g>
<!-- 7 -->
<g id="node7" class="node">
<title>7</title>
<path fill="Orange" stroke="black" d="M186.5,-73.5C186.5,-73.5 321.5,-73.5 321.5,-73.5 327.5,-73.5 333.5,-79.5 333.5,-85.5 333.5,-85.5 333.5,-97.5 333.5,-97.5 333.5,-103.5 327.5,-109.5 321.5,-109.5 321.5,-109.5 186.5,-109.5 186.5,-109.5 180.5,-109.5 174.5,-103.5 174.5,-97.5 174.5,-97.5 174.5,-85.5 174.5,-85.5 174.5,-79.5 180.5,-73.5 186.5,-73.5"/>
<text text-anchor="middle" x="254" y="-87.8" font-family="Times,serif" font-size="14.00">Vulnerability Exploitation</text>
</g>
<!-- 6&#45;&gt;7 -->
<g id="edge7" class="edge">
<title>6&#45;&gt;7:n</title>
<path fill="none" stroke="black" d="M255.54,-146.17C254.98,-138.56 254.42,-129.3 254.16,-120.16"/>
<polygon fill="black" stroke="black" points="257.65,-119.94 254,-110 250.66,-120.05 257.65,-119.94"/>
</g>
<!-- 7&#45;&gt;8 -->
<g id="edge8" class="edge">
<title>7:s&#45;&gt;8</title>
<path fill="none" stroke="black" d="M254,-73C254,-59.8 246.57,-49.73 236.1,-42.09"/>
<polygon fill="black" stroke="black" points="237.9,-39.09 227.57,-36.71 234.16,-45.01 237.9,-39.09"/>
</g>
</g>
</svg>
