<?xml version="1.0" encoding="UTF-8" standalone="no"?>
<!DOCTYPE svg PUBLIC "-//W3C//DTD SVG 1.1//EN"
 "http://www.w3.org/Graphics/SVG/1.1/DTD/svg11.dtd">
<!-- Generated by graphviz version 2.43.0 (0)
 -->
<!-- Title: G Pages: 1 -->
<svg width="341pt" height="489pt"
 viewBox="0.00 0.00 341.00 489.00" xmlns="http://www.w3.org/2000/svg" xmlns:xlink="http://www.w3.org/1999/xlink">
<g id="graph0" class="graph" transform="scale(1 1) rotate(0) translate(4 485)">
<title>G</title>
<polygon fill="white" stroke="transparent" points="-4,4 -4,-485 337,-485 337,4 -4,4"/>
<!-- 1 -->
<g id="node1" class="node">
<title>1</title>
<path fill="Orange" stroke="black" d="M105.5,-444.5C105.5,-444.5 230.5,-444.5 230.5,-444.5 236.5,-444.5 242.5,-450.5 242.5,-456.5 242.5,-456.5 242.5,-468.5 242.5,-468.5 242.5,-474.5 236.5,-480.5 230.5,-480.5 230.5,-480.5 105.5,-480.5 105.5,-480.5 99.5,-480.5 93.5,-474.5 93.5,-468.5 93.5,-468.5 93.5,-456.5 93.5,-456.5 93.5,-450.5 99.5,-444.5 105.5,-444.5"/>
<text text-anchor="middle" x="168" y="-458.8" font-family="Times,serif" font-size="14.00">RF Signal Capture</text>
</g>
<!-- 2 -->
<g id="node2" class="node">
<title>2</title>
<path fill="Orange" stroke="black" d="M12,-370.5C12,-370.5 194,-370.5 194,-370.5 200,-370.5 206,-376.5 206,-382.5 206,-382.5 206,-394.5 206,-394.5 206,-400.5 200,-406.5 194,-406.5 194,-406.5 12,-406.5 12,-406.5 6,-406.5 0,-400.5 0,-394.5 0,-394.5 0,-382.5 0,-382.5 0,-376.5 6,-370.5 12,-370.5"/>
<text text-anchor="middle" x="103" y="-384.8" font-family="Times,serif" font-size="14.00">Spread Spectrum Analysis</text>
</g>
<!-- 1&#45;&gt;2 -->
<g id="edge1" class="edge">
<title>1&#45;&gt;2:n</title>
<path fill="none" stroke="black" d="M128.69,-444.35C118,-437.47 108.33,-428.43 104.61,-417.08"/>
<polygon fill="black" stroke="black" points="108.04,-416.32 103,-407 101.13,-417.43 108.04,-416.32"/>
</g>
<!-- 7 -->
<g id="node7" class="node">
<title>7</title>
<path fill="Orange" stroke="black" d="M111,-0.5C111,-0.5 273,-0.5 273,-0.5 279,-0.5 285,-6.5 285,-12.5 285,-12.5 285,-24.5 285,-24.5 285,-30.5 279,-36.5 273,-36.5 273,-36.5 111,-36.5 111,-36.5 105,-36.5 99,-30.5 99,-24.5 99,-24.5 99,-12.5 99,-12.5 99,-6.5 105,-0.5 111,-0.5"/>
<text text-anchor="middle" x="192" y="-14.8" font-family="Times,serif" font-size="14.00">RF Signal Transmission</text>
</g>
<!-- 1&#45;&gt;7 -->
<g id="edge7" class="edge">
<title>1&#45;&gt;7</title>
<path fill="none" stroke="black" d="M197.53,-444.35C215.1,-431.72 234,-412.73 234,-389.5 234,-389.5 234,-389.5 234,-91.5 234,-74.29 224.93,-57.53 215.22,-44.51"/>
<polygon fill="black" stroke="black" points="217.82,-42.16 208.84,-36.54 212.36,-46.53 217.82,-42.16"/>
<text text-anchor="middle" x="283.5" y="-236.8" font-family="Times,serif" font-size="14.00">Signal Replay</text>
</g>
<!-- 3 -->
<g id="node3" class="node">
<title>3</title>
<path fill="Orange" stroke="black" d="M63,-296.5C63,-296.5 155,-296.5 155,-296.5 161,-296.5 167,-302.5 167,-308.5 167,-308.5 167,-320.5 167,-320.5 167,-326.5 161,-332.5 155,-332.5 155,-332.5 63,-332.5 63,-332.5 57,-332.5 51,-326.5 51,-320.5 51,-320.5 51,-308.5 51,-308.5 51,-302.5 57,-296.5 63,-296.5"/>
<text text-anchor="middle" x="109" y="-310.8" font-family="Times,serif" font-size="14.00">Demodulation</text>
</g>
<!-- 2&#45;&gt;3 -->
<g id="edge2" class="edge">
<title>2&#45;&gt;3</title>
<path fill="none" stroke="black" d="M104.42,-370.44C105.1,-362.31 105.93,-352.38 106.69,-343.2"/>
<polygon fill="black" stroke="black" points="110.2,-343.2 107.55,-332.94 103.23,-342.62 110.2,-343.2"/>
</g>
<!-- 4 -->
<g id="node4" class="node">
<title>4</title>
<path fill="Orange" stroke="black" d="M51,-222.5C51,-222.5 185,-222.5 185,-222.5 191,-222.5 197,-228.5 197,-234.5 197,-234.5 197,-246.5 197,-246.5 197,-252.5 191,-258.5 185,-258.5 185,-258.5 51,-258.5 51,-258.5 45,-258.5 39,-252.5 39,-246.5 39,-246.5 39,-234.5 39,-234.5 39,-228.5 45,-222.5 51,-222.5"/>
<text text-anchor="middle" x="118" y="-236.8" font-family="Times,serif" font-size="14.00">Bitstream to Packet</text>
</g>
<!-- 3&#45;&gt;4 -->
<g id="edge3" class="edge">
<title>3&#45;&gt;4</title>
<path fill="none" stroke="black" d="M111.13,-296.44C112.16,-288.22 113.42,-278.16 114.57,-268.91"/>
<polygon fill="black" stroke="black" points="118.05,-269.3 115.82,-258.94 111.11,-268.43 118.05,-269.3"/>
</g>
<!-- 5 -->
<g id="node5" class="node">
<title>5</title>
<path fill="Orange" stroke="black" d="M82,-148.5C82,-148.5 188,-148.5 188,-148.5 194,-148.5 200,-154.5 200,-160.5 200,-160.5 200,-172.5 200,-172.5 200,-178.5 194,-184.5 188,-184.5 188,-184.5 82,-184.5 82,-184.5 76,-184.5 70,-178.5 70,-172.5 70,-172.5 70,-160.5 70,-160.5 70,-154.5 76,-148.5 82,-148.5"/>
<text text-anchor="middle" x="135" y="-162.8" font-family="Times,serif" font-size="14.00">Packet Creation</text>
</g>
<!-- 4&#45;&gt;5 -->
<g id="edge4" class="edge">
<title>4&#45;&gt;5</title>
<path fill="none" stroke="black" d="M122.03,-222.44C123.97,-214.22 126.34,-204.16 128.53,-194.91"/>
<polygon fill="black" stroke="black" points="131.99,-195.48 130.88,-184.94 125.18,-193.87 131.99,-195.48"/>
</g>
<!-- 6 -->
<g id="node6" class="node">
<title>6</title>
<path fill="Orange" stroke="black" d="M113,-74.5C113,-74.5 187,-74.5 187,-74.5 193,-74.5 199,-80.5 199,-86.5 199,-86.5 199,-98.5 199,-98.5 199,-104.5 193,-110.5 187,-110.5 187,-110.5 113,-110.5 113,-110.5 107,-110.5 101,-104.5 101,-98.5 101,-98.5 101,-86.5 101,-86.5 101,-80.5 107,-74.5 113,-74.5"/>
<text text-anchor="middle" x="150" y="-88.8" font-family="Times,serif" font-size="14.00">Modulation</text>
</g>
<!-- 5&#45;&gt;6 -->
<g id="edge5" class="edge">
<title>5&#45;&gt;6</title>
<path fill="none" stroke="black" d="M138.55,-148.44C140.27,-140.22 142.36,-130.16 144.29,-120.91"/>
<polygon fill="black" stroke="black" points="147.75,-121.44 146.37,-110.94 140.9,-120.02 147.75,-121.44"/>
</g>
<!-- 6&#45;&gt;7 -->
<g id="edge6" class="edge">
<title>6&#45;&gt;7</title>
<path fill="none" stroke="black" d="M159.95,-74.44C164.95,-65.87 171.12,-55.29 176.71,-45.72"/>
<polygon fill="black" stroke="black" points="179.81,-47.34 181.83,-36.94 173.76,-43.81 179.81,-47.34"/>
</g>
</g>
</svg>
