<?xml version="1.0" encoding="UTF-8" standalone="no"?>
<!DOCTYPE svg PUBLIC "-//W3C//DTD SVG 1.1//EN"
 "http://www.w3.org/Graphics/SVG/1.1/DTD/svg11.dtd">
<!-- Generated by graphviz version 2.43.0 (0)
 -->
<!-- Title: G Pages: 1 -->
<svg width="370pt" height="337pt"
 viewBox="0.00 0.00 369.50 337.00" xmlns="http://www.w3.org/2000/svg" xmlns:xlink="http://www.w3.org/1999/xlink">
<g id="graph0" class="graph" transform="scale(1 1) rotate(0) translate(4 333)">
<title>G</title>
<polygon fill="white" stroke="transparent" points="-4,4 -4,-333 365.5,-333 365.5,4 -4,4"/>
<!-- 1 -->
<g id="node1" class="node">
<title>1</title>
<path fill="Orange" stroke="black" d="M107,-292.5C107,-292.5 229,-292.5 229,-292.5 235,-292.5 241,-298.5 241,-304.5 241,-304.5 241,-316.5 241,-316.5 241,-322.5 235,-328.5 229,-328.5 229,-328.5 107,-328.5 107,-328.5 101,-328.5 95,-322.5 95,-316.5 95,-316.5 95,-304.5 95,-304.5 95,-298.5 101,-292.5 107,-292.5"/>
<text text-anchor="middle" x="168" y="-306.8" font-family="Times,serif" font-size="14.00">Document Review</text>
</g>
<!-- 2 -->
<g id="node2" class="node">
<title>2</title>
<path fill="Orange" stroke="black" d="M81.5,-219.5C81.5,-219.5 254.5,-219.5 254.5,-219.5 260.5,-219.5 266.5,-225.5 266.5,-231.5 266.5,-231.5 266.5,-243.5 266.5,-243.5 266.5,-249.5 260.5,-255.5 254.5,-255.5 254.5,-255.5 81.5,-255.5 81.5,-255.5 75.5,-255.5 69.5,-249.5 69.5,-243.5 69.5,-243.5 69.5,-231.5 69.5,-231.5 69.5,-225.5 75.5,-219.5 81.5,-219.5"/>
<text text-anchor="middle" x="168" y="-233.8" font-family="Times,serif" font-size="14.00">Open Source Intelligence</text>
</g>
<!-- 1&#45;&gt;2 -->
<g id="edge1" class="edge">
<title>1&#45;&gt;2</title>
<path fill="none" stroke="black" d="M168,-292.31C168,-284.29 168,-274.55 168,-265.57"/>
<polygon fill="black" stroke="black" points="171.5,-265.53 168,-255.53 164.5,-265.53 171.5,-265.53"/>
</g>
<!-- 3 -->
<g id="node3" class="node">
<title>3</title>
<path fill="Orange" stroke="black" d="M134,-146.5C134,-146.5 202,-146.5 202,-146.5 208,-146.5 214,-152.5 214,-158.5 214,-158.5 214,-170.5 214,-170.5 214,-176.5 208,-182.5 202,-182.5 202,-182.5 134,-182.5 134,-182.5 128,-182.5 122,-176.5 122,-170.5 122,-170.5 122,-158.5 122,-158.5 122,-152.5 128,-146.5 134,-146.5"/>
<text text-anchor="middle" x="168" y="-160.8" font-family="Times,serif" font-size="14.00">Interviews</text>
</g>
<!-- 2&#45;&gt;3 -->
<g id="edge2" class="edge">
<title>2&#45;&gt;3</title>
<path fill="none" stroke="black" d="M168,-219.31C168,-211.29 168,-201.55 168,-192.57"/>
<polygon fill="black" stroke="black" points="171.5,-192.53 168,-182.53 164.5,-192.53 171.5,-192.53"/>
</g>
<!-- 4 -->
<g id="node4" class="node">
<title>4</title>
<path fill="Orange" stroke="black" d="M12,-73.5C12,-73.5 134,-73.5 134,-73.5 140,-73.5 146,-79.5 146,-85.5 146,-85.5 146,-97.5 146,-97.5 146,-103.5 140,-109.5 134,-109.5 134,-109.5 12,-109.5 12,-109.5 6,-109.5 0,-103.5 0,-97.5 0,-97.5 0,-85.5 0,-85.5 0,-79.5 6,-73.5 12,-73.5"/>
<text text-anchor="middle" x="73" y="-87.8" font-family="Times,serif" font-size="14.00">Document Review</text>
</g>
<!-- 3&#45;&gt;4 -->
<g id="edge3" class="edge">
<title>3&#45;&gt;4:n</title>
<path fill="none" stroke="black" d="M121.89,-155.34C101.19,-149.17 80.13,-138.45 74.47,-120.02"/>
<polygon fill="black" stroke="black" points="77.92,-119.39 73,-110 70.99,-120.4 77.92,-119.39"/>
</g>
<!-- 5 -->
<g id="node5" class="node">
<title>5</title>
<path fill="Orange" stroke="black" d="M176.5,-73.5C176.5,-73.5 349.5,-73.5 349.5,-73.5 355.5,-73.5 361.5,-79.5 361.5,-85.5 361.5,-85.5 361.5,-97.5 361.5,-97.5 361.5,-103.5 355.5,-109.5 349.5,-109.5 349.5,-109.5 176.5,-109.5 176.5,-109.5 170.5,-109.5 164.5,-103.5 164.5,-97.5 164.5,-97.5 164.5,-85.5 164.5,-85.5 164.5,-79.5 170.5,-73.5 176.5,-73.5"/>
<text text-anchor="middle" x="263" y="-87.8" font-family="Times,serif" font-size="14.00">Open Source Intelligence</text>
</g>
<!-- 3&#45;&gt;5 -->
<g id="edge4" class="edge">
<title>3&#45;&gt;5:n</title>
<path fill="none" stroke="black" d="M214.11,-155.34C234.81,-149.17 255.87,-138.45 261.53,-120.02"/>
<polygon fill="black" stroke="black" points="265.01,-120.4 263,-110 258.08,-119.39 265.01,-120.4"/>
</g>
<!-- 6 -->
<g id="node6" class="node">
<title>6</title>
<path fill="Orange" stroke="black" d="M101.5,-0.5C101.5,-0.5 234.5,-0.5 234.5,-0.5 240.5,-0.5 246.5,-6.5 246.5,-12.5 246.5,-12.5 246.5,-24.5 246.5,-24.5 246.5,-30.5 240.5,-36.5 234.5,-36.5 234.5,-36.5 101.5,-36.5 101.5,-36.5 95.5,-36.5 89.5,-30.5 89.5,-24.5 89.5,-24.5 89.5,-12.5 89.5,-12.5 89.5,-6.5 95.5,-0.5 101.5,-0.5"/>
<text text-anchor="middle" x="168" y="-14.8" font-family="Times,serif" font-size="14.00">Followup Questions</text>
</g>
<!-- 4&#45;&gt;6 -->
<g id="edge5" class="edge">
<title>4:s&#45;&gt;6</title>
<path fill="none" stroke="black" d="M73,-73C73,-59.58 80.29,-49.48 90.83,-41.91"/>
<polygon fill="black" stroke="black" points="92.79,-44.82 99.46,-36.59 89.11,-38.86 92.79,-44.82"/>
</g>
<!-- 5&#45;&gt;6 -->
<g id="edge6" class="edge">
<title>5:s&#45;&gt;6</title>
<path fill="none" stroke="black" d="M263,-73C263,-59.58 255.71,-49.48 245.17,-41.91"/>
<polygon fill="black" stroke="black" points="246.89,-38.86 236.54,-36.59 243.21,-44.82 246.89,-38.86"/>
</g>
</g>
</svg>
