<?xml version="1.0" encoding="UTF-8" standalone="no"?>
<!DOCTYPE svg PUBLIC "-//W3C//DTD SVG 1.1//EN"
 "http://www.w3.org/Graphics/SVG/1.1/DTD/svg11.dtd">
<!-- Generated by graphviz version 2.43.0 (0)
 -->
<!-- Title: G Pages: 1 -->
<svg width="205pt" height="337pt"
 viewBox="0.00 0.00 205.00 337.00" xmlns="http://www.w3.org/2000/svg" xmlns:xlink="http://www.w3.org/1999/xlink">
<g id="graph0" class="graph" transform="scale(1 1) rotate(0) translate(4 333)">
<title>G</title>
<polygon fill="white" stroke="transparent" points="-4,4 -4,-333 201,-333 201,4 -4,4"/>
<!-- 1 -->
<g id="node1" class="node">
<title>1</title>
<path fill="Orange" stroke="black" d="M41,-292.5C41,-292.5 156,-292.5 156,-292.5 162,-292.5 168,-298.5 168,-304.5 168,-304.5 168,-316.5 168,-316.5 168,-322.5 162,-328.5 156,-328.5 156,-328.5 41,-328.5 41,-328.5 35,-328.5 29,-322.5 29,-316.5 29,-316.5 29,-304.5 29,-304.5 29,-298.5 35,-292.5 41,-292.5"/>
<text text-anchor="middle" x="98.5" y="-306.8" font-family="Times,serif" font-size="14.00">Obtain Firmware</text>
</g>
<!-- 2 -->
<g id="node2" class="node">
<title>2</title>
<path fill="Orange" stroke="black" d="M20,-219.5C20,-219.5 177,-219.5 177,-219.5 183,-219.5 189,-225.5 189,-231.5 189,-231.5 189,-243.5 189,-243.5 189,-249.5 183,-255.5 177,-255.5 177,-255.5 20,-255.5 20,-255.5 14,-255.5 8,-249.5 8,-243.5 8,-243.5 8,-231.5 8,-231.5 8,-225.5 14,-219.5 20,-219.5"/>
<text text-anchor="middle" x="98.5" y="-233.8" font-family="Times,serif" font-size="14.00">Firmware Disassembly</text>
</g>
<!-- 1&#45;&gt;2 -->
<g id="edge1" class="edge">
<title>1&#45;&gt;2</title>
<path fill="none" stroke="black" d="M98.5,-292.31C98.5,-284.29 98.5,-274.55 98.5,-265.57"/>
<polygon fill="black" stroke="black" points="102,-265.53 98.5,-255.53 95,-265.53 102,-265.53"/>
</g>
<!-- 3 -->
<g id="node3" class="node">
<title>3</title>
<path fill="Orange" stroke="black" d="M27,-146.5C27,-146.5 170,-146.5 170,-146.5 176,-146.5 182,-152.5 182,-158.5 182,-158.5 182,-170.5 182,-170.5 182,-176.5 176,-182.5 170,-182.5 170,-182.5 27,-182.5 27,-182.5 21,-182.5 15,-176.5 15,-170.5 15,-170.5 15,-158.5 15,-158.5 15,-152.5 21,-146.5 27,-146.5"/>
<text text-anchor="middle" x="98.5" y="-160.8" font-family="Times,serif" font-size="14.00">Code Object Analysis</text>
</g>
<!-- 2&#45;&gt;3 -->
<g id="edge2" class="edge">
<title>2&#45;&gt;3</title>
<path fill="none" stroke="black" d="M98.5,-219.31C98.5,-211.29 98.5,-201.55 98.5,-192.57"/>
<polygon fill="black" stroke="black" points="102,-192.53 98.5,-182.53 95,-192.53 102,-192.53"/>
</g>
<!-- 4 -->
<g id="node4" class="node">
<title>4</title>
<path fill="Orange" stroke="black" d="M12,-73.5C12,-73.5 185,-73.5 185,-73.5 191,-73.5 197,-79.5 197,-85.5 197,-85.5 197,-97.5 197,-97.5 197,-103.5 191,-109.5 185,-109.5 185,-109.5 12,-109.5 12,-109.5 6,-109.5 0,-103.5 0,-97.5 0,-97.5 0,-85.5 0,-85.5 0,-79.5 6,-73.5 12,-73.5"/>
<text text-anchor="middle" x="98.5" y="-87.8" font-family="Times,serif" font-size="14.00">Code Functional Analysis</text>
</g>
<!-- 3&#45;&gt;4 -->
<g id="edge3" class="edge">
<title>3&#45;&gt;4</title>
<path fill="none" stroke="black" d="M92.62,-146.31C91.78,-138.29 91.55,-128.55 91.92,-119.57"/>
<polygon fill="black" stroke="black" points="95.42,-119.75 92.64,-109.53 88.44,-119.25 95.42,-119.75"/>
</g>
<!-- 4&#45;&gt;3 -->
<g id="edge5" class="edge">
<title>4&#45;&gt;3</title>
<path fill="none" stroke="black" d="M104.36,-109.53C105.21,-117.53 105.45,-127.27 105.09,-136.25"/>
<polygon fill="black" stroke="black" points="101.59,-136.09 104.38,-146.31 108.57,-136.58 101.59,-136.09"/>
</g>
<!-- 5 -->
<g id="node5" class="node">
<title>5</title>
<path fill="Orange" stroke="black" d="M21.5,-0.5C21.5,-0.5 175.5,-0.5 175.5,-0.5 181.5,-0.5 187.5,-6.5 187.5,-12.5 187.5,-12.5 187.5,-24.5 187.5,-24.5 187.5,-30.5 181.5,-36.5 175.5,-36.5 175.5,-36.5 21.5,-36.5 21.5,-36.5 15.5,-36.5 9.5,-30.5 9.5,-24.5 9.5,-24.5 9.5,-12.5 9.5,-12.5 9.5,-6.5 15.5,-0.5 21.5,-0.5"/>
<text text-anchor="middle" x="98.5" y="-14.8" font-family="Times,serif" font-size="14.00">Firmware Exploitation</text>
</g>
<!-- 4&#45;&gt;5 -->
<g id="edge4" class="edge">
<title>4&#45;&gt;5</title>
<path fill="none" stroke="black" d="M98.5,-73.31C98.5,-65.29 98.5,-55.55 98.5,-46.57"/>
<polygon fill="black" stroke="black" points="102,-46.53 98.5,-36.53 95,-46.53 102,-46.53"/>
</g>
</g>
</svg>
