<?xml version="1.0" encoding="UTF-8" standalone="no"?>
<!DOCTYPE svg PUBLIC "-//W3C//DTD SVG 1.1//EN"
 "http://www.w3.org/Graphics/SVG/1.1/DTD/svg11.dtd">
<!-- Generated by graphviz version 2.50.0 (0)
 -->
<!-- Title: G Pages: 1 -->
<svg width="300pt" height="337pt"
 viewBox="0.00 0.00 300.00 337.00" xmlns="http://www.w3.org/2000/svg" xmlns:xlink="http://www.w3.org/1999/xlink">
<g id="graph0" class="graph" transform="scale(1 1) rotate(0) translate(4 333)">
<title>G</title>
<polygon fill="white" stroke="transparent" points="-4,4 -4,-333 296,-333 296,4 -4,4"/>
<!-- 1 -->
<g id="node1" class="node">
<title>1</title>
<path fill="Orange" stroke="black" d="M89,-292.5C89,-292.5 184,-292.5 184,-292.5 190,-292.5 196,-298.5 196,-304.5 196,-304.5 196,-316.5 196,-316.5 196,-322.5 190,-328.5 184,-328.5 184,-328.5 89,-328.5 89,-328.5 83,-328.5 77,-322.5 77,-316.5 77,-316.5 77,-304.5 77,-304.5 77,-298.5 83,-292.5 89,-292.5"/>
<text text-anchor="middle" x="136.5" y="-306.8" font-family="Times,serif" font-size="14.00">Document Review</text>
</g>
<!-- 2 -->
<g id="node2" class="node">
<title>2</title>
<path fill="Orange" stroke="black" d="M71,-219.5C71,-219.5 202,-219.5 202,-219.5 208,-219.5 214,-225.5 214,-231.5 214,-231.5 214,-243.5 214,-243.5 214,-249.5 208,-255.5 202,-255.5 202,-255.5 71,-255.5 71,-255.5 65,-255.5 59,-249.5 59,-243.5 59,-243.5 59,-231.5 59,-231.5 59,-225.5 65,-219.5 71,-219.5"/>
<text text-anchor="middle" x="136.5" y="-233.8" font-family="Times,serif" font-size="14.00">Open Source Intelligence</text>
</g>
<!-- 1&#45;&gt;2 -->
<g id="edge1" class="edge">
<title>1&#45;&gt;2</title>
<path fill="none" stroke="black" d="M136.5,-292.31C136.5,-284.29 136.5,-274.55 136.5,-265.57"/>
<polygon fill="black" stroke="black" points="140,-265.53 136.5,-255.53 133,-265.53 140,-265.53"/>
</g>
<!-- 3 -->
<g id="node3" class="node">
<title>3</title>
<path fill="Orange" stroke="black" d="M111.5,-146.5C111.5,-146.5 161.5,-146.5 161.5,-146.5 167.5,-146.5 173.5,-152.5 173.5,-158.5 173.5,-158.5 173.5,-170.5 173.5,-170.5 173.5,-176.5 167.5,-182.5 161.5,-182.5 161.5,-182.5 111.5,-182.5 111.5,-182.5 105.5,-182.5 99.5,-176.5 99.5,-170.5 99.5,-170.5 99.5,-158.5 99.5,-158.5 99.5,-152.5 105.5,-146.5 111.5,-146.5"/>
<text text-anchor="middle" x="136.5" y="-160.8" font-family="Times,serif" font-size="14.00">Interviews</text>
</g>
<!-- 2&#45;&gt;3 -->
<g id="edge2" class="edge">
<title>2&#45;&gt;3</title>
<path fill="none" stroke="black" d="M136.5,-219.31C136.5,-211.29 136.5,-201.55 136.5,-192.57"/>
<polygon fill="black" stroke="black" points="140,-192.53 136.5,-182.53 133,-192.53 140,-192.53"/>
</g>
<!-- 4 -->
<g id="node4" class="node">
<title>4</title>
<path fill="Orange" stroke="black" d="M12,-73.5C12,-73.5 107,-73.5 107,-73.5 113,-73.5 119,-79.5 119,-85.5 119,-85.5 119,-97.5 119,-97.5 119,-103.5 113,-109.5 107,-109.5 107,-109.5 12,-109.5 12,-109.5 6,-109.5 0,-103.5 0,-97.5 0,-97.5 0,-85.5 0,-85.5 0,-79.5 6,-73.5 12,-73.5"/>
<text text-anchor="middle" x="59.5" y="-87.8" font-family="Times,serif" font-size="14.00">Document Review</text>
</g>
<!-- 3&#45;&gt;4 -->
<g id="edge3" class="edge">
<title>3&#45;&gt;4:n</title>
<path fill="none" stroke="black" d="M99.35,-152.94C83.05,-146.23 66.42,-135.81 61.18,-120.32"/>
<polygon fill="black" stroke="black" points="64.56,-119.31 59.5,-110 57.66,-120.43 64.56,-119.31"/>
</g>
<!-- 5 -->
<g id="node5" class="node">
<title>5</title>
<path fill="Orange" stroke="black" d="M149,-73.5C149,-73.5 280,-73.5 280,-73.5 286,-73.5 292,-79.5 292,-85.5 292,-85.5 292,-97.5 292,-97.5 292,-103.5 286,-109.5 280,-109.5 280,-109.5 149,-109.5 149,-109.5 143,-109.5 137,-103.5 137,-97.5 137,-97.5 137,-85.5 137,-85.5 137,-79.5 143,-73.5 149,-73.5"/>
<text text-anchor="middle" x="214.5" y="-87.8" font-family="Times,serif" font-size="14.00">Open Source Intelligence</text>
</g>
<!-- 3&#45;&gt;5 -->
<g id="edge4" class="edge">
<title>3&#45;&gt;5:n</title>
<path fill="none" stroke="black" d="M173.67,-153.26C190.47,-146.54 207.71,-135.97 212.92,-120.02"/>
<polygon fill="black" stroke="black" points="216.4,-120.42 214.5,-110 209.49,-119.33 216.4,-120.42"/>
</g>
<!-- 6 -->
<g id="node6" class="node">
<title>6</title>
<path fill="Orange" stroke="black" d="M84.5,-0.5C84.5,-0.5 188.5,-0.5 188.5,-0.5 194.5,-0.5 200.5,-6.5 200.5,-12.5 200.5,-12.5 200.5,-24.5 200.5,-24.5 200.5,-30.5 194.5,-36.5 188.5,-36.5 188.5,-36.5 84.5,-36.5 84.5,-36.5 78.5,-36.5 72.5,-30.5 72.5,-24.5 72.5,-24.5 72.5,-12.5 72.5,-12.5 72.5,-6.5 78.5,-0.5 84.5,-0.5"/>
<text text-anchor="middle" x="136.5" y="-14.8" font-family="Times,serif" font-size="14.00">Followup Questions</text>
</g>
<!-- 4&#45;&gt;6 -->
<g id="edge5" class="edge">
<title>4:s&#45;&gt;6</title>
<path fill="none" stroke="black" d="M59.5,-73C59.5,-59.9 67.11,-49.75 77.55,-41.99"/>
<polygon fill="black" stroke="black" points="79.51,-44.88 86,-36.51 75.7,-39.01 79.51,-44.88"/>
</g>
<!-- 5&#45;&gt;6 -->
<g id="edge6" class="edge">
<title>5:s&#45;&gt;6</title>
<path fill="none" stroke="black" d="M214.5,-73C214.5,-59.91 206.94,-49.79 196.53,-42.05"/>
<polygon fill="black" stroke="black" points="198.39,-39.09 188.09,-36.59 194.59,-44.97 198.39,-39.09"/>
</g>
</g>
</svg>
