<?xml version="1.0" encoding="UTF-8" standalone="no"?>
<!DOCTYPE svg PUBLIC "-//W3C//DTD SVG 1.1//EN"
 "http://www.w3.org/Graphics/SVG/1.1/DTD/svg11.dtd">
<!-- Generated by graphviz version 2.50.0 (0)
 -->
<!-- Title: G Pages: 1 -->
<svg width="776pt" height="420pt"
 viewBox="0.00 0.00 776.00 420.00" xmlns="http://www.w3.org/2000/svg" xmlns:xlink="http://www.w3.org/1999/xlink">
<g id="graph0" class="graph" transform="scale(1 1) rotate(0) translate(4 416)">
<title>G</title>
<polygon fill="white" stroke="transparent" points="-4,4 -4,-416 772,-416 772,4 -4,4"/>
<g id="clust1" class="cluster">
<title>cluster0</title>
<path fill="LightGreen" stroke="LightGreen" d="M270,-265C270,-265 491,-265 491,-265 497,-265 503,-271 503,-277 503,-277 503,-392 503,-392 503,-398 497,-404 491,-404 491,-404 270,-404 270,-404 264,-404 258,-398 258,-392 258,-392 258,-277 258,-277 258,-271 264,-265 270,-265"/>
<text text-anchor="middle" x="380.5" y="-384" font-family="Times,serif" font-size="20.00">Production Assessments</text>
</g>
<g id="clust2" class="cluster">
<title>cluster1</title>
<path fill="Yellow" stroke="Yellow" d="M292.5,-8C292.5,-8 748,-8 748,-8 754,-8 760,-14 760,-20 760,-20 760,-245 760,-245 760,-251 754,-257 748,-257 748,-257 292.5,-257 292.5,-257 286.5,-257 280.5,-251 280.5,-245 280.5,-245 280.5,-20 280.5,-20 280.5,-14 286.5,-8 292.5,-8"/>
<text text-anchor="middle" x="520.25" y="-237" font-family="Times,serif" font-size="20.00">Lab Assessments (not safe for production systems)</text>
</g>
<!-- 1 -->
<g id="node1" class="node">
<title>1</title>
<path fill="Orange" stroke="black" d="M12,-154C12,-154 218,-154 218,-154 224,-154 230,-160 230,-166 230,-166 230,-178 230,-178 230,-184 224,-190 218,-190 218,-190 12,-190 12,-190 6,-190 0,-184 0,-178 0,-178 0,-166 0,-166 0,-160 6,-154 12,-154"/>
<text text-anchor="middle" x="115" y="-168.3" font-family="Times,serif" font-size="14.00">1 &#45; A&amp;E Control System Architectures</text>
</g>
<!-- 2 -->
<g id="node2" class="node">
<title>2</title>
<path fill="Orange" stroke="black" d="M286.5,-329C286.5,-329 474.5,-329 474.5,-329 480.5,-329 486.5,-335 486.5,-341 486.5,-341 486.5,-353 486.5,-353 486.5,-359 480.5,-365 474.5,-365 474.5,-365 286.5,-365 286.5,-365 280.5,-365 274.5,-359 274.5,-353 274.5,-353 274.5,-341 274.5,-341 274.5,-335 280.5,-329 286.5,-329"/>
<text text-anchor="middle" x="380.5" y="-343.3" font-family="Times,serif" font-size="14.00">2 &#45; A&amp;E Control Network Captures</text>
</g>
<!-- 1&#45;&gt;2 -->
<g id="edge1" class="edge">
<title>1:ne&#45;&gt;2:w</title>
<path fill="none" stroke="black" d="M229,-190C277.58,-238.58 208.98,-336 263.25,-346.14"/>
<polygon fill="black" stroke="black" points="263.24,-349.65 273.5,-347 263.83,-342.68 263.24,-349.65"/>
</g>
<!-- 3 -->
<g id="node3" class="node">
<title>3</title>
<path fill="Orange" stroke="black" d="M278,-274C278,-274 483,-274 483,-274 489,-274 495,-280 495,-286 495,-286 495,-298 495,-298 495,-304 489,-310 483,-310 483,-310 278,-310 278,-310 272,-310 266,-304 266,-298 266,-298 266,-286 266,-286 266,-280 272,-274 278,-274"/>
<text text-anchor="middle" x="380.5" y="-288.3" font-family="Times,serif" font-size="14.00">3 &#45; A&amp;E Production Control Networks</text>
</g>
<!-- 1&#45;&gt;3 -->
<g id="edge2" class="edge">
<title>1:ne&#45;&gt;3:w</title>
<path fill="none" stroke="black" d="M229,-190C260.16,-221.16 223.58,-281.06 254.5,-290.68"/>
<polygon fill="black" stroke="black" points="254.13,-294.16 264.5,-292 255.04,-287.22 254.13,-294.16"/>
</g>
<!-- 4 -->
<g id="node4" class="node">
<title>4</title>
<path fill="Orange" stroke="black" d="M312.5,-182C312.5,-182 448.5,-182 448.5,-182 454.5,-182 460.5,-188 460.5,-194 460.5,-194 460.5,-206 460.5,-206 460.5,-212 454.5,-218 448.5,-218 448.5,-218 312.5,-218 312.5,-218 306.5,-218 300.5,-212 300.5,-206 300.5,-206 300.5,-194 300.5,-194 300.5,-188 306.5,-182 312.5,-182"/>
<text text-anchor="middle" x="380.5" y="-196.3" font-family="Times,serif" font-size="14.00">4 &#45; A&amp;E Controller Logic</text>
</g>
<!-- 1&#45;&gt;4 -->
<g id="edge3" class="edge">
<title>1:e&#45;&gt;4:w</title>
<path fill="none" stroke="black" d="M230,-172C259.53,-172 265.15,-194.02 289.26,-199"/>
<polygon fill="black" stroke="black" points="289.21,-202.51 299.5,-200 289.89,-195.55 289.21,-202.51"/>
</g>
<!-- 5 -->
<g id="node5" class="node">
<title>5</title>
<path fill="Orange" stroke="black" d="M310.5,-127C310.5,-127 450.5,-127 450.5,-127 456.5,-127 462.5,-133 462.5,-139 462.5,-139 462.5,-151 462.5,-151 462.5,-157 456.5,-163 450.5,-163 450.5,-163 310.5,-163 310.5,-163 304.5,-163 298.5,-157 298.5,-151 298.5,-151 298.5,-139 298.5,-139 298.5,-133 304.5,-127 310.5,-127"/>
<text text-anchor="middle" x="380.5" y="-141.3" font-family="Times,serif" font-size="14.00">5 &#45; A&amp;E Control Protocols</text>
</g>
<!-- 1&#45;&gt;5 -->
<g id="edge4" class="edge">
<title>1:e&#45;&gt;5:w</title>
<path fill="none" stroke="black" d="M230,-172C258.52,-172 264.11,-150.96 287.26,-146.03"/>
<polygon fill="black" stroke="black" points="287.9,-149.48 297.5,-145 287.2,-142.51 287.9,-149.48"/>
</g>
<!-- 8 -->
<g id="node8" class="node">
<title>8</title>
<path fill="Orange" stroke="black" d="M303,-72C303,-72 458,-72 458,-72 464,-72 470,-78 470,-84 470,-84 470,-96 470,-96 470,-102 464,-108 458,-108 458,-108 303,-108 303,-108 297,-108 291,-102 291,-96 291,-96 291,-84 291,-84 291,-78 297,-72 303,-72"/>
<text text-anchor="middle" x="380.5" y="-86.3" font-family="Times,serif" font-size="14.00">8 &#45; A&amp;E Embedded Memory</text>
</g>
<!-- 1&#45;&gt;8 -->
<g id="edge5" class="edge">
<title>1:se&#45;&gt;8:w</title>
<path fill="none" stroke="black" d="M230,-154C254.78,-129.22 251.66,-97.05 279.35,-91"/>
<polygon fill="black" stroke="black" points="279.89,-94.47 289.5,-90 279.2,-87.5 279.89,-94.47"/>
</g>
<!-- 9 -->
<g id="node9" class="node">
<title>9</title>
<path fill="Orange" stroke="black" d="M300.5,-17C300.5,-17 460.5,-17 460.5,-17 466.5,-17 472.5,-23 472.5,-29 472.5,-29 472.5,-41 472.5,-41 472.5,-47 466.5,-53 460.5,-53 460.5,-53 300.5,-53 300.5,-53 294.5,-53 288.5,-47 288.5,-41 288.5,-41 288.5,-29 288.5,-29 288.5,-23 294.5,-17 300.5,-17"/>
<text text-anchor="middle" x="380.5" y="-31.3" font-family="Times,serif" font-size="14.00">9 &#45; A&amp;E Embedded Firmware</text>
</g>
<!-- 1&#45;&gt;9 -->
<g id="edge6" class="edge">
<title>1:se&#45;&gt;9:w</title>
<path fill="none" stroke="black" d="M230,-154C268.86,-115.14 233.92,-44.84 277.36,-35.94"/>
<polygon fill="black" stroke="black" points="277.86,-39.4 287.5,-35 277.22,-32.43 277.86,-39.4"/>
</g>
<!-- 6 -->
<g id="node6" class="node">
<title>6</title>
<path fill="Orange" stroke="black" d="M543,-154C543,-154 740,-154 740,-154 746,-154 752,-160 752,-166 752,-166 752,-178 752,-178 752,-184 746,-190 740,-190 740,-190 543,-190 543,-190 537,-190 531,-184 531,-178 531,-178 531,-166 531,-166 531,-160 537,-154 543,-154"/>
<text text-anchor="middle" x="641.5" y="-168.3" font-family="Times,serif" font-size="14.00">6 &#45; A&amp;E Proprietary Serial Protocols</text>
</g>
<!-- 5&#45;&gt;6 -->
<g id="edge7" class="edge">
<title>5:ne&#45;&gt;6:w</title>
<path fill="none" stroke="black" d="M461.5,-163C470.62,-172.12 501.62,-172.31 520.85,-172.1"/>
<polygon fill="black" stroke="black" points="521.04,-175.6 531,-172 520.97,-168.6 521.04,-175.6"/>
</g>
<!-- 7 -->
<g id="node7" class="node">
<title>7</title>
<path fill="Orange" stroke="black" d="M550.5,-99C550.5,-99 732.5,-99 732.5,-99 738.5,-99 744.5,-105 744.5,-111 744.5,-111 744.5,-123 744.5,-123 744.5,-129 738.5,-135 732.5,-135 732.5,-135 550.5,-135 550.5,-135 544.5,-135 538.5,-129 538.5,-123 538.5,-123 538.5,-111 538.5,-111 538.5,-105 544.5,-99 550.5,-99"/>
<text text-anchor="middle" x="641.5" y="-113.3" font-family="Times,serif" font-size="14.00">7 &#45; A&amp;E Proprietary RF Protocols</text>
</g>
<!-- 5&#45;&gt;7 -->
<g id="edge8" class="edge">
<title>5:se&#45;&gt;7:w</title>
<path fill="none" stroke="black" d="M463.5,-127C468.2,-122.3 507.5,-118.72 527.24,-117.47"/>
<polygon fill="black" stroke="black" points="527.67,-120.96 537.5,-117 527.35,-113.96 527.67,-120.96"/>
</g>
</g>
</svg>
