<?xml version="1.0" encoding="UTF-8" standalone="no"?>
<!DOCTYPE svg PUBLIC "-//W3C//DTD SVG 1.1//EN"
 "http://www.w3.org/Graphics/SVG/1.1/DTD/svg11.dtd">
<!-- Generated by graphviz version 2.43.0 (0)
 -->
<!-- Title: G Pages: 1 -->
<svg width="368pt" height="337pt"
 viewBox="0.00 0.00 367.50 337.00" xmlns="http://www.w3.org/2000/svg" xmlns:xlink="http://www.w3.org/1999/xlink">
<g id="graph0" class="graph" transform="scale(1 1) rotate(0) translate(4 333)">
<title>G</title>
<polygon fill="white" stroke="transparent" points="-4,4 -4,-333 363.5,-333 363.5,4 -4,4"/>
<!-- 1 -->
<g id="node1" class="node">
<title>1</title>
<path fill="Orange" stroke="black" d="M85.5,-292.5C85.5,-292.5 244.5,-292.5 244.5,-292.5 250.5,-292.5 256.5,-298.5 256.5,-304.5 256.5,-304.5 256.5,-316.5 256.5,-316.5 256.5,-322.5 250.5,-328.5 244.5,-328.5 244.5,-328.5 85.5,-328.5 85.5,-328.5 79.5,-328.5 73.5,-322.5 73.5,-316.5 73.5,-316.5 73.5,-304.5 73.5,-304.5 73.5,-298.5 79.5,-292.5 85.5,-292.5"/>
<text text-anchor="middle" x="165" y="-306.8" font-family="Times,serif" font-size="14.00">Controller Tag Analysis</text>
</g>
<!-- 2 -->
<g id="node2" class="node">
<title>2</title>
<path fill="Orange" stroke="black" d="M79,-219.5C79,-219.5 251,-219.5 251,-219.5 257,-219.5 263,-225.5 263,-231.5 263,-231.5 263,-243.5 263,-243.5 263,-249.5 257,-255.5 251,-255.5 251,-255.5 79,-255.5 79,-255.5 73,-255.5 67,-249.5 67,-243.5 67,-243.5 67,-231.5 67,-231.5 67,-225.5 73,-219.5 79,-219.5"/>
<text text-anchor="middle" x="165" y="-233.8" font-family="Times,serif" font-size="14.00">Controller Logic Analysis</text>
</g>
<!-- 1&#45;&gt;2 -->
<g id="edge1" class="edge">
<title>1&#45;&gt;2</title>
<path fill="none" stroke="black" d="M165,-292.31C165,-284.29 165,-274.55 165,-265.57"/>
<polygon fill="black" stroke="black" points="168.5,-265.53 165,-255.53 161.5,-265.53 168.5,-265.53"/>
</g>
<!-- 3 -->
<g id="node3" class="node">
<title>3</title>
<path fill="Orange" stroke="black" d="M19,-146.5C19,-146.5 187,-146.5 187,-146.5 193,-146.5 199,-152.5 199,-158.5 199,-158.5 199,-170.5 199,-170.5 199,-176.5 193,-182.5 187,-182.5 187,-182.5 19,-182.5 19,-182.5 13,-182.5 7,-176.5 7,-170.5 7,-170.5 7,-158.5 7,-158.5 7,-152.5 13,-146.5 19,-146.5"/>
<text text-anchor="middle" x="103" y="-160.8" font-family="Times,serif" font-size="14.00">HMI Functional Analysis</text>
</g>
<!-- 2&#45;&gt;3 -->
<g id="edge2" class="edge">
<title>2&#45;&gt;3:n</title>
<path fill="none" stroke="black" d="M127.5,-219.4C117.41,-212.68 108.27,-203.94 104.65,-193.08"/>
<polygon fill="black" stroke="black" points="108.07,-192.3 103,-183 101.16,-193.43 108.07,-192.3"/>
</g>
<!-- 5 -->
<g id="node5" class="node">
<title>5</title>
<path fill="Orange" stroke="black" d="M172.5,-73.5C172.5,-73.5 347.5,-73.5 347.5,-73.5 353.5,-73.5 359.5,-79.5 359.5,-85.5 359.5,-85.5 359.5,-97.5 359.5,-97.5 359.5,-103.5 353.5,-109.5 347.5,-109.5 347.5,-109.5 172.5,-109.5 172.5,-109.5 166.5,-109.5 160.5,-103.5 160.5,-97.5 160.5,-97.5 160.5,-85.5 160.5,-85.5 160.5,-79.5 166.5,-73.5 172.5,-73.5"/>
<text text-anchor="middle" x="260" y="-87.8" font-family="Times,serif" font-size="14.00">Testing Harness Creation</text>
</g>
<!-- 2&#45;&gt;5 -->
<g id="edge3" class="edge">
<title>2&#45;&gt;5:n</title>
<path fill="none" stroke="black" d="M189.46,-219.46C215.58,-199.21 253.95,-162.74 259.36,-120.08"/>
<polygon fill="black" stroke="black" points="262.86,-120.2 260,-110 255.87,-119.76 262.86,-120.2"/>
</g>
<!-- 4 -->
<g id="node4" class="node">
<title>4</title>
<path fill="Orange" stroke="black" d="M12,-73.5C12,-73.5 130,-73.5 130,-73.5 136,-73.5 142,-79.5 142,-85.5 142,-85.5 142,-97.5 142,-97.5 142,-103.5 136,-109.5 130,-109.5 130,-109.5 12,-109.5 12,-109.5 6,-109.5 0,-103.5 0,-97.5 0,-97.5 0,-85.5 0,-85.5 0,-79.5 6,-73.5 12,-73.5"/>
<text text-anchor="middle" x="71" y="-87.8" font-family="Times,serif" font-size="14.00">HMI Modification</text>
</g>
<!-- 3&#45;&gt;4 -->
<g id="edge4" class="edge">
<title>3&#45;&gt;4:n</title>
<path fill="none" stroke="black" d="M86.25,-146.2C80.44,-138.84 74.77,-129.71 72.29,-119.94"/>
<polygon fill="black" stroke="black" points="75.76,-119.46 71,-110 68.82,-120.37 75.76,-119.46"/>
</g>
<!-- 6 -->
<g id="node6" class="node">
<title>6</title>
<path fill="Orange" stroke="black" d="M101.5,-0.5C101.5,-0.5 228.5,-0.5 228.5,-0.5 234.5,-0.5 240.5,-6.5 240.5,-12.5 240.5,-12.5 240.5,-24.5 240.5,-24.5 240.5,-30.5 234.5,-36.5 228.5,-36.5 228.5,-36.5 101.5,-36.5 101.5,-36.5 95.5,-36.5 89.5,-30.5 89.5,-24.5 89.5,-24.5 89.5,-12.5 89.5,-12.5 89.5,-6.5 95.5,-0.5 101.5,-0.5"/>
<text text-anchor="middle" x="165" y="-14.8" font-family="Times,serif" font-size="14.00">Logic Flaw Testing</text>
</g>
<!-- 4&#45;&gt;6 -->
<g id="edge5" class="edge">
<title>4:s&#45;&gt;6</title>
<path fill="none" stroke="black" d="M71,-73C71,-59.61 78.3,-49.53 88.82,-41.95"/>
<polygon fill="black" stroke="black" points="90.77,-44.86 97.43,-36.63 87.09,-38.91 90.77,-44.86"/>
</g>
<!-- 5&#45;&gt;6 -->
<g id="edge6" class="edge">
<title>5:s&#45;&gt;6</title>
<path fill="none" stroke="black" d="M260,-73C260,-59.58 252.71,-49.48 242.17,-41.91"/>
<polygon fill="black" stroke="black" points="243.89,-38.86 233.54,-36.59 240.21,-44.82 243.89,-38.86"/>
</g>
</g>
</svg>
