<?xml version="1.0" encoding="UTF-8" standalone="no"?>
<!DOCTYPE svg PUBLIC "-//W3C//DTD SVG 1.1//EN"
 "http://www.w3.org/Graphics/SVG/1.1/DTD/svg11.dtd">
<!-- Generated by graphviz version 2.50.0 (0)
 -->
<!-- Title: G Pages: 1 -->
<svg width="337pt" height="483pt"
 viewBox="0.00 0.00 336.50 483.00" xmlns="http://www.w3.org/2000/svg" xmlns:xlink="http://www.w3.org/1999/xlink">
<g id="graph0" class="graph" transform="scale(1 1) rotate(0) translate(4 479)">
<title>G</title>
<polygon fill="white" stroke="transparent" points="-4,4 -4,-479 332.5,-479 332.5,4 -4,4"/>
<!-- 1 -->
<g id="node1" class="node">
<title>1</title>
<path fill="Orange" stroke="black" d="M117,-438.5C117,-438.5 222,-438.5 222,-438.5 228,-438.5 234,-444.5 234,-450.5 234,-450.5 234,-462.5 234,-462.5 234,-468.5 228,-474.5 222,-474.5 222,-474.5 117,-474.5 117,-474.5 111,-474.5 105,-468.5 105,-462.5 105,-462.5 105,-450.5 105,-450.5 105,-444.5 111,-438.5 117,-438.5"/>
<text text-anchor="middle" x="169.5" y="-452.8" font-family="Times,serif" font-size="14.00">Device Disassembly</text>
</g>
<!-- 2 -->
<g id="node2" class="node">
<title>2</title>
<path fill="Orange" stroke="black" d="M129,-365.5C129,-365.5 210,-365.5 210,-365.5 216,-365.5 222,-371.5 222,-377.5 222,-377.5 222,-389.5 222,-389.5 222,-395.5 216,-401.5 210,-401.5 210,-401.5 129,-401.5 129,-401.5 123,-401.5 117,-395.5 117,-389.5 117,-389.5 117,-377.5 117,-377.5 117,-371.5 123,-365.5 129,-365.5"/>
<text text-anchor="middle" x="169.5" y="-379.8" font-family="Times,serif" font-size="14.00">Circuit Analysis</text>
</g>
<!-- 1&#45;&gt;2 -->
<g id="edge1" class="edge">
<title>1&#45;&gt;2</title>
<path fill="none" stroke="black" d="M169.5,-438.31C169.5,-430.29 169.5,-420.55 169.5,-411.57"/>
<polygon fill="black" stroke="black" points="173,-411.53 169.5,-401.53 166,-411.53 173,-411.53"/>
</g>
<!-- 3 -->
<g id="node3" class="node">
<title>3</title>
<path fill="Orange" stroke="black" d="M121,-292.5C121,-292.5 218,-292.5 218,-292.5 224,-292.5 230,-298.5 230,-304.5 230,-304.5 230,-316.5 230,-316.5 230,-322.5 224,-328.5 218,-328.5 218,-328.5 121,-328.5 121,-328.5 115,-328.5 109,-322.5 109,-316.5 109,-316.5 109,-304.5 109,-304.5 109,-298.5 115,-292.5 121,-292.5"/>
<text text-anchor="middle" x="169.5" y="-306.8" font-family="Times,serif" font-size="14.00">Datasheet Analysis</text>
</g>
<!-- 2&#45;&gt;3 -->
<g id="edge2" class="edge">
<title>2&#45;&gt;3</title>
<path fill="none" stroke="black" d="M169.5,-365.31C169.5,-357.29 169.5,-347.55 169.5,-338.57"/>
<polygon fill="black" stroke="black" points="173,-338.53 169.5,-328.53 166,-338.53 173,-338.53"/>
</g>
<!-- 4 -->
<g id="node4" class="node">
<title>4</title>
<path fill="Orange" stroke="black" d="M197,-219.5C197,-219.5 294,-219.5 294,-219.5 300,-219.5 306,-225.5 306,-231.5 306,-231.5 306,-243.5 306,-243.5 306,-249.5 300,-255.5 294,-255.5 294,-255.5 197,-255.5 197,-255.5 191,-255.5 185,-249.5 185,-243.5 185,-243.5 185,-231.5 185,-231.5 185,-225.5 191,-219.5 197,-219.5"/>
<text text-anchor="middle" x="245.5" y="-233.8" font-family="Times,serif" font-size="14.00">Dump Data at Rest</text>
</g>
<!-- 3&#45;&gt;4 -->
<g id="edge3" class="edge">
<title>3&#45;&gt;4:n</title>
<path fill="none" stroke="black" d="M219.35,-292.33C230.54,-285.87 240.21,-277.28 243.9,-266.06"/>
<polygon fill="black" stroke="black" points="247.38,-266.43 245.5,-256 240.47,-265.33 247.38,-266.43"/>
</g>
<!-- 5 -->
<g id="node5" class="node">
<title>5</title>
<path fill="Orange" stroke="black" d="M32,-219.5C32,-219.5 155,-219.5 155,-219.5 161,-219.5 167,-225.5 167,-231.5 167,-231.5 167,-243.5 167,-243.5 167,-249.5 161,-255.5 155,-255.5 155,-255.5 32,-255.5 32,-255.5 26,-255.5 20,-249.5 20,-243.5 20,-243.5 20,-231.5 20,-231.5 20,-225.5 26,-219.5 32,-219.5"/>
<text text-anchor="middle" x="93.5" y="-233.8" font-family="Times,serif" font-size="14.00">Capture Data in Motion</text>
</g>
<!-- 3&#45;&gt;5 -->
<g id="edge4" class="edge">
<title>3&#45;&gt;5:n</title>
<path fill="none" stroke="black" d="M119.65,-292.33C108.46,-285.87 98.79,-277.28 95.1,-266.06"/>
<polygon fill="black" stroke="black" points="98.53,-265.33 93.5,-256 91.62,-266.43 98.53,-265.33"/>
</g>
<!-- 6 -->
<g id="node6" class="node">
<title>6</title>
<path fill="Orange" stroke="black" d="M12,-146.5C12,-146.5 89,-146.5 89,-146.5 95,-146.5 101,-152.5 101,-158.5 101,-158.5 101,-170.5 101,-170.5 101,-176.5 95,-182.5 89,-182.5 89,-182.5 12,-182.5 12,-182.5 6,-182.5 0,-176.5 0,-170.5 0,-170.5 0,-158.5 0,-158.5 0,-152.5 6,-146.5 12,-146.5"/>
<text text-anchor="middle" x="50.5" y="-160.8" font-family="Times,serif" font-size="14.00">String Analysis</text>
</g>
<!-- 4&#45;&gt;6 -->
<g id="edge5" class="edge">
<title>4&#45;&gt;6</title>
<path fill="none" stroke="black" d="M198.79,-219.49C171.26,-209.47 136.22,-196.71 107.12,-186.12"/>
<polygon fill="black" stroke="black" points="108.1,-182.75 97.5,-182.61 105.7,-189.32 108.1,-182.75"/>
</g>
<!-- 7 -->
<g id="node7" class="node">
<title>7</title>
<path fill="Orange" stroke="black" d="M131,-146.5C131,-146.5 218,-146.5 218,-146.5 224,-146.5 230,-152.5 230,-158.5 230,-158.5 230,-170.5 230,-170.5 230,-176.5 224,-182.5 218,-182.5 218,-182.5 131,-182.5 131,-182.5 125,-182.5 119,-176.5 119,-170.5 119,-170.5 119,-158.5 119,-158.5 119,-152.5 125,-146.5 131,-146.5"/>
<text text-anchor="middle" x="174.5" y="-160.8" font-family="Times,serif" font-size="14.00">Entropy Analysis</text>
</g>
<!-- 4&#45;&gt;7 -->
<g id="edge6" class="edge">
<title>4&#45;&gt;7</title>
<path fill="none" stroke="black" d="M228.31,-219.31C219.42,-210.42 208.41,-199.41 198.67,-189.67"/>
<polygon fill="black" stroke="black" points="201.07,-187.13 191.53,-182.53 196.13,-192.07 201.07,-187.13"/>
</g>
<!-- 8 -->
<g id="node8" class="node">
<title>8</title>
<path fill="Orange" stroke="black" d="M260.5,-146.5C260.5,-146.5 316.5,-146.5 316.5,-146.5 322.5,-146.5 328.5,-152.5 328.5,-158.5 328.5,-158.5 328.5,-170.5 328.5,-170.5 328.5,-176.5 322.5,-182.5 316.5,-182.5 316.5,-182.5 260.5,-182.5 260.5,-182.5 254.5,-182.5 248.5,-176.5 248.5,-170.5 248.5,-170.5 248.5,-158.5 248.5,-158.5 248.5,-152.5 254.5,-146.5 260.5,-146.5"/>
<text text-anchor="middle" x="288.5" y="-160.8" font-family="Times,serif" font-size="14.00">Key Search</text>
</g>
<!-- 4&#45;&gt;8 -->
<g id="edge7" class="edge">
<title>4&#45;&gt;8</title>
<path fill="none" stroke="black" d="M255.91,-219.31C261.03,-210.85 267.31,-200.48 272.99,-191.11"/>
<polygon fill="black" stroke="black" points="276,-192.9 278.19,-182.53 270.01,-189.27 276,-192.9"/>
</g>
<!-- 5&#45;&gt;6 -->
<g id="edge8" class="edge">
<title>5&#45;&gt;6</title>
<path fill="none" stroke="black" d="M83.09,-219.31C77.97,-210.85 71.69,-200.48 66.01,-191.11"/>
<polygon fill="black" stroke="black" points="68.99,-189.27 60.81,-182.53 63,-192.9 68.99,-189.27"/>
</g>
<!-- 5&#45;&gt;7 -->
<g id="edge9" class="edge">
<title>5&#45;&gt;7</title>
<path fill="none" stroke="black" d="M113.11,-219.31C123.36,-210.33 136.06,-199.19 147.25,-189.39"/>
<polygon fill="black" stroke="black" points="149.86,-191.75 155.07,-182.53 145.25,-186.49 149.86,-191.75"/>
</g>
<!-- 5&#45;&gt;8 -->
<g id="edge10" class="edge">
<title>5&#45;&gt;8</title>
<path fill="none" stroke="black" d="M140.21,-219.49C170,-208.65 208.56,-194.61 238.9,-183.56"/>
<polygon fill="black" stroke="black" points="240.24,-186.8 248.44,-180.09 237.84,-180.22 240.24,-186.8"/>
</g>
<!-- 9 -->
<g id="node9" class="node">
<title>9</title>
<path fill="Orange" stroke="black" d="M108.5,-73.5C108.5,-73.5 240.5,-73.5 240.5,-73.5 246.5,-73.5 252.5,-79.5 252.5,-85.5 252.5,-85.5 252.5,-97.5 252.5,-97.5 252.5,-103.5 246.5,-109.5 240.5,-109.5 240.5,-109.5 108.5,-109.5 108.5,-109.5 102.5,-109.5 96.5,-103.5 96.5,-97.5 96.5,-97.5 96.5,-85.5 96.5,-85.5 96.5,-79.5 102.5,-73.5 108.5,-73.5"/>
<text text-anchor="middle" x="174.5" y="-87.8" font-family="Times,serif" font-size="14.00">Decoding Retrieved Data</text>
</g>
<!-- 6&#45;&gt;9 -->
<g id="edge11" class="edge">
<title>6:s&#45;&gt;9:w</title>
<path fill="none" stroke="black" d="M50.5,-146C50.5,-118.15 61.18,-96.84 85.5,-92.37"/>
<polygon fill="black" stroke="black" points="85.84,-95.85 95.5,-91.5 85.23,-88.88 85.84,-95.85"/>
</g>
<!-- 7&#45;&gt;9 -->
<g id="edge12" class="edge">
<title>7:s&#45;&gt;9:n</title>
<path fill="none" stroke="black" d="M174.5,-146C174.5,-134 174.5,-128.75 174.5,-120.12"/>
<polygon fill="black" stroke="black" points="178,-120 174.5,-110 171,-120 178,-120"/>
</g>
<!-- 8&#45;&gt;9 -->
<g id="edge13" class="edge">
<title>8:s&#45;&gt;9:e</title>
<path fill="none" stroke="black" d="M288.5,-146C288.5,-120.92 283.79,-98.18 263.54,-92.73"/>
<polygon fill="black" stroke="black" points="263.85,-89.25 253.5,-91.5 263,-96.19 263.85,-89.25"/>
</g>
<!-- 10 -->
<g id="node10" class="node">
<title>10</title>
<path fill="Orange" stroke="black" d="M145,-0.5C145,-0.5 204,-0.5 204,-0.5 210,-0.5 216,-6.5 216,-12.5 216,-12.5 216,-24.5 216,-24.5 216,-30.5 210,-36.5 204,-36.5 204,-36.5 145,-36.5 145,-36.5 139,-36.5 133,-30.5 133,-24.5 133,-24.5 133,-12.5 133,-12.5 133,-6.5 139,-0.5 145,-0.5"/>
<text text-anchor="middle" x="174.5" y="-14.8" font-family="Times,serif" font-size="14.00">Exploitation</text>
</g>
<!-- 9&#45;&gt;10 -->
<g id="edge14" class="edge">
<title>9&#45;&gt;10</title>
<path fill="none" stroke="black" d="M174.5,-73.31C174.5,-65.29 174.5,-55.55 174.5,-46.57"/>
<polygon fill="black" stroke="black" points="178,-46.53 174.5,-36.53 171,-46.53 178,-46.53"/>
</g>
</g>
</svg>
