<?xml version="1.0" encoding="UTF-8" standalone="no"?>
<!DOCTYPE svg PUBLIC "-//W3C//DTD SVG 1.1//EN"
 "http://www.w3.org/Graphics/SVG/1.1/DTD/svg11.dtd">
<!-- Generated by graphviz version 2.43.0 (0)
 -->
<!-- Title: G Pages: 1 -->
<svg width="360pt" height="337pt"
 viewBox="0.00 0.00 360.00 337.00" xmlns="http://www.w3.org/2000/svg" xmlns:xlink="http://www.w3.org/1999/xlink">
<g id="graph0" class="graph" transform="scale(1 1) rotate(0) translate(4 333)">
<title>G</title>
<polygon fill="white" stroke="transparent" points="-4,4 -4,-333 356,-333 356,4 -4,4"/>
<!-- 1 -->
<g id="node1" class="node">
<title>1</title>
<path fill="Orange" stroke="black" d="M104,-292.5C104,-292.5 226,-292.5 226,-292.5 232,-292.5 238,-298.5 238,-304.5 238,-304.5 238,-316.5 238,-316.5 238,-322.5 232,-328.5 226,-328.5 226,-328.5 104,-328.5 104,-328.5 98,-328.5 92,-322.5 92,-316.5 92,-316.5 92,-304.5 92,-304.5 92,-298.5 98,-292.5 104,-292.5"/>
<text text-anchor="middle" x="165" y="-306.8" font-family="Times,serif" font-size="14.00">Document Review</text>
</g>
<!-- 2 -->
<g id="node2" class="node">
<title>2</title>
<path fill="Orange" stroke="black" d="M83,-219.5C83,-219.5 247,-219.5 247,-219.5 253,-219.5 259,-225.5 259,-231.5 259,-231.5 259,-243.5 259,-243.5 259,-249.5 253,-255.5 247,-255.5 247,-255.5 83,-255.5 83,-255.5 77,-255.5 71,-249.5 71,-243.5 71,-243.5 71,-231.5 71,-231.5 71,-225.5 77,-219.5 83,-219.5"/>
<text text-anchor="middle" x="165" y="-233.8" font-family="Times,serif" font-size="14.00">Open Source Intelgence</text>
</g>
<!-- 1&#45;&gt;2 -->
<g id="edge1" class="edge">
<title>1&#45;&gt;2</title>
<path fill="none" stroke="black" d="M165,-292.31C165,-284.29 165,-274.55 165,-265.57"/>
<polygon fill="black" stroke="black" points="168.5,-265.53 165,-255.53 161.5,-265.53 168.5,-265.53"/>
</g>
<!-- 3 -->
<g id="node3" class="node">
<title>3</title>
<path fill="Orange" stroke="black" d="M131,-146.5C131,-146.5 199,-146.5 199,-146.5 205,-146.5 211,-152.5 211,-158.5 211,-158.5 211,-170.5 211,-170.5 211,-176.5 205,-182.5 199,-182.5 199,-182.5 131,-182.5 131,-182.5 125,-182.5 119,-176.5 119,-170.5 119,-170.5 119,-158.5 119,-158.5 119,-152.5 125,-146.5 131,-146.5"/>
<text text-anchor="middle" x="165" y="-160.8" font-family="Times,serif" font-size="14.00">Interviews</text>
</g>
<!-- 2&#45;&gt;3 -->
<g id="edge2" class="edge">
<title>2&#45;&gt;3</title>
<path fill="none" stroke="black" d="M165,-219.31C165,-211.29 165,-201.55 165,-192.57"/>
<polygon fill="black" stroke="black" points="168.5,-192.53 165,-182.53 161.5,-192.53 168.5,-192.53"/>
</g>
<!-- 4 -->
<g id="node4" class="node">
<title>4</title>
<path fill="Orange" stroke="black" d="M12,-73.5C12,-73.5 134,-73.5 134,-73.5 140,-73.5 146,-79.5 146,-85.5 146,-85.5 146,-97.5 146,-97.5 146,-103.5 140,-109.5 134,-109.5 134,-109.5 12,-109.5 12,-109.5 6,-109.5 0,-103.5 0,-97.5 0,-97.5 0,-85.5 0,-85.5 0,-79.5 6,-73.5 12,-73.5"/>
<text text-anchor="middle" x="73" y="-87.8" font-family="Times,serif" font-size="14.00">Document Review</text>
</g>
<!-- 3&#45;&gt;4 -->
<g id="edge3" class="edge">
<title>3&#45;&gt;4:n</title>
<path fill="none" stroke="black" d="M118.73,-154.4C99.4,-148.09 80.13,-137.59 74.58,-120.31"/>
<polygon fill="black" stroke="black" points="77.98,-119.35 73,-110 71.06,-120.42 77.98,-119.35"/>
</g>
<!-- 5 -->
<g id="node5" class="node">
<title>5</title>
<path fill="Orange" stroke="black" d="M176,-73.5C176,-73.5 340,-73.5 340,-73.5 346,-73.5 352,-79.5 352,-85.5 352,-85.5 352,-97.5 352,-97.5 352,-103.5 346,-109.5 340,-109.5 340,-109.5 176,-109.5 176,-109.5 170,-109.5 164,-103.5 164,-97.5 164,-97.5 164,-85.5 164,-85.5 164,-79.5 170,-73.5 176,-73.5"/>
<text text-anchor="middle" x="258" y="-87.8" font-family="Times,serif" font-size="14.00">Open Source Intelgence</text>
</g>
<!-- 3&#45;&gt;5 -->
<g id="edge4" class="edge">
<title>3&#45;&gt;5:n</title>
<path fill="none" stroke="black" d="M211.23,-154.72C231.1,-148.42 251.05,-137.78 256.53,-119.98"/>
<polygon fill="black" stroke="black" points="260,-120.4 258,-110 253.08,-119.38 260,-120.4"/>
</g>
<!-- 6 -->
<g id="node6" class="node">
<title>6</title>
<path fill="Orange" stroke="black" d="M98.5,-0.5C98.5,-0.5 231.5,-0.5 231.5,-0.5 237.5,-0.5 243.5,-6.5 243.5,-12.5 243.5,-12.5 243.5,-24.5 243.5,-24.5 243.5,-30.5 237.5,-36.5 231.5,-36.5 231.5,-36.5 98.5,-36.5 98.5,-36.5 92.5,-36.5 86.5,-30.5 86.5,-24.5 86.5,-24.5 86.5,-12.5 86.5,-12.5 86.5,-6.5 92.5,-0.5 98.5,-0.5"/>
<text text-anchor="middle" x="165" y="-14.8" font-family="Times,serif" font-size="14.00">Followup Questions</text>
</g>
<!-- 4&#45;&gt;6 -->
<g id="edge5" class="edge">
<title>4:s&#45;&gt;6</title>
<path fill="none" stroke="black" d="M73,-73C73,-59.6 80.38,-49.5 90.96,-41.91"/>
<polygon fill="black" stroke="black" points="92.94,-44.8 99.61,-36.57 89.26,-38.84 92.94,-44.8"/>
</g>
<!-- 5&#45;&gt;6 -->
<g id="edge6" class="edge">
<title>5:s&#45;&gt;6</title>
<path fill="none" stroke="black" d="M258,-73C258,-59.64 250.7,-49.57 240.19,-41.99"/>
<polygon fill="black" stroke="black" points="241.94,-38.96 231.6,-36.67 238.26,-44.91 241.94,-38.96"/>
</g>
</g>
</svg>
