<?xml version="1.0" encoding="UTF-8" standalone="no"?>
<!DOCTYPE svg PUBLIC "-//W3C//DTD SVG 1.1//EN"
 "http://www.w3.org/Graphics/SVG/1.1/DTD/svg11.dtd">
<!-- Generated by graphviz version 2.43.0 (0)
 -->
<!-- Title: G Pages: 1 -->
<svg width="376pt" height="337pt"
 viewBox="0.00 0.00 375.50 337.00" xmlns="http://www.w3.org/2000/svg" xmlns:xlink="http://www.w3.org/1999/xlink">
<g id="graph0" class="graph" transform="scale(1 1) rotate(0) translate(4 333)">
<title>G</title>
<polygon fill="white" stroke="transparent" points="-4,4 -4,-333 371.5,-333 371.5,4 -4,4"/>
<!-- 1 -->
<g id="node1" class="node">
<title>1</title>
<path fill="Orange" stroke="black" d="M94.5,-292.5C94.5,-292.5 253.5,-292.5 253.5,-292.5 259.5,-292.5 265.5,-298.5 265.5,-304.5 265.5,-304.5 265.5,-316.5 265.5,-316.5 265.5,-322.5 259.5,-328.5 253.5,-328.5 253.5,-328.5 94.5,-328.5 94.5,-328.5 88.5,-328.5 82.5,-322.5 82.5,-316.5 82.5,-316.5 82.5,-304.5 82.5,-304.5 82.5,-298.5 88.5,-292.5 94.5,-292.5"/>
<text text-anchor="middle" x="174" y="-306.8" font-family="Times,serif" font-size="14.00">Controller Tag Analysis</text>
</g>
<!-- 2 -->
<g id="node2" class="node">
<title>2</title>
<path fill="Orange" stroke="black" d="M88,-219.5C88,-219.5 260,-219.5 260,-219.5 266,-219.5 272,-225.5 272,-231.5 272,-231.5 272,-243.5 272,-243.5 272,-249.5 266,-255.5 260,-255.5 260,-255.5 88,-255.5 88,-255.5 82,-255.5 76,-249.5 76,-243.5 76,-243.5 76,-231.5 76,-231.5 76,-225.5 82,-219.5 88,-219.5"/>
<text text-anchor="middle" x="174" y="-233.8" font-family="Times,serif" font-size="14.00">Controller Logic Analysis</text>
</g>
<!-- 1&#45;&gt;2 -->
<g id="edge1" class="edge">
<title>1&#45;&gt;2</title>
<path fill="none" stroke="black" d="M174,-292.31C174,-284.29 174,-274.55 174,-265.57"/>
<polygon fill="black" stroke="black" points="177.5,-265.53 174,-255.53 170.5,-265.53 177.5,-265.53"/>
</g>
<!-- 3 -->
<g id="node3" class="node">
<title>3</title>
<path fill="Orange" stroke="black" d="M12,-146.5C12,-146.5 180,-146.5 180,-146.5 186,-146.5 192,-152.5 192,-158.5 192,-158.5 192,-170.5 192,-170.5 192,-176.5 186,-182.5 180,-182.5 180,-182.5 12,-182.5 12,-182.5 6,-182.5 0,-176.5 0,-170.5 0,-170.5 0,-158.5 0,-158.5 0,-152.5 6,-146.5 12,-146.5"/>
<text text-anchor="middle" x="96" y="-160.8" font-family="Times,serif" font-size="14.00">HMI Functional Analysis</text>
</g>
<!-- 2&#45;&gt;3 -->
<g id="edge2" class="edge">
<title>2&#45;&gt;3:n</title>
<path fill="none" stroke="black" d="M122.41,-219.41C111.07,-212.98 101.33,-204.4 97.61,-193.12"/>
<polygon fill="black" stroke="black" points="101.03,-192.33 96,-183 94.12,-193.43 101.03,-192.33"/>
</g>
<!-- 5 -->
<g id="node5" class="node">
<title>5</title>
<path fill="Orange" stroke="black" d="M180.5,-73.5C180.5,-73.5 355.5,-73.5 355.5,-73.5 361.5,-73.5 367.5,-79.5 367.5,-85.5 367.5,-85.5 367.5,-97.5 367.5,-97.5 367.5,-103.5 361.5,-109.5 355.5,-109.5 355.5,-109.5 180.5,-109.5 180.5,-109.5 174.5,-109.5 168.5,-103.5 168.5,-97.5 168.5,-97.5 168.5,-85.5 168.5,-85.5 168.5,-79.5 174.5,-73.5 180.5,-73.5"/>
<text text-anchor="middle" x="268" y="-87.8" font-family="Times,serif" font-size="14.00">Testing Harness Creation</text>
</g>
<!-- 2&#45;&gt;5 -->
<g id="edge3" class="edge">
<title>2&#45;&gt;5:n</title>
<path fill="none" stroke="black" d="M198.21,-219.4C224.05,-199.09 262.01,-162.58 267.36,-120.04"/>
<polygon fill="black" stroke="black" points="270.86,-120.2 268,-110 263.87,-119.76 270.86,-120.2"/>
</g>
<!-- 4 -->
<g id="node4" class="node">
<title>4</title>
<path fill="Orange" stroke="black" d="M21.5,-73.5C21.5,-73.5 138.5,-73.5 138.5,-73.5 144.5,-73.5 150.5,-79.5 150.5,-85.5 150.5,-85.5 150.5,-97.5 150.5,-97.5 150.5,-103.5 144.5,-109.5 138.5,-109.5 138.5,-109.5 21.5,-109.5 21.5,-109.5 15.5,-109.5 9.5,-103.5 9.5,-97.5 9.5,-97.5 9.5,-85.5 9.5,-85.5 9.5,-79.5 15.5,-73.5 21.5,-73.5"/>
<text text-anchor="middle" x="80" y="-87.8" font-family="Times,serif" font-size="14.00">HMI Modification</text>
</g>
<!-- 3&#45;&gt;4 -->
<g id="edge4" class="edge">
<title>3&#45;&gt;4:n</title>
<path fill="none" stroke="black" d="M88,-146.06C85.06,-138.51 82.12,-129.3 80.77,-120.02"/>
<polygon fill="black" stroke="black" points="84.26,-119.7 80,-110 77.28,-120.24 84.26,-119.7"/>
</g>
<!-- 6 -->
<g id="node6" class="node">
<title>6</title>
<path fill="Orange" stroke="black" d="M110.5,-0.5C110.5,-0.5 237.5,-0.5 237.5,-0.5 243.5,-0.5 249.5,-6.5 249.5,-12.5 249.5,-12.5 249.5,-24.5 249.5,-24.5 249.5,-30.5 243.5,-36.5 237.5,-36.5 237.5,-36.5 110.5,-36.5 110.5,-36.5 104.5,-36.5 98.5,-30.5 98.5,-24.5 98.5,-24.5 98.5,-12.5 98.5,-12.5 98.5,-6.5 104.5,-0.5 110.5,-0.5"/>
<text text-anchor="middle" x="174" y="-14.8" font-family="Times,serif" font-size="14.00">Logic Flaw Testing</text>
</g>
<!-- 4&#45;&gt;6 -->
<g id="edge5" class="edge">
<title>4:s&#45;&gt;6</title>
<path fill="none" stroke="black" d="M80,-73C80,-59.61 87.3,-49.53 97.82,-41.95"/>
<polygon fill="black" stroke="black" points="99.77,-44.86 106.43,-36.63 96.09,-38.91 99.77,-44.86"/>
</g>
<!-- 5&#45;&gt;6 -->
<g id="edge6" class="edge">
<title>5:s&#45;&gt;6</title>
<path fill="none" stroke="black" d="M268,-73C268,-59.61 260.7,-49.53 250.18,-41.95"/>
<polygon fill="black" stroke="black" points="251.91,-38.91 241.57,-36.63 248.23,-44.86 251.91,-38.91"/>
</g>
</g>
</svg>
