<?xml version="1.0" encoding="UTF-8" standalone="no"?>
<!DOCTYPE svg PUBLIC "-//W3C//DTD SVG 1.1//EN"
 "http://www.w3.org/Graphics/SVG/1.1/DTD/svg11.dtd">
<!-- Generated by graphviz version 2.43.0 (0)
 -->
<!-- Title: G Pages: 1 -->
<svg width="948pt" height="420pt"
 viewBox="0.00 0.00 948.00 420.00" xmlns="http://www.w3.org/2000/svg" xmlns:xlink="http://www.w3.org/1999/xlink">
<g id="graph0" class="graph" transform="scale(1 1) rotate(0) translate(4 416)">
<title>G</title>
<polygon fill="white" stroke="transparent" points="-4,4 -4,-416 944,-416 944,4 -4,4"/>
<g id="clust1" class="cluster">
<title>cluster0</title>
<path fill="LightGreen" stroke="LightGreen" d="M329,-265C329,-265 607,-265 607,-265 613,-265 619,-271 619,-277 619,-277 619,-392 619,-392 619,-398 613,-404 607,-404 607,-404 329,-404 329,-404 323,-404 317,-398 317,-392 317,-392 317,-277 317,-277 317,-271 323,-265 329,-265"/>
<text text-anchor="middle" x="468" y="-384" font-family="Times,serif" font-size="20.00">Production Assessments</text>
</g>
<g id="clust2" class="cluster">
<title>cluster1</title>
<path fill="Yellow" stroke="Yellow" d="M358.5,-8C358.5,-8 920,-8 920,-8 926,-8 932,-14 932,-20 932,-20 932,-245 932,-245 932,-251 926,-257 920,-257 920,-257 358.5,-257 358.5,-257 352.5,-257 346.5,-251 346.5,-245 346.5,-245 346.5,-20 346.5,-20 346.5,-14 352.5,-8 358.5,-8"/>
<text text-anchor="middle" x="639.25" y="-237" font-family="Times,serif" font-size="20.00">Lab Assessments (not safe for production systems)</text>
</g>
<!-- 1 -->
<g id="node1" class="node">
<title>1</title>
<path fill="Orange" stroke="black" d="M12,-154C12,-154 277,-154 277,-154 283,-154 289,-160 289,-166 289,-166 289,-178 289,-178 289,-184 283,-190 277,-190 277,-190 12,-190 12,-190 6,-190 0,-184 0,-178 0,-178 0,-166 0,-166 0,-160 6,-154 12,-154"/>
<text text-anchor="middle" x="144.5" y="-168.3" font-family="Times,serif" font-size="14.00">1 &#45; A&amp;E Control System Architectures</text>
</g>
<!-- 2 -->
<g id="node2" class="node">
<title>2</title>
<path fill="Orange" stroke="black" d="M347,-329C347,-329 589,-329 589,-329 595,-329 601,-335 601,-341 601,-341 601,-353 601,-353 601,-359 595,-365 589,-365 589,-365 347,-365 347,-365 341,-365 335,-359 335,-353 335,-353 335,-341 335,-341 335,-335 341,-329 347,-329"/>
<text text-anchor="middle" x="468" y="-343.3" font-family="Times,serif" font-size="14.00">2 &#45; A&amp;E Control Network Captures</text>
</g>
<!-- 1&#45;&gt;2 -->
<g id="edge1" class="edge">
<title>1:ne&#45;&gt;2:w</title>
<path fill="none" stroke="black" d="M288.5,-190C337.16,-238.66 269.27,-336.01 323.73,-346.14"/>
<polygon fill="black" stroke="black" points="323.74,-349.66 334,-347 324.33,-342.68 323.74,-349.66"/>
</g>
<!-- 3 -->
<g id="node3" class="node">
<title>3</title>
<path fill="Orange" stroke="black" d="M337,-274C337,-274 599,-274 599,-274 605,-274 611,-280 611,-286 611,-286 611,-298 611,-298 611,-304 605,-310 599,-310 599,-310 337,-310 337,-310 331,-310 325,-304 325,-298 325,-298 325,-286 325,-286 325,-280 331,-274 337,-274"/>
<text text-anchor="middle" x="468" y="-288.3" font-family="Times,serif" font-size="14.00">3 &#45; A&amp;E Production Control Networks</text>
</g>
<!-- 1&#45;&gt;3 -->
<g id="edge2" class="edge">
<title>1:ne&#45;&gt;3:w</title>
<path fill="none" stroke="black" d="M288.5,-190C319.66,-221.16 283.08,-281.06 314,-290.68"/>
<polygon fill="black" stroke="black" points="313.63,-294.16 324,-292 314.54,-287.22 313.63,-294.16"/>
</g>
<!-- 4 -->
<g id="node4" class="node">
<title>4</title>
<path fill="Orange" stroke="black" d="M384,-182C384,-182 552,-182 552,-182 558,-182 564,-188 564,-194 564,-194 564,-206 564,-206 564,-212 558,-218 552,-218 552,-218 384,-218 384,-218 378,-218 372,-212 372,-206 372,-206 372,-194 372,-194 372,-188 378,-182 384,-182"/>
<text text-anchor="middle" x="468" y="-196.3" font-family="Times,serif" font-size="14.00">4 &#45; A&amp;E Controller Logic</text>
</g>
<!-- 1&#45;&gt;4 -->
<g id="edge3" class="edge">
<title>1:e&#45;&gt;4:w</title>
<path fill="none" stroke="black" d="M289,-172C323.9,-172 331.26,-195 361,-199.31"/>
<polygon fill="black" stroke="black" points="360.78,-202.8 371,-200 361.27,-195.82 360.78,-202.8"/>
</g>
<!-- 5 -->
<g id="node5" class="node">
<title>5</title>
<path fill="Orange" stroke="black" d="M379.5,-127C379.5,-127 556.5,-127 556.5,-127 562.5,-127 568.5,-133 568.5,-139 568.5,-139 568.5,-151 568.5,-151 568.5,-157 562.5,-163 556.5,-163 556.5,-163 379.5,-163 379.5,-163 373.5,-163 367.5,-157 367.5,-151 367.5,-151 367.5,-139 367.5,-139 367.5,-133 373.5,-127 379.5,-127"/>
<text text-anchor="middle" x="468" y="-141.3" font-family="Times,serif" font-size="14.00">5 &#45; A&amp;E Control Protocols</text>
</g>
<!-- 1&#45;&gt;5 -->
<g id="edge4" class="edge">
<title>1:e&#45;&gt;5:w</title>
<path fill="none" stroke="black" d="M289,-172C321.58,-172 328.5,-150.21 355.87,-145.78"/>
<polygon fill="black" stroke="black" points="356.3,-149.26 366,-145 355.76,-142.28 356.3,-149.26"/>
</g>
<!-- 8 -->
<g id="node8" class="node">
<title>8</title>
<path fill="Orange" stroke="black" d="M371.5,-72C371.5,-72 564.5,-72 564.5,-72 570.5,-72 576.5,-78 576.5,-84 576.5,-84 576.5,-96 576.5,-96 576.5,-102 570.5,-108 564.5,-108 564.5,-108 371.5,-108 371.5,-108 365.5,-108 359.5,-102 359.5,-96 359.5,-96 359.5,-84 359.5,-84 359.5,-78 365.5,-72 371.5,-72"/>
<text text-anchor="middle" x="468" y="-86.3" font-family="Times,serif" font-size="14.00">8 &#45; A&amp;E Embedded Memory</text>
</g>
<!-- 1&#45;&gt;8 -->
<g id="edge5" class="edge">
<title>1:se&#45;&gt;8:w</title>
<path fill="none" stroke="black" d="M289,-154C315.92,-127.08 316.35,-96.15 347.74,-90.81"/>
<polygon fill="black" stroke="black" points="348.3,-94.27 358,-90 347.76,-87.29 348.3,-94.27"/>
</g>
<!-- 9 -->
<g id="node9" class="node">
<title>9</title>
<path fill="Orange" stroke="black" d="M366.5,-17C366.5,-17 569.5,-17 569.5,-17 575.5,-17 581.5,-23 581.5,-29 581.5,-29 581.5,-41 581.5,-41 581.5,-47 575.5,-53 569.5,-53 569.5,-53 366.5,-53 366.5,-53 360.5,-53 354.5,-47 354.5,-41 354.5,-41 354.5,-29 354.5,-29 354.5,-23 360.5,-17 366.5,-17"/>
<text text-anchor="middle" x="468" y="-31.3" font-family="Times,serif" font-size="14.00">9 &#45; A&amp;E Embedded Firmware</text>
</g>
<!-- 1&#45;&gt;9 -->
<g id="edge6" class="edge">
<title>1:se&#45;&gt;9:w</title>
<path fill="none" stroke="black" d="M289,-154C318.92,-124.08 292.96,-97.83 317,-63 326.27,-49.58 330.8,-39.63 342.79,-36.25"/>
<polygon fill="black" stroke="black" points="343.5,-39.69 353,-35 342.65,-32.74 343.5,-39.69"/>
</g>
<!-- 6 -->
<g id="node6" class="node">
<title>6</title>
<path fill="Orange" stroke="black" d="M659,-154C659,-154 912,-154 912,-154 918,-154 924,-160 924,-166 924,-166 924,-178 924,-178 924,-184 918,-190 912,-190 912,-190 659,-190 659,-190 653,-190 647,-184 647,-178 647,-178 647,-166 647,-166 647,-160 653,-154 659,-154"/>
<text text-anchor="middle" x="785.5" y="-168.3" font-family="Times,serif" font-size="14.00">6 &#45; A&amp;E Proprietary Serial Protocols</text>
</g>
<!-- 5&#45;&gt;6 -->
<g id="edge7" class="edge">
<title>5:ne&#45;&gt;6:w</title>
<path fill="none" stroke="black" d="M568,-163C578.59,-173.59 615.29,-172.69 636.99,-172.17"/>
<polygon fill="black" stroke="black" points="637.06,-175.67 647,-172 636.94,-168.67 637.06,-175.67"/>
</g>
<!-- 7 -->
<g id="node7" class="node">
<title>7</title>
<path fill="Orange" stroke="black" d="M670,-99C670,-99 901,-99 901,-99 907,-99 913,-105 913,-111 913,-111 913,-123 913,-123 913,-129 907,-135 901,-135 901,-135 670,-135 670,-135 664,-135 658,-129 658,-123 658,-123 658,-111 658,-111 658,-105 664,-99 670,-99"/>
<text text-anchor="middle" x="785.5" y="-113.3" font-family="Times,serif" font-size="14.00">7 &#45; A&amp;E Proprietary RF Protocols</text>
</g>
<!-- 5&#45;&gt;7 -->
<g id="edge8" class="edge">
<title>5:se&#45;&gt;7:w</title>
<path fill="none" stroke="black" d="M570,-127C575.64,-121.36 624.17,-118.22 646.48,-117.3"/>
<polygon fill="black" stroke="black" points="646.61,-120.79 656.5,-117 646.4,-113.8 646.61,-120.79"/>
</g>
</g>
</svg>
