<?xml version="1.0" encoding="UTF-8" standalone="no"?>
<!DOCTYPE svg PUBLIC "-//W3C//DTD SVG 1.1//EN"
 "http://www.w3.org/Graphics/SVG/1.1/DTD/svg11.dtd">
<!-- Generated by graphviz version 2.50.0 (0)
 -->
<!-- Title: G Pages: 1 -->
<svg width="300pt" height="337pt"
 viewBox="0.00 0.00 299.50 337.00" xmlns="http://www.w3.org/2000/svg" xmlns:xlink="http://www.w3.org/1999/xlink">
<g id="graph0" class="graph" transform="scale(1 1) rotate(0) translate(4 333)">
<title>G</title>
<polygon fill="white" stroke="transparent" points="-4,4 -4,-333 295.5,-333 295.5,4 -4,4"/>
<!-- 1 -->
<g id="node1" class="node">
<title>1</title>
<path fill="Orange" stroke="black" d="M74.5,-292.5C74.5,-292.5 197.5,-292.5 197.5,-292.5 203.5,-292.5 209.5,-298.5 209.5,-304.5 209.5,-304.5 209.5,-316.5 209.5,-316.5 209.5,-322.5 203.5,-328.5 197.5,-328.5 197.5,-328.5 74.5,-328.5 74.5,-328.5 68.5,-328.5 62.5,-322.5 62.5,-316.5 62.5,-316.5 62.5,-304.5 62.5,-304.5 62.5,-298.5 68.5,-292.5 74.5,-292.5"/>
<text text-anchor="middle" x="136" y="-306.8" font-family="Times,serif" font-size="14.00">Controller Tag Analysis</text>
</g>
<!-- 2 -->
<g id="node2" class="node">
<title>2</title>
<path fill="Orange" stroke="black" d="M68.5,-219.5C68.5,-219.5 203.5,-219.5 203.5,-219.5 209.5,-219.5 215.5,-225.5 215.5,-231.5 215.5,-231.5 215.5,-243.5 215.5,-243.5 215.5,-249.5 209.5,-255.5 203.5,-255.5 203.5,-255.5 68.5,-255.5 68.5,-255.5 62.5,-255.5 56.5,-249.5 56.5,-243.5 56.5,-243.5 56.5,-231.5 56.5,-231.5 56.5,-225.5 62.5,-219.5 68.5,-219.5"/>
<text text-anchor="middle" x="136" y="-233.8" font-family="Times,serif" font-size="14.00">Controller Logic Analysis</text>
</g>
<!-- 1&#45;&gt;2 -->
<g id="edge1" class="edge">
<title>1&#45;&gt;2</title>
<path fill="none" stroke="black" d="M136,-292.31C136,-284.29 136,-274.55 136,-265.57"/>
<polygon fill="black" stroke="black" points="139.5,-265.53 136,-255.53 132.5,-265.53 139.5,-265.53"/>
</g>
<!-- 3 -->
<g id="node3" class="node">
<title>3</title>
<path fill="Orange" stroke="black" d="M17,-146.5C17,-146.5 149,-146.5 149,-146.5 155,-146.5 161,-152.5 161,-158.5 161,-158.5 161,-170.5 161,-170.5 161,-176.5 155,-182.5 149,-182.5 149,-182.5 17,-182.5 17,-182.5 11,-182.5 5,-176.5 5,-170.5 5,-170.5 5,-158.5 5,-158.5 5,-152.5 11,-146.5 17,-146.5"/>
<text text-anchor="middle" x="83" y="-160.8" font-family="Times,serif" font-size="14.00">HMI Functional Analysis</text>
</g>
<!-- 2&#45;&gt;3 -->
<g id="edge2" class="edge">
<title>2&#45;&gt;3:n</title>
<path fill="none" stroke="black" d="M105.48,-219.37C96.46,-212.47 88.07,-203.63 84.64,-193.12"/>
<polygon fill="black" stroke="black" points="88.05,-192.31 83,-183 81.14,-193.43 88.05,-192.31"/>
</g>
<!-- 5 -->
<g id="node5" class="node">
<title>5</title>
<path fill="Orange" stroke="black" d="M148.5,-73.5C148.5,-73.5 279.5,-73.5 279.5,-73.5 285.5,-73.5 291.5,-79.5 291.5,-85.5 291.5,-85.5 291.5,-97.5 291.5,-97.5 291.5,-103.5 285.5,-109.5 279.5,-109.5 279.5,-109.5 148.5,-109.5 148.5,-109.5 142.5,-109.5 136.5,-103.5 136.5,-97.5 136.5,-97.5 136.5,-85.5 136.5,-85.5 136.5,-79.5 142.5,-73.5 148.5,-73.5"/>
<text text-anchor="middle" x="214" y="-87.8" font-family="Times,serif" font-size="14.00">Testing Harness Creation</text>
</g>
<!-- 2&#45;&gt;5 -->
<g id="edge3" class="edge">
<title>2&#45;&gt;5:n</title>
<path fill="none" stroke="black" d="M155.28,-219.31C176.62,-198.43 208.65,-160.93 213.4,-120.15"/>
<polygon fill="black" stroke="black" points="216.9,-120.19 214,-110 209.92,-119.78 216.9,-120.19"/>
</g>
<!-- 4 -->
<g id="node4" class="node">
<title>4</title>
<path fill="Orange" stroke="black" d="M12,-73.5C12,-73.5 106,-73.5 106,-73.5 112,-73.5 118,-79.5 118,-85.5 118,-85.5 118,-97.5 118,-97.5 118,-103.5 112,-109.5 106,-109.5 106,-109.5 12,-109.5 12,-109.5 6,-109.5 0,-103.5 0,-97.5 0,-97.5 0,-85.5 0,-85.5 0,-79.5 6,-73.5 12,-73.5"/>
<text text-anchor="middle" x="59" y="-87.8" font-family="Times,serif" font-size="14.00">HMI Modification</text>
</g>
<!-- 3&#45;&gt;4 -->
<g id="edge4" class="edge">
<title>3&#45;&gt;4:n</title>
<path fill="none" stroke="black" d="M70.72,-146.05C66.38,-138.66 62.1,-129.6 60.12,-120.23"/>
<polygon fill="black" stroke="black" points="63.57,-119.56 59,-110 56.61,-120.32 63.57,-119.56"/>
</g>
<!-- 6 -->
<g id="node6" class="node">
<title>6</title>
<path fill="Orange" stroke="black" d="M86,-0.5C86,-0.5 186,-0.5 186,-0.5 192,-0.5 198,-6.5 198,-12.5 198,-12.5 198,-24.5 198,-24.5 198,-30.5 192,-36.5 186,-36.5 186,-36.5 86,-36.5 86,-36.5 80,-36.5 74,-30.5 74,-24.5 74,-24.5 74,-12.5 74,-12.5 74,-6.5 80,-0.5 86,-0.5"/>
<text text-anchor="middle" x="136" y="-14.8" font-family="Times,serif" font-size="14.00">Logic Flaw Testing</text>
</g>
<!-- 4&#45;&gt;6 -->
<g id="edge5" class="edge">
<title>4:s&#45;&gt;6</title>
<path fill="none" stroke="black" d="M59,-73C59,-59.9 66.61,-49.75 77.05,-41.99"/>
<polygon fill="black" stroke="black" points="79.01,-44.88 85.5,-36.51 75.2,-39.01 79.01,-44.88"/>
</g>
<!-- 5&#45;&gt;6 -->
<g id="edge6" class="edge">
<title>5:s&#45;&gt;6</title>
<path fill="none" stroke="black" d="M214,-73C214,-59.91 206.44,-49.79 196.03,-42.05"/>
<polygon fill="black" stroke="black" points="197.89,-39.09 187.59,-36.59 194.09,-44.97 197.89,-39.09"/>
</g>
</g>
</svg>
