<?xml version="1.0" encoding="UTF-8" standalone="no"?><svg xmlns="http://www.w3.org/2000/svg" xmlns:xlink="http://www.w3.org/1999/xlink" contentScriptType="application/ecmascript" contentStyleType="text/css" height="530px" preserveAspectRatio="none" style="width:1407px;height:530px;" version="1.1" viewBox="0 0 1407 530" width="1407px" zoomAndPan="magnify"><defs><filter height="300%" id="f0" width="300%" x="-1" y="-1"><feGaussianBlur result="blurOut" stdDeviation="2.0"/><feColorMatrix in="blurOut" result="blurOut2" type="matrix" values="0 0 0 0 0 0 0 0 0 0 0 0 0 0 0 0 0 0 .4 0"/><feOffset dx="4.0" dy="4.0" in="blurOut2" result="blurOut3"/><feBlend in="SourceGraphic" in2="blurOut3" mode="normal"/></filter></defs><g><text fill="#000000" font-family="Serif" font-size="11" lengthAdjust="spacing" textLength="81" x="73" y="15.2104">L5_Enterprise</text><text fill="#000000" font-family="Serif" font-size="11" lengthAdjust="spacing" textLength="68" x="86" y="118.0151">L4_Business</text><text fill="#000000" font-family="Serif" font-size="11" lengthAdjust="spacing" textLength="53" x="101" y="220.8198">ICS_DMZ</text><text fill="#000000" font-family="Serif" font-size="11" lengthAdjust="spacing" textLength="149" x="5" y="323.6245">L3_Plantwide_Supervisory</text><text fill="#000000" font-family="Serif" font-size="11" lengthAdjust="spacing" textLength="82" x="72" y="426.4292">L012_Process1</text><rect fill="#FF7777" height="145.6094" style="stroke:#FF7777;stroke-width:1.0;" width="523" x="866" y="347.3164"/><rect fill="#FEFECE" filter="url(#f0)" height="5" style="stroke:#A80036;stroke-width:1.0;" width="150" x="159" y="8.9023"/><rect fill="#FEFECE" filter="url(#f0)" height="5" style="stroke:#A80036;stroke-width:1.0;" width="301" x="309" y="111.707"/><rect fill="#FEFECE" filter="url(#f0)" height="5" style="stroke:#A80036;stroke-width:1.0;" width="547" x="309" y="214.5117"/><rect fill="#FEFECE" filter="url(#f0)" height="5" style="stroke:#A80036;stroke-width:1.0;" width="455" x="610" y="317.3164"/><rect fill="#FEFECE" filter="url(#f0)" height="5" style="stroke:#A80036;stroke-width:1.0;" width="334" x="1065" y="420.1211"/><path d="M192.5,13.9023 L192.5,43.9023 " fill="none" style="stroke:#A80036;stroke-width:1.0;"/><path d="M267.5,13.9023 L267.5,43.9023 " fill="none" style="stroke:#A80036;stroke-width:1.0;"/><path d="M347.5,116.707 L347.5,146.707 " fill="none" style="stroke:#A80036;stroke-width:1.0;"/><path d="M347.5,179.5117 L347.5,214.5117 " fill="none" style="stroke:#A80036;stroke-width:1.0;"/><path d="M449,116.707 L449,146.707 " fill="none" style="stroke:#A80036;stroke-width:1.0;"/><path d="M561,116.707 L561,146.707 " fill="none" style="stroke:#A80036;stroke-width:1.0;"/><path d="M647,219.5117 L647,249.5117 " fill="none" style="stroke:#A80036;stroke-width:1.0;"/><path d="M647,282.3164 L647,317.3164 " fill="none" style="stroke:#A80036;stroke-width:1.0;"/><path d="M727,219.5117 L727,249.5117 " fill="none" style="stroke:#A80036;stroke-width:1.0;"/><path d="M813,219.5117 L813,249.5117 " fill="none" style="stroke:#A80036;stroke-width:1.0;"/><path d="M908.5,322.3164 L908.5,352.3164 " fill="none" style="stroke:#A80036;stroke-width:1.0;"/><path d="M1013,322.3164 L1013,352.3164 " fill="none" style="stroke:#A80036;stroke-width:1.0;"/><path d="M1102,425.1211 L1102,455.1211 " fill="none" style="stroke:#A80036;stroke-width:1.0;"/><path d="M1175,425.1211 L1175,455.1211 " fill="none" style="stroke:#A80036;stroke-width:1.0;"/><path d="M1255,425.1211 L1255,455.1211 " fill="none" style="stroke:#A80036;stroke-width:1.0;"/><path d="M1349,425.1211 L1349,455.1211 " fill="none" style="stroke:#A80036;stroke-width:1.0;"/><rect fill="#FEFECE" filter="url(#f0)" height="32.8047" style="stroke:#A80036;stroke-width:1.0;" width="37" x="174" y="43.9023"/><text fill="#000000" font-family="Serif" font-size="11" lengthAdjust="spacing" textLength="17" x="184" y="64.1128">AD</text><rect fill="#FEFECE" filter="url(#f0)" height="32.8047" style="stroke:#A80036;stroke-width:1.0;" width="53" x="241" y="43.9023"/><text fill="#000000" font-family="Serif" font-size="11" lengthAdjust="spacing" textLength="33" x="251" y="64.1128">Email</text><rect fill="#FEFECE" filter="url(#f0)" height="32.8047" style="stroke:#A80036;stroke-width:1.0;" width="47" x="324" y="146.707"/><text fill="#000000" font-family="Serif" font-size="11" lengthAdjust="spacing" textLength="27" x="334" y="166.9175">fw_n</text><rect fill="#FEFECE" filter="url(#f0)" height="32.8047" style="stroke:#A80036;stroke-width:1.0;" width="96" x="401" y="146.707"/><text fill="#000000" font-family="Serif" font-size="11" lengthAdjust="spacing" textLength="76" x="411" y="166.9175">workstation1</text><rect fill="#FEFECE" filter="url(#f0)" height="32.8047" style="stroke:#A80036;stroke-width:1.0;" width="68" x="527" y="146.707"/><text fill="#000000" font-family="Serif" font-size="11" lengthAdjust="spacing" textLength="48" x="537" y="166.9175">wrkstn2</text><rect fill="#FEFECE" filter="url(#f0)" height="32.8047" style="stroke:#A80036;stroke-width:1.0;" width="44" x="625" y="249.5117"/><text fill="#000000" font-family="Serif" font-size="11" lengthAdjust="spacing" textLength="24" x="635" y="269.7222">fw_s</text><rect fill="#FEFECE" filter="url(#f0)" height="32.8047" style="stroke:#A80036;stroke-width:1.0;" width="56" x="699" y="249.5117"/><text fill="#000000" font-family="Serif" font-size="11" lengthAdjust="spacing" textLength="36" x="709" y="269.7222">web01</text><rect fill="#FEFECE" filter="url(#f0)" height="32.8047" style="stroke:#A80036;stroke-width:1.0;" width="56" x="785" y="249.5117"/><text fill="#000000" font-family="Serif" font-size="11" lengthAdjust="spacing" textLength="36" x="795" y="269.7222">web02</text><rect fill="#FEFECE" filter="url(#f0)" height="32.8047" style="stroke:#A80036;stroke-width:1.0;" width="75" x="871" y="352.3164"/><text fill="#000000" font-family="Serif" font-size="11" lengthAdjust="spacing" textLength="55" x="881" y="372.5269">PlantHMI</text><rect fill="#FEFECE" filter="url(#f0)" height="32.8047" style="stroke:#A80036;stroke-width:1.0;" width="74" x="976" y="352.3164"/><text fill="#000000" font-family="Serif" font-size="11" lengthAdjust="spacing" textLength="54" x="986" y="372.5269">Historian</text><rect fill="#FEFECE" filter="url(#f0)" height="32.8047" style="stroke:#A80036;stroke-width:1.0;" width="44" x="1080" y="455.1211"/><text fill="#000000" font-family="Serif" font-size="11" lengthAdjust="spacing" textLength="24" x="1090" y="475.3315">HMI</text><rect fill="#FEFECE" filter="url(#f0)" height="32.8047" style="stroke:#A80036;stroke-width:1.0;" width="42" x="1154" y="455.1211"/><text fill="#000000" font-family="Serif" font-size="11" lengthAdjust="spacing" textLength="22" x="1164" y="475.3315">PLC</text><rect fill="#FEFECE" filter="url(#f0)" height="32.8047" style="stroke:#A80036;stroke-width:1.0;" width="58" x="1226" y="455.1211"/><text fill="#000000" font-family="Serif" font-size="11" lengthAdjust="spacing" textLength="38" x="1236" y="475.3315">Sensor</text><rect fill="#FEFECE" filter="url(#f0)" height="32.8047" style="stroke:#A80036;stroke-width:1.0;" width="70" x="1314" y="455.1211"/><text fill="#000000" font-family="Serif" font-size="11" lengthAdjust="spacing" textLength="50" x="1324" y="475.3315">Actuator</text><!--MD5=[d41d8cd98f00b204e9800998ecf8427e]
--></g></svg>