<?xml version="1.0" encoding="UTF-8" standalone="no"?>
<!DOCTYPE svg PUBLIC "-//W3C//DTD SVG 1.1//EN"
 "http://www.w3.org/Graphics/SVG/1.1/DTD/svg11.dtd">
<!-- Generated by graphviz version 2.50.0 (0)
 -->
<!-- Title: structs Pages: 1 -->
<svg width="298pt" height="195pt"
 viewBox="0.00 0.00 297.50 195.00" xmlns="http://www.w3.org/2000/svg" xmlns:xlink="http://www.w3.org/1999/xlink">
<g id="graph0" class="graph" transform="scale(1 1) rotate(0) translate(4 191)">
<title>structs</title>
<polygon fill="white" stroke="transparent" points="-4,4 -4,-191 293.5,-191 293.5,4 -4,4"/>
<!-- write -->
<g id="node1" class="node">
<title>write</title>
<polygon fill="lightgrey" stroke="black" points="93,-150.5 93,-186.5 197,-186.5 197,-150.5 93,-150.5"/>
<text text-anchor="middle" x="105.5" y="-164.8" font-family="Times,serif" font-size="14.00">&gt;</text>
<polyline fill="none" stroke="black" points="118,-150.5 118,-186.5 "/>
<text text-anchor="middle" x="141.5" y="-164.8" font-family="Times,serif" font-size="14.00">0xA1</text>
<polyline fill="none" stroke="black" points="165,-150.5 165,-186.5 "/>
<text text-anchor="middle" x="181" y="-164.8" font-family="Times,serif" font-size="14.00">r:8</text>
</g>
<!-- command -->
<g id="node2" class="node">
<title>command</title>
<polygon fill="whitesmoke" stroke="black" points="0,-76.5 0,-112.5 178,-112.5 178,-76.5 0,-76.5"/>
<text text-anchor="middle" x="11.5" y="-90.8" font-family="Times,serif" font-size="14.00">1</text>
<polyline fill="none" stroke="black" points="23,-76.5 23,-112.5 "/>
<text text-anchor="middle" x="34.5" y="-90.8" font-family="Times,serif" font-size="14.00">0</text>
<polyline fill="none" stroke="black" points="46,-76.5 46,-112.5 "/>
<text text-anchor="middle" x="57.5" y="-90.8" font-family="Times,serif" font-size="14.00">1</text>
<polyline fill="none" stroke="black" points="69,-76.5 69,-112.5 "/>
<text text-anchor="middle" x="80.5" y="-90.8" font-family="Times,serif" font-size="14.00">0</text>
<polyline fill="none" stroke="black" points="92,-76.5 92,-112.5 "/>
<text text-anchor="middle" x="102.5" y="-90.8" font-family="Times,serif" font-size="14.00">&#45;</text>
<polyline fill="none" stroke="black" points="113,-76.5 113,-112.5 "/>
<text text-anchor="middle" x="123.5" y="-90.8" font-family="Times,serif" font-size="14.00">&#45;</text>
<polyline fill="none" stroke="black" points="134,-76.5 134,-112.5 "/>
<text text-anchor="middle" x="144.5" y="-90.8" font-family="Times,serif" font-size="14.00">&#45;</text>
<polyline fill="none" stroke="black" points="155,-76.5 155,-112.5 "/>
<text text-anchor="middle" x="166.5" y="-90.8" font-family="Times,serif" font-size="14.00">1</text>
</g>
<!-- write&#45;&gt;command -->
<g id="edge1" class="edge">
<title>write:0&#45;&gt;command:3</title>
<path fill="none" stroke="black" d="M141,-150C141,-122.6 95.13,-139.03 82.94,-123.28"/>
<polygon fill="black" stroke="black" points="86.23,-122.07 80,-113.5 79.53,-124.08 86.23,-122.07"/>
</g>
<!-- address -->
<g id="node5" class="node">
<title>address</title>
<polygon fill="none" stroke="black" points="196.5,-75.5 196.5,-113.5 289.5,-113.5 289.5,-75.5 196.5,-75.5"/>
<text text-anchor="middle" x="243" y="-98.3" font-family="Times,serif" font-size="14.00">Bytes to Read</text>
<text text-anchor="middle" x="243" y="-83.3" font-family="Times,serif" font-size="14.00">(1 byte per &#39;r&#39;)</text>
</g>
<!-- write&#45;&gt;address -->
<g id="edge7" class="edge">
<title>write:1&#45;&gt;address</title>
<path fill="none" stroke="black" d="M181,-150C181,-137.91 187.74,-127.87 196.77,-119.84"/>
<polygon fill="black" stroke="black" points="199.07,-122.48 204.79,-113.57 194.76,-116.96 199.07,-122.48"/>
</g>
<!-- chip -->
<g id="node3" class="node">
<title>chip</title>
<polygon fill="none" stroke="black" points="15.5,-0.5 15.5,-38.5 76.5,-38.5 76.5,-0.5 15.5,-0.5"/>
<text text-anchor="middle" x="46" y="-23.3" font-family="Times,serif" font-size="14.00">Chip</text>
<text text-anchor="middle" x="46" y="-8.3" font-family="Times,serif" font-size="14.00">Address</text>
</g>
<!-- command&#45;&gt;chip -->
<g id="edge2" class="edge">
<title>command:0&#45;&gt;chip:0</title>
<path fill="none" stroke="black" d="M11,-75.5C11,-65.37 15.17,-55.57 20.62,-47.07"/>
<polygon fill="black" stroke="black" points="23.63,-48.88 26.66,-38.73 17.96,-44.78 23.63,-48.88"/>
</g>
<!-- command&#45;&gt;chip -->
<g id="edge3" class="edge">
<title>command:1&#45;&gt;chip:1</title>
<path fill="none" stroke="black" d="M34,-75.5C34,-66.66 35.45,-57.21 37.33,-48.64"/>
<polygon fill="black" stroke="black" points="40.78,-49.27 39.79,-38.72 33.99,-47.59 40.78,-49.27"/>
</g>
<!-- command&#45;&gt;chip -->
<g id="edge4" class="edge">
<title>command:2&#45;&gt;chip:2</title>
<path fill="none" stroke="black" d="M57,-75.5C57,-66.7 55.67,-57.25 53.94,-48.68"/>
<polygon fill="black" stroke="black" points="57.32,-47.73 51.69,-38.75 50.49,-49.28 57.32,-47.73"/>
</g>
<!-- command&#45;&gt;chip -->
<g id="edge5" class="edge">
<title>command:3&#45;&gt;chip:3</title>
<path fill="none" stroke="black" d="M80,-75.5C80,-65.37 75.88,-55.51 70.52,-46.96"/>
<polygon fill="black" stroke="black" points="73.22,-44.72 64.59,-38.57 67.5,-48.75 73.22,-44.72"/>
</g>
<!-- rw -->
<g id="node4" class="node">
<title>rw</title>
<polygon fill="none" stroke="black" points="131.5,-0.5 131.5,-38.5 202.5,-38.5 202.5,-0.5 131.5,-0.5"/>
<text text-anchor="middle" x="167" y="-23.3" font-family="Times,serif" font-size="14.00">Write = 0</text>
<text text-anchor="middle" x="167" y="-8.3" font-family="Times,serif" font-size="14.00">Read = 1</text>
</g>
<!-- command&#45;&gt;rw -->
<g id="edge6" class="edge">
<title>command:7&#45;&gt;rw</title>
<path fill="none" stroke="black" d="M167,-75.5C167,-66.91 167,-57.56 167,-49.05"/>
<polygon fill="black" stroke="black" points="170.5,-48.83 167,-38.83 163.5,-48.83 170.5,-48.83"/>
</g>
</g>
</svg>
