<?xml version="1.0" encoding="UTF-8" standalone="no"?>
<!DOCTYPE svg PUBLIC "-//W3C//DTD SVG 1.1//EN"
 "http://www.w3.org/Graphics/SVG/1.1/DTD/svg11.dtd">
<!-- Generated by graphviz version 2.50.0 (0)
 -->
<!-- Title: structs Pages: 1 -->
<svg width="438pt" height="323pt"
 viewBox="0.00 0.00 438.00 323.00" xmlns="http://www.w3.org/2000/svg" xmlns:xlink="http://www.w3.org/1999/xlink">
<g id="graph0" class="graph" transform="scale(1 1) rotate(0) translate(4 319)">
<title>structs</title>
<polygon fill="white" stroke="transparent" points="-4,4 -4,-319 434,-319 434,4 -4,4"/>
<!-- write -->
<g id="node1" class="node">
<title>write</title>
<polygon fill="lightgrey" stroke="black" points="143,-278.5 143,-314.5 380,-314.5 380,-278.5 143,-278.5"/>
<text text-anchor="middle" x="155.5" y="-292.8" font-family="Times,serif" font-size="14.00">&gt;</text>
<polyline fill="none" stroke="black" points="168,-278.5 168,-314.5 "/>
<text text-anchor="middle" x="191.5" y="-292.8" font-family="Times,serif" font-size="14.00">0xA0</text>
<polyline fill="none" stroke="black" points="215,-278.5 215,-314.5 "/>
<text text-anchor="middle" x="237" y="-292.8" font-family="Times,serif" font-size="14.00">0x00</text>
<polyline fill="none" stroke="black" points="259,-278.5 259,-314.5 "/>
<text text-anchor="middle" x="282.5" y="-292.8" font-family="Times,serif" font-size="14.00">0xBE</text>
<polyline fill="none" stroke="black" points="306,-278.5 306,-314.5 "/>
<text text-anchor="middle" x="329" y="-292.8" font-family="Times,serif" font-size="14.00">0xEF</text>
<polyline fill="none" stroke="black" points="352,-278.5 352,-314.5 "/>
<text text-anchor="middle" x="366" y="-292.8" font-family="Times,serif" font-size="14.00">...</text>
</g>
<!-- command -->
<g id="node2" class="node">
<title>command</title>
<polygon fill="whitesmoke" stroke="black" points="1.5,-197 1.5,-233 185.5,-233 185.5,-197 1.5,-197"/>
<text text-anchor="middle" x="13" y="-211.3" font-family="Times,serif" font-size="14.00">1</text>
<polyline fill="none" stroke="black" points="24.5,-197 24.5,-233 "/>
<text text-anchor="middle" x="36" y="-211.3" font-family="Times,serif" font-size="14.00">0</text>
<polyline fill="none" stroke="black" points="47.5,-197 47.5,-233 "/>
<text text-anchor="middle" x="59" y="-211.3" font-family="Times,serif" font-size="14.00">1</text>
<polyline fill="none" stroke="black" points="70.5,-197 70.5,-233 "/>
<text text-anchor="middle" x="82" y="-211.3" font-family="Times,serif" font-size="14.00">0</text>
<polyline fill="none" stroke="black" points="93.5,-197 93.5,-233 "/>
<text text-anchor="middle" x="105" y="-211.3" font-family="Times,serif" font-size="14.00">0</text>
<polyline fill="none" stroke="black" points="116.5,-197 116.5,-233 "/>
<text text-anchor="middle" x="128" y="-211.3" font-family="Times,serif" font-size="14.00">0</text>
<polyline fill="none" stroke="black" points="139.5,-197 139.5,-233 "/>
<text text-anchor="middle" x="151" y="-211.3" font-family="Times,serif" font-size="14.00">0</text>
<polyline fill="none" stroke="black" points="162.5,-197 162.5,-233 "/>
<text text-anchor="middle" x="174" y="-211.3" font-family="Times,serif" font-size="14.00">0</text>
</g>
<!-- write&#45;&gt;command -->
<g id="edge1" class="edge">
<title>write:0&#45;&gt;command:4</title>
<path fill="none" stroke="black" d="M191.5,-278C191.5,-239.09 120.87,-269.83 107.63,-243.98"/>
<polygon fill="black" stroke="black" points="111.01,-243.05 105.5,-234 104.16,-244.51 111.01,-243.05"/>
</g>
<!-- address -->
<g id="node6" class="node">
<title>address</title>
<polygon fill="none" stroke="black" points="204,-196 204,-234 269,-234 269,-196 204,-196"/>
<text text-anchor="middle" x="236.5" y="-218.8" font-family="Times,serif" font-size="14.00">Memory</text>
<text text-anchor="middle" x="236.5" y="-203.8" font-family="Times,serif" font-size="14.00">Location</text>
</g>
<!-- write&#45;&gt;address -->
<g id="edge10" class="edge">
<title>write:1&#45;&gt;address</title>
<path fill="none" stroke="black" d="M236.5,-278C236.5,-267.06 236.5,-255.02 236.5,-244.5"/>
<polygon fill="black" stroke="black" points="240,-244.18 236.5,-234.18 233,-244.18 240,-244.18"/>
</g>
<!-- data -->
<g id="node7" class="node">
<title>data</title>
<polygon fill="none" stroke="black" points="287,-188.5 287,-241.5 430,-241.5 430,-188.5 287,-188.5"/>
<text text-anchor="middle" x="358.5" y="-226.3" font-family="Times,serif" font-size="14.00">Bytes to Write</text>
<text text-anchor="middle" x="358.5" y="-211.3" font-family="Times,serif" font-size="14.00">(max of write buffer)</text>
<text text-anchor="middle" x="358.5" y="-196.3" font-family="Times,serif" font-size="14.00">(none to move pointer)</text>
</g>
<!-- write&#45;&gt;data -->
<g id="edge11" class="edge">
<title>write:2&#45;&gt;data:0</title>
<path fill="none" stroke="black" d="M282.5,-278C282.5,-266.58 287.65,-256.84 295.26,-248.68"/>
<polygon fill="black" stroke="black" points="297.92,-250.99 302.87,-241.62 293.15,-245.86 297.92,-250.99"/>
</g>
<!-- write&#45;&gt;data -->
<g id="edge12" class="edge">
<title>write:3&#45;&gt;data:1</title>
<path fill="none" stroke="black" d="M329.5,-278C329.5,-268.81 332.08,-259.51 335.69,-250.97"/>
<polygon fill="black" stroke="black" points="338.97,-252.23 340.13,-241.7 332.65,-249.21 338.97,-252.23"/>
</g>
<!-- write&#45;&gt;data -->
<g id="edge13" class="edge">
<title>write:4&#45;&gt;data:2</title>
<path fill="none" stroke="black" d="M366.5,-278C366.5,-269.46 365.77,-260.31 364.74,-251.71"/>
<polygon fill="black" stroke="black" points="368.18,-251.02 363.38,-241.57 361.25,-251.95 368.18,-251.02"/>
</g>
<!-- chip -->
<g id="node3" class="node">
<title>chip</title>
<polygon fill="none" stroke="black" points="0,-57 0,-95 61,-95 61,-57 0,-57"/>
<text text-anchor="middle" x="30.5" y="-79.8" font-family="Times,serif" font-size="14.00">Chip</text>
<text text-anchor="middle" x="30.5" y="-64.8" font-family="Times,serif" font-size="14.00">Address</text>
</g>
<!-- command&#45;&gt;chip -->
<g id="edge2" class="edge">
<title>command:0&#45;&gt;chip:0</title>
<path fill="none" stroke="black" d="M12.5,-196C12.5,-164.8 18.52,-129.54 23.6,-105.36"/>
<polygon fill="black" stroke="black" points="27.06,-105.92 25.77,-95.4 20.22,-104.43 27.06,-105.92"/>
</g>
<!-- command&#45;&gt;chip -->
<g id="edge3" class="edge">
<title>command:1&#45;&gt;chip:1</title>
<path fill="none" stroke="black" d="M35.5,-196C35.5,-164.94 33.81,-129.4 32.39,-105.11"/>
<polygon fill="black" stroke="black" points="35.88,-104.88 31.79,-95.11 28.9,-105.3 35.88,-104.88"/>
</g>
<!-- command&#45;&gt;chip -->
<g id="edge4" class="edge">
<title>command:2&#45;&gt;chip:2</title>
<path fill="none" stroke="black" d="M58.5,-196C58.5,-164.18 49.05,-128.82 41.13,-104.78"/>
<polygon fill="black" stroke="black" points="44.4,-103.55 37.86,-95.22 37.78,-105.81 44.4,-103.55"/>
</g>
<!-- command&#45;&gt;chip -->
<g id="edge5" class="edge">
<title>command:3&#45;&gt;chip:3</title>
<path fill="none" stroke="black" d="M81.5,-196C81.5,-177.41 60.51,-133.29 45.46,-104.04"/>
<polygon fill="black" stroke="black" points="48.54,-102.38 40.82,-95.12 42.33,-105.61 48.54,-102.38"/>
</g>
<!-- memblock -->
<g id="node4" class="node">
<title>memblock</title>
<polygon fill="none" stroke="black" points="79,-0.5 79,-151.5 186,-151.5 186,-0.5 79,-0.5"/>
<text text-anchor="middle" x="132.5" y="-136.3" font-family="Times,serif" font-size="14.00">Memory Blocks</text>
<polyline fill="none" stroke="black" points="79,-128.5 186,-128.5 "/>
<text text-anchor="middle" x="132.5" y="-113.3" font-family="Times,serif" font-size="14.00">000 = Block 0</text>
<text text-anchor="middle" x="132.5" y="-98.3" font-family="Times,serif" font-size="14.00">001 = Block 1</text>
<text text-anchor="middle" x="132.5" y="-83.3" font-family="Times,serif" font-size="14.00">010 = Block 2</text>
<text text-anchor="middle" x="132.5" y="-68.3" font-family="Times,serif" font-size="14.00">011 = Block 3</text>
<text text-anchor="middle" x="132.5" y="-53.3" font-family="Times,serif" font-size="14.00">100 = Block 4</text>
<text text-anchor="middle" x="132.5" y="-38.3" font-family="Times,serif" font-size="14.00">101 = Block 5</text>
<text text-anchor="middle" x="132.5" y="-23.3" font-family="Times,serif" font-size="14.00">110 = Block 6</text>
<text text-anchor="middle" x="132.5" y="-8.3" font-family="Times,serif" font-size="14.00">111 = Block 7</text>
</g>
<!-- command&#45;&gt;memblock -->
<g id="edge6" class="edge">
<title>command:4&#45;&gt;memblock:0</title>
<path fill="none" stroke="black" d="M105.5,-196C105.5,-184.77 106.64,-173.09 108.45,-161.62"/>
<polygon fill="black" stroke="black" points="111.93,-162.06 110.2,-151.6 105.03,-160.85 111.93,-162.06"/>
</g>
<!-- command&#45;&gt;memblock -->
<g id="edge7" class="edge">
<title>command:5&#45;&gt;memblock:1</title>
<path fill="none" stroke="black" d="M128.5,-196C128.5,-184.88 128.67,-173.17 128.95,-161.62"/>
<polygon fill="black" stroke="black" points="132.45,-161.61 129.22,-151.52 125.45,-161.43 132.45,-161.61"/>
</g>
<!-- command&#45;&gt;memblock -->
<g id="edge8" class="edge">
<title>command:6&#45;&gt;memblock:2</title>
<path fill="none" stroke="black" d="M151.5,-196C151.5,-184.82 150.69,-173.14 149.4,-161.62"/>
<polygon fill="black" stroke="black" points="152.85,-161.06 148.15,-151.57 145.91,-161.93 152.85,-161.06"/>
</g>
<!-- rw -->
<g id="node5" class="node">
<title>rw</title>
<polygon fill="none" stroke="black" points="204,-57 204,-95 275,-95 275,-57 204,-57"/>
<text text-anchor="middle" x="239.5" y="-79.8" font-family="Times,serif" font-size="14.00">Write = 0</text>
<text text-anchor="middle" x="239.5" y="-64.8" font-family="Times,serif" font-size="14.00">Read = 1</text>
</g>
<!-- command&#45;&gt;rw -->
<g id="edge9" class="edge">
<title>command:7&#45;&gt;rw</title>
<path fill="none" stroke="black" d="M174.5,-196C174.5,-190.86 204.73,-137.39 223.96,-103.89"/>
<polygon fill="black" stroke="black" points="227.1,-105.45 229.06,-95.03 221.04,-101.95 227.1,-105.45"/>
</g>
</g>
</svg>
