<?xml version="1.0" encoding="UTF-8" standalone="no"?>
<!DOCTYPE svg PUBLIC "-//W3C//DTD SVG 1.1//EN"
 "http://www.w3.org/Graphics/SVG/1.1/DTD/svg11.dtd">
<!-- Generated by graphviz version 2.50.0 (0)
 -->
<!-- Title: structs Pages: 1 -->
<svg width="1012pt" height="429pt"
 viewBox="0.00 0.00 1011.50 429.00" xmlns="http://www.w3.org/2000/svg" xmlns:xlink="http://www.w3.org/1999/xlink">
<g id="graph0" class="graph" transform="scale(1 1) rotate(0) translate(4 425)">
<title>structs</title>
<polygon fill="white" stroke="transparent" points="-4,4 -4,-425 1007.5,-425 1007.5,4 -4,4"/>
<!-- request -->
<g id="node1" class="node">
<title>request</title>
<polygon fill="lightgrey" stroke="black" points="317,-384.5 317,-420.5 496,-420.5 496,-384.5 317,-384.5"/>
<text text-anchor="middle" x="332" y="-398.8" font-family="Times,serif" font-size="14.00">01</text>
<polyline fill="none" stroke="black" points="347,-384.5 347,-420.5 "/>
<text text-anchor="middle" x="362" y="-398.8" font-family="Times,serif" font-size="14.00">03</text>
<polyline fill="none" stroke="black" points="377,-384.5 377,-420.5 "/>
<text text-anchor="middle" x="412.5" y="-398.8" font-family="Times,serif" font-size="14.00">00000003</text>
<polyline fill="none" stroke="black" points="448,-384.5 448,-420.5 "/>
<text text-anchor="middle" x="472" y="-398.8" font-family="Times,serif" font-size="14.00">05CB</text>
</g>
<!-- unit_id -->
<g id="node2" class="node">
<title>unit_id</title>
<polygon fill="none" stroke="black" points="43.5,-265 43.5,-301 201.5,-301 201.5,-265 43.5,-265"/>
<text text-anchor="middle" x="122.5" y="-279.3" font-family="Times,serif" font-size="14.00">Confirm Unit ID (1&#45;Byte)</text>
</g>
<!-- request&#45;&gt;unit_id -->
<g id="edge1" class="edge">
<title>request:0&#45;&gt;unit_id</title>
<path fill="none" stroke="black" d="M315.5,-402.5C244.4,-402.5 177.45,-343.38 144.26,-308.65"/>
<polygon fill="black" stroke="black" points="146.71,-306.15 137.32,-301.23 141.59,-310.93 146.71,-306.15"/>
</g>
<!-- func -->
<g id="node3" class="node">
<title>func</title>
<polygon fill="none" stroke="black" points="220,-218.5 220,-347.5 381,-347.5 381,-218.5 220,-218.5"/>
<text text-anchor="middle" x="300.5" y="-332.3" font-family="Times,serif" font-size="14.00">Function (1&#45;Byte)</text>
<polyline fill="none" stroke="black" points="220,-324.5 381,-324.5 "/>
<text text-anchor="middle" x="300.5" y="-309.3" font-family="Times,serif" font-size="14.00">00: Invalid </text>
<text text-anchor="middle" x="300.5" y="-294.3" font-family="Times,serif" font-size="14.00"> 01&#45;79: Confirm Function </text>
<text text-anchor="middle" x="300.5" y="-279.3" font-family="Times,serif" font-size="14.00"> 80&#45;FF: Exception Code</text>
<polyline fill="none" stroke="black" points="220,-271.5 381,-271.5 "/>
<text text-anchor="middle" x="300.5" y="-256.3" font-family="Times,serif" font-size="14.00">**NOTE** </text>
<text text-anchor="middle" x="300.5" y="-241.3" font-family="Times,serif" font-size="14.00"> Exception Codes are </text>
<text text-anchor="middle" x="300.5" y="-226.3" font-family="Times,serif" font-size="14.00"> Function + 0x80</text>
</g>
<!-- request&#45;&gt;func -->
<g id="edge2" class="edge">
<title>request:1&#45;&gt;func</title>
<path fill="none" stroke="black" d="M361.5,-384C361.5,-374.74 359.57,-365.61 356.4,-356.86"/>
<polygon fill="black" stroke="black" points="359.58,-355.4 352.5,-347.52 353.12,-358.1 359.58,-355.4"/>
</g>
<!-- func_data -->
<g id="node4" class="node">
<title>func_data</title>
<polygon fill="none" stroke="black" points="399,-252.5 399,-313.5 550,-313.5 550,-252.5 399,-252.5"/>
<text text-anchor="middle" x="474.5" y="-298.3" font-family="Times,serif" font-size="14.00">Function Data (variable)</text>
<polyline fill="none" stroke="black" points="399,-290.5 550,-290.5 "/>
<text text-anchor="middle" x="474.5" y="-275.3" font-family="Times,serif" font-size="14.00">252&#45;Byte Maximum </text>
<text text-anchor="middle" x="474.5" y="-260.3" font-family="Times,serif" font-size="14.00"> Big endian encoded </text>
</g>
<!-- request&#45;&gt;func_data -->
<g id="edge3" class="edge">
<title>request:2&#45;&gt;func_data</title>
<path fill="none" stroke="black" d="M412.5,-384C412.5,-361.18 424.31,-339.23 437.62,-321.74"/>
<polygon fill="black" stroke="black" points="440.68,-323.51 444.23,-313.53 435.23,-319.13 440.68,-323.51"/>
</g>
<!-- crc -->
<g id="node10" class="node">
<title>crc</title>
<polygon fill="none" stroke="black" points="568.5,-265 568.5,-301 684.5,-301 684.5,-265 568.5,-265"/>
<text text-anchor="middle" x="626.5" y="-279.3" font-family="Times,serif" font-size="14.00">CRC&#45;16 (2&#45;Bytes)</text>
</g>
<!-- request&#45;&gt;crc -->
<g id="edge9" class="edge">
<title>request:3&#45;&gt;crc:1</title>
<path fill="none" stroke="black" d="M497.5,-402.5C551.59,-402.5 592.6,-345.27 612.72,-310.02"/>
<polygon fill="black" stroke="black" points="615.85,-311.6 617.61,-301.15 609.72,-308.22 615.85,-311.6"/>
</g>
<!-- reads -->
<g id="node5" class="node">
<title>reads</title>
<polygon fill="none" stroke="black" points="0,-38 0,-144 165,-144 165,-38 0,-38"/>
<text text-anchor="middle" x="82.5" y="-128.8" font-family="Times,serif" font-size="14.00">Read Response</text>
<polyline fill="none" stroke="black" points="0,-121 165,-121 "/>
<text text-anchor="middle" x="82.5" y="-105.8" font-family="Times,serif" font-size="14.00">Address Count (1&#45;Byte) </text>
<text text-anchor="middle" x="82.5" y="-90.8" font-family="Times,serif" font-size="14.00"> + </text>
<text text-anchor="middle" x="82.5" y="-75.8" font-family="Times,serif" font-size="14.00"> Data Byte Count (2&#45;Byte) </text>
<text text-anchor="middle" x="82.5" y="-60.8" font-family="Times,serif" font-size="14.00"> + </text>
<text text-anchor="middle" x="82.5" y="-45.8" font-family="Times,serif" font-size="14.00"> Data (variable)</text>
</g>
<!-- func_data&#45;&gt;reads -->
<g id="edge4" class="edge">
<title>func_data&#45;&gt;reads</title>
<path fill="none" stroke="black" d="M442.92,-252.44C427.82,-239.91 408.85,-226.31 389.5,-218 300.48,-179.77 260.87,-225.89 174.5,-182 159.18,-174.22 144.76,-162.99 132.09,-151.08"/>
<polygon fill="black" stroke="black" points="134.44,-148.49 124.83,-144.02 129.55,-153.5 134.44,-148.49"/>
</g>
<!-- s_writes -->
<g id="node6" class="node">
<title>s_writes</title>
<polygon fill="none" stroke="black" points="183.5,-53 183.5,-129 353.5,-129 353.5,-53 183.5,-53"/>
<text text-anchor="middle" x="268.5" y="-113.8" font-family="Times,serif" font-size="14.00">Single Write Reponse</text>
<polyline fill="none" stroke="black" points="183.5,-106 353.5,-106 "/>
<text text-anchor="middle" x="268.5" y="-90.8" font-family="Times,serif" font-size="14.00">Confirm Address (2&#45;Bytes) </text>
<text text-anchor="middle" x="268.5" y="-75.8" font-family="Times,serif" font-size="14.00"> + </text>
<text text-anchor="middle" x="268.5" y="-60.8" font-family="Times,serif" font-size="14.00"> Confirm Data (2&#45;Bytes)</text>
</g>
<!-- func_data&#45;&gt;s_writes -->
<g id="edge5" class="edge">
<title>func_data&#45;&gt;s_writes</title>
<path fill="none" stroke="black" d="M440.41,-252.11C418.07,-232.39 388.34,-205.89 362.5,-182 346.53,-167.24 329.28,-150.85 313.98,-136.15"/>
<polygon fill="black" stroke="black" points="316.26,-133.5 306.63,-129.09 311.41,-138.54 316.26,-133.5"/>
</g>
<!-- m_writes -->
<g id="node7" class="node">
<title>m_writes</title>
<polygon fill="none" stroke="black" points="371.5,-53 371.5,-129 577.5,-129 577.5,-53 371.5,-53"/>
<text text-anchor="middle" x="474.5" y="-113.8" font-family="Times,serif" font-size="14.00">Muptiple Writes Reponse</text>
<polyline fill="none" stroke="black" points="371.5,-106 577.5,-106 "/>
<text text-anchor="middle" x="474.5" y="-90.8" font-family="Times,serif" font-size="14.00">Confirm Address (2&#45;Bytes) </text>
<text text-anchor="middle" x="474.5" y="-75.8" font-family="Times,serif" font-size="14.00"> + </text>
<text text-anchor="middle" x="474.5" y="-60.8" font-family="Times,serif" font-size="14.00"> Confirm Address Count (2&#45;Bytes)</text>
</g>
<!-- func_data&#45;&gt;m_writes -->
<g id="edge6" class="edge">
<title>func_data&#45;&gt;m_writes</title>
<path fill="none" stroke="black" d="M474.5,-252.31C474.5,-222.1 474.5,-174.82 474.5,-139.42"/>
<polygon fill="black" stroke="black" points="478,-139.31 474.5,-129.31 471,-139.31 478,-139.31"/>
</g>
<!-- ex_code -->
<g id="node8" class="node">
<title>ex_code</title>
<polygon fill="none" stroke="black" points="596,-0.5 596,-181.5 875,-181.5 875,-0.5 596,-0.5"/>
<text text-anchor="middle" x="735.5" y="-166.3" font-family="Times,serif" font-size="14.00">Exception Codes (1&#45;Byte)</text>
<polyline fill="none" stroke="black" points="596,-158.5 875,-158.5 "/>
<text text-anchor="middle" x="735.5" y="-143.3" font-family="Times,serif" font-size="14.00">01: Illegal Function </text>
<text text-anchor="middle" x="735.5" y="-128.3" font-family="Times,serif" font-size="14.00"> 02: Illegal Data Address </text>
<text text-anchor="middle" x="735.5" y="-113.3" font-family="Times,serif" font-size="14.00"> 03: Illegal Data Value </text>
<text text-anchor="middle" x="735.5" y="-98.3" font-family="Times,serif" font-size="14.00"> 04: Slave Device Failure </text>
<text text-anchor="middle" x="735.5" y="-83.3" font-family="Times,serif" font-size="14.00"> 05: Acknowledge </text>
<text text-anchor="middle" x="735.5" y="-68.3" font-family="Times,serif" font-size="14.00"> 06: Slave Device Busy </text>
<text text-anchor="middle" x="735.5" y="-53.3" font-family="Times,serif" font-size="14.00"> 07: Memory Parity Error </text>
<text text-anchor="middle" x="735.5" y="-38.3" font-family="Times,serif" font-size="14.00"> 0A: Gateway Path Unavailable </text>
<text text-anchor="middle" x="735.5" y="-23.3" font-family="Times,serif" font-size="14.00"> 0B: Gateway Target Device Failed to Respond </text>
<text text-anchor="middle" x="735.5" y="-8.3" font-family="Times,serif" font-size="14.00"> *: Vendor Specific</text>
</g>
<!-- func_data&#45;&gt;ex_code -->
<g id="edge7" class="edge">
<title>func_data&#45;&gt;ex_code</title>
<path fill="none" stroke="black" d="M513.28,-252.49C527.73,-241.58 544.31,-229.15 559.5,-218 572.92,-208.15 586.97,-197.93 601.02,-187.77"/>
<polygon fill="black" stroke="black" points="603.23,-190.49 609.29,-181.8 599.13,-184.81 603.23,-190.49"/>
</g>
<!-- other -->
<g id="node9" class="node">
<title>other</title>
<polygon fill="none" stroke="black" points="893.5,-68 893.5,-114 1003.5,-114 1003.5,-68 893.5,-68"/>
<text text-anchor="middle" x="948.5" y="-98.8" font-family="Times,serif" font-size="14.00">Other</text>
<polyline fill="none" stroke="black" points="893.5,-91 1003.5,-91 "/>
<text text-anchor="middle" x="948.5" y="-75.8" font-family="Times,serif" font-size="14.00">See Specification</text>
</g>
<!-- func_data&#45;&gt;other -->
<g id="edge8" class="edge">
<title>func_data&#45;&gt;other</title>
<path fill="none" stroke="black" d="M505.48,-252.27C520.6,-239.55 539.76,-225.84 559.5,-218 694.58,-164.39 759.22,-255.65 884.5,-182 907.19,-168.66 923.94,-143.75 934.61,-123.52"/>
<polygon fill="black" stroke="black" points="937.87,-124.83 939.22,-114.32 931.61,-121.69 937.87,-124.83"/>
</g>
</g>
</svg>
