<?xml version="1.0" encoding="UTF-8" standalone="no"?>
<!DOCTYPE svg PUBLIC "-//W3C//DTD SVG 1.1//EN"
 "http://www.w3.org/Graphics/SVG/1.1/DTD/svg11.dtd">
<!-- Generated by graphviz version 2.50.0 (0)
 -->
<!-- Title: structs Pages: 1 -->
<svg width="1379pt" height="369pt"
 viewBox="0.00 0.00 1379.00 369.00" xmlns="http://www.w3.org/2000/svg" xmlns:xlink="http://www.w3.org/1999/xlink">
<g id="graph0" class="graph" transform="scale(1 1) rotate(0) translate(4 365)">
<title>structs</title>
<polygon fill="white" stroke="transparent" points="-4,4 -4,-365 1375,-365 1375,4 -4,4"/>
<!-- request -->
<g id="node1" class="node">
<title>request</title>
<polygon fill="lightgrey" stroke="black" points="812,-324.5 812,-360.5 991,-360.5 991,-324.5 812,-324.5"/>
<text text-anchor="middle" x="827" y="-338.8" font-family="Times,serif" font-size="14.00">01</text>
<polyline fill="none" stroke="black" points="842,-324.5 842,-360.5 "/>
<text text-anchor="middle" x="857" y="-338.8" font-family="Times,serif" font-size="14.00">03</text>
<polyline fill="none" stroke="black" points="872,-324.5 872,-360.5 "/>
<text text-anchor="middle" x="907.5" y="-338.8" font-family="Times,serif" font-size="14.00">00000003</text>
<polyline fill="none" stroke="black" points="943,-324.5 943,-360.5 "/>
<text text-anchor="middle" x="967" y="-338.8" font-family="Times,serif" font-size="14.00">05CB</text>
</g>
<!-- unit_id -->
<g id="node2" class="node">
<title>unit_id</title>
<polygon fill="none" stroke="black" points="429,-196.5 429,-287.5 632,-287.5 632,-196.5 429,-196.5"/>
<text text-anchor="middle" x="530.5" y="-272.3" font-family="Times,serif" font-size="14.00">Unit ID (1&#45;Byte)</text>
<polyline fill="none" stroke="black" points="429,-264.5 632,-264.5 "/>
<text text-anchor="middle" x="530.5" y="-249.3" font-family="Times,serif" font-size="14.00">0x00: Broadcast </text>
<text text-anchor="middle" x="530.5" y="-234.3" font-family="Times,serif" font-size="14.00"> 0x01&#45;F7: Modbus Devices (247) </text>
<text text-anchor="middle" x="530.5" y="-219.3" font-family="Times,serif" font-size="14.00"> 0xF8&#45;FE: Reserved </text>
<text text-anchor="middle" x="530.5" y="-204.3" font-family="Times,serif" font-size="14.00"> 0xFF: Modbus Gateway</text>
</g>
<!-- request&#45;&gt;unit_id -->
<g id="edge1" class="edge">
<title>request:0&#45;&gt;unit_id</title>
<path fill="none" stroke="black" d="M810.5,-342.5C743.69,-342.5 672.82,-317.04 619.09,-291.87"/>
<polygon fill="black" stroke="black" points="620.48,-288.65 609.94,-287.51 617.46,-294.97 620.48,-288.65"/>
</g>
<!-- func -->
<g id="node3" class="node">
<title>func</title>
<polygon fill="none" stroke="black" points="650,-204 650,-280 829,-280 829,-204 650,-204"/>
<text text-anchor="middle" x="739.5" y="-264.8" font-family="Times,serif" font-size="14.00">Function (1&#45;Byte)</text>
<polyline fill="none" stroke="black" points="650,-257 829,-257 "/>
<text text-anchor="middle" x="739.5" y="-241.8" font-family="Times,serif" font-size="14.00">0x00: Invalid </text>
<text text-anchor="middle" x="739.5" y="-226.8" font-family="Times,serif" font-size="14.00"> 0x01&#45;79: Request Functions </text>
<text text-anchor="middle" x="739.5" y="-211.8" font-family="Times,serif" font-size="14.00"> 0x80&#45;FF: Invalid for Request</text>
</g>
<!-- request&#45;&gt;func -->
<g id="edge2" class="edge">
<title>request:1&#45;&gt;func</title>
<path fill="none" stroke="black" d="M856.5,-324C856.5,-307.53 848.57,-294.15 836.83,-283.36"/>
<polygon fill="black" stroke="black" points="839.01,-280.62 829.07,-276.97 834.57,-286.03 839.01,-280.62"/>
</g>
<!-- func_data -->
<g id="node9" class="node">
<title>func_data</title>
<polygon fill="none" stroke="black" points="950,-211.5 950,-272.5 1101,-272.5 1101,-211.5 950,-211.5"/>
<text text-anchor="middle" x="1025.5" y="-257.3" font-family="Times,serif" font-size="14.00">Function Data (variable)</text>
<polyline fill="none" stroke="black" points="950,-249.5 1101,-249.5 "/>
<text text-anchor="middle" x="1025.5" y="-234.3" font-family="Times,serif" font-size="14.00">252&#45;Byte Maximum </text>
<text text-anchor="middle" x="1025.5" y="-219.3" font-family="Times,serif" font-size="14.00"> Big endian encoded </text>
</g>
<!-- request&#45;&gt;func_data -->
<g id="edge8" class="edge">
<title>request:2&#45;&gt;func_data</title>
<path fill="none" stroke="black" d="M907.5,-324C907.5,-301.6 922.14,-284.93 941.1,-272.73"/>
<polygon fill="black" stroke="black" points="942.94,-275.71 949.77,-267.61 939.38,-269.68 942.94,-275.71"/>
</g>
<!-- crc -->
<g id="node12" class="node">
<title>crc</title>
<polygon fill="none" stroke="black" points="1119.5,-219 1119.5,-265 1217.5,-265 1217.5,-219 1119.5,-219"/>
<text text-anchor="middle" x="1168.5" y="-249.8" font-family="Times,serif" font-size="14.00">CRC (2&#45;Bytes)</text>
<polyline fill="none" stroke="black" points="1119.5,-242 1217.5,-242 "/>
<text text-anchor="middle" x="1168.5" y="-226.8" font-family="Times,serif" font-size="14.00">CRC&#45;16</text>
</g>
<!-- request&#45;&gt;crc -->
<g id="edge11" class="edge">
<title>request:3&#45;&gt;crc:1</title>
<path fill="none" stroke="black" d="M992.5,-342.5C1049.99,-342.5 1105.8,-301.56 1138.64,-271.94"/>
<polygon fill="black" stroke="black" points="1141.12,-274.41 1146.09,-265.06 1136.37,-269.27 1141.12,-274.41"/>
</g>
<!-- bit -->
<g id="node4" class="node">
<title>bit</title>
<polygon fill="none" stroke="black" points="0,-34.5 0,-125.5 173,-125.5 173,-34.5 0,-34.5"/>
<text text-anchor="middle" x="86.5" y="-110.3" font-family="Times,serif" font-size="14.00">1&#45;bit Data</text>
<polyline fill="none" stroke="black" points="0,-102.5 173,-102.5 "/>
<text text-anchor="middle" x="86.5" y="-87.3" font-family="Times,serif" font-size="14.00">0x01: Read Coils </text>
<text text-anchor="middle" x="86.5" y="-72.3" font-family="Times,serif" font-size="14.00"> 0x02: Read Discrete Inputs </text>
<text text-anchor="middle" x="86.5" y="-57.3" font-family="Times,serif" font-size="14.00"> 0x05: Write Single Coil </text>
<text text-anchor="middle" x="86.5" y="-42.3" font-family="Times,serif" font-size="14.00"> 0x0A: Write Multiple Coils</text>
</g>
<!-- func&#45;&gt;bit -->
<g id="edge3" class="edge">
<title>func&#45;&gt;bit</title>
<path fill="none" stroke="black" d="M665.09,-203.9C656.93,-200.83 648.64,-198.1 640.5,-196 442.36,-144.89 371.07,-237.04 181.5,-160 165.39,-153.45 149.95,-143.13 136.38,-132.07"/>
<polygon fill="black" stroke="black" points="138.51,-129.29 128.61,-125.5 133.99,-134.63 138.51,-129.29"/>
</g>
<!-- word -->
<g id="node5" class="node">
<title>word</title>
<polygon fill="none" stroke="black" points="191,-0.5 191,-159.5 418,-159.5 418,-0.5 191,-0.5"/>
<text text-anchor="middle" x="304.5" y="-144.3" font-family="Times,serif" font-size="14.00">16&#45;bit Data</text>
<polyline fill="none" stroke="black" points="191,-136.5 418,-136.5 "/>
<text text-anchor="middle" x="304.5" y="-121.3" font-family="Times,serif" font-size="14.00">0x03: Read Holding Registers </text>
<text text-anchor="middle" x="304.5" y="-106.3" font-family="Times,serif" font-size="14.00"> 0x04: Read Input Registers </text>
<text text-anchor="middle" x="304.5" y="-91.3" font-family="Times,serif" font-size="14.00"> 0x06: Write Single Register </text>
<text text-anchor="middle" x="304.5" y="-76.3" font-family="Times,serif" font-size="14.00"> 0x10: Write Multiple Registers</text>
<polyline fill="none" stroke="black" points="191,-68.5 418,-68.5 "/>
<text text-anchor="middle" x="304.5" y="-53.3" font-family="Times,serif" font-size="14.00">**UNCOMMON** </text>
<text text-anchor="middle" x="304.5" y="-38.3" font-family="Times,serif" font-size="14.00"> 0x16: Mask Write Register </text>
<text text-anchor="middle" x="304.5" y="-23.3" font-family="Times,serif" font-size="14.00"> 0x17: Read/Write Multiple Registers </text>
<text text-anchor="middle" x="304.5" y="-8.3" font-family="Times,serif" font-size="14.00"> 0x18: Read FIFO Queue</text>
</g>
<!-- func&#45;&gt;word -->
<g id="edge4" class="edge">
<title>func&#45;&gt;word</title>
<path fill="none" stroke="black" d="M663.24,-203.99C655.66,-201.03 647.99,-198.29 640.5,-196 551.74,-168.83 519.21,-192.93 427.89,-159.81"/>
<polygon fill="black" stroke="black" points="428.86,-156.44 418.26,-156.19 426.39,-162.99 428.86,-156.44"/>
</g>
<!-- file -->
<g id="node6" class="node">
<title>file</title>
<polygon fill="none" stroke="black" points="436.5,-34.5 436.5,-125.5 624.5,-125.5 624.5,-34.5 436.5,-34.5"/>
<text text-anchor="middle" x="530.5" y="-110.3" font-family="Times,serif" font-size="14.00">File Records</text>
<polyline fill="none" stroke="black" points="436.5,-102.5 624.5,-102.5 "/>
<text text-anchor="middle" x="530.5" y="-87.3" font-family="Times,serif" font-size="14.00">**UNCOMMON** </text>
<text text-anchor="middle" x="530.5" y="-72.3" font-family="Times,serif" font-size="14.00"> 0x20: Read File Record </text>
<text text-anchor="middle" x="530.5" y="-57.3" font-family="Times,serif" font-size="14.00"> 0x21: Write File Record </text>
<text text-anchor="middle" x="530.5" y="-42.3" font-family="Times,serif" font-size="14.00"> 0x24: Mask Write File Record</text>
</g>
<!-- func&#45;&gt;file -->
<g id="edge5" class="edge">
<title>func&#45;&gt;file</title>
<path fill="none" stroke="black" d="M690.94,-203.92C672.9,-190.14 652.26,-174.36 633.5,-160 621.54,-150.84 608.8,-141.08 596.5,-131.65"/>
<polygon fill="black" stroke="black" points="598.57,-128.82 588.5,-125.51 594.31,-134.38 598.57,-128.82"/>
</g>
<!-- diag -->
<g id="node7" class="node">
<title>diag</title>
<polygon fill="none" stroke="black" points="642.5,-19.5 642.5,-140.5 836.5,-140.5 836.5,-19.5 642.5,-19.5"/>
<text text-anchor="middle" x="739.5" y="-125.3" font-family="Times,serif" font-size="14.00">Diagnostics</text>
<polyline fill="none" stroke="black" points="642.5,-117.5 836.5,-117.5 "/>
<text text-anchor="middle" x="739.5" y="-102.3" font-family="Times,serif" font-size="14.00">0x07: Read Exception Status </text>
<text text-anchor="middle" x="739.5" y="-87.3" font-family="Times,serif" font-size="14.00"> 0x08: Diagnostic </text>
<text text-anchor="middle" x="739.5" y="-72.3" font-family="Times,serif" font-size="14.00"> 0x0B: Get Com Event Counter </text>
<text text-anchor="middle" x="739.5" y="-57.3" font-family="Times,serif" font-size="14.00"> 0x0C: Get Com Event Log </text>
<text text-anchor="middle" x="739.5" y="-42.3" font-family="Times,serif" font-size="14.00"> 0x11: Read Server ID </text>
<text text-anchor="middle" x="739.5" y="-27.3" font-family="Times,serif" font-size="14.00"> 0x2B0E: Read Device ID </text>
</g>
<!-- func&#45;&gt;diag -->
<g id="edge6" class="edge">
<title>func&#45;&gt;diag</title>
<path fill="none" stroke="black" d="M739.5,-203.89C739.5,-188.08 739.5,-169.09 739.5,-150.83"/>
<polygon fill="black" stroke="black" points="743,-150.78 739.5,-140.78 736,-150.78 743,-150.78"/>
</g>
<!-- other -->
<g id="node8" class="node">
<title>other</title>
<polygon fill="none" stroke="black" points="854.5,-49.5 854.5,-110.5 1036.5,-110.5 1036.5,-49.5 854.5,-49.5"/>
<text text-anchor="middle" x="945.5" y="-95.3" font-family="Times,serif" font-size="14.00">Other</text>
<polyline fill="none" stroke="black" points="854.5,-87.5 1036.5,-87.5 "/>
<text text-anchor="middle" x="945.5" y="-72.3" font-family="Times,serif" font-size="14.00">0x2B: Encapsulated Interface </text>
<text text-anchor="middle" x="945.5" y="-57.3" font-family="Times,serif" font-size="14.00"> 0x2B0D: CANopen</text>
</g>
<!-- func&#45;&gt;other -->
<g id="edge7" class="edge">
<title>func&#45;&gt;other</title>
<path fill="none" stroke="black" d="M788.44,-203.86C806.43,-190.14 826.94,-174.42 845.5,-160 863.37,-146.12 882.92,-130.72 899.95,-117.23"/>
<polygon fill="black" stroke="black" points="902.43,-119.73 908.1,-110.78 898.09,-114.25 902.43,-119.73"/>
</g>
<!-- reads -->
<g id="node10" class="node">
<title>reads</title>
<polygon fill="none" stroke="black" points="1055,-42 1055,-118 1204,-118 1204,-42 1055,-42"/>
<text text-anchor="middle" x="1129.5" y="-102.8" font-family="Times,serif" font-size="14.00">Reads</text>
<polyline fill="none" stroke="black" points="1055,-95 1204,-95 "/>
<text text-anchor="middle" x="1129.5" y="-79.8" font-family="Times,serif" font-size="14.00">Start Address (2&#45;Bytes) </text>
<text text-anchor="middle" x="1129.5" y="-64.8" font-family="Times,serif" font-size="14.00"> + </text>
<text text-anchor="middle" x="1129.5" y="-49.8" font-family="Times,serif" font-size="14.00"> Address Count</text>
</g>
<!-- func_data&#45;&gt;reads -->
<g id="edge9" class="edge">
<title>func_data&#45;&gt;reads</title>
<path fill="none" stroke="black" d="M1044.82,-211.28C1060.24,-187.55 1082.12,-153.89 1099.77,-126.73"/>
<polygon fill="black" stroke="black" points="1102.83,-128.46 1105.34,-118.17 1096.96,-124.64 1102.83,-128.46"/>
</g>
<!-- writes -->
<g id="node11" class="node">
<title>writes</title>
<polygon fill="none" stroke="black" points="1222,-42 1222,-118 1371,-118 1371,-42 1222,-42"/>
<text text-anchor="middle" x="1296.5" y="-102.8" font-family="Times,serif" font-size="14.00">Writes</text>
<polyline fill="none" stroke="black" points="1222,-95 1371,-95 "/>
<text text-anchor="middle" x="1296.5" y="-79.8" font-family="Times,serif" font-size="14.00">Start Address (2&#45;Bytes) </text>
<text text-anchor="middle" x="1296.5" y="-64.8" font-family="Times,serif" font-size="14.00"> + </text>
<text text-anchor="middle" x="1296.5" y="-49.8" font-family="Times,serif" font-size="14.00"> Data (variable)</text>
</g>
<!-- func_data&#45;&gt;writes -->
<g id="edge10" class="edge">
<title>func_data&#45;&gt;writes</title>
<path fill="none" stroke="black" d="M1078.4,-211.42C1088.9,-206 1099.94,-200.61 1110.5,-196 1154.94,-176.6 1172.12,-185.28 1213.5,-160 1228.97,-150.55 1243.94,-137.82 1256.81,-125.34"/>
<polygon fill="black" stroke="black" points="1259.51,-127.58 1264.13,-118.05 1254.58,-122.62 1259.51,-127.58"/>
</g>
</g>
</svg>
