<?xml version="1.0" encoding="UTF-8" standalone="no"?><svg xmlns="http://www.w3.org/2000/svg" xmlns:xlink="http://www.w3.org/1999/xlink" contentStyleType="text/css" height="746px" preserveAspectRatio="none" style="width:868px;height:746px;background:#FFFFFF;" version="1.1" viewBox="0 0 868 746" width="868px" zoomAndPan="magnify"><defs/><g><path d="M19.5,7 L842.5,7 A12.5,12.5 0 0 1 855,19.5 L855,36.0679 L7,36.0679 L7,19.5 A12.5,12.5 0 0 1 19.5,7 " fill="#D3D3D3" style="stroke:#D3D3D3;stroke-width:1.0;"/><path d="M7,36.0679 L855,36.0679 L855,720.7038 A12.5,12.5 0 0 1 842.5,733.2038 L19.5,733.2038 A12.5,12.5 0 0 1 7,720.7038 L7,36.0679 " fill="#FFFFFF" style="stroke:#FFFFFF;stroke-width:1.0;"/><rect height="726.2038" rx="12.5" ry="12.5" style="stroke:#000000;stroke-width:0.5;fill:none;" width="848" x="7" y="7"/><line style="stroke:#000000;stroke-width:0.5;fill:none;" x1="7" x2="855" y1="36.0679" y2="36.0679"/><text fill="#000000" font-family="sans-serif" font-size="14" lengthAdjust="spacing" textLength="159" x="351.5" y="26.9659">Physical Plant Perimeter</text><ellipse cx="428.5" cy="73.0679" fill="#222222" rx="10" ry="10" style="stroke:none;stroke-width:1.0;"/><g id="Plant.iDMZ_Cloud"><rect fill="#D3D3D3" height="50" rx="12.5" ry="12.5" style="stroke:#000000;stroke-width:0.5;" width="99" x="258" y="134.0679"/><line style="stroke:#000000;stroke-width:0.5;" x1="258" x2="357" y1="163.1358" y2="163.1358"/><text fill="#000000" font-family="sans-serif" font-size="14" lengthAdjust="spacing" textLength="79" x="268" y="154.0339">iDMZ_Cloud</text></g><g id="Plant.iDMZ_Remote"><rect fill="#D3D3D3" height="50" rx="12.5" ry="12.5" style="stroke:#000000;stroke-width:0.5;" width="115" x="375" y="134.0679"/><line style="stroke:#000000;stroke-width:0.5;" x1="375" x2="490" y1="163.1358" y2="163.1358"/><text fill="#000000" font-family="sans-serif" font-size="14" lengthAdjust="spacing" textLength="95" x="385" y="154.0339">iDMZ_Remote</text></g><g id="Plant.iDMZ_4_to_3"><rect fill="#D3D3D3" height="50" rx="12.5" ry="12.5" style="stroke:#000000;stroke-width:0.5;" width="105" x="631" y="134.0679"/><line style="stroke:#000000;stroke-width:0.5;" x1="631" x2="736" y1="163.1358" y2="163.1358"/><text fill="#000000" font-family="sans-serif" font-size="14" lengthAdjust="spacing" textLength="85" x="641" y="154.0339">iDMZ_4_to_3</text></g><g id="Plant.iDMZ_3_to_4"><rect fill="#D3D3D3" height="50" rx="12.5" ry="12.5" style="stroke:#000000;stroke-width:0.5;" width="105" x="508" y="134.0679"/><line style="stroke:#000000;stroke-width:0.5;" x1="508" x2="613" y1="163.1358" y2="163.1358"/><text fill="#000000" font-family="sans-serif" font-size="14" lengthAdjust="spacing" textLength="85" x="518" y="154.0339">iDMZ_3_to_4</text></g><g id="Plant.L4"><rect fill="#D3D3D3" height="50" rx="12.5" ry="12.5" style="stroke:#000000;stroke-width:0.5;" width="216" x="456.5" y="48.0679"/><line style="stroke:#000000;stroke-width:0.5;" x1="456.5" x2="672.5" y1="77.1358" y2="77.1358"/><text fill="#000000" font-family="sans-serif" font-size="14" lengthAdjust="spacing" textLength="196" x="466.5" y="68.0339">L4: Plant Business Network(s)</text></g><path d="M31.5,220.0679 L833.5,220.0679 A12.5,12.5 0 0 1 846,232.5679 L846,249.1358 L19,249.1358 L19,232.5679 A12.5,12.5 0 0 1 31.5,220.0679 " fill="#FFFF00" style="stroke:#FFFF00;stroke-width:1.0;"/><path d="M19,249.1358 L846,249.1358 L846,709.7038 A12.5,12.5 0 0 1 833.5,722.2038 L31.5,722.2038 A12.5,12.5 0 0 1 19,709.7038 L19,249.1358 " fill="#FFFFFF" style="stroke:#FFFFFF;stroke-width:1.0;"/><rect height="502.1358" rx="12.5" ry="12.5" style="stroke:#000000;stroke-width:0.5;fill:none;" width="827" x="19" y="220.0679"/><line style="stroke:#000000;stroke-width:0.5;fill:none;" x1="19" x2="846" y1="249.1358" y2="249.1358"/><text fill="#000000" font-family="sans-serif" font-size="14" lengthAdjust="spacing" textLength="155" x="355" y="240.0339">Plant Control Networks</text><rect fill="#555555" height="8" style="stroke:none;stroke-width:1.0;" width="80" x="394" y="442.1358"/><path d="M164,261.1358 L704,261.1358 A12.5,12.5 0 0 1 716.5,273.6358 L716.5,290.2038 L151.5,290.2038 L151.5,273.6358 A12.5,12.5 0 0 1 164,261.1358 " fill="#D3D3D3" style="stroke:#D3D3D3;stroke-width:1.0;"/><path d="M151.5,290.2038 L716.5,290.2038 L716.5,393.7038 A12.5,12.5 0 0 1 704,406.2038 L164,406.2038 A12.5,12.5 0 0 1 151.5,393.7038 L151.5,290.2038 " fill="#FFFFFF" style="stroke:#FFFFFF;stroke-width:1.0;"/><rect height="145.0679" rx="12.5" ry="12.5" style="stroke:#000000;stroke-width:0.5;fill:none;" width="565" x="151.5" y="261.1358"/><line style="stroke:#000000;stroke-width:0.5;fill:none;" x1="151.5" x2="716.5" y1="290.2038" y2="290.2038"/><text fill="#000000" font-family="sans-serif" font-size="14" lengthAdjust="spacing" textLength="243" x="312.5" y="281.1018">L3: Plantwide Supervisory Network(s)</text><rect fill="#555555" height="8" style="stroke:none;stroke-width:1.0;" width="80" x="375.5" y="302.2038"/><g id="Plant.Control.L3.Production"><rect fill="#D3D3D3" height="50" rx="12.5" ry="12.5" style="stroke:#000000;stroke-width:0.5;" width="92" x="163.5" y="346.2038"/><line style="stroke:#000000;stroke-width:0.5;" x1="163.5" x2="255.5" y1="375.2717" y2="375.2717"/><text fill="#000000" font-family="sans-serif" font-size="14" lengthAdjust="spacing" textLength="72" x="173.5" y="366.1697">Production</text></g><g id="Plant.Control.L3.Testing"><rect fill="#D3D3D3" height="50" rx="12.5" ry="12.5" style="stroke:#000000;stroke-width:0.5;" width="69" x="274" y="346.2038"/><line style="stroke:#000000;stroke-width:0.5;" x1="274" x2="343" y1="375.2717" y2="375.2717"/><text fill="#000000" font-family="sans-serif" font-size="14" lengthAdjust="spacing" textLength="49" x="284" y="366.1697">Testing</text></g><g id="Plant.Control.L3.Workstations"><rect fill="#D3D3D3" height="50" rx="12.5" ry="12.5" style="stroke:#000000;stroke-width:0.5;" width="108" x="361.5" y="346.2038"/><line style="stroke:#000000;stroke-width:0.5;" x1="361.5" x2="469.5" y1="375.2717" y2="375.2717"/><text fill="#000000" font-family="sans-serif" font-size="14" lengthAdjust="spacing" textLength="88" x="371.5" y="366.1697">Workstations</text></g><g id="Plant.Control.L3.CyberSecurity"><rect fill="#D3D3D3" height="50" rx="12.5" ry="12.5" style="stroke:#000000;stroke-width:0.5;" width="109" x="488" y="346.2038"/><line style="stroke:#000000;stroke-width:0.5;" x1="488" x2="597" y1="375.2717" y2="375.2717"/><text fill="#000000" font-family="sans-serif" font-size="14" lengthAdjust="spacing" textLength="89" x="498" y="366.1697">CyberSecurity</text></g><g id="Plant.Control.L3.JumpHosts"><rect fill="#D3D3D3" height="50" rx="12.5" ry="12.5" style="stroke:#000000;stroke-width:0.5;" width="92" x="615.5" y="346.2038"/><line style="stroke:#000000;stroke-width:0.5;" x1="615.5" x2="707.5" y1="375.2717" y2="375.2717"/><text fill="#000000" font-family="sans-serif" font-size="14" lengthAdjust="spacing" textLength="72" x="625.5" y="366.1697">JumpHosts</text></g><!--MD5=[9b287f964328e9c3a6875e2496ba9f7f]
link switchL3 to Production--><g id="link_switchL3_Production"><path d="M400.69,310.2138 C373.38,315.9338 313.39,329.3438 264.5,346.2038 C263.12,346.6838 261.72,347.1838 260.31,347.6938 " fill="none" id="switchL3-to-Production" style="stroke:#181818;stroke-width:1.0;"/><polygon fill="#181818" points="255.5,349.4938,265.332,350.0691,260.1799,347.7334,262.5155,342.5813,255.5,349.4938" style="stroke:#181818;stroke-width:1.0;"/></g><!--MD5=[83f90925fa4ff50882f01ba05b71804a]
link switchL3 to Testing--><g id="link_switchL3_Testing"><path d="M410.34,310.2438 C399.02,316.9038 371.13,333.3238 347.4,347.3038 " fill="none" id="switchL3-to-Testing" style="stroke:#181818;stroke-width:1.0;"/><polygon fill="#181818" points="343.02,349.8838,352.8073,348.7839,347.3337,347.3555,348.7621,341.882,343.02,349.8838" style="stroke:#181818;stroke-width:1.0;"/></g><!--MD5=[87b4544c41d13abc537b173c37b2ea5f]
link switchL3 to Workstations--><g id="link_switchL3_Workstations"><path d="M415.5,310.2438 C415.5,315.9238 415.5,328.6838 415.5,340.9738 " fill="none" id="switchL3-to-Workstations" style="stroke:#181818;stroke-width:1.0;"/><polygon fill="#181818" points="415.5,346.1938,419.5,337.1938,415.5,341.1938,411.5,337.1938,415.5,346.1938" style="stroke:#181818;stroke-width:1.0;"/></g><!--MD5=[00c12ff8f96b55b3cfcc4023a891857f]
link switchL3 to CyberSecurity--><g id="link_switchL3_CyberSecurity"><path d="M421.63,310.2438 C433.99,316.3738 463.02,330.7738 489.53,343.9238 " fill="none" id="switchL3-to-CyberSecurity" style="stroke:#181818;stroke-width:1.0;"/><polygon fill="#181818" points="494.1,346.1938,487.8196,338.6071,489.6222,343.9691,484.2602,345.7716,494.1,346.1938" style="stroke:#181818;stroke-width:1.0;"/></g><!--MD5=[c6b2e06242b27dcb918d8a7dce7fd108]
link switchL3 to JumpHosts--><g id="link_switchL3_JumpHosts"><path d="M437.94,310.2238 C474.04,315.4238 546.97,327.3638 606.5,346.2038 C607.76,346.6038 609.03,347.0238 610.31,347.4538 " fill="none" id="switchL3-to-JumpHosts" style="stroke:#181818;stroke-width:1.0;"/><polygon fill="#181818" points="615.25,349.2038,608.104,342.4262,610.5374,347.5329,605.4307,349.9663,615.25,349.2038" style="stroke:#181818;stroke-width:1.0;"/></g><path d="M43.5,486.1358 L206.5,486.1358 A12.5,12.5 0 0 1 219,498.6358 L219,515.2038 L31,515.2038 L31,498.6358 A12.5,12.5 0 0 1 43.5,486.1358 " fill="#D3D3D3" style="stroke:#D3D3D3;stroke-width:1.0;"/><path d="M31,515.2038 L219,515.2038 L219,698.7038 A12.5,12.5 0 0 1 206.5,711.2038 L43.5,711.2038 A12.5,12.5 0 0 1 31,698.7038 L31,515.2038 " fill="#FFFFFF" style="stroke:#FFFFFF;stroke-width:1.0;"/><rect height="225.0679" rx="12.5" ry="12.5" style="stroke:#000000;stroke-width:0.5;fill:none;" width="188" x="31" y="486.1358"/><line style="stroke:#000000;stroke-width:0.5;fill:none;" x1="31" x2="219" y1="515.2038" y2="515.2038"/><text fill="#000000" font-family="sans-serif" font-size="14" lengthAdjust="spacing" textLength="64" x="93" y="506.1018">Process 1</text><g id="Plant.Control.P1.P1L2"><rect fill="#D3D3D3" height="50" rx="12.5" ry="12.5" style="stroke:#000000;stroke-width:0.5;" width="157" x="43" y="527.2038"/><line style="stroke:#000000;stroke-width:0.5;" x1="43" x2="200" y1="556.2717" y2="556.2717"/><text fill="#000000" font-family="sans-serif" font-size="14" lengthAdjust="spacing" textLength="137" x="53" y="547.1697">L2: Local Supervisory</text></g><line style="stroke:#000000;stroke-width:1.5;stroke-dasharray:8.0,10.0;" x1="36" x2="212" y1="582.2038" y2="582.2038"/><g id="Plant.Control.P1.CONC48.P1L1"><rect fill="#D3D3D3" height="50" rx="12.5" ry="12.5" style="stroke:#000000;stroke-width:0.5;" width="154" x="43" y="589.2038"/><line style="stroke:#000000;stroke-width:0.5;" x1="43" x2="197" y1="618.2717" y2="618.2717"/><text fill="#000000" font-family="sans-serif" font-size="14" lengthAdjust="spacing" textLength="134" x="53" y="609.1697">L1: Local Controllers</text></g><line style="stroke:#000000;stroke-width:1.5;stroke-dasharray:8.0,10.0;" x1="36" x2="212" y1="644.2038" y2="644.2038"/><g id="Plant.Control.P1.CONC51.P1L0"><rect fill="#D3D3D3" height="50" rx="12.5" ry="12.5" style="stroke:#000000;stroke-width:0.5;" width="167" x="43" y="651.2038"/><line style="stroke:#000000;stroke-width:0.5;" x1="43" x2="210" y1="680.2717" y2="680.2717"/><text fill="#000000" font-family="sans-serif" font-size="14" lengthAdjust="spacing" textLength="147" x="53" y="671.1697">L0: Local Field Devices</text></g><path d="M249.5,486.1358 L412.5,486.1358 A12.5,12.5 0 0 1 425,498.6358 L425,515.2038 L237,515.2038 L237,498.6358 A12.5,12.5 0 0 1 249.5,486.1358 " fill="#D3D3D3" style="stroke:#D3D3D3;stroke-width:1.0;"/><path d="M237,515.2038 L425,515.2038 L425,698.7038 A12.5,12.5 0 0 1 412.5,711.2038 L249.5,711.2038 A12.5,12.5 0 0 1 237,698.7038 L237,515.2038 " fill="#FFFFFF" style="stroke:#FFFFFF;stroke-width:1.0;"/><rect height="225.0679" rx="12.5" ry="12.5" style="stroke:#000000;stroke-width:0.5;fill:none;" width="188" x="237" y="486.1358"/><line style="stroke:#000000;stroke-width:0.5;fill:none;" x1="237" x2="425" y1="515.2038" y2="515.2038"/><text fill="#000000" font-family="sans-serif" font-size="14" lengthAdjust="spacing" textLength="64" x="299" y="506.1018">Process 2</text><g id="Plant.Control.P2.P2L2"><rect fill="#D3D3D3" height="50" rx="12.5" ry="12.5" style="stroke:#000000;stroke-width:0.5;" width="157" x="249" y="527.2038"/><line style="stroke:#000000;stroke-width:0.5;" x1="249" x2="406" y1="556.2717" y2="556.2717"/><text fill="#000000" font-family="sans-serif" font-size="14" lengthAdjust="spacing" textLength="137" x="259" y="547.1697">L2: Local Supervisory</text></g><line style="stroke:#000000;stroke-width:1.5;stroke-dasharray:8.0,10.0;" x1="242" x2="418" y1="582.2038" y2="582.2038"/><g id="Plant.Control.P2.CONC57.P2L1"><rect fill="#D3D3D3" height="50" rx="12.5" ry="12.5" style="stroke:#000000;stroke-width:0.5;" width="154" x="249" y="589.2038"/><line style="stroke:#000000;stroke-width:0.5;" x1="249" x2="403" y1="618.2717" y2="618.2717"/><text fill="#000000" font-family="sans-serif" font-size="14" lengthAdjust="spacing" textLength="134" x="259" y="609.1697">L1: Local Controllers</text></g><line style="stroke:#000000;stroke-width:1.5;stroke-dasharray:8.0,10.0;" x1="242" x2="418" y1="644.2038" y2="644.2038"/><g id="Plant.Control.P2.CONC60.P2L0"><rect fill="#D3D3D3" height="50" rx="12.5" ry="12.5" style="stroke:#000000;stroke-width:0.5;" width="167" x="249" y="651.2038"/><line style="stroke:#000000;stroke-width:0.5;" x1="249" x2="416" y1="680.2717" y2="680.2717"/><text fill="#000000" font-family="sans-serif" font-size="14" lengthAdjust="spacing" textLength="147" x="259" y="671.1697">L0: Local Field Devices</text></g><path d="M455.5,486.1358 L618.5,486.1358 A12.5,12.5 0 0 1 631,498.6358 L631,515.2038 L443,515.2038 L443,498.6358 A12.5,12.5 0 0 1 455.5,486.1358 " fill="#D3D3D3" style="stroke:#D3D3D3;stroke-width:1.0;"/><path d="M443,515.2038 L631,515.2038 L631,698.7038 A12.5,12.5 0 0 1 618.5,711.2038 L455.5,711.2038 A12.5,12.5 0 0 1 443,698.7038 L443,515.2038 " fill="#FFFFFF" style="stroke:#FFFFFF;stroke-width:1.0;"/><rect height="225.0679" rx="12.5" ry="12.5" style="stroke:#000000;stroke-width:0.5;fill:none;" width="188" x="443" y="486.1358"/><line style="stroke:#000000;stroke-width:0.5;fill:none;" x1="443" x2="631" y1="515.2038" y2="515.2038"/><text fill="#000000" font-family="sans-serif" font-size="14" lengthAdjust="spacing" textLength="64" x="505" y="506.1018">Process 3</text><g id="Plant.Control.P3.P3L2"><rect fill="#D3D3D3" height="50" rx="12.5" ry="12.5" style="stroke:#000000;stroke-width:0.5;" width="157" x="455" y="527.2038"/><line style="stroke:#000000;stroke-width:0.5;" x1="455" x2="612" y1="556.2717" y2="556.2717"/><text fill="#000000" font-family="sans-serif" font-size="14" lengthAdjust="spacing" textLength="137" x="465" y="547.1697">L2: Local Supervisory</text></g><line style="stroke:#000000;stroke-width:1.5;stroke-dasharray:8.0,10.0;" x1="448" x2="624" y1="582.2038" y2="582.2038"/><g id="Plant.Control.P3.CONC66.P3L1"><rect fill="#D3D3D3" height="50" rx="12.5" ry="12.5" style="stroke:#000000;stroke-width:0.5;" width="154" x="455" y="589.2038"/><line style="stroke:#000000;stroke-width:0.5;" x1="455" x2="609" y1="618.2717" y2="618.2717"/><text fill="#000000" font-family="sans-serif" font-size="14" lengthAdjust="spacing" textLength="134" x="465" y="609.1697">L1: Local Controllers</text></g><line style="stroke:#000000;stroke-width:1.5;stroke-dasharray:8.0,10.0;" x1="448" x2="624" y1="644.2038" y2="644.2038"/><g id="Plant.Control.P3.CONC69.P3L0"><rect fill="#D3D3D3" height="50" rx="12.5" ry="12.5" style="stroke:#000000;stroke-width:0.5;" width="167" x="455" y="651.2038"/><line style="stroke:#000000;stroke-width:0.5;" x1="455" x2="622" y1="680.2717" y2="680.2717"/><text fill="#000000" font-family="sans-serif" font-size="14" lengthAdjust="spacing" textLength="147" x="465" y="671.1697">L0: Local Field Devices</text></g><path d="M661.5,486.1358 L824.5,486.1358 A12.5,12.5 0 0 1 837,498.6358 L837,515.2038 L649,515.2038 L649,498.6358 A12.5,12.5 0 0 1 661.5,486.1358 " fill="#D3D3D3" style="stroke:#D3D3D3;stroke-width:1.0;"/><path d="M649,515.2038 L837,515.2038 L837,698.7038 A12.5,12.5 0 0 1 824.5,711.2038 L661.5,711.2038 A12.5,12.5 0 0 1 649,698.7038 L649,515.2038 " fill="#FFFFFF" style="stroke:#FFFFFF;stroke-width:1.0;"/><rect height="225.0679" rx="12.5" ry="12.5" style="stroke:#000000;stroke-width:0.5;fill:none;" width="188" x="649" y="486.1358"/><line style="stroke:#000000;stroke-width:0.5;fill:none;" x1="649" x2="837" y1="515.2038" y2="515.2038"/><text fill="#000000" font-family="sans-serif" font-size="14" lengthAdjust="spacing" textLength="64" x="711" y="506.1018">Process 4</text><g id="Plant.Control.P4.P4L2"><rect fill="#D3D3D3" height="50" rx="12.5" ry="12.5" style="stroke:#000000;stroke-width:0.5;" width="157" x="661" y="527.2038"/><line style="stroke:#000000;stroke-width:0.5;" x1="661" x2="818" y1="556.2717" y2="556.2717"/><text fill="#000000" font-family="sans-serif" font-size="14" lengthAdjust="spacing" textLength="137" x="671" y="547.1697">L2: Local Supervisory</text></g><line style="stroke:#000000;stroke-width:1.5;stroke-dasharray:8.0,10.0;" x1="654" x2="830" y1="582.2038" y2="582.2038"/><g id="Plant.Control.P4.CONC75.P4L1"><rect fill="#D3D3D3" height="50" rx="12.5" ry="12.5" style="stroke:#000000;stroke-width:0.5;" width="154" x="661" y="589.2038"/><line style="stroke:#000000;stroke-width:0.5;" x1="661" x2="815" y1="618.2717" y2="618.2717"/><text fill="#000000" font-family="sans-serif" font-size="14" lengthAdjust="spacing" textLength="134" x="671" y="609.1697">L1: Local Controllers</text></g><line style="stroke:#000000;stroke-width:1.5;stroke-dasharray:8.0,10.0;" x1="654" x2="830" y1="644.2038" y2="644.2038"/><g id="Plant.Control.P4.CONC78.P4L0"><rect fill="#D3D3D3" height="50" rx="12.5" ry="12.5" style="stroke:#000000;stroke-width:0.5;" width="167" x="661" y="651.2038"/><line style="stroke:#000000;stroke-width:0.5;" x1="661" x2="828" y1="680.2717" y2="680.2717"/><text fill="#000000" font-family="sans-serif" font-size="14" lengthAdjust="spacing" textLength="147" x="671" y="671.1697">L0: Local Field Devices</text></g><!--MD5=[d833917827be79acb3f7ca0660acf8c3]
link L3 to minor_enforcement--><g id="link_L3_minor_enforcement"><path d="M434,406.1758 C434,418.6258 434,429.8658 434,437.0358 " fill="none" id="L3-to-minor_enforcement" style="stroke:#181818;stroke-width:1.0;"/><polygon fill="#181818" points="434,442.0358,438,433.0358,434,437.0358,430,433.0358,434,442.0358" style="stroke:#181818;stroke-width:1.0;"/></g><!--MD5=[091eeb670fe17b074b939bbcb1bf36af]
link minor_enforcement to P1--><g id="link_minor_enforcement_P1"><path d="M393.93,447.3958 C350.5,449.2858 280.37,457.1158 228,486.1358 C226.5,486.9658 225.01,487.8258 223.53,488.7158 " fill="none" id="minor_enforcement-to-P1" style="stroke:#181818;stroke-width:1.0;"/><polygon fill="#181818" points="219.13,491.4558,228.8841,490.0926,223.374,488.8123,224.6543,483.3022,219.13,491.4558" style="stroke:#181818;stroke-width:1.0;"/></g><!--MD5=[cdcf216b37a601e701df6cc1b7cfc79f]
link minor_enforcement to P2--><g id="link_minor_enforcement_P2"><path d="M431.85,450.2758 C428.2,455.6058 420.23,467.2458 410.29,481.7758 " fill="none" id="minor_enforcement-to-P2" style="stroke:#181818;stroke-width:1.0;"/><polygon fill="#181818" points="407.44,485.9458,415.8144,480.7622,410.2562,481.8144,409.2041,476.2563,407.44,485.9458" style="stroke:#181818;stroke-width:1.0;"/></g><!--MD5=[951b938a67d53d50d8bab9debc19d6c5]
link minor_enforcement to P3--><g id="link_minor_enforcement_P3"><path d="M436.15,450.2758 C439.8,455.6058 447.77,467.2458 457.71,481.7758 " fill="none" id="minor_enforcement-to-P3" style="stroke:#181818;stroke-width:1.0;"/><polygon fill="#181818" points="460.56,485.9458,458.7959,476.2563,457.7438,481.8144,452.1856,480.7622,460.56,485.9458" style="stroke:#181818;stroke-width:1.0;"/></g><!--MD5=[e2ce359dfac9d85d565828e248582d08]
link minor_enforcement to P4--><g id="link_minor_enforcement_P4"><path d="M474.07,447.3958 C517.5,449.2858 587.63,457.1158 640,486.1358 C641.5,486.9658 642.99,487.8258 644.47,488.7158 " fill="none" id="minor_enforcement-to-P4" style="stroke:#181818;stroke-width:1.0;"/><polygon fill="#181818" points="648.87,491.4558,643.3457,483.3022,644.626,488.8123,639.1159,490.0926,648.87,491.4558" style="stroke:#181818;stroke-width:1.0;"/></g><!--MD5=[665fe05c404dbbfa63805966b0cadfec]
link *start*Plant to L4--><g id="link_*start*Plant_L4"><path d="M438.59,73.0679 C442.74,73.0679 446.89,73.0679 451.04,73.0679 " fill="none" id="*start*Plant-to-L4" style="stroke:#181818;stroke-width:1.0;"/><polygon fill="#181818" points="456.3,73.0679,447.3,69.0679,451.3,73.0679,447.3,77.0679,456.3,73.0679" style="stroke:#181818;stroke-width:1.0;"/></g><!--MD5=[3a984c8d471d53c0b263c8b4b9c8257b]
link *start*Plant to iDMZ_Cloud--><g id="link_*start*Plant_iDMZ_Cloud"><path d="M420.56,79.5779 C405.74,89.8679 372.96,112.6279 346.5,130.9979 " fill="none" id="*start*Plant-to-iDMZ_Cloud" style="stroke:#181818;stroke-width:1.0;"/><polygon fill="#181818" points="342.31,133.9079,351.9809,132.0441,346.4122,131.0492,347.407,125.4806,342.31,133.9079" style="stroke:#181818;stroke-width:1.0;"/></g><!--MD5=[3bdd79544a924deda6949af23ebc586b]
link *start*Plant to iDMZ_Remote--><g id="link_*start*Plant_iDMZ_Remote"><path d="M428.94,83.3779 C429.46,94.2779 430.35,112.8679 431.1,128.7679 " fill="none" id="*start*Plant-to-iDMZ_Remote" style="stroke:#181818;stroke-width:1.0;"/><polygon fill="#181818" points="431.36,134.0379,434.9448,124.8646,431.1317,129.0431,426.9532,125.23,431.36,134.0379" style="stroke:#181818;stroke-width:1.0;"/></g><!--MD5=[f905ef1deff6d1584c8659fa8bd696ba]
link iDMZ_Cloud to Control--><g id="link_iDMZ_Cloud_Control"><path d="M313.38,184.1379 C316.27,192.7379 320.03,203.2979 324.44,215.2279 " fill="none" id="iDMZ_Cloud-to-Control" style="stroke:#181818;stroke-width:1.0;"/><polygon fill="#181818" points="326.22,220.0579,326.8315,210.2281,324.4769,215.3716,319.3334,213.017,326.22,220.0579" style="stroke:#181818;stroke-width:1.0;"/></g><!--MD5=[fc7a1b49f91dea58a2873835c5d1cc44]
reverse link iDMZ_Cloud to Control--><g id="link_iDMZ_Cloud_Control"><path d="M323.24,188.8879 C327.35,197.7479 332.05,208.3079 337.15,220.0579 " fill="none" id="iDMZ_Cloud-backto-Control" style="stroke:#181818;stroke-width:1.0;"/><polygon fill="#181818" points="321.03,184.1379,321.2129,193.9851,323.1452,188.6685,328.4618,190.6007,321.03,184.1379" style="stroke:#181818;stroke-width:1.0;"/></g><!--MD5=[b9b617419490cdbe55403f17f2e02ce2]
link iDMZ_Remote to Control--><g id="link_iDMZ_Remote_Control"><path d="M432.5,184.1379 C432.5,192.6579 432.5,203.1079 432.5,214.9179 " fill="none" id="iDMZ_Remote-to-Control" style="stroke:#181818;stroke-width:1.0;"/><polygon fill="#181818" points="432.5,220.0579,436.5,211.0579,432.5,215.0579,428.5,211.0579,432.5,220.0579" style="stroke:#181818;stroke-width:1.0;"/></g><!--MD5=[59846b4451361829c3123fe1984d30cc]
link L4 to iDMZ_4_to_3--><g id="link_L4_iDMZ_4_to_3"><path d="M598.6,98.1379 C613.17,108.4179 630.23,120.4679 645.22,131.0479 " fill="none" id="L4-to-iDMZ_4_to_3" style="stroke:#181818;stroke-width:1.0;"/><polygon fill="#181818" points="649.39,133.9979,644.3463,125.5385,645.306,131.1134,639.7311,132.073,649.39,133.9979" style="stroke:#181818;stroke-width:1.0;"/></g><!--MD5=[8090cd0bb757be7f5642589a597959ef]
link iDMZ_4_to_3 to Control--><g id="link_iDMZ_4_to_3_Control"><path d="M664.01,184.1379 C656.92,192.8879 648.2,203.6679 638.32,215.8679 " fill="none" id="iDMZ_4_to_3-to-Control" style="stroke:#181818;stroke-width:1.0;"/><polygon fill="#181818" points="634.93,220.0579,643.6999,215.5758,638.0743,216.1704,637.4798,210.5448,634.93,220.0579" style="stroke:#181818;stroke-width:1.0;"/></g><!--MD5=[cd3f394cf6f3ce2cd6ad80c238a4012d]
reverse link iDMZ_3_to_4 to Control--><g id="link_iDMZ_3_to_4_Control"><path d="M548.6,188.8879 C544.94,197.7479 540.58,208.3079 535.73,220.0579 " fill="none" id="iDMZ_3_to_4-backto-Control" style="stroke:#181818;stroke-width:1.0;"/><polygon fill="#181818" points="550.56,184.1379,543.4166,190.9182,548.644,188.7563,550.8059,193.9837,550.56,184.1379" style="stroke:#181818;stroke-width:1.0;"/></g><!--MD5=[e5bc00e7e60bcb8beecfdab4b76272a6]
reverse link L4 to iDMZ_3_to_4--><g id="link_L4_iDMZ_3_to_4"><path d="M563.1,103.4479 C562.63,113.3779 562.11,124.3379 561.65,133.8279 " fill="none" id="L4-backto-iDMZ_3_to_4" style="stroke:#181818;stroke-width:1.0;"/><polygon fill="#181818" points="563.34,98.3679,558.932,107.1753,563.111,103.3627,566.9236,107.5417,563.34,98.3679" style="stroke:#181818;stroke-width:1.0;"/></g><!--MD5=[fc632f338f7fb7b34708880a320d2b33]
@startuml
skinparam state {
    BackgroundColor Lightgrey
    BackgroundColor<<Warning>> Yellow
    BorderColor Black
}

state "Physical Plant Perimeter" as Plant {
    state "L4: Plant Business Network(s)" as L4 {
    }

    [*] - -r- -> L4
    [*] -d-> iDMZ_Cloud
    [*] -d-> iDMZ_Remote

    iDMZ_Cloud -d-> Control
    Control -u-> iDMZ_Cloud
    iDMZ_Remote -d-> Control

    L4 -d-> iDMZ_4_to_3
    iDMZ_4_to_3 -d-> Control

    Control -u-> iDMZ_3_to_4
    iDMZ_3_to_4 -u-> L4

    state "Plant Control Networks" as Control <<Warning>> {

        state "L3: Plantwide Supervisory Network(s)" as L3 {
        state switchL3 <<fork>>
        switchL3 - -> Production
        switchL3 - -> Testing
        switchL3 - -> Workstations
        switchL3 - -> CyberSecurity
        switchL3 - -> JumpHosts
        }

        state minor_enforcement <<fork>>
        L3 - -> minor_enforcement
        minor_enforcement - -> P1
        minor_enforcement - -> P2
        minor_enforcement - -> P3
        minor_enforcement - -> P4

        state "Process 1" as P1 {
            state "L2: Local Supervisory" as P1L2
            - -
            state "L1: Local Controllers" as P1L1
            - -
            state "L0: Local Field Devices" as P1L0
        }
        state "Process 2" as P2 {
            state "L2: Local Supervisory" as P2L2
            - -
            state "L1: Local Controllers" as P2L1
            - -
            state "L0: Local Field Devices" as P2L0
        }
        state "Process 3" as P3 {
            state "L2: Local Supervisory" as P3L2
            - -
            state "L1: Local Controllers" as P3L1
            - -
            state "L0: Local Field Devices" as P3L0
        }
        state "Process 4" as P4 {
            state "L2: Local Supervisory" as P4L2
            - -
            state "L1: Local Controllers" as P4L1
            - -
            state "L0: Local Field Devices" as P4L0
        }
    }
}
@enduml

PlantUML version 1.2022.5(Sat Apr 30 04:55:52 MDT 2022)
(LGPL source distribution)
Java Runtime: OpenJDK Runtime Environment
JVM: OpenJDK 64-Bit Server VM
Default Encoding: UTF-8
Language: en
Country: US
--></g></svg>