<?xml version="1.0" encoding="UTF-8" standalone="no"?><svg xmlns="http://www.w3.org/2000/svg" xmlns:xlink="http://www.w3.org/1999/xlink" contentScriptType="application/ecmascript" contentStyleType="text/css" height="767px" preserveAspectRatio="none" style="width:1036px;height:767px;" version="1.1" viewBox="0 0 1036 767" width="1036px" zoomAndPan="magnify"><defs><filter height="300%" id="f70i0jm48zjz6" width="300%" x="-1" y="-1"><feGaussianBlur result="blurOut" stdDeviation="2.0"/><feColorMatrix in="blurOut" result="blurOut2" type="matrix" values="0 0 0 0 0 0 0 0 0 0 0 0 0 0 0 0 0 0 .4 0"/><feOffset dx="4.0" dy="4.0" in="blurOut2" result="blurOut3"/><feBlend in="SourceGraphic" in2="blurOut3" mode="normal"/></filter></defs><g><rect fill="#D3D3D3" filter="url(#f70i0jm48zjz6)" height="748.2969" rx="12.5" ry="12.5" style="stroke: #000000; stroke-width: 1.5;" width="1018" x="6" y="8"/><rect fill="#FFFFFF" height="716" rx="12.5" ry="12.5" style="stroke: #FFFFFF; stroke-width: 1.0;" width="1012" x="9" y="37.2969"/><line style="stroke: #000000; stroke-width: 1.5;" x1="6" x2="1024" y1="34.2969" y2="34.2969"/><text fill="#000000" font-family="sans-serif" font-size="14" lengthAdjust="spacingAndGlyphs" textLength="164" x="433" y="25.9951">Physical Plant Perimeter</text><ellipse cx="499" cy="72.2969" fill="#000000" filter="url(#f70i0jm48zjz6)" rx="10" ry="10" style="stroke: none; stroke-width: 1.0;"/><rect fill="#D3D3D3" filter="url(#f70i0jm48zjz6)" height="50" rx="12.5" ry="12.5" style="stroke: #000000; stroke-width: 1.5;" width="103" x="323.5" y="133.2969"/><line style="stroke: #000000; stroke-width: 1.5;" x1="323.5" x2="426.5" y1="159.5938" y2="159.5938"/><text fill="#000000" font-family="sans-serif" font-size="14" lengthAdjust="spacingAndGlyphs" textLength="83" x="333.5" y="151.292">iDMZ_Cloud</text><rect fill="#D3D3D3" filter="url(#f70i0jm48zjz6)" height="50" rx="12.5" ry="12.5" style="stroke: #000000; stroke-width: 1.5;" width="118" x="445" y="133.2969"/><line style="stroke: #000000; stroke-width: 1.5;" x1="445" x2="563" y1="159.5938" y2="159.5938"/><text fill="#000000" font-family="sans-serif" font-size="14" lengthAdjust="spacingAndGlyphs" textLength="98" x="455" y="151.292">iDMZ_Remote</text><rect fill="#D3D3D3" filter="url(#f70i0jm48zjz6)" height="50" rx="12.5" ry="12.5" style="stroke: #000000; stroke-width: 1.5;" width="109" x="708.5" y="133.2969"/><line style="stroke: #000000; stroke-width: 1.5;" x1="708.5" x2="817.5" y1="159.5938" y2="159.5938"/><text fill="#000000" font-family="sans-serif" font-size="14" lengthAdjust="spacingAndGlyphs" textLength="89" x="718.5" y="151.292">iDMZ_4_to_3</text><rect fill="#D3D3D3" filter="url(#f70i0jm48zjz6)" height="50" rx="12.5" ry="12.5" style="stroke: #000000; stroke-width: 1.5;" width="109" x="581.5" y="133.2969"/><line style="stroke: #000000; stroke-width: 1.5;" x1="581.5" x2="690.5" y1="159.5938" y2="159.5938"/><text fill="#000000" font-family="sans-serif" font-size="14" lengthAdjust="spacingAndGlyphs" textLength="89" x="591.5" y="151.292">iDMZ_3_to_4</text><rect fill="#D3D3D3" filter="url(#f70i0jm48zjz6)" height="50" rx="12.5" ry="12.5" style="stroke: #000000; stroke-width: 1.5;" width="226" x="527" y="47.2969"/><line style="stroke: #000000; stroke-width: 1.5;" x1="527" x2="753" y1="73.5938" y2="73.5938"/><text fill="#000000" font-family="sans-serif" font-size="14" lengthAdjust="spacingAndGlyphs" textLength="206" x="537" y="65.292">L4: Plant Business Network(s)</text><rect fill="#FFFF00" filter="url(#f70i0jm48zjz6)" height="522.2969" rx="12.5" ry="12.5" style="stroke: #000000; stroke-width: 1.5;" width="974" x="17" y="219.2969"/><rect fill="#FFFFFF" height="490" rx="12.5" ry="12.5" style="stroke: #FFFFFF; stroke-width: 1.0;" width="968" x="20" y="248.5938"/><line style="stroke: #000000; stroke-width: 1.5;" x1="17" x2="991" y1="245.5938" y2="245.5938"/><text fill="#000000" font-family="sans-serif" font-size="14" lengthAdjust="spacingAndGlyphs" textLength="157" x="425.5" y="237.292">Plant Control Networks</text><rect fill="#000000" filter="url(#f70i0jm48zjz6)" height="8" style="stroke: none; stroke-width: 1.0;" width="80" x="452.5" y="442.5938"/><rect fill="#D3D3D3" filter="url(#f70i0jm48zjz6)" height="148.2969" rx="12.5" ry="12.5" style="stroke: #000000; stroke-width: 1.5;" width="604" x="190.5" y="258.5938"/><rect fill="#FFFFFF" height="116" rx="12.5" ry="12.5" style="stroke: #FFFFFF; stroke-width: 1.0;" width="598" x="193.5" y="287.8906"/><line style="stroke: #000000; stroke-width: 1.5;" x1="190.5" x2="794.5" y1="284.8906" y2="284.8906"/><text fill="#000000" font-family="sans-serif" font-size="14" lengthAdjust="spacingAndGlyphs" textLength="254" x="365.5" y="276.5889">L3: Plantwide Supervisory Network(s)</text><rect fill="#000000" filter="url(#f70i0jm48zjz6)" height="8" style="stroke: none; stroke-width: 1.0;" width="80" x="420" y="297.8906"/><rect fill="#D3D3D3" filter="url(#f70i0jm48zjz6)" height="50" rx="12.5" ry="12.5" style="stroke: #000000; stroke-width: 1.5;" width="95" x="201.5" y="341.8906"/><line style="stroke: #000000; stroke-width: 1.5;" x1="201.5" x2="296.5" y1="368.1875" y2="368.1875"/><text fill="#000000" font-family="sans-serif" font-size="14" lengthAdjust="spacingAndGlyphs" textLength="75" x="211.5" y="359.8857">Production</text><rect fill="#D3D3D3" filter="url(#f70i0jm48zjz6)" height="50" rx="12.5" ry="12.5" style="stroke: #000000; stroke-width: 1.5;" width="72" x="315" y="341.8906"/><line style="stroke: #000000; stroke-width: 1.5;" x1="315" x2="387" y1="368.1875" y2="368.1875"/><text fill="#000000" font-family="sans-serif" font-size="14" lengthAdjust="spacingAndGlyphs" textLength="52" x="325" y="359.8857">Testing</text><rect fill="#D3D3D3" filter="url(#f70i0jm48zjz6)" height="50" rx="12.5" ry="12.5" style="stroke: #000000; stroke-width: 1.5;" width="110" x="405" y="341.8906"/><line style="stroke: #000000; stroke-width: 1.5;" x1="405" x2="515" y1="368.1875" y2="368.1875"/><text fill="#000000" font-family="sans-serif" font-size="14" lengthAdjust="spacingAndGlyphs" textLength="90" x="415" y="359.8857">Workstations</text><rect fill="#D3D3D3" filter="url(#f70i0jm48zjz6)" height="50" rx="12.5" ry="12.5" style="stroke: #000000; stroke-width: 1.5;" width="115" x="533.5" y="341.8906"/><line style="stroke: #000000; stroke-width: 1.5;" x1="533.5" x2="648.5" y1="368.1875" y2="368.1875"/><text fill="#000000" font-family="sans-serif" font-size="14" lengthAdjust="spacingAndGlyphs" textLength="95" x="543.5" y="359.8857">CyberSecurity</text><rect fill="#D3D3D3" filter="url(#f70i0jm48zjz6)" height="50" rx="12.5" ry="12.5" style="stroke: #000000; stroke-width: 1.5;" width="94" x="667" y="341.8906"/><line style="stroke: #000000; stroke-width: 1.5;" x1="667" x2="761" y1="368.1875" y2="368.1875"/><text fill="#000000" font-family="sans-serif" font-size="14" lengthAdjust="spacingAndGlyphs" textLength="74" x="677" y="359.8857">JumpHosts</text><!--MD5=[9b287f964328e9c3a6875e2496ba9f7f]
link switchL3 to Production--><path d="M444.92,305.9206 C417.09,311.6806 355.95,325.1606 306,341.8906 C304.57,342.3706 303.12,342.8706 301.67,343.3806 " fill="none" id="switchL3-&gt;Production" style="stroke: #A80036; stroke-width: 1.0;"/><polygon fill="#A80036" points="296.69,345.1906,306.5158,345.8645,301.3873,343.4773,303.7745,338.3488,296.69,345.1906" style="stroke: #A80036; stroke-width: 1.0;"/><!--MD5=[83f90925fa4ff50882f01ba05b71804a]
link switchL3 to Testing--><path d="M454.74,305.9306 C443.37,312.5006 415.59,328.5606 391.63,342.4006 " fill="none" id="switchL3-&gt;Testing" style="stroke: #A80036; stroke-width: 1.0;"/><polygon fill="#A80036" points="387.21,344.9606,397.0041,343.9232,391.5397,342.46,393.003,336.9956,387.21,344.9606" style="stroke: #A80036; stroke-width: 1.0;"/><!--MD5=[87b4544c41d13abc537b173c37b2ea5f]
link switchL3 to Workstations--><path d="M460,305.9306 C460,311.6106 460,324.3706 460,336.6606 " fill="none" id="switchL3-&gt;Workstations" style="stroke: #A80036; stroke-width: 1.0;"/><polygon fill="#A80036" points="460,341.8806,464,332.8806,460,336.8806,456,332.8806,460,341.8806" style="stroke: #A80036; stroke-width: 1.0;"/><!--MD5=[00c12ff8f96b55b3cfcc4023a891857f]
link switchL3 to CyberSecurity--><path d="M466.32,305.9306 C479.07,312.0606 509.02,326.4606 536.36,339.6106 " fill="none" id="switchL3-&gt;CyberSecurity" style="stroke: #A80036; stroke-width: 1.0;"/><polygon fill="#A80036" points="541.08,341.8806,534.7127,334.3668,536.5769,339.7077,531.236,341.5718,541.08,341.8806" style="stroke: #A80036; stroke-width: 1.0;"/><!--MD5=[c6b2e06242b27dcb918d8a7dce7fd108]
link switchL3 to JumpHosts--><path d="M483.56,305.8906 C521.07,311.0406 596.41,322.8606 658,341.8906 C659.37,342.3106 660.76,342.7606 662.15,343.2306 " fill="none" id="switchL3-&gt;JumpHosts" style="stroke: #A80036; stroke-width: 1.0;"/><polygon fill="#A80036" points="666.91,344.8806,659.7276,338.1417,662.1885,343.2352,657.095,345.6962,666.91,344.8806" style="stroke: #A80036; stroke-width: 1.0;"/><rect fill="#D3D3D3" filter="url(#f70i0jm48zjz6)" height="240.2969" rx="12.5" ry="12.5" style="stroke: #000000; stroke-width: 1.5;" width="219" x="28" y="486.5938"/><rect fill="#FFFFFF" height="208" rx="12.5" ry="12.5" style="stroke: #FFFFFF; stroke-width: 1.0;" width="213" x="31" y="515.8906"/><line style="stroke: #000000; stroke-width: 1.5;" x1="28" x2="247" y1="512.8906" y2="512.8906"/><text fill="#000000" font-family="sans-serif" font-size="14" lengthAdjust="spacingAndGlyphs" textLength="69" x="103" y="504.5889">Process 1</text><rect fill="#D3D3D3" filter="url(#f70i0jm48zjz6)" height="50" rx="12.5" ry="12.5" style="stroke: #000000; stroke-width: 1.5;" width="164" x="39" y="525.8906"/><line style="stroke: #000000; stroke-width: 1.5;" x1="39" x2="203" y1="552.1875" y2="552.1875"/><text fill="#000000" font-family="sans-serif" font-size="14" lengthAdjust="spacingAndGlyphs" textLength="144" x="49" y="543.8857">L2: Local Supervisory</text><line style="stroke: #000000; stroke-width: 1.5; stroke-dasharray: 8.0,10.0;" x1="33" x2="240" y1="585.8906" y2="585.8906"/><rect fill="#D3D3D3" filter="url(#f70i0jm48zjz6)" height="50" rx="12.5" ry="12.5" style="stroke: #000000; stroke-width: 1.5;" width="159" x="39" y="593.8906"/><line style="stroke: #000000; stroke-width: 1.5;" x1="39" x2="198" y1="620.1875" y2="620.1875"/><text fill="#000000" font-family="sans-serif" font-size="14" lengthAdjust="spacingAndGlyphs" textLength="139" x="49" y="611.8857">L1: Local Controllers</text><line style="stroke: #000000; stroke-width: 1.5; stroke-dasharray: 8.0,10.0;" x1="33" x2="240" y1="653.8906" y2="653.8906"/><rect fill="#D3D3D3" filter="url(#f70i0jm48zjz6)" height="50" rx="12.5" ry="12.5" style="stroke: #000000; stroke-width: 1.5;" width="175" x="39" y="661.8906"/><line style="stroke: #000000; stroke-width: 1.5;" x1="39" x2="214" y1="688.1875" y2="688.1875"/><text fill="#000000" font-family="sans-serif" font-size="14" lengthAdjust="spacingAndGlyphs" textLength="155" x="49" y="679.8857">L0: Local Field Devices</text><rect fill="#D3D3D3" filter="url(#f70i0jm48zjz6)" height="240.2969" rx="12.5" ry="12.5" style="stroke: #000000; stroke-width: 1.5;" width="219" x="265" y="486.5938"/><rect fill="#FFFFFF" height="208" rx="12.5" ry="12.5" style="stroke: #FFFFFF; stroke-width: 1.0;" width="213" x="268" y="515.8906"/><line style="stroke: #000000; stroke-width: 1.5;" x1="265" x2="484" y1="512.8906" y2="512.8906"/><text fill="#000000" font-family="sans-serif" font-size="14" lengthAdjust="spacingAndGlyphs" textLength="69" x="340" y="504.5889">Process 2</text><rect fill="#D3D3D3" filter="url(#f70i0jm48zjz6)" height="50" rx="12.5" ry="12.5" style="stroke: #000000; stroke-width: 1.5;" width="164" x="276" y="525.8906"/><line style="stroke: #000000; stroke-width: 1.5;" x1="276" x2="440" y1="552.1875" y2="552.1875"/><text fill="#000000" font-family="sans-serif" font-size="14" lengthAdjust="spacingAndGlyphs" textLength="144" x="286" y="543.8857">L2: Local Supervisory</text><line style="stroke: #000000; stroke-width: 1.5; stroke-dasharray: 8.0,10.0;" x1="270" x2="477" y1="585.8906" y2="585.8906"/><rect fill="#D3D3D3" filter="url(#f70i0jm48zjz6)" height="50" rx="12.5" ry="12.5" style="stroke: #000000; stroke-width: 1.5;" width="159" x="276" y="593.8906"/><line style="stroke: #000000; stroke-width: 1.5;" x1="276" x2="435" y1="620.1875" y2="620.1875"/><text fill="#000000" font-family="sans-serif" font-size="14" lengthAdjust="spacingAndGlyphs" textLength="139" x="286" y="611.8857">L1: Local Controllers</text><line style="stroke: #000000; stroke-width: 1.5; stroke-dasharray: 8.0,10.0;" x1="270" x2="477" y1="653.8906" y2="653.8906"/><rect fill="#D3D3D3" filter="url(#f70i0jm48zjz6)" height="50" rx="12.5" ry="12.5" style="stroke: #000000; stroke-width: 1.5;" width="175" x="276" y="661.8906"/><line style="stroke: #000000; stroke-width: 1.5;" x1="276" x2="451" y1="688.1875" y2="688.1875"/><text fill="#000000" font-family="sans-serif" font-size="14" lengthAdjust="spacingAndGlyphs" textLength="155" x="286" y="679.8857">L0: Local Field Devices</text><rect fill="#D3D3D3" filter="url(#f70i0jm48zjz6)" height="240.2969" rx="12.5" ry="12.5" style="stroke: #000000; stroke-width: 1.5;" width="219" x="502" y="486.5938"/><rect fill="#FFFFFF" height="208" rx="12.5" ry="12.5" style="stroke: #FFFFFF; stroke-width: 1.0;" width="213" x="505" y="515.8906"/><line style="stroke: #000000; stroke-width: 1.5;" x1="502" x2="721" y1="512.8906" y2="512.8906"/><text fill="#000000" font-family="sans-serif" font-size="14" lengthAdjust="spacingAndGlyphs" textLength="69" x="577" y="504.5889">Process 3</text><rect fill="#D3D3D3" filter="url(#f70i0jm48zjz6)" height="50" rx="12.5" ry="12.5" style="stroke: #000000; stroke-width: 1.5;" width="164" x="513" y="525.8906"/><line style="stroke: #000000; stroke-width: 1.5;" x1="513" x2="677" y1="552.1875" y2="552.1875"/><text fill="#000000" font-family="sans-serif" font-size="14" lengthAdjust="spacingAndGlyphs" textLength="144" x="523" y="543.8857">L2: Local Supervisory</text><line style="stroke: #000000; stroke-width: 1.5; stroke-dasharray: 8.0,10.0;" x1="507" x2="714" y1="585.8906" y2="585.8906"/><rect fill="#D3D3D3" filter="url(#f70i0jm48zjz6)" height="50" rx="12.5" ry="12.5" style="stroke: #000000; stroke-width: 1.5;" width="159" x="513" y="593.8906"/><line style="stroke: #000000; stroke-width: 1.5;" x1="513" x2="672" y1="620.1875" y2="620.1875"/><text fill="#000000" font-family="sans-serif" font-size="14" lengthAdjust="spacingAndGlyphs" textLength="139" x="523" y="611.8857">L1: Local Controllers</text><line style="stroke: #000000; stroke-width: 1.5; stroke-dasharray: 8.0,10.0;" x1="507" x2="714" y1="653.8906" y2="653.8906"/><rect fill="#D3D3D3" filter="url(#f70i0jm48zjz6)" height="50" rx="12.5" ry="12.5" style="stroke: #000000; stroke-width: 1.5;" width="175" x="513" y="661.8906"/><line style="stroke: #000000; stroke-width: 1.5;" x1="513" x2="688" y1="688.1875" y2="688.1875"/><text fill="#000000" font-family="sans-serif" font-size="14" lengthAdjust="spacingAndGlyphs" textLength="155" x="523" y="679.8857">L0: Local Field Devices</text><rect fill="#D3D3D3" filter="url(#f70i0jm48zjz6)" height="240.2969" rx="12.5" ry="12.5" style="stroke: #000000; stroke-width: 1.5;" width="219" x="739" y="486.5938"/><rect fill="#FFFFFF" height="208" rx="12.5" ry="12.5" style="stroke: #FFFFFF; stroke-width: 1.0;" width="213" x="742" y="515.8906"/><line style="stroke: #000000; stroke-width: 1.5;" x1="739" x2="958" y1="512.8906" y2="512.8906"/><text fill="#000000" font-family="sans-serif" font-size="14" lengthAdjust="spacingAndGlyphs" textLength="69" x="814" y="504.5889">Process 4</text><rect fill="#D3D3D3" filter="url(#f70i0jm48zjz6)" height="50" rx="12.5" ry="12.5" style="stroke: #000000; stroke-width: 1.5;" width="164" x="750" y="525.8906"/><line style="stroke: #000000; stroke-width: 1.5;" x1="750" x2="914" y1="552.1875" y2="552.1875"/><text fill="#000000" font-family="sans-serif" font-size="14" lengthAdjust="spacingAndGlyphs" textLength="144" x="760" y="543.8857">L2: Local Supervisory</text><line style="stroke: #000000; stroke-width: 1.5; stroke-dasharray: 8.0,10.0;" x1="744" x2="951" y1="585.8906" y2="585.8906"/><rect fill="#D3D3D3" filter="url(#f70i0jm48zjz6)" height="50" rx="12.5" ry="12.5" style="stroke: #000000; stroke-width: 1.5;" width="159" x="750" y="593.8906"/><line style="stroke: #000000; stroke-width: 1.5;" x1="750" x2="909" y1="620.1875" y2="620.1875"/><text fill="#000000" font-family="sans-serif" font-size="14" lengthAdjust="spacingAndGlyphs" textLength="139" x="760" y="611.8857">L1: Local Controllers</text><line style="stroke: #000000; stroke-width: 1.5; stroke-dasharray: 8.0,10.0;" x1="744" x2="951" y1="653.8906" y2="653.8906"/><rect fill="#D3D3D3" filter="url(#f70i0jm48zjz6)" height="50" rx="12.5" ry="12.5" style="stroke: #000000; stroke-width: 1.5;" width="175" x="750" y="661.8906"/><line style="stroke: #000000; stroke-width: 1.5;" x1="750" x2="925" y1="688.1875" y2="688.1875"/><text fill="#000000" font-family="sans-serif" font-size="14" lengthAdjust="spacingAndGlyphs" textLength="155" x="760" y="679.8857">L0: Local Field Devices</text><!--MD5=[d833917827be79acb3f7ca0660acf8c3]
link L3 to minor_enforcement--><path d="M492.5,406.7338 C492.5,418.9438 492.5,429.9438 492.5,437.0938 " fill="none" id="L3-&gt;minor_enforcement" style="stroke: #A80036; stroke-width: 1.0;"/><polygon fill="#A80036" points="492.5,442.5138,496.5,433.5138,492.5,437.5138,488.5,433.5138,492.5,442.5138" style="stroke: #A80036; stroke-width: 1.0;"/><!--MD5=[091eeb670fe17b074b939bbcb1bf36af]
link minor_enforcement to P1--><path d="M452.42,446.8238 C403.33,447.4838 318.87,453.8938 255.5,486.5938 C254.17,487.2838 252.84,487.9938 251.52,488.7138 " fill="none" id="minor_enforcement-&gt;P1" style="stroke: #A80036; stroke-width: 1.0;"/><polygon fill="#A80036" points="247.05,491.2637,256.8505,490.2888,251.3956,488.7908,252.8937,483.3359,247.05,491.2637" style="stroke: #A80036; stroke-width: 1.0;"/><!--MD5=[cdcf216b37a601e701df6cc1b7cfc79f]
link minor_enforcement to P2--><path d="M490.25,450.6138 C486.35,455.8338 477.69,467.4338 466.77,482.0438 " fill="none" id="minor_enforcement-&gt;P2" style="stroke: #A80036; stroke-width: 1.0;"/><polygon fill="#A80036" points="463.63,486.2438,472.2218,481.429,466.6232,482.2386,465.8136,476.64,463.63,486.2438" style="stroke: #A80036; stroke-width: 1.0;"/><!--MD5=[951b938a67d53d50d8bab9debc19d6c5]
link minor_enforcement to P3--><path d="M494.77,450.6138 C498.71,455.8338 507.44,467.4338 518.45,482.0438 " fill="none" id="minor_enforcement-&gt;P3" style="stroke: #A80036; stroke-width: 1.0;"/><polygon fill="#A80036" points="521.61,486.2438,519.3935,476.6475,518.6031,482.2489,513.0018,481.4585,521.61,486.2438" style="stroke: #A80036; stroke-width: 1.0;"/><!--MD5=[e2ce359dfac9d85d565828e248582d08]
link minor_enforcement to P4--><path d="M532.74,446.7838 C582.05,447.4038 666.86,453.7838 730.5,486.5938 C731.83,487.2838 733.16,487.9938 734.48,488.7138 " fill="none" id="minor_enforcement-&gt;P4" style="stroke: #A80036; stroke-width: 1.0;"/><polygon fill="#A80036" points="738.95,491.2637,733.1063,483.3359,734.6044,488.7908,729.1495,490.2888,738.95,491.2637" style="stroke: #A80036; stroke-width: 1.0;"/><!--MD5=[665fe05c404dbbfa63805966b0cadfec]
link *start*Plant to L4--><path d="M509.19,72.2969 C513.32,72.2969 517.45,72.2969 521.58,72.2969 " fill="none" id="*start*Plant-&gt;L4" style="stroke: #A80036; stroke-width: 1.0;"/><polygon fill="#A80036" points="526.82,72.2969,517.82,68.2969,521.82,72.2969,517.82,76.2969,526.82,72.2969" style="stroke: #A80036; stroke-width: 1.0;"/><!--MD5=[3a984c8d471d53c0b263c8b4b9c8257b]
link *start*Plant to iDMZ_Cloud--><path d="M490.86,78.8069 C475.67,89.0969 442.08,111.8569 414.96,130.2269 " fill="none" id="*start*Plant-&gt;iDMZ_Cloud" style="stroke: #A80036; stroke-width: 1.0;"/><polygon fill="#A80036" points="410.67,133.1369,420.3665,131.4113,414.8126,130.3371,415.8868,124.7831,410.67,133.1369" style="stroke: #A80036; stroke-width: 1.0;"/><!--MD5=[3bdd79544a924deda6949af23ebc586b]
link *start*Plant to iDMZ_Remote--><path d="M499.54,82.2869 C500.18,93.0869 501.29,111.7469 502.24,127.7569 " fill="none" id="*start*Plant-&gt;iDMZ_Remote" style="stroke: #A80036; stroke-width: 1.0;"/><polygon fill="#A80036" points="502.56,133.0669,506.0138,123.8435,502.2605,128.0759,498.0282,124.3226,502.56,133.0669" style="stroke: #A80036; stroke-width: 1.0;"/><!--MD5=[f905ef1deff6d1584c8659fa8bd696ba]
link iDMZ_Cloud to Control--><path d="M380.92,183.3469 C383.81,191.9469 387.58,202.5069 391.99,214.4669 " fill="none" id="iDMZ_Cloud-&gt;Control" style="stroke: #A80036; stroke-width: 1.0;"/><polygon fill="#A80036" points="393.78,219.2969,394.4013,209.4676,392.0416,214.6088,386.9004,212.2491,393.78,219.2969" style="stroke: #A80036; stroke-width: 1.0;"/><!--MD5=[fc7a1b49f91dea58a2873835c5d1cc44]
reverse link iDMZ_Cloud to Control--><path d="M390.68,188.0969 C394.77,196.9569 399.48,207.5269 404.59,219.2969 " fill="none" id="iDMZ_Cloud&lt;-Control" style="stroke: #A80036; stroke-width: 1.0;"/><polygon fill="#A80036" points="388.47,183.3469,388.6156,193.1947,390.568,187.8854,395.8772,189.8378,388.47,183.3469" style="stroke: #A80036; stroke-width: 1.0;"/><!--MD5=[b9b617419490cdbe55403f17f2e02ce2]
link iDMZ_Remote to Control--><path d="M504,183.3469 C504,191.8669 504,202.3169 504,214.1469 " fill="none" id="iDMZ_Remote-&gt;Control" style="stroke: #A80036; stroke-width: 1.0;"/><polygon fill="#A80036" points="504,219.2969,508,210.2969,504,214.2969,500,210.2969,504,219.2969" style="stroke: #A80036; stroke-width: 1.0;"/><!--MD5=[59846b4451361829c3123fe1984d30cc]
link L4 to iDMZ_4_to_3--><path d="M675.25,97.3669 C690.3,107.6469 707.94,119.6969 723.44,130.2769 " fill="none" id="L4-&gt;iDMZ_4_to_3" style="stroke: #A80036; stroke-width: 1.0;"/><polygon fill="#A80036" points="727.75,133.2269,722.5862,124.8403,723.6252,130.4009,718.0646,131.4399,727.75,133.2269" style="stroke: #A80036; stroke-width: 1.0;"/><!--MD5=[8090cd0bb757be7f5642589a597959ef]
link iDMZ_4_to_3 to Control--><path d="M743.53,183.3469 C736.45,192.0969 727.72,202.8769 717.84,215.0969 " fill="none" id="iDMZ_4_to_3-&gt;Control" style="stroke: #A80036; stroke-width: 1.0;"/><polygon fill="#A80036" points="714.44,219.2969,723.2099,214.8148,717.5843,215.4093,716.9898,209.7838,714.44,219.2969" style="stroke: #A80036; stroke-width: 1.0;"/><!--MD5=[cd3f394cf6f3ce2cd6ad80c238a4012d]
reverse link iDMZ_3_to_4 to Control--><path d="M624.12,188.0969 C620.46,196.9569 616.11,207.5269 611.25,219.2969 " fill="none" id="iDMZ_3_to_4&lt;-Control" style="stroke: #A80036; stroke-width: 1.0;"/><polygon fill="#A80036" points="626.08,183.3469,618.9619,190.1537,624.1813,187.9723,626.3627,193.1917,626.08,183.3469" style="stroke: #A80036; stroke-width: 1.0;"/><!--MD5=[e5bc00e7e60bcb8beecfdab4b76272a6]
reverse link L4 to iDMZ_3_to_4--><path d="M638.6,102.6769 C638.13,112.6069 637.61,123.5669 637.15,133.0569 " fill="none" id="L4&lt;-iDMZ_3_to_4" style="stroke: #A80036; stroke-width: 1.0;"/><polygon fill="#A80036" points="638.84,97.5969,634.432,106.4042,638.611,102.5916,642.4236,106.7706,638.84,97.5969" style="stroke: #A80036; stroke-width: 1.0;"/><!--MD5=[3842ed2b7e486d9f801e2eec3cca429c]
@startuml
skinparam state {
    BackgroundColor Lightgrey
    BackgroundColor<<Warning>> Yellow
    BorderColor Black
}

state "Physical Plant Perimeter" as Plant {
    state "L4: Plant Business Network(s)" as L4 {
    }

    [*] - -r- -> L4
    [*] -d-> iDMZ_Cloud
    [*] -d-> iDMZ_Remote

    iDMZ_Cloud -d-> Control
    Control -u-> iDMZ_Cloud
    iDMZ_Remote -d-> Control

    L4 -d-> iDMZ_4_to_3
    iDMZ_4_to_3 -d-> Control

    Control -u-> iDMZ_3_to_4
    iDMZ_3_to_4 -u-> L4

    state "Plant Control Networks" as Control <<Warning>> {

        state "L3: Plantwide Supervisory Network(s)" as L3 {
        state switchL3 <<fork>>
        switchL3 - -> Production
        switchL3 - -> Testing
        switchL3 - -> Workstations
        switchL3 - -> CyberSecurity
        switchL3 - -> JumpHosts
        }

        state minor_enforcement <<fork>>
        L3 - -> minor_enforcement
        minor_enforcement - -> P1
        minor_enforcement - -> P2
        minor_enforcement - -> P3
        minor_enforcement - -> P4

        state "Process 1" as P1 {
            state "L2: Local Supervisory" as P1L2
            - -
            state "L1: Local Controllers" as P1L1
            - -
            state "L0: Local Field Devices" as P1L0
        }
        state "Process 2" as P2 {
            state "L2: Local Supervisory" as P2L2
            - -
            state "L1: Local Controllers" as P2L1
            - -
            state "L0: Local Field Devices" as P2L0
        }
        state "Process 3" as P3 {
            state "L2: Local Supervisory" as P3L2
            - -
            state "L1: Local Controllers" as P3L1
            - -
            state "L0: Local Field Devices" as P3L0
        }
        state "Process 4" as P4 {
            state "L2: Local Supervisory" as P4L2
            - -
            state "L1: Local Controllers" as P4L1
            - -
            state "L0: Local Field Devices" as P4L0
        }
    }
}
@enduml

PlantUML version 1.2020.02(Sun Mar 01 03:22:07 MST 2020)
(GPL source distribution)
Java Runtime: OpenJDK Runtime Environment
JVM: OpenJDK 64-Bit Server VM
Java Version: 11.0.12+7-post-Debian-2
Operating System: Linux
Default Encoding: UTF-8
Language: en
Country: US
--></g></svg>